<svg width="448" height="383" viewBox="0 0 448 383" fill="none" xmlns="http://www.w3.org/2000/svg">
<rect width="448" height="383" rx="16" fill="#1A71FF"/>
<path d="M70 40C70 35.5817 73.5817 32 78 32H370C374.418 32 378 35.5817 378 40V343C378 347.418 374.418 351 370 351H78C73.5817 351 70 347.418 70 343V40Z" fill="white"/>
<line x1="70" y1="165.5" x2="378" y2="165.5" stroke="#8AB5FF" stroke-dasharray="4 4"/>
<path d="M89 287C89 282.582 92.5817 279 97 279H351C355.418 279 359 282.582 359 287V319C359 323.418 355.418 327 351 327H97C92.5817 327 89 323.418 89 319V287Z" fill="#1A71FF"/>
<path d="M187.089 300.562H189.117C189.077 298.597 187.401 297.205 184.924 297.205C182.481 297.205 180.646 298.58 180.651 300.636C180.651 302.307 181.839 303.267 183.754 303.761L185.077 304.102C186.333 304.42 187.163 304.812 187.168 305.716C187.163 306.71 186.219 307.375 184.844 307.375C183.526 307.375 182.504 306.784 182.418 305.562H180.344C180.43 307.875 182.151 309.176 184.862 309.176C187.651 309.176 189.271 307.784 189.276 305.733C189.271 303.716 187.606 302.795 185.856 302.381L184.765 302.108C183.81 301.881 182.776 301.477 182.788 300.506C182.793 299.631 183.577 298.989 184.896 298.989C186.151 298.989 186.981 299.574 187.089 300.562ZM194.928 309.17C196.962 309.17 198.36 308.176 198.724 306.659L196.803 306.443C196.525 307.182 195.843 307.568 194.957 307.568C193.627 307.568 192.746 306.693 192.729 305.199H198.809V304.568C198.809 301.506 196.968 300.159 194.82 300.159C192.32 300.159 190.69 301.994 190.69 304.688C190.69 307.426 192.298 309.17 194.928 309.17ZM192.735 303.812C192.798 302.699 193.621 301.761 194.849 301.761C196.031 301.761 196.826 302.625 196.837 303.812H192.735ZM204.907 300.273H203.185V298.182H201.129V300.273H199.89V301.864H201.129V306.716C201.117 308.358 202.31 309.165 203.856 309.119C204.441 309.102 204.844 308.989 205.066 308.915L204.719 307.307C204.606 307.335 204.373 307.386 204.117 307.386C203.6 307.386 203.185 307.205 203.185 306.375V301.864H204.907V300.273ZM213.107 309.176C214.477 309.176 215.295 308.534 215.67 307.801H215.738V309H217.715V303.159C217.715 300.852 215.835 300.159 214.17 300.159C212.335 300.159 210.925 300.977 210.471 302.568L212.391 302.841C212.596 302.244 213.175 301.733 214.181 301.733C215.136 301.733 215.658 302.222 215.658 303.08V303.114C215.658 303.705 215.039 303.733 213.499 303.898C211.806 304.08 210.187 304.585 210.187 306.551C210.187 308.267 211.442 309.176 213.107 309.176ZM213.641 307.665C212.783 307.665 212.17 307.273 212.17 306.517C212.17 305.727 212.857 305.398 213.778 305.267C214.317 305.193 215.397 305.057 215.664 304.841V305.869C215.664 306.841 214.88 307.665 213.641 307.665ZM219.783 309H221.84V303.693C221.84 302.619 222.556 301.892 223.442 301.892C224.312 301.892 224.908 302.477 224.908 303.375V309H226.925V303.557C226.925 302.574 227.511 301.892 228.505 301.892C229.335 301.892 229.994 302.381 229.994 303.46V309H232.056V303.142C232.056 301.193 230.931 300.159 229.329 300.159C228.062 300.159 227.096 300.784 226.71 301.756H226.619C226.283 300.767 225.437 300.159 224.261 300.159C223.09 300.159 222.215 300.761 221.852 301.756H221.749V300.273H219.783V309ZM237.95 309.17C240.506 309.17 242.131 307.369 242.131 304.67C242.131 301.966 240.506 300.159 237.95 300.159C235.393 300.159 233.768 301.966 233.768 304.67C233.768 307.369 235.393 309.17 237.95 309.17ZM237.961 307.523C236.546 307.523 235.853 306.261 235.853 304.665C235.853 303.068 236.546 301.79 237.961 301.79C239.353 301.79 240.046 303.068 240.046 304.665C240.046 306.261 239.353 307.523 237.961 307.523ZM249.44 305.33C249.44 306.659 248.491 307.318 247.582 307.318C246.593 307.318 245.934 306.619 245.934 305.511V300.273H243.877V305.83C243.877 307.926 245.07 309.114 246.786 309.114C248.093 309.114 249.013 308.426 249.411 307.449H249.502V309H251.496V300.273H249.44V305.33ZM255.668 303.886C255.668 302.625 256.43 301.898 257.515 301.898C258.577 301.898 259.214 302.597 259.214 303.761V309H261.271V303.443C261.276 301.352 260.083 300.159 258.282 300.159C256.975 300.159 256.077 300.784 255.68 301.756H255.577V300.273H253.612V309H255.668V303.886ZM267.719 300.273H265.998V298.182H263.941V300.273H262.702V301.864H263.941V306.716C263.93 308.358 265.123 309.165 266.668 309.119C267.254 309.102 267.657 308.989 267.879 308.915L267.532 307.307C267.418 307.335 267.185 307.386 266.93 307.386C266.413 307.386 265.998 307.205 265.998 306.375V301.864H267.719V300.273Z" fill="white"/>
<path d="M186.742 252.42H188.435C188.384 250.557 186.737 249.205 184.373 249.205C182.038 249.205 180.248 250.54 180.248 252.545C180.248 254.165 181.407 255.114 183.276 255.619L184.651 255.994C185.896 256.324 186.856 256.733 186.856 257.767C186.856 258.903 185.771 259.653 184.276 259.653C182.924 259.653 181.799 259.051 181.697 257.784H179.935C180.049 259.892 181.68 261.193 184.288 261.193C187.021 261.193 188.594 259.756 188.594 257.784C188.594 255.688 186.725 254.875 185.248 254.511L184.112 254.216C183.202 253.983 181.992 253.557 181.998 252.443C181.998 251.455 182.901 250.722 184.333 250.722C185.668 250.722 186.617 251.347 186.742 252.42ZM194.232 261.176C196.295 261.176 197.63 259.938 197.817 258.239H196.164C195.948 259.182 195.215 259.739 194.244 259.739C192.806 259.739 191.88 258.54 191.88 256.636C191.88 254.767 192.823 253.591 194.244 253.591C195.323 253.591 195.982 254.273 196.164 255.091H197.817C197.636 253.33 196.198 252.159 194.215 252.159C191.755 252.159 190.164 254.011 190.164 256.676C190.164 259.307 191.698 261.176 194.232 261.176ZM202.174 261.193C203.617 261.193 204.43 260.46 204.754 259.807H204.822V261H206.481V255.205C206.481 252.665 204.481 252.159 203.094 252.159C201.515 252.159 200.06 252.795 199.492 254.386L201.089 254.75C201.339 254.131 201.975 253.534 203.117 253.534C204.214 253.534 204.776 254.108 204.776 255.097V255.136C204.776 255.756 204.14 255.744 202.572 255.926C200.918 256.119 199.225 256.551 199.225 258.534C199.225 260.25 200.515 261.193 202.174 261.193ZM202.543 259.83C201.583 259.83 200.89 259.398 200.89 258.557C200.89 257.648 201.697 257.324 202.68 257.193C203.231 257.119 204.538 256.972 204.782 256.727V257.852C204.782 258.886 203.958 259.83 202.543 259.83ZM210.442 255.818C210.442 254.426 211.295 253.631 212.477 253.631C213.63 253.631 214.329 254.386 214.329 255.653V261H216.028V255.449C216.028 253.29 214.84 252.159 213.056 252.159C211.744 252.159 210.886 252.767 210.482 253.693H210.374V252.273H208.744V261H210.442V255.818ZM226.614 252.273H224.825V250.182H223.126V252.273H221.847V253.636H223.126V258.79C223.12 260.375 224.33 261.142 225.671 261.114C226.211 261.108 226.575 261.006 226.773 260.932L226.467 259.528C226.353 259.551 226.143 259.602 225.87 259.602C225.319 259.602 224.825 259.42 224.825 258.438V253.636H226.614V252.273ZM232.076 261.176C234.536 261.176 236.144 259.375 236.144 256.676C236.144 253.96 234.536 252.159 232.076 252.159C229.616 252.159 228.008 253.96 228.008 256.676C228.008 259.375 229.616 261.176 232.076 261.176ZM232.082 259.75C230.474 259.75 229.724 258.347 229.724 256.67C229.724 255 230.474 253.58 232.082 253.58C233.678 253.58 234.428 255 234.428 256.67C234.428 258.347 233.678 259.75 232.082 259.75ZM242.275 264.273H243.974V259.642H244.076C244.383 260.199 245.008 261.17 246.599 261.17C248.712 261.17 250.246 259.477 250.246 256.653C250.246 253.824 248.69 252.159 246.582 252.159C244.962 252.159 244.377 253.148 244.076 253.688H243.934V252.273H242.275V264.273ZM243.94 256.636C243.94 254.812 244.735 253.602 246.218 253.602C247.758 253.602 248.531 254.903 248.531 256.636C248.531 258.386 247.735 259.722 246.218 259.722C244.758 259.722 243.94 258.472 243.94 256.636ZM254.69 261.193C256.133 261.193 256.945 260.46 257.269 259.807H257.337V261H258.996V255.205C258.996 252.665 256.996 252.159 255.61 252.159C254.031 252.159 252.576 252.795 252.008 254.386L253.604 254.75C253.854 254.131 254.491 253.534 255.633 253.534C256.729 253.534 257.292 254.108 257.292 255.097V255.136C257.292 255.756 256.656 255.744 255.087 255.926C253.434 256.119 251.741 256.551 251.741 258.534C251.741 260.25 253.031 261.193 254.69 261.193ZM255.059 259.83C254.099 259.83 253.406 259.398 253.406 258.557C253.406 257.648 254.212 257.324 255.195 257.193C255.746 257.119 257.053 256.972 257.298 256.727V257.852C257.298 258.886 256.474 259.83 255.059 259.83ZM262.021 264.273C263.424 264.273 264.31 263.54 264.816 262.165L268.424 252.29L266.589 252.273L264.379 259.045H264.288L262.077 252.273H260.259L263.452 261.114L263.242 261.693C262.81 262.852 262.202 262.949 261.271 262.693L260.862 264.085C261.066 264.176 261.509 264.273 262.021 264.273Z" fill="#6B6A6A"/>
<rect x="304" y="146" width="40" height="40" rx="4" fill="#EFF5FF"/>
<path d="M333.652 170.25C333.65 170.251 330.971 172.219 329.66 173.167C329.348 173.393 329.059 173.58 328.79 173.736C328.012 174.186 327.129 174.417 326.232 174.417H320.158L317.979 170.661L319.424 170.095C320.047 168.818 321.352 167.938 322.862 167.938C323.711 167.938 324.495 168.217 325.13 168.688C325.314 168.825 325.487 168.978 325.644 169.145H327.965C328.391 169.145 328.755 169.478 328.772 169.906C328.791 170.358 328.432 170.733 327.984 170.733H324.934C324.606 170.733 324.339 171.001 324.339 171.332C324.339 171.664 324.606 171.932 324.934 171.932H327.786C328.201 171.932 328.598 171.816 328.941 171.599C329.028 171.544 329.112 171.482 329.192 171.414C329.365 171.288 331.543 169.709 332.677 168.886C333.051 168.615 333.573 168.7 333.842 169.077C334.112 169.454 334.027 169.979 333.652 170.25Z" fill="#80B0FF"/>
<path d="M327.984 170.733H325.13V168.688C325.314 168.824 325.486 168.978 325.644 169.145H327.984C328.42 169.145 328.773 169.501 328.773 169.939C328.773 170.376 328.421 170.733 327.984 170.733Z" fill="#80B0FF"/>
<path d="M333.652 170.25C333.65 170.251 330.971 172.22 329.66 173.167C329.348 173.393 329.059 173.58 328.789 173.736C328.012 174.186 327.128 174.417 326.231 174.417H325.13V171.932H327.786C328.201 171.932 328.598 171.816 328.941 171.599C329.028 171.544 329.112 171.482 329.192 171.414C329.365 171.288 331.543 169.709 332.677 168.887C333.051 168.615 333.573 168.7 333.842 169.077C334.112 169.454 334.027 169.979 333.652 170.25Z" fill="#80B0FF"/>
<path d="M330.726 161.936C330.726 164.725 328.471 166.995 325.699 166.995C322.927 166.995 320.672 164.725 320.672 161.936C320.672 159.146 322.927 156.877 325.699 156.877C328.471 156.877 330.726 159.146 330.726 161.936Z" fill="#FED330"/>
<path d="M330.726 161.936C330.726 164.725 328.471 166.995 325.699 166.995V156.877C328.471 156.877 330.726 159.146 330.726 161.936Z" fill="#FED330"/>
<path d="M327.539 163.343V163.349C327.542 163.771 327.381 164.17 327.086 164.471C326.867 164.694 326.593 164.844 326.294 164.907V165.047C326.294 165.378 326.027 165.646 325.699 165.646C325.37 165.646 325.103 165.378 325.103 165.047V164.909C324.813 164.846 324.546 164.703 324.33 164.488C324.031 164.191 323.865 163.795 323.863 163.372C323.861 163.041 324.126 162.771 324.454 162.769H324.458C324.785 162.769 325.051 163.035 325.053 163.365C325.054 163.467 325.094 163.564 325.167 163.635C325.238 163.707 325.333 163.746 325.434 163.746H325.436L325.699 163.744L325.97 163.743C326.072 163.742 326.167 163.702 326.239 163.629C326.31 163.556 326.349 163.459 326.348 163.357V163.351C326.347 163.231 326.29 163.117 326.194 163.045L325.699 162.677L324.495 161.781C324.097 161.483 323.858 161.008 323.858 160.509C323.858 159.75 324.393 159.114 325.103 158.962V158.825C325.103 158.494 325.37 158.226 325.699 158.226C326.027 158.226 326.294 158.494 326.294 158.825V158.963C327.003 159.116 327.536 159.751 327.536 160.509C327.536 160.84 327.269 161.108 326.94 161.108C326.611 161.108 326.345 160.84 326.345 160.509C326.345 160.298 326.174 160.126 325.964 160.126H325.43C325.22 160.126 325.049 160.298 325.049 160.509C325.049 160.63 325.107 160.745 325.204 160.817L325.699 161.186L326.902 162.083C327.298 162.377 327.536 162.848 327.539 163.343Z" fill="#F0F7FF"/>
<path d="M325.964 160.126H325.699V158.226C326.028 158.226 326.295 158.494 326.295 158.825V158.963C327.003 159.116 327.536 159.751 327.536 160.509C327.536 160.84 327.269 161.108 326.941 161.108C326.612 161.108 326.345 160.84 326.345 160.509C326.345 160.298 326.174 160.126 325.964 160.126Z" fill="#DFE7F4"/>
<path d="M327.539 163.343V163.348C327.542 163.771 327.381 164.17 327.086 164.47C326.867 164.694 326.593 164.843 326.295 164.907V165.047C326.295 165.378 326.028 165.646 325.699 165.646V163.744L325.97 163.743C326.072 163.742 326.167 163.702 326.239 163.628C326.31 163.555 326.349 163.459 326.349 163.356V163.351C326.348 163.231 326.29 163.117 326.194 163.045L325.699 162.677V161.186L326.903 162.082C327.298 162.377 327.536 162.848 327.539 163.343Z" fill="#DFE7F4"/>
<path d="M320.495 175.625L317.694 177.252C317.607 177.303 317.512 177.327 317.418 177.327C317.226 177.327 317.039 177.227 316.937 177.048L314.074 172.059C313.921 171.792 314.012 171.45 314.277 171.296L317.078 169.669C317.205 169.595 317.357 169.575 317.499 169.613C317.641 169.652 317.762 169.745 317.836 169.873L320.698 174.862C320.851 175.129 320.76 175.471 320.495 175.625Z" fill="#1A71FF"/>
<rect x="184" y="127" width="80" height="80" rx="4" fill="#F5F9FF"/>
<path d="M236.989 190.304H211.899C211.158 190.304 210.557 189.7 210.557 188.955V146.938C210.557 146.192 211.158 145.588 211.899 145.588H236.989C237.729 145.588 238.33 146.192 238.33 146.938V188.955C238.33 189.7 237.729 190.304 236.989 190.304Z" fill="#1A71FF"/>
<path d="M213.334 151.178H235.552V184.715H213.334V151.178Z" fill="#F5FCFF"/>
<path d="M213.334 151.178H215.028V184.714H213.334V151.178Z" fill="#D8ECFE"/>
<path d="M231.434 148.379H217.452C216.712 148.379 216.111 147.775 216.111 147.03V145.584H232.775V147.03C232.775 147.775 232.174 148.379 231.434 148.379Z" fill="#8CBDF9"/>
<path d="M238.33 167.149C238.7 167.149 239 166.847 239 166.474V146.937C239 145.821 238.098 144.913 236.988 144.913H211.898C210.789 144.913 209.887 145.821 209.887 146.937V188.955C209.887 190.071 210.789 190.979 211.898 190.979H236.988C238.098 190.979 239 190.071 239 188.955V169.415C239 169.042 238.7 168.74 238.33 168.74C237.959 168.74 237.659 169.042 237.659 169.415V188.955C237.659 189.327 237.358 189.63 236.988 189.63H211.898C211.529 189.63 211.228 189.327 211.228 188.955V146.937C211.228 146.565 211.529 146.263 211.898 146.263H215.441V147.03C215.441 148.146 216.344 149.054 217.453 149.054H231.434C232.543 149.054 233.446 148.146 233.446 147.03V146.263H236.988C237.358 146.263 237.659 146.565 237.659 146.937V166.474C237.659 166.847 237.959 167.149 238.33 167.149ZM232.105 147.03C232.105 147.402 231.804 147.704 231.434 147.704H217.453C217.083 147.704 216.782 147.402 216.782 147.03V146.263H232.104V147.03H232.105Z" fill="#80B0FF"/>
<path d="M217.426 150.503H213.334C212.964 150.503 212.664 150.805 212.664 151.178V184.714C212.664 185.087 212.964 185.389 213.334 185.389H225.76C226.13 185.389 226.43 185.087 226.43 184.714C226.43 184.342 226.13 184.04 225.76 184.04H214.005V151.853H217.426C217.796 151.853 218.096 151.55 218.096 151.178C218.096 150.805 217.796 150.503 217.426 150.503Z" fill="#80B0FF"/>
<path d="M228.012 184.714C228.012 185.087 228.312 185.389 228.682 185.389H235.552C235.923 185.389 236.223 185.087 236.223 184.714V151.178C236.223 150.805 235.923 150.503 235.552 150.503H220.348C219.978 150.503 219.678 150.805 219.678 151.178C219.678 151.55 219.978 151.853 220.348 151.853H234.882V184.04H228.682C228.312 184.04 228.012 184.342 228.012 184.714Z" fill="#80B0FF"/>
<path d="M221.666 188.185H227.221C227.591 188.185 227.891 187.882 227.891 187.51C227.891 187.137 227.591 186.835 227.221 186.835H221.666C221.296 186.835 220.996 187.137 220.996 187.51C220.996 187.882 221.296 188.185 221.666 188.185Z" fill="#80B0FF"/>
<path d="M218.889 160.283H216.112C215.742 160.283 215.442 160.586 215.442 160.958V163.753C215.442 164.126 215.742 164.428 216.112 164.428C216.483 164.428 216.783 164.126 216.783 163.753V161.633H218.889C219.26 161.633 219.56 161.331 219.56 160.958C219.56 160.586 219.26 160.283 218.889 160.283Z" fill="black"/>
<path d="M232.775 164.428C233.146 164.428 233.446 164.126 233.446 163.753V160.958C233.446 160.586 233.146 160.283 232.775 160.283H229.998C229.628 160.283 229.328 160.586 229.328 160.958C229.328 161.331 229.628 161.633 229.998 161.633H232.105V163.753C232.105 164.126 232.405 164.428 232.775 164.428Z" fill="black"/>
<path d="M216.112 171.461C215.742 171.461 215.442 171.763 215.442 172.135V174.93C215.442 175.303 215.742 175.605 216.112 175.605H218.889C219.26 175.605 219.56 175.303 219.56 174.93C219.56 174.558 219.26 174.255 218.889 174.255H216.783V172.135C216.783 171.763 216.483 171.461 216.112 171.461Z" fill="black"/>
<path d="M229.998 175.605H232.775C233.146 175.605 233.446 175.303 233.446 174.93V172.135C233.446 171.763 233.146 171.461 232.775 171.461C232.405 171.461 232.105 171.763 232.105 172.135V174.255H229.998C229.628 174.255 229.328 174.558 229.328 174.93C229.328 175.303 229.628 175.605 229.998 175.605Z" fill="black"/>
<path d="M219.56 163.753C219.56 163.38 219.26 163.078 218.889 163.078C218.519 163.078 218.219 163.38 218.219 163.753V172.137C218.219 172.51 218.519 172.812 218.889 172.812C219.26 172.812 219.56 172.51 219.56 172.137V163.753Z" fill="black"/>
<path d="M229.328 172.137C229.328 172.51 229.628 172.812 229.998 172.812C230.369 172.812 230.669 172.51 230.669 172.137V163.753C230.669 163.38 230.369 163.078 229.998 163.078C229.628 163.078 229.328 163.38 229.328 163.753V172.137Z" fill="black"/>
<path d="M221.666 170.018C222.036 170.018 222.337 169.715 222.337 169.343V163.753C222.337 163.38 222.036 163.078 221.666 163.078C221.296 163.078 220.996 163.38 220.996 163.753V169.343C220.996 169.715 221.296 170.018 221.666 170.018Z" fill="black"/>
<path d="M224.443 170.018C224.814 170.018 225.114 169.715 225.114 169.343V163.753C225.114 163.38 224.814 163.078 224.443 163.078C224.073 163.078 223.773 163.38 223.773 163.753V169.343C223.773 169.715 224.073 170.018 224.443 170.018Z" fill="black"/>
<path d="M227.22 170.018C227.591 170.018 227.891 169.715 227.891 169.343V163.753C227.891 163.38 227.591 163.078 227.22 163.078C226.85 163.078 226.55 163.38 226.55 163.753V169.343C226.55 169.715 226.85 170.018 227.22 170.018Z" fill="black"/>
<path d="M220.996 172.137C220.996 172.51 221.296 172.812 221.666 172.812C222.036 172.812 222.337 172.51 222.337 172.137C222.337 171.765 222.036 171.463 221.666 171.463C221.296 171.463 220.996 171.765 220.996 172.137Z" fill="#FFDE5C"/>
<path d="M223.773 172.137C223.773 172.51 224.073 172.812 224.443 172.812C224.814 172.812 225.114 172.51 225.114 172.137C225.114 171.765 224.814 171.463 224.443 171.463C224.073 171.463 223.773 171.765 223.773 172.137Z" fill="#FFDE5C"/>
<path d="M227.891 172.137C227.891 171.765 227.591 171.463 227.22 171.463C226.85 171.463 226.55 171.765 226.55 172.137C226.55 172.51 226.85 172.812 227.22 172.812C227.591 172.812 227.891 172.51 227.891 172.137Z" fill="#FFDE5C"/>
<rect x="104" y="146" width="40" height="40" rx="4" fill="#EFF5FF"/>
<path d="M126.593 165.897C126.589 165.889 126.585 165.881 126.581 165.873C126.314 165.292 126.183 164.657 126.183 164.017L126.183 162.675C126.183 160.762 124.943 159.141 123.227 158.58C121.3 158.949 119.842 160.653 119.842 162.7L119.841 164.008C119.841 164.632 119.714 165.25 119.453 165.816C119.45 165.824 119.446 165.832 119.442 165.84C118.867 167.108 119.663 168.594 121.036 168.784C121.169 168.802 121.305 168.812 121.443 168.812H125.39C126.525 168.398 127.12 167.059 126.593 165.897Z" fill="#002766"/>
<path d="M120.797 162.789H121.609V164.712H120.797C120.269 164.712 119.841 164.281 119.841 163.75C119.841 163.219 120.269 162.789 120.797 162.789Z" fill="#FFCBBE"/>
<path d="M128.576 165.84C128.573 165.832 128.569 165.824 128.565 165.816C128.305 165.251 128.178 164.632 128.177 164.009L128.177 162.7C128.177 160.384 126.311 158.507 124.009 158.507C123.622 158.507 123.248 158.56 122.892 158.659C124.651 159.151 125.942 160.774 125.942 162.7L125.943 164.009C125.943 164.632 126.07 165.251 126.331 165.816C126.335 165.824 126.338 165.832 126.342 165.84C126.918 167.108 126.121 168.594 124.748 168.784C124.615 168.802 124.479 168.812 124.341 168.812H126.575C126.713 168.812 126.85 168.802 126.983 168.784C128.355 168.594 129.152 167.108 128.576 165.84Z" fill="#002766"/>
<path d="M124.009 170.575C124.996 170.575 125.878 170.126 126.466 169.421C126.666 169.181 126.534 168.814 126.229 168.755C125.845 168.68 125.567 168.342 125.567 167.949V165.695H122.45V167.949C122.45 168.342 122.172 168.68 121.789 168.755C121.484 168.814 121.352 169.181 121.551 169.421C122.14 170.126 123.022 170.575 124.009 170.575Z" fill="#FFCBBE"/>
<path d="M120.978 170.982V175.077L121.254 175.373H126.763L127.039 175.077V170.982C127.039 170.696 127.016 170.412 126.97 170.132C126.597 169.855 126.183 169.627 125.738 169.461C125.286 169.888 124.678 170.15 124.009 170.15C123.026 170.15 122.175 169.585 121.756 168.761L121.444 168.822C121.138 169.499 120.978 170.236 120.978 170.982Z" fill="#F9F6F9"/>
<path d="M126.278 168.797L126.262 168.761C126.093 169.092 125.855 169.381 125.567 169.609C125.976 169.754 126.357 169.952 126.705 170.194C126.631 169.711 126.488 169.24 126.278 168.797Z" fill="#DDDAEC"/>
<path d="M117.019 173.681V174.569C117.019 175.013 117.376 175.373 117.817 175.373H119.061V175.246H119.566V175.373H121.255V171.019C121.255 170.233 121.438 169.457 121.789 168.755L120.924 168.922C118.657 169.361 117.019 171.357 117.019 173.681Z" fill="#1A71FF"/>
<path d="M126.654 169.915C126.726 170.258 126.763 170.608 126.763 170.96V175.373H128.451V175.246H128.957V175.373H129V174.183C129 172.407 128.078 170.815 126.654 169.915Z" fill="#1A71FF"/>
<path d="M127.093 168.922L127.076 168.918L126.261 168.761L126.278 168.796C126.488 169.24 126.631 169.711 126.705 170.194C127.971 171.077 128.779 172.547 128.779 174.179V175.246H128.957V175.373H130.2C130.642 175.373 130.999 175.013 130.999 174.569V173.681C130.999 171.357 129.361 169.361 127.093 168.922Z" fill="#1A71FF"/>
<path d="M119.566 175.365V173.846C119.566 173.705 119.453 173.591 119.313 173.591C119.174 173.591 119.061 173.705 119.061 173.846V175.365C119.061 175.367 119.061 175.37 119.061 175.373H119.566C119.566 175.37 119.566 175.368 119.566 175.365Z" fill="#61A2F9"/>
<path d="M128.704 173.591C128.564 173.591 128.451 173.705 128.451 173.846V175.373H128.957V173.846C128.957 173.705 128.844 173.591 128.704 173.591Z" fill="#61A2F9"/>
<path d="M126.528 165.754C126.296 165.206 126.183 164.614 126.183 164.018L126.182 162.675C126.182 162.155 126.09 161.657 125.923 161.196C125.779 161.145 125.625 161.117 125.464 161.117C125.093 161.117 124.738 161.267 124.477 161.533C124.178 161.839 123.768 162.012 123.341 162.012H122.094C121.583 162.012 121.169 162.428 121.169 162.942V164.477C121.192 166.036 122.454 167.293 124.009 167.293C125.104 167.293 126.054 166.668 126.528 165.754Z" fill="#FFDDCE"/>
<path d="M126.849 162.511C126.849 161.801 126.321 161.215 125.638 161.128C125.834 161.614 125.942 162.144 125.942 162.7L125.942 164.009C125.943 164.632 126.07 165.251 126.33 165.816C126.334 165.824 126.338 165.832 126.341 165.84C126.362 165.886 126.381 165.932 126.398 165.979C126.676 165.544 126.841 165.03 126.849 164.477V162.511Z" fill="#FFCBBE"/>
<path d="M163.261 66L164.33 62.9205H168.875L169.938 66H171.801L167.614 54.3636H165.585L161.398 66H163.261ZM164.841 61.4432L166.557 56.4773H166.648L168.364 61.4432H164.841ZM176.881 66.1761C178.943 66.1761 180.278 64.9375 180.466 63.2386H178.812C178.597 64.1818 177.864 64.7386 176.892 64.7386C175.455 64.7386 174.528 63.5398 174.528 61.6364C174.528 59.767 175.472 58.5909 176.892 58.5909C177.972 58.5909 178.631 59.2727 178.812 60.0909H180.466C180.284 58.3295 178.847 57.1591 176.864 57.1591C174.403 57.1591 172.812 59.0114 172.812 61.6761C172.812 64.3068 174.347 66.1761 176.881 66.1761ZM185.959 66.1761C188.021 66.1761 189.357 64.9375 189.544 63.2386H187.891C187.675 64.1818 186.942 64.7386 185.97 64.7386C184.533 64.7386 183.607 63.5398 183.607 61.6364C183.607 59.767 184.55 58.5909 185.97 58.5909C187.05 58.5909 187.709 59.2727 187.891 60.0909H189.544C189.362 58.3295 187.925 57.1591 185.942 57.1591C183.482 57.1591 181.891 59.0114 181.891 61.6761C181.891 64.3068 183.425 66.1761 185.959 66.1761ZM195.122 66.1761C197.026 66.1761 198.372 65.2386 198.759 63.8182L197.151 63.5284C196.844 64.3523 196.105 64.7727 195.139 64.7727C193.685 64.7727 192.707 63.8295 192.662 62.1477H198.866V61.5455C198.866 58.392 196.98 57.1591 195.003 57.1591C192.571 57.1591 190.969 59.0114 190.969 61.6932C190.969 64.4034 192.548 66.1761 195.122 66.1761ZM192.668 60.875C192.736 59.6364 193.634 58.5625 195.014 58.5625C196.332 58.5625 197.196 59.5398 197.202 60.875H192.668ZM200.751 69.2727H202.45V64.642H202.553C202.859 65.1989 203.484 66.1705 205.075 66.1705C207.189 66.1705 208.723 64.4773 208.723 61.6534C208.723 58.8239 207.166 57.1591 205.058 57.1591C203.439 57.1591 202.854 58.1477 202.553 58.6875H202.411V57.2727H200.751V69.2727ZM202.416 61.6364C202.416 59.8125 203.212 58.6023 204.695 58.6023C206.234 58.6023 207.007 59.9034 207.007 61.6364C207.007 63.3864 206.212 64.7216 204.695 64.7216C203.234 64.7216 202.416 63.4716 202.416 61.6364ZM214.7 57.2727H212.911V55.1818H211.212V57.2727H209.933V58.6364H211.212V63.7898C211.206 65.375 212.416 66.142 213.757 66.1136C214.297 66.108 214.661 66.0057 214.859 65.9318L214.553 64.5284C214.439 64.5511 214.229 64.6023 213.956 64.6023C213.405 64.6023 212.911 64.4205 212.911 63.4375V58.6364H214.7V57.2727ZM220.95 66H222.706V61.9091H225.092C227.791 61.9091 229.126 60.2784 229.126 58.1307C229.126 55.9886 227.803 54.3636 225.098 54.3636H220.95V66ZM222.706 60.4205V55.8693H224.911C226.649 55.8693 227.359 56.8125 227.359 58.1307C227.359 59.4489 226.649 60.4205 224.933 60.4205H222.706ZM233.51 66.1932C234.953 66.1932 235.766 65.4602 236.089 64.8068H236.158V66H237.817V60.2045C237.817 57.6648 235.817 57.1591 234.43 57.1591C232.851 57.1591 231.396 57.7955 230.828 59.3864L232.425 59.75C232.675 59.1307 233.311 58.5341 234.453 58.5341C235.55 58.5341 236.112 59.108 236.112 60.0966V60.1364C236.112 60.7557 235.476 60.7443 233.908 60.9261C232.254 61.1193 230.561 61.5511 230.561 63.5341C230.561 65.25 231.851 66.1932 233.51 66.1932ZM233.879 64.8295C232.919 64.8295 232.226 64.3977 232.226 63.5568C232.226 62.6477 233.033 62.3239 234.016 62.1932C234.567 62.1193 235.874 61.9716 236.118 61.7273V62.8523C236.118 63.8864 235.294 64.8295 233.879 64.8295ZM240.841 69.2727C242.244 69.2727 243.131 68.5398 243.636 67.1648L247.244 57.2898L245.409 57.2727L243.199 64.0455H243.108L240.898 57.2727H239.08L242.273 66.1136L242.062 66.6932C241.631 67.8523 241.023 67.9489 240.091 67.6932L239.682 69.0852C239.886 69.1761 240.33 69.2727 240.841 69.2727ZM248.845 66H250.544V60.6193C250.544 59.4432 251.368 58.625 252.334 58.625C253.277 58.625 253.93 59.25 253.93 60.1989V66H255.624V60.4375C255.624 59.3864 256.266 58.625 257.374 58.625C258.271 58.625 259.01 59.125 259.01 60.3068V66H260.709V60.1477C260.709 58.1534 259.595 57.1591 258.016 57.1591C256.76 57.1591 255.817 57.7614 255.396 58.6932H255.305C254.925 57.7386 254.124 57.1591 252.959 57.1591C251.805 57.1591 250.947 57.733 250.584 58.6932H250.476V57.2727H248.845V66ZM266.747 66.1761C268.651 66.1761 269.997 65.2386 270.384 63.8182L268.776 63.5284C268.469 64.3523 267.73 64.7727 266.764 64.7727C265.31 64.7727 264.332 63.8295 264.287 62.1477H270.491V61.5455C270.491 58.392 268.605 57.1591 266.628 57.1591C264.196 57.1591 262.594 59.0114 262.594 61.6932C262.594 64.4034 264.173 66.1761 266.747 66.1761ZM264.293 60.875C264.361 59.6364 265.259 58.5625 266.639 58.5625C267.957 58.5625 268.821 59.5398 268.827 60.875H264.293ZM274.075 60.8182C274.075 59.4261 274.928 58.6307 276.109 58.6307C277.263 58.6307 277.962 59.3864 277.962 60.6534V66H279.661V60.4489C279.661 58.2898 278.473 57.1591 276.689 57.1591C275.376 57.1591 274.518 57.767 274.115 58.6932H274.007V57.2727H272.376V66H274.075V60.8182ZM286.013 57.2727H284.223V55.1818H282.524V57.2727H281.246V58.6364H282.524V63.7898C282.518 65.375 283.729 66.142 285.07 66.1136C285.609 66.108 285.973 66.0057 286.172 65.9318L285.865 64.5284C285.751 64.5511 285.541 64.6023 285.268 64.6023C284.717 64.6023 284.223 64.4205 284.223 63.4375V58.6364H286.013V57.2727Z" fill="#333333"/>
<line x1="70" y1="86.5" x2="378" y2="86.5" stroke="#EFEFEF"/>
</svg>
