<svg width="16" height="22" viewBox="0 0 16 22" fill="none" xmlns="http://www.w3.org/2000/svg">
<path d="M13.2791 11.1958C13.2708 9.66667 13.9625 8.5125 15.3625 7.6625C14.5791 6.54167 13.3958 5.925 11.8333 5.80417C10.3541 5.6875 8.73746 6.66667 8.14579 6.66667C7.52079 6.66667 6.08746 5.84584 4.96246 5.84584C2.63746 5.88334 0.166626 7.7 0.166626 11.3958C0.166626 12.4875 0.366626 13.6153 0.766626 14.7792C1.29996 16.3083 3.22496 20.0583 5.23329 19.9958C6.28329 19.9708 7.02496 19.25 8.39163 19.25C9.71663 19.25 10.4041 19.9958 11.575 19.9958C13.6 19.9667 15.3416 16.5583 15.85 15.025C13.1333 13.7458 13.2791 11.275 13.2791 11.1958ZM10.9208 4.35417C12.0583 3.00417 11.9541 1.775 11.9208 1.33334C10.9166 1.39167 9.75413 2.01667 9.09163 2.7875C8.36246 3.6125 7.93329 4.63334 8.02496 5.78334C9.11246 5.86667 10.1041 5.30834 10.9208 4.35417Z" fill="white"/>
</svg>
