<svg width="40" height="40" viewBox="0 0 40 40" fill="none" xmlns="http://www.w3.org/2000/svg">
<circle cx="20" cy="20" r="20" fill="#EFF5FF"/>
<g clip-path="url(#clip0_1549:412)">
<path d="M19.3333 12H14C13.4696 12 12.9609 12.2107 12.5858 12.5858C12.2107 12.9609 12 13.4696 12 14V28H21.3333V14C21.3333 13.4696 21.1226 12.9609 20.7475 12.5858C20.3725 12.2107 19.8638 12 19.3333 12V12ZM16 24.6667H14V23.3333H16V24.6667ZM16 22H14V20.6667H16V22ZM16 19.3333H14V18H16V19.3333ZM16 16.6667H14V15.3333H16V16.6667ZM19.3333 24.6667H17.3333V23.3333H19.3333V24.6667ZM19.3333 22H17.3333V20.6667H19.3333V22ZM19.3333 19.3333H17.3333V18H19.3333V19.3333ZM19.3333 16.6667H17.3333V15.3333H19.3333V16.6667ZM26 15.3333H22.6667V28H28V17.3333C28 16.8029 27.7893 16.2942 27.4142 15.9191C27.0391 15.544 26.5304 15.3333 26 15.3333ZM26 24.6667H24.6667V23.3333H26V24.6667ZM26 22H24.6667V20.6667H26V22ZM26 19.3333H24.6667V18H26V19.3333Z" fill="#1A71FF"/>
</g>
<defs>
<clipPath id="clip0_1549:412">
<rect width="16" height="16" fill="white" transform="translate(12 12)"/>
</clipPath>
</defs>
</svg>
