<svg width="109" height="32" viewBox="0 0 109 32" fill="none" xmlns="http://www.w3.org/2000/svg">
<path d="M34.2939 22L34.3115 19.9785H37.0361C37.7686 19.9785 38.3809 19.8203 38.873 19.5039C39.3652 19.1816 39.7373 18.7188 39.9893 18.1152C40.2412 17.5059 40.3672 16.7676 40.3672 15.9004V15.2852C40.3672 14.4062 40.2412 13.668 39.9893 13.0703C39.7432 12.4668 39.374 12.0098 38.8818 11.6992C38.3955 11.3887 37.7949 11.2334 37.0801 11.2334H34.2412V9.20312H37.0801C38.2344 9.20312 39.248 9.45801 40.1211 9.96777C40.9941 10.4775 41.6768 11.1895 42.1689 12.1035C42.6611 13.0176 42.9072 14.084 42.9072 15.3027V15.9004C42.9072 17.125 42.6611 18.1943 42.1689 19.1084C41.6768 20.0225 40.9912 20.7344 40.1123 21.2441C39.2334 21.748 38.208 22 37.0361 22H34.2939ZM35.709 22H33.1865V9.20312H35.709V22ZM49.0596 22.1758C48.0928 22.1758 47.2578 21.9707 46.5547 21.5605C45.8574 21.1445 45.3213 20.5908 44.9463 19.8994C44.5771 19.2021 44.3926 18.4258 44.3926 17.5703V17.2275C44.3926 16.2549 44.5742 15.3994 44.9375 14.6611C45.3066 13.9229 45.8223 13.3486 46.4844 12.9385C47.1465 12.5225 47.9141 12.3145 48.7871 12.3145C49.707 12.3145 50.4717 12.5107 51.0811 12.9033C51.6963 13.2959 52.1592 13.8438 52.4697 14.5469C52.7861 15.2441 52.9443 16.0586 52.9443 16.9902V18.0186H45.4736V16.3398H50.5625V16.1465C50.5508 15.8008 50.4834 15.4844 50.3604 15.1973C50.2373 14.9102 50.0469 14.6816 49.7891 14.5117C49.5312 14.3418 49.1943 14.2568 48.7783 14.2568C48.3271 14.2568 47.9551 14.3857 47.6621 14.6436C47.375 14.8955 47.1611 15.2441 47.0205 15.6895C46.8799 16.1289 46.8096 16.6416 46.8096 17.2275V17.5703C46.8096 18.0859 46.9033 18.543 47.0908 18.9414C47.2783 19.3398 47.5537 19.6533 47.917 19.8818C48.2803 20.1104 48.7109 20.2246 49.209 20.2246C49.6895 20.2246 50.126 20.1338 50.5186 19.9521C50.917 19.7705 51.2568 19.4951 51.5381 19.126L52.751 20.4355C52.4521 20.875 51.9951 21.2764 51.3799 21.6396C50.7705 21.9971 49.9971 22.1758 49.0596 22.1758ZM58.7803 22.1758C57.8135 22.1758 56.9785 21.9707 56.2754 21.5605C55.5781 21.1445 55.042 20.5908 54.667 19.8994C54.2979 19.2021 54.1133 18.4258 54.1133 17.5703V17.2275C54.1133 16.2549 54.2949 15.3994 54.6582 14.6611C55.0273 13.9229 55.543 13.3486 56.2051 12.9385C56.8672 12.5225 57.6348 12.3145 58.5078 12.3145C59.4277 12.3145 60.1924 12.5107 60.8018 12.9033C61.417 13.2959 61.8799 13.8438 62.1904 14.5469C62.5068 15.2441 62.665 16.0586 62.665 16.9902V18.0186H55.1943V16.3398H60.2832V16.1465C60.2715 15.8008 60.2041 15.4844 60.0811 15.1973C59.958 14.9102 59.7676 14.6816 59.5098 14.5117C59.252 14.3418 58.915 14.2568 58.499 14.2568C58.0479 14.2568 57.6758 14.3857 57.3828 14.6436C57.0957 14.8955 56.8818 15.2441 56.7412 15.6895C56.6006 16.1289 56.5303 16.6416 56.5303 17.2275V17.5703C56.5303 18.0859 56.624 18.543 56.8115 18.9414C56.999 19.3398 57.2744 19.6533 57.6377 19.8818C58.001 20.1104 58.4316 20.2246 58.9297 20.2246C59.4102 20.2246 59.8467 20.1338 60.2393 19.9521C60.6377 19.7705 60.9775 19.4951 61.2588 19.126L62.4717 20.4355C62.1729 20.875 61.7158 21.2764 61.1006 21.6396C60.4912 21.9971 59.7178 22.1758 58.7803 22.1758ZM66.6025 22H64.1768V12.4902H66.4531L66.6025 14.4502V22ZM65.5039 16.9375C65.5039 16.0469 65.6445 15.2559 65.9258 14.5645C66.207 13.8672 66.626 13.3193 67.1826 12.9209C67.7451 12.5166 68.4395 12.3145 69.2656 12.3145C70.1211 12.3145 70.8213 12.5752 71.3662 13.0967C71.9111 13.6123 72.1836 14.4648 72.1836 15.6543V22H69.7578V15.9268C69.7578 15.499 69.6963 15.165 69.5732 14.9248C69.4502 14.6846 69.2744 14.5176 69.0459 14.4238C68.8232 14.3301 68.5537 14.2832 68.2373 14.2832C67.8857 14.2832 67.584 14.3506 67.332 14.4854C67.0801 14.6143 66.8721 14.7988 66.708 15.0391C66.5439 15.2793 66.4238 15.5605 66.3477 15.8828C66.2773 16.1992 66.2422 16.5449 66.2422 16.9199L65.5039 16.9375ZM71.0059 16.7266C71.0059 15.9062 71.1436 15.165 71.4189 14.5029C71.6943 13.835 72.1074 13.3047 72.6582 12.9121C73.209 12.5137 73.8857 12.3145 74.6885 12.3145C75.3213 12.3145 75.8662 12.4316 76.3232 12.666C76.7861 12.9004 77.1406 13.2812 77.3867 13.8086C77.6387 14.3359 77.7646 15.0361 77.7646 15.9092V22H75.3389V15.9004C75.3389 15.4668 75.2773 15.1328 75.1543 14.8984C75.0312 14.6641 74.8555 14.5029 74.627 14.415C74.4043 14.3271 74.1377 14.2832 73.8271 14.2832C73.5225 14.2832 73.2529 14.3418 73.0186 14.459C72.79 14.5703 72.5996 14.7314 72.4473 14.9424C72.2949 15.1475 72.1777 15.3906 72.0957 15.6719C72.0195 15.9473 71.9814 16.249 71.9814 16.5771L71.0059 16.7266ZM81.667 17.4121V15.3906H84.9277C85.4609 15.3906 85.8887 15.3057 86.2109 15.1357C86.5391 14.96 86.7793 14.7227 86.9316 14.4238C87.084 14.125 87.1602 13.7852 87.1602 13.4043C87.1602 13.0234 87.084 12.6689 86.9316 12.3408C86.7793 12.0127 86.5391 11.7461 86.2109 11.541C85.8887 11.3359 85.4609 11.2334 84.9277 11.2334H82.4844V22H79.9619V9.20312H84.9277C85.9297 9.20312 86.7852 9.38477 87.4941 9.74805C88.209 10.1055 88.7539 10.5977 89.1289 11.2246C89.5098 11.8516 89.7002 12.5723 89.7002 13.3867C89.7002 14.2129 89.5098 14.9277 89.1289 15.5312C88.7539 16.1348 88.209 16.6006 87.4941 16.9287C86.7852 17.251 85.9297 17.4121 84.9277 17.4121H81.667ZM96.4766 15.6191C96.4766 15.1621 96.3564 14.7988 96.1162 14.5293C95.876 14.2539 95.501 14.1162 94.9912 14.1162C94.6982 14.1162 94.4404 14.166 94.2178 14.2656C94.001 14.3652 93.834 14.5029 93.7168 14.6787C93.5996 14.8545 93.541 15.0654 93.541 15.3115H91.124C91.124 14.7725 91.2881 14.2773 91.6162 13.8262C91.9443 13.3691 92.4072 13.0029 93.0049 12.7275C93.6084 12.4521 94.3145 12.3145 95.123 12.3145C95.8496 12.3145 96.4971 12.4375 97.0654 12.6836C97.6396 12.9297 98.0879 13.2988 98.4102 13.791C98.7383 14.2832 98.9023 14.8984 98.9023 15.6367V19.7236C98.9023 20.2275 98.9346 20.6465 98.999 20.9805C99.0635 21.3145 99.1572 21.6045 99.2803 21.8506V22H96.8281C96.7109 21.748 96.623 21.4316 96.5645 21.0508C96.5059 20.6641 96.4766 20.2803 96.4766 19.8994V15.6191ZM96.8281 17.6318H95.4043C94.6953 17.6318 94.1709 17.7725 93.8311 18.0537C93.4971 18.335 93.3301 18.6953 93.3301 19.1348C93.3301 19.4688 93.4443 19.7471 93.6729 19.9697C93.9072 20.1924 94.2324 20.3037 94.6484 20.3037C95.0469 20.3037 95.3926 20.2246 95.6855 20.0664C95.9785 19.9082 96.2041 19.7148 96.3623 19.4863C96.5264 19.2578 96.6084 19.0469 96.6084 18.8535L97.3027 19.9082C97.2207 20.1484 97.0977 20.4004 96.9336 20.6641C96.7754 20.9219 96.5674 21.165 96.3096 21.3936C96.0576 21.6221 95.75 21.8096 95.3867 21.9561C95.0293 22.1025 94.6133 22.1758 94.1387 22.1758C93.5293 22.1758 92.9785 22.0557 92.4863 21.8154C92 21.5693 91.6133 21.2324 91.3262 20.8047C91.0449 20.3711 90.9043 19.8789 90.9043 19.3281C90.9043 18.3262 91.2764 17.5527 92.0205 17.0078C92.7705 16.4629 93.8604 16.1904 95.29 16.1904H96.8105L96.8281 17.6318ZM106.259 12.4902H108.843L105.046 23.4326C104.958 23.667 104.844 23.9219 104.703 24.1973C104.562 24.4785 104.378 24.7422 104.149 24.9883C103.921 25.2402 103.634 25.4453 103.288 25.6035C102.942 25.7617 102.523 25.8408 102.031 25.8408C101.885 25.8408 101.75 25.835 101.627 25.8232C101.51 25.8115 101.396 25.791 101.284 25.7617C101.173 25.7383 101.056 25.709 100.933 25.6738V23.8369C100.991 23.8369 101.059 23.8398 101.135 23.8457C101.211 23.8516 101.275 23.8545 101.328 23.8545C101.838 23.8545 102.216 23.7695 102.462 23.5996C102.714 23.4297 102.907 23.1484 103.042 22.7559L103.736 20.9277L106.259 12.4902ZM104.694 19.3721L105.063 22.0088L103.411 22.2461L99.9922 12.4902H102.603L104.694 19.3721Z" fill="#0D0D0D"/>
<path d="M14.4855 0H1C0.447715 0 0 0.447715 0 1V22.5969C0 23.1492 0.447715 23.5969 1 23.5969H7.11144C7.66372 23.5969 8.11144 23.1492 8.11144 22.5969V8.37403C8.11144 7.82175 8.55915 7.37403 9.11144 7.37403H14.4855C15.0378 7.37403 15.4855 6.92632 15.4855 6.37403V1C15.4855 0.447715 15.0378 0 14.4855 0Z" fill="#1A71FF"/>
<path d="M9.51453 31.4626L23 31.4626C23.5523 31.4626 24 31.0148 24 30.4626L24 8.86565C24 8.31337 23.5523 7.86565 23 7.86565L16.8886 7.86565C16.3363 7.86565 15.8886 8.31336 15.8886 8.86565L15.8886 23.0885C15.8886 23.6408 15.4408 24.0885 14.8886 24.0885L9.51453 24.0885C8.96224 24.0885 8.51453 24.5362 8.51453 25.0885L8.51453 30.4626C8.51453 31.0148 8.96224 31.4626 9.51453 31.4626Z" fill="#F3BB1C"/>
</svg>
