<svg width="247" height="56" viewBox="0 0 247 56" fill="none" xmlns="http://www.w3.org/2000/svg">
<rect width="247" height="56" rx="8" fill="#F5F9FF"/>
<g clip-path="url(#clip0_1371:675)">
<path d="M26 39C26 39.2652 25.8946 39.5196 25.7071 39.7071C25.5196 39.8946 25.2652 40 25 40H17C16.7348 40 16.4804 39.8946 16.2929 39.7071C16.1054 39.5196 16 39.2652 16 39C16 38.7348 16.1054 38.4804 16.2929 38.2929C16.4804 38.1054 16.7348 38 17 38H25C25.2652 38 25.5196 38.1054 25.7071 38.2929C25.8946 38.4804 26 38.7348 26 39Z" fill="#1A71FF"/>
<path d="M17 36H23C23.2652 36 23.5196 35.8946 23.7071 35.7071C23.8946 35.5196 24 35.2652 24 35C24 34.7348 23.8946 34.4804 23.7071 34.2929C23.5196 34.1054 23.2652 34 23 34H17C16.7348 34 16.4804 34.1054 16.2929 34.2929C16.1054 34.4804 16 34.7348 16 35C16 35.2652 16.1054 35.5196 16.2929 35.7071C16.4804 35.8946 16.7348 36 17 36Z" fill="#1A71FF"/>
<path d="M17 32H21C21.2652 32 21.5196 31.8946 21.7071 31.7071C21.8946 31.5196 22 31.2652 22 31C22 30.7348 21.8946 30.4804 21.7071 30.2929C21.5196 30.1054 21.2652 30 21 30H17C16.7348 30 16.4804 30.1054 16.2929 30.2929C16.1054 30.4804 16 30.7348 16 31C16 31.2652 16.1054 31.5196 16.2929 31.7071C16.4804 31.8946 16.7348 32 17 32Z" fill="#1A71FF"/>
<path d="M28 16C24.8174 16 21.7652 17.2643 19.5147 19.5147C17.2643 21.7652 16 24.8174 16 28C16 28.061 16.008 28.12 16.009 28.181C16.3266 28.0646 16.6618 28.0034 17 28H21C21.4909 27.9983 21.9747 28.1176 22.4086 28.3472C22.8425 28.5768 23.2132 28.9097 23.4879 29.3165C23.7627 29.7233 23.933 30.1915 23.984 30.6797C24.0349 31.168 23.9649 31.6612 23.78 32.116C24.1894 32.2234 24.5712 32.417 24.8999 32.6838C25.2285 32.9506 25.4965 33.2845 25.6858 33.6631C25.8751 34.0417 25.9814 34.4564 25.9977 34.8794C26.0139 35.3024 25.9397 35.724 25.78 36.116C26.1799 36.218 26.554 36.4028 26.878 36.6585C27.2019 36.9142 27.4687 37.235 27.6609 37.6003C27.853 37.9655 27.9664 38.367 27.9937 38.7788C28.0209 39.1907 27.9614 39.6036 27.819 39.991C27.88 39.991 27.939 40 28 40C31.1826 40 34.2348 38.7357 36.4853 36.4853C38.7357 34.2348 40 31.1826 40 28C40 24.8174 38.7357 21.7652 36.4853 19.5147C34.2348 17.2643 31.1826 16 28 16V16ZM31.707 31.707C31.5195 31.8945 31.2652 31.9998 31 31.9998C30.7348 31.9998 30.4805 31.8945 30.293 31.707L27.293 28.707C27.1055 28.5195 27.0001 28.2652 27 28V23C27 22.7348 27.1054 22.4804 27.2929 22.2929C27.4804 22.1054 27.7348 22 28 22C28.2652 22 28.5196 22.1054 28.7071 22.2929C28.8946 22.4804 29 22.7348 29 23V27.586L31.707 30.293C31.8945 30.4805 31.9998 30.7348 31.9998 31C31.9998 31.2652 31.8945 31.5195 31.707 31.707Z" fill="#1A71FF"/>
</g>
<path d="M52.8359 33H51.3203V21.625H58.3672V22.8516H52.8359V26.75H57.5938V27.9688H52.8359V33ZM64.6562 27.2031C64.6562 26.6979 64.5052 26.2969 64.2031 26C63.9062 25.6979 63.4661 25.5469 62.8828 25.5469C62.3411 25.5469 61.9036 25.6823 61.5703 25.9531C61.237 26.224 61.0703 26.5365 61.0703 26.8906H59.6094C59.6094 26.4844 59.7474 26.0911 60.0234 25.7109C60.2995 25.3255 60.6875 25.0104 61.1875 24.7656C61.6927 24.5156 62.2865 24.3906 62.9688 24.3906C63.8906 24.3906 64.6458 24.625 65.2344 25.0938C65.8229 25.5625 66.1172 26.2708 66.1172 27.2188V31.1562C66.1172 31.4375 66.1406 31.737 66.1875 32.0547C66.2396 32.3724 66.3151 32.6458 66.4141 32.875V33H64.8906C64.8438 32.8958 64.8021 32.7656 64.7656 32.6094C64.7344 32.4531 64.7083 32.2891 64.6875 32.1172C64.4167 32.4036 64.0781 32.6484 63.6719 32.8516C63.2708 33.0547 62.8099 33.1562 62.2891 33.1562C61.7161 33.1562 61.2135 33.0469 60.7812 32.8281C60.3542 32.6042 60.0208 32.3021 59.7812 31.9219C59.5469 31.5417 59.4297 31.1198 59.4297 30.6562C59.4297 29.7448 59.7734 29.0547 60.4609 28.5859C61.1484 28.112 62.0729 27.875 63.2344 27.875H64.6562V27.2031ZM62.5 31.9062C63.0208 31.9062 63.4714 31.776 63.8516 31.5156C64.2318 31.25 64.5 30.9557 64.6562 30.6328V28.8906H63.4688C62.6458 28.8906 62.0104 29.0208 61.5625 29.2812C61.1146 29.5417 60.8906 29.9323 60.8906 30.4531C60.8906 30.8594 61.026 31.2031 61.2969 31.4844C61.5729 31.7656 61.974 31.9062 62.5 31.9062ZM73.3125 30.7578C73.3125 30.5495 73.2656 30.3568 73.1719 30.1797C73.0833 29.9974 72.901 29.8333 72.625 29.6875C72.349 29.5365 71.9323 29.4036 71.375 29.2891C70.4375 29.0911 69.6953 28.8099 69.1484 28.4453C68.6016 28.0807 68.3281 27.5521 68.3281 26.8594C68.3281 26.4115 68.4557 26.0026 68.7109 25.6328C68.9714 25.2578 69.3359 24.9583 69.8047 24.7344C70.2786 24.5052 70.8307 24.3906 71.4609 24.3906C72.138 24.3906 72.7161 24.5104 73.1953 24.75C73.6797 24.9844 74.0495 25.3021 74.3047 25.7031C74.5599 26.099 74.6875 26.5391 74.6875 27.0234H73.2266C73.2266 26.6745 73.0729 26.3438 72.7656 26.0312C72.4635 25.7188 72.0286 25.5625 71.4609 25.5625C70.862 25.5625 70.4323 25.6953 70.1719 25.9609C69.9167 26.2214 69.7891 26.5052 69.7891 26.8125C69.7891 27.0208 69.8411 27.2031 69.9453 27.3594C70.0495 27.5104 70.2396 27.6458 70.5156 27.7656C70.7969 27.8854 71.2031 28.0052 71.7344 28.125C72.7708 28.3646 73.5365 28.6771 74.0312 29.0625C74.526 29.4427 74.7734 29.974 74.7734 30.6562C74.7734 31.3958 74.474 31.9974 73.875 32.4609C73.2812 32.9245 72.4896 33.1562 71.5 33.1562C70.7552 33.1562 70.125 33.0234 69.6094 32.7578C69.0938 32.4922 68.7031 32.151 68.4375 31.7344C68.1719 31.3125 68.0391 30.8672 68.0391 30.3984H69.5C69.526 30.7943 69.6406 31.1094 69.8438 31.3438C70.0521 31.5729 70.3047 31.737 70.6016 31.8359C70.9036 31.9349 71.2031 31.9844 71.5 31.9844C72.0885 31.9844 72.5365 31.8672 72.8438 31.6328C73.1562 31.3984 73.3125 31.1068 73.3125 30.7578ZM80.2109 25.6484H78.6328V30.9062C78.6328 31.3438 78.7266 31.6224 78.9141 31.7422C79.1068 31.862 79.3229 31.9219 79.5625 31.9219C79.6823 31.9219 79.8073 31.9115 79.9375 31.8906C80.0729 31.8698 80.1719 31.8516 80.2344 31.8359L80.2422 33C80.1276 33.0365 79.9766 33.0703 79.7891 33.1016C79.6068 33.138 79.3854 33.1562 79.125 33.1562C78.7708 33.1562 78.4453 33.0859 78.1484 32.9453C77.8516 32.8047 77.6146 32.5703 77.4375 32.2422C77.2604 31.9089 77.1719 31.4609 77.1719 30.8984V25.6484H75.6328V24.5469H77.1719V22.4922H78.6328V24.5469H80.2109V25.6484ZM90.2891 28.5391H87.6016V33H86.0859V21.625H90.2891C91.1484 21.625 91.875 21.7734 92.4688 22.0703C93.0625 22.3672 93.513 22.776 93.8203 23.2969C94.1276 23.8177 94.2812 24.4167 94.2812 25.0938C94.2812 26.1927 93.9375 27.0417 93.25 27.6406C92.5677 28.2396 91.5807 28.5391 90.2891 28.5391ZM90.2891 22.8516H87.6016V27.3203H90.2891C91.1693 27.3203 91.8021 27.1146 92.1875 26.7031C92.5729 26.2865 92.7656 25.7552 92.7656 25.1094C92.7656 24.7188 92.6797 24.3516 92.5078 24.0078C92.3411 23.6641 92.0755 23.3854 91.7109 23.1719C91.3516 22.9583 90.8776 22.8516 90.2891 22.8516ZM100.859 27.2031C100.859 26.6979 100.708 26.2969 100.406 26C100.109 25.6979 99.6693 25.5469 99.0859 25.5469C98.5443 25.5469 98.1068 25.6823 97.7734 25.9531C97.4401 26.224 97.2734 26.5365 97.2734 26.8906H95.8125C95.8125 26.4844 95.9505 26.0911 96.2266 25.7109C96.5026 25.3255 96.8906 25.0104 97.3906 24.7656C97.8958 24.5156 98.4896 24.3906 99.1719 24.3906C100.094 24.3906 100.849 24.625 101.438 25.0938C102.026 25.5625 102.32 26.2708 102.32 27.2188V31.1562C102.32 31.4375 102.344 31.737 102.391 32.0547C102.443 32.3724 102.518 32.6458 102.617 32.875V33H101.094C101.047 32.8958 101.005 32.7656 100.969 32.6094C100.938 32.4531 100.911 32.2891 100.891 32.1172C100.62 32.4036 100.281 32.6484 99.875 32.8516C99.474 33.0547 99.013 33.1562 98.4922 33.1562C97.9193 33.1562 97.4167 33.0469 96.9844 32.8281C96.5573 32.6042 96.224 32.3021 95.9844 31.9219C95.75 31.5417 95.6328 31.1198 95.6328 30.6562C95.6328 29.7448 95.9766 29.0547 96.6641 28.5859C97.3516 28.112 98.276 27.875 99.4375 27.875H100.859V27.2031ZM98.7031 31.9062C99.224 31.9062 99.6745 31.776 100.055 31.5156C100.435 31.25 100.703 30.9557 100.859 30.6328V28.8906H99.6719C98.849 28.8906 98.2135 29.0208 97.7656 29.2812C97.3177 29.5417 97.0938 29.9323 97.0938 30.4531C97.0938 30.8594 97.2292 31.2031 97.5 31.4844C97.776 31.7656 98.1771 31.9062 98.7031 31.9062ZM109.32 24.5469H110.875L107.484 34.3047C107.385 34.5807 107.237 34.8828 107.039 35.2109C106.841 35.5443 106.576 35.8281 106.242 36.0625C105.909 36.2969 105.487 36.4141 104.977 36.4141C104.862 36.4141 104.716 36.3984 104.539 36.3672C104.362 36.3359 104.234 36.3099 104.156 36.2891V35.125C104.198 35.1302 104.263 35.138 104.352 35.1484C104.445 35.1589 104.51 35.1641 104.547 35.1641C105.036 35.1641 105.419 35.0625 105.695 34.8594C105.971 34.6562 106.195 34.2943 106.367 33.7734L106.68 32.9141L103.672 24.5469H105.266L107.359 30.8594L109.32 24.5469ZM113.625 33H112.164V24.5469H113.547L113.586 25.4609C113.872 25.1224 114.224 24.8594 114.641 24.6719C115.057 24.4844 115.539 24.3906 116.086 24.3906C116.628 24.3906 117.109 24.4974 117.531 24.7109C117.953 24.9245 118.276 25.2656 118.5 25.7344C118.781 25.3333 119.146 25.0104 119.594 24.7656C120.047 24.5156 120.578 24.3906 121.188 24.3906C122.094 24.3906 122.792 24.6328 123.281 25.1172C123.771 25.6016 124.016 26.3776 124.016 27.4453V33H122.555V27.4297C122.555 26.7161 122.391 26.2344 122.062 25.9844C121.74 25.7292 121.305 25.6016 120.758 25.6016C120.18 25.6016 119.724 25.776 119.391 26.125C119.062 26.474 118.872 26.8932 118.82 27.3828V33H117.359V27.4375C117.359 26.7708 117.195 26.2995 116.867 26.0234C116.539 25.7422 116.102 25.6016 115.555 25.6016C115.044 25.6016 114.633 25.7135 114.32 25.9375C114.013 26.1562 113.781 26.4427 113.625 26.7969V33ZM129.719 33.1562C128.932 33.1562 128.247 32.9818 127.664 32.6328C127.086 32.2786 126.635 31.7943 126.312 31.1797C125.995 30.5651 125.836 29.862 125.836 29.0703V28.7344C125.836 27.8177 126.01 27.0365 126.359 26.3906C126.714 25.7396 127.172 25.2448 127.734 24.9062C128.302 24.5625 128.901 24.3906 129.531 24.3906C130.344 24.3906 131.005 24.5729 131.516 24.9375C132.031 25.2969 132.409 25.7891 132.648 26.4141C132.893 27.0339 133.016 27.737 133.016 28.5234V29.1719H127.297C127.312 29.6927 127.419 30.1667 127.617 30.5938C127.82 31.0156 128.107 31.3542 128.477 31.6094C128.846 31.8594 129.286 31.9844 129.797 31.9844C130.307 31.9844 130.74 31.8802 131.094 31.6719C131.448 31.4635 131.758 31.1849 132.023 30.8359L132.906 31.5234C132.635 31.9401 132.245 32.3177 131.734 32.6562C131.229 32.9896 130.557 33.1562 129.719 33.1562ZM129.531 25.5625C128.958 25.5625 128.474 25.7734 128.078 26.1953C127.688 26.6172 127.443 27.2188 127.344 28H131.555V27.8906C131.534 27.5156 131.458 27.151 131.328 26.7969C131.198 26.4375 130.99 26.1432 130.703 25.9141C130.417 25.6797 130.026 25.5625 129.531 25.5625ZM136.164 33H134.703V24.5469H136.086L136.133 25.5859C136.435 25.2109 136.799 24.9193 137.227 24.7109C137.654 24.4974 138.128 24.3906 138.648 24.3906C139.482 24.3906 140.141 24.6276 140.625 25.1016C141.115 25.5703 141.359 26.3568 141.359 27.4609V33H139.898V27.4453C139.898 26.7786 139.755 26.3047 139.469 26.0234C139.182 25.7422 138.766 25.6016 138.219 25.6016C137.755 25.6016 137.346 25.7266 136.992 25.9766C136.643 26.2266 136.367 26.5521 136.164 26.9531V33ZM147.102 25.6484H145.523V30.9062C145.523 31.3438 145.617 31.6224 145.805 31.7422C145.997 31.862 146.214 31.9219 146.453 31.9219C146.573 31.9219 146.698 31.9115 146.828 31.8906C146.964 31.8698 147.062 31.8516 147.125 31.8359L147.133 33C147.018 33.0365 146.867 33.0703 146.68 33.1016C146.497 33.138 146.276 33.1562 146.016 33.1562C145.661 33.1562 145.336 33.0859 145.039 32.9453C144.742 32.8047 144.505 32.5703 144.328 32.2422C144.151 31.9089 144.062 31.4609 144.062 30.8984V25.6484H142.523V24.5469H144.062V22.4922H145.523V24.5469H147.102V25.6484ZM161.352 29.3906C161.273 30.1042 161.068 30.7474 160.734 31.3203C160.401 31.888 159.93 32.3359 159.32 32.6641C158.711 32.9922 157.948 33.1562 157.031 33.1562C156.141 33.1562 155.362 32.9401 154.695 32.5078C154.029 32.0703 153.51 31.4557 153.141 30.6641C152.771 29.8724 152.586 28.9479 152.586 27.8906V26.7422C152.586 25.6797 152.771 24.7552 153.141 23.9688C153.516 23.1771 154.047 22.5625 154.734 22.125C155.422 21.6875 156.234 21.4688 157.172 21.4688C158.464 21.4688 159.453 21.8229 160.141 22.5312C160.833 23.2344 161.237 24.1484 161.352 25.2734H159.836C159.721 24.4766 159.466 23.849 159.07 23.3906C158.68 22.9271 158.047 22.6953 157.172 22.6953C156.167 22.6953 155.404 23.0651 154.883 23.8047C154.367 24.5443 154.109 25.5182 154.109 26.7266V27.8906C154.109 28.6354 154.214 29.3151 154.422 29.9297C154.63 30.5391 154.948 31.026 155.375 31.3906C155.807 31.7552 156.359 31.9375 157.031 31.9375C157.672 31.9375 158.18 31.8359 158.555 31.6328C158.935 31.4297 159.221 31.138 159.414 30.7578C159.612 30.3776 159.753 29.9219 159.836 29.3906H161.352ZM162.797 28.6875C162.797 27.8698 162.953 27.138 163.266 26.4922C163.578 25.8464 164.021 25.3359 164.594 24.9609C165.167 24.5807 165.846 24.3906 166.633 24.3906C167.43 24.3906 168.117 24.5807 168.695 24.9609C169.273 25.3359 169.716 25.8464 170.023 26.4922C170.336 27.138 170.492 27.8698 170.492 28.6875V28.8672C170.492 29.6797 170.336 30.4115 170.023 31.0625C169.716 31.7083 169.273 32.2188 168.695 32.5938C168.122 32.9688 167.44 33.1562 166.648 33.1562C165.857 33.1562 165.172 32.9688 164.594 32.5938C164.021 32.2188 163.578 31.7083 163.266 31.0625C162.953 30.4115 162.797 29.6797 162.797 28.8672V28.6875ZM164.258 28.8672C164.258 29.4245 164.346 29.9401 164.523 30.4141C164.701 30.888 164.964 31.2682 165.312 31.5547C165.667 31.8411 166.112 31.9844 166.648 31.9844C167.18 31.9844 167.62 31.8411 167.969 31.5547C168.323 31.2682 168.589 30.888 168.766 30.4141C168.943 29.9401 169.031 29.4245 169.031 28.8672V28.6875C169.031 28.1302 168.943 27.6146 168.766 27.1406C168.589 26.6667 168.323 26.2865 167.969 26C167.615 25.7083 167.169 25.5625 166.633 25.5625C166.107 25.5625 165.667 25.7083 165.312 26C164.958 26.2865 164.693 26.6667 164.516 27.1406C164.344 27.6146 164.258 28.1302 164.258 28.6875V28.8672ZM173.898 33H172.438V21H173.898V33ZM177.789 33H176.328V21H177.789V33ZM183.609 33.1562C182.823 33.1562 182.138 32.9818 181.555 32.6328C180.977 32.2786 180.526 31.7943 180.203 31.1797C179.885 30.5651 179.727 29.862 179.727 29.0703V28.7344C179.727 27.8177 179.901 27.0365 180.25 26.3906C180.604 25.7396 181.062 25.2448 181.625 24.9062C182.193 24.5625 182.792 24.3906 183.422 24.3906C184.234 24.3906 184.896 24.5729 185.406 24.9375C185.922 25.2969 186.299 25.7891 186.539 26.4141C186.784 27.0339 186.906 27.737 186.906 28.5234V29.1719H181.188C181.203 29.6927 181.31 30.1667 181.508 30.5938C181.711 31.0156 181.997 31.3542 182.367 31.6094C182.737 31.8594 183.177 31.9844 183.688 31.9844C184.198 31.9844 184.63 31.8802 184.984 31.6719C185.339 31.4635 185.648 31.1849 185.914 30.8359L186.797 31.5234C186.526 31.9401 186.135 32.3177 185.625 32.6562C185.12 32.9896 184.448 33.1562 183.609 33.1562ZM183.422 25.5625C182.849 25.5625 182.365 25.7734 181.969 26.1953C181.578 26.6172 181.333 27.2188 181.234 28H185.445V27.8906C185.424 27.5156 185.349 27.151 185.219 26.7969C185.089 26.4375 184.88 26.1432 184.594 25.9141C184.307 25.6797 183.917 25.5625 183.422 25.5625ZM191.984 31.9844C192.5 31.9844 192.951 31.8281 193.336 31.5156C193.721 31.2031 193.935 30.8073 193.977 30.3281H195.359C195.333 30.8281 195.164 31.2943 194.852 31.7266C194.539 32.1536 194.133 32.5 193.633 32.7656C193.133 33.026 192.583 33.1562 191.984 33.1562C191.135 33.1562 190.432 32.9635 189.875 32.5781C189.318 32.1875 188.901 31.6719 188.625 31.0312C188.354 30.3906 188.219 29.6927 188.219 28.9375V28.6094C188.219 27.849 188.357 27.151 188.633 26.5156C188.909 25.875 189.326 25.362 189.883 24.9766C190.44 24.5859 191.141 24.3906 191.984 24.3906C192.646 24.3906 193.224 24.526 193.719 24.7969C194.219 25.0625 194.609 25.4271 194.891 25.8906C195.177 26.349 195.333 26.8698 195.359 27.4531H193.977C193.94 26.9271 193.742 26.4818 193.383 26.1172C193.029 25.7474 192.562 25.5625 191.984 25.5625C191.396 25.5625 190.932 25.7135 190.594 26.0156C190.26 26.3177 190.023 26.7031 189.883 27.1719C189.747 27.6354 189.68 28.1146 189.68 28.6094V28.9375C189.68 29.4323 189.747 29.9141 189.883 30.3828C190.018 30.8516 190.253 31.237 190.586 31.5391C190.924 31.8359 191.391 31.9844 191.984 31.9844ZM200.539 25.6484H198.961V30.9062C198.961 31.3438 199.055 31.6224 199.242 31.7422C199.435 31.862 199.651 31.9219 199.891 31.9219C200.01 31.9219 200.135 31.9115 200.266 31.8906C200.401 31.8698 200.5 31.8516 200.562 31.8359L200.57 33C200.456 33.0365 200.305 33.0703 200.117 33.1016C199.935 33.138 199.714 33.1562 199.453 33.1562C199.099 33.1562 198.773 33.0859 198.477 32.9453C198.18 32.8047 197.943 32.5703 197.766 32.2422C197.589 31.9089 197.5 31.4609 197.5 30.8984V25.6484H195.961V24.5469H197.5V22.4922H198.961V24.5469H200.539V25.6484ZM202.234 22.2969C202.234 22.0677 202.305 21.8724 202.445 21.7109C202.591 21.5495 202.805 21.4688 203.086 21.4688C203.367 21.4688 203.581 21.5495 203.727 21.7109C203.878 21.8724 203.953 22.0677 203.953 22.2969C203.953 22.5208 203.878 22.7135 203.727 22.875C203.581 23.0312 203.367 23.1094 203.086 23.1094C202.805 23.1094 202.591 23.0312 202.445 22.875C202.305 22.7135 202.234 22.5208 202.234 22.2969ZM203.805 33H202.344V24.5469H203.805V33ZM205.734 28.6875C205.734 27.8698 205.891 27.138 206.203 26.4922C206.516 25.8464 206.958 25.3359 207.531 24.9609C208.104 24.5807 208.784 24.3906 209.57 24.3906C210.367 24.3906 211.055 24.5807 211.633 24.9609C212.211 25.3359 212.654 25.8464 212.961 26.4922C213.273 27.138 213.43 27.8698 213.43 28.6875V28.8672C213.43 29.6797 213.273 30.4115 212.961 31.0625C212.654 31.7083 212.211 32.2188 211.633 32.5938C211.06 32.9688 210.378 33.1562 209.586 33.1562C208.794 33.1562 208.109 32.9688 207.531 32.5938C206.958 32.2188 206.516 31.7083 206.203 31.0625C205.891 30.4115 205.734 29.6797 205.734 28.8672V28.6875ZM207.195 28.8672C207.195 29.4245 207.284 29.9401 207.461 30.4141C207.638 30.888 207.901 31.2682 208.25 31.5547C208.604 31.8411 209.049 31.9844 209.586 31.9844C210.117 31.9844 210.557 31.8411 210.906 31.5547C211.26 31.2682 211.526 30.888 211.703 30.4141C211.88 29.9401 211.969 29.4245 211.969 28.8672V28.6875C211.969 28.1302 211.88 27.6146 211.703 27.1406C211.526 26.6667 211.26 26.2865 210.906 26C210.552 25.7083 210.107 25.5625 209.57 25.5625C209.044 25.5625 208.604 25.7083 208.25 26C207.896 26.2865 207.63 26.6667 207.453 27.1406C207.281 27.6146 207.195 28.1302 207.195 28.6875V28.8672ZM216.711 33H215.25V24.5469H216.633L216.68 25.5859C216.982 25.2109 217.346 24.9193 217.773 24.7109C218.201 24.4974 218.674 24.3906 219.195 24.3906C220.029 24.3906 220.688 24.6276 221.172 25.1016C221.661 25.5703 221.906 26.3568 221.906 27.4609V33H220.445V27.4453C220.445 26.7786 220.302 26.3047 220.016 26.0234C219.729 25.7422 219.312 25.6016 218.766 25.6016C218.302 25.6016 217.893 25.7266 217.539 25.9766C217.19 26.2266 216.914 26.5521 216.711 26.9531V33Z" fill="#003A99"/>
<defs>
<clipPath id="clip0_1371:675">
<rect width="24" height="24" fill="white" transform="translate(16 16)"/>
</clipPath>
</defs>
</svg>
