<svg width="40" height="20" viewBox="0 0 40 20" fill="none" xmlns="http://www.w3.org/2000/svg">
<rect width="40" height="20" rx="10" fill="#0FD273"/>
<path d="M11.9727 13H10.7129V5.89062H15.2539V6.90625H11.9727V8.98633H14.8438V9.99707H11.9727V13ZM17.1729 13H15.9619V7.7168H17.1143L17.1484 8.32715C17.2819 8.10905 17.4479 7.93652 17.6465 7.80957C17.8483 7.68262 18.0843 7.61914 18.3545 7.61914C18.4229 7.61914 18.4993 7.62565 18.584 7.63867C18.6686 7.65169 18.7321 7.66634 18.7744 7.68262L18.7646 8.83008C18.6898 8.82031 18.61 8.81217 18.5254 8.80566C18.444 8.7959 18.3626 8.79102 18.2812 8.79102C17.9948 8.79102 17.7604 8.84635 17.5781 8.95703C17.3958 9.06771 17.2607 9.22396 17.1729 9.42578V13ZM21.8457 13.0977C21.3216 13.0977 20.8691 12.9854 20.4883 12.7607C20.1074 12.5329 19.8145 12.2269 19.6094 11.8428C19.4043 11.4554 19.3018 11.0225 19.3018 10.5439V10.3438C19.3018 9.79362 19.4059 9.3151 19.6143 8.9082C19.8226 8.49805 20.1074 8.18066 20.4688 7.95605C20.8333 7.73145 21.2451 7.61914 21.7041 7.61914C22.2119 7.61914 22.6335 7.72982 22.9688 7.95117C23.304 8.16927 23.5547 8.47363 23.7207 8.86426C23.8867 9.25163 23.9697 9.70085 23.9697 10.2119V10.7344H20.5225C20.555 11.1348 20.6934 11.4668 20.9375 11.7305C21.1816 11.9909 21.5088 12.1211 21.9189 12.1211C22.2021 12.1211 22.4528 12.0658 22.6709 11.9551C22.889 11.8444 23.0794 11.6849 23.2422 11.4766L23.877 12.1113C23.7077 12.362 23.457 12.5898 23.125 12.7949C22.793 12.9967 22.3665 13.0977 21.8457 13.0977ZM21.6992 8.59082C21.377 8.59082 21.1182 8.70475 20.9229 8.93262C20.7275 9.16048 20.6022 9.46973 20.5469 9.86035H22.7734V9.76758C22.7669 9.5625 22.7262 9.37044 22.6514 9.19141C22.5798 9.01237 22.4658 8.86751 22.3096 8.75684C22.1566 8.64616 21.9531 8.59082 21.6992 8.59082ZM27.2168 13.0977C26.6927 13.0977 26.2402 12.9854 25.8594 12.7607C25.4785 12.5329 25.1855 12.2269 24.9805 11.8428C24.7754 11.4554 24.6729 11.0225 24.6729 10.5439V10.3438C24.6729 9.79362 24.777 9.3151 24.9854 8.9082C25.1937 8.49805 25.4785 8.18066 25.8398 7.95605C26.2044 7.73145 26.6162 7.61914 27.0752 7.61914C27.583 7.61914 28.0046 7.72982 28.3398 7.95117C28.6751 8.16927 28.9258 8.47363 29.0918 8.86426C29.2578 9.25163 29.3408 9.70085 29.3408 10.2119V10.7344H25.8936C25.9261 11.1348 26.0645 11.4668 26.3086 11.7305C26.5527 11.9909 26.8799 12.1211 27.29 12.1211C27.5732 12.1211 27.8239 12.0658 28.042 11.9551C28.2601 11.8444 28.4505 11.6849 28.6133 11.4766L29.248 12.1113C29.0788 12.362 28.8281 12.5898 28.4961 12.7949C28.1641 12.9967 27.7376 13.0977 27.2168 13.0977ZM27.0703 8.59082C26.748 8.59082 26.4893 8.70475 26.2939 8.93262C26.0986 9.16048 25.9733 9.46973 25.918 9.86035H28.1445V9.76758C28.138 9.5625 28.0973 9.37044 28.0225 9.19141C27.9508 9.01237 27.8369 8.86751 27.6807 8.75684C27.5277 8.64616 27.3242 8.59082 27.0703 8.59082Z" fill="white"/>
</svg>
