<svg width="80" height="81" viewBox="0 0 80 81" fill="none" xmlns="http://www.w3.org/2000/svg">
<path fill-rule="evenodd" clip-rule="evenodd" d="M0 0H80V81H0V0Z" fill="#737373"/>
<path fill-rule="evenodd" clip-rule="evenodd" d="M45.5159 15.7065H66.024V36.2651H45.5159V15.7065ZM20.7228 46.6642V48.6755H24.2574V59.3157H26.6946V48.5942H29.9854V46.583L20.7228 46.6656V46.6642ZM18.9025 49.1576V47.1464C16.9472 46.262 14.6987 45.9948 12.3964 47.1464C8.62088 48.8353 8.48594 57.1984 12.2629 58.8335C14.4316 59.9328 18.9548 59.4231 19.4106 58.4575V51.8369H14.9135V53.5796H16.8935V57.0648C10.3875 60.2276 9.18268 45.0291 18.9025 49.1576ZM33.9496 53.4721H36.278C38.2057 53.5534 38.7152 57.1984 36.1982 57.1708H33.9496V53.4721V53.4721ZM33.9496 48.3531H36.278C38.2057 48.7016 37.5104 51.5697 36.1982 51.6496H33.9496V48.3531V48.3531ZM31.54 46.397V59.2082H37.9386C41.2047 58.029 41.3396 52.9638 37.9386 52.4265C41.0711 52.0794 41.2322 46.3157 35.8236 46.3157L31.54 46.397V46.397ZM42.8378 49.9883V51.8907C44.5507 51.4085 48.2725 50.0682 47.9242 52.9101C44.6581 52.6952 42.4357 53.2848 42.0612 55.3208C41.4457 59.7179 46.1575 60.1463 48.139 57.9753V59.0209H50.3875V51.3011C49.8257 48.8077 46.1052 48.4867 42.8378 49.9883V49.9883ZM44.7379 54.9475C45.2474 54.2766 46.8804 54.3028 47.9779 54.6251V56.314C46.1851 58.2426 43.2935 57.3596 44.7393 54.9461L44.7379 54.9475ZM55.047 52.2667C55.6364 51.6234 58.7689 50.4167 59.2508 52.2667V59.0746H61.7665V51.8645C61.2309 48.8614 58.3655 48.3256 54.8859 50.363V49.2375H52.5038V59.1283H55.0195L55.047 52.2667V52.2667ZM69.6646 49.1301L66.3724 53.552L69.8532 58.9933L72.8784 58.9134L69.0505 53.687L72.5038 49.21L69.666 49.1301H69.6646ZM63.6419 45.8859H66.1314V58.9933H63.6405V45.8873L63.6419 45.8859Z" fill="white"/>
<path fill-rule="evenodd" clip-rule="evenodd" d="M45.5156 15.7065H66.0237V36.2651H45.5156V15.7065Z" fill="white"/>
</svg>
