<svg width="40" height="40" viewBox="0 0 40 40" fill="none" xmlns="http://www.w3.org/2000/svg">
<circle cx="20" cy="20" r="20" fill="#EFF5FF"/>
<g clip-path="url(#clip0_1560:394)">
<path d="M20 12C17.8783 12 15.8434 12.8429 14.3431 14.3431C12.8429 15.8434 12 17.8783 12 20C12 22.1217 12.8429 24.1566 14.3431 25.6569C15.8434 27.1571 17.8783 28 20 28H28V20C27.9977 17.879 27.1541 15.8455 25.6543 14.3457C24.1545 12.8459 22.121 12.0023 20 12ZM20 15.3333C20.1978 15.3333 20.3911 15.392 20.5556 15.5019C20.72 15.6117 20.8482 15.7679 20.9239 15.9506C20.9996 16.1334 21.0194 16.3344 20.9808 16.5284C20.9422 16.7224 20.847 16.9006 20.7071 17.0404C20.5673 17.1803 20.3891 17.2755 20.1951 17.3141C20.0011 17.3527 19.8 17.3329 19.6173 17.2572C19.4346 17.1815 19.2784 17.0534 19.1685 16.8889C19.0586 16.7245 19 16.5311 19 16.3333C19 16.0681 19.1054 15.8138 19.2929 15.6262C19.4804 15.4387 19.7348 15.3333 20 15.3333ZM21.3333 24.6667H20V20H18.6667V18.6667H20C20.3536 18.6667 20.6928 18.8071 20.9428 19.0572C21.1929 19.3072 21.3333 19.6464 21.3333 20V24.6667Z" fill="#1A71FF"/>
</g>
<defs>
<clipPath id="clip0_1560:394">
<rect width="16" height="16" fill="white" transform="translate(12 12)"/>
</clipPath>
</defs>
</svg>
