<svg width="247" height="56" viewBox="0 0 247 56" fill="none" xmlns="http://www.w3.org/2000/svg">
<rect width="247" height="56" rx="8" fill="#F5F9FF"/>
<g clip-path="url(#clip0_1371:674)">
<path d="M39.791 24.5521C39.5755 24.1524 39.4757 23.7006 39.5027 23.2473C39.5298 22.794 39.6826 22.3573 39.944 21.9861C40.3713 21.3592 40.9435 20.8446 41.612 20.4861L49.113 16.5821C49.8503 16.1987 50.669 15.9985 51.5 15.9985C52.331 15.9985 53.1498 16.1987 53.887 16.5821L61.387 20.4891C62.0556 20.8476 62.6278 21.3622 63.055 21.9891C63.3165 22.3603 63.4693 22.797 63.4963 23.2503C63.5233 23.7036 63.4235 24.1554 63.208 24.5551C62.976 24.9939 62.6281 25.3607 62.2021 25.6154C61.7761 25.8702 61.2884 26.0033 60.792 26.0001H42.208C41.7112 26.0032 41.223 25.8698 40.7968 25.6144C40.3706 25.3591 40.0227 24.9916 39.791 24.5521ZM62.5 38.0001C62.5 37.4696 62.2893 36.9609 61.9142 36.5858C61.5392 36.2108 61.0305 36.0001 60.5 36.0001V28.0001H58.5V36.0001H55.5V28.0001H53.5V36.0001H49.5V28.0001H47.5V36.0001H44.5V28.0001H42.5V36.0001C41.9696 36.0001 41.4609 36.2108 41.0858 36.5858C40.7107 36.9609 40.5 37.4696 40.5 38.0001C40.2348 38.0001 39.9805 38.1054 39.7929 38.2929C39.6054 38.4805 39.5 38.7348 39.5 39.0001C39.5 39.2653 39.6054 39.5196 39.7929 39.7072C39.9805 39.8947 40.2348 40.0001 40.5 40.0001H62.5C62.7652 40.0001 63.0196 39.8947 63.2071 39.7072C63.3947 39.5196 63.5 39.2653 63.5 39.0001C63.5 38.7348 63.3947 38.4805 63.2071 38.2929C63.0196 38.1054 62.7652 38.0001 62.5 38.0001Z" fill="#1A71FF"/>
</g>
<path d="M76.4453 33H74.9297V21.625H76.4453V33ZM80.4141 33H78.9531V24.5469H80.3359L80.3828 25.5859C80.6849 25.2109 81.0495 24.9193 81.4766 24.7109C81.9036 24.4974 82.3776 24.3906 82.8984 24.3906C83.7318 24.3906 84.3906 24.6276 84.875 25.1016C85.3646 25.5703 85.6094 26.3568 85.6094 27.4609V33H84.1484V27.4453C84.1484 26.7786 84.0052 26.3047 83.7188 26.0234C83.4323 25.7422 83.0156 25.6016 82.4688 25.6016C82.0052 25.6016 81.5964 25.7266 81.2422 25.9766C80.8932 26.2266 80.6172 26.5521 80.4141 26.9531V33ZM92.7188 30.7578C92.7188 30.5495 92.6719 30.3568 92.5781 30.1797C92.4896 29.9974 92.3073 29.8333 92.0312 29.6875C91.7552 29.5365 91.3385 29.4036 90.7812 29.2891C89.8438 29.0911 89.1016 28.8099 88.5547 28.4453C88.0078 28.0807 87.7344 27.5521 87.7344 26.8594C87.7344 26.4115 87.862 26.0026 88.1172 25.6328C88.3776 25.2578 88.7422 24.9583 89.2109 24.7344C89.6849 24.5052 90.237 24.3906 90.8672 24.3906C91.5443 24.3906 92.1224 24.5104 92.6016 24.75C93.0859 24.9844 93.4557 25.3021 93.7109 25.7031C93.9661 26.099 94.0938 26.5391 94.0938 27.0234H92.6328C92.6328 26.6745 92.4792 26.3438 92.1719 26.0312C91.8698 25.7188 91.4349 25.5625 90.8672 25.5625C90.2682 25.5625 89.8385 25.6953 89.5781 25.9609C89.3229 26.2214 89.1953 26.5052 89.1953 26.8125C89.1953 27.0208 89.2474 27.2031 89.3516 27.3594C89.4557 27.5104 89.6458 27.6458 89.9219 27.7656C90.2031 27.8854 90.6094 28.0052 91.1406 28.125C92.1771 28.3646 92.9427 28.6771 93.4375 29.0625C93.9323 29.4427 94.1797 29.974 94.1797 30.6562C94.1797 31.3958 93.8802 31.9974 93.2812 32.4609C92.6875 32.9245 91.8958 33.1562 90.9062 33.1562C90.1615 33.1562 89.5312 33.0234 89.0156 32.7578C88.5 32.4922 88.1094 32.151 87.8438 31.7344C87.5781 31.3125 87.4453 30.8672 87.4453 30.3984H88.9062C88.9323 30.7943 89.0469 31.1094 89.25 31.3438C89.4583 31.5729 89.7109 31.737 90.0078 31.8359C90.3099 31.9349 90.6094 31.9844 90.9062 31.9844C91.4948 31.9844 91.9427 31.8672 92.25 31.6328C92.5625 31.3984 92.7188 31.1068 92.7188 30.7578ZM99.6172 25.6484H98.0391V30.9062C98.0391 31.3438 98.1328 31.6224 98.3203 31.7422C98.513 31.862 98.7292 31.9219 98.9688 31.9219C99.0885 31.9219 99.2135 31.9115 99.3438 31.8906C99.4792 31.8698 99.5781 31.8516 99.6406 31.8359L99.6484 33C99.5339 33.0365 99.3828 33.0703 99.1953 33.1016C99.013 33.138 98.7917 33.1562 98.5312 33.1562C98.1771 33.1562 97.8516 33.0859 97.5547 32.9453C97.2578 32.8047 97.0208 32.5703 96.8438 32.2422C96.6667 31.9089 96.5781 31.4609 96.5781 30.8984V25.6484H95.0391V24.5469H96.5781V22.4922H98.0391V24.5469H99.6172V25.6484ZM106.281 27.2031C106.281 26.6979 106.13 26.2969 105.828 26C105.531 25.6979 105.091 25.5469 104.508 25.5469C103.966 25.5469 103.529 25.6823 103.195 25.9531C102.862 26.224 102.695 26.5365 102.695 26.8906H101.234C101.234 26.4844 101.372 26.0911 101.648 25.7109C101.924 25.3255 102.312 25.0104 102.812 24.7656C103.318 24.5156 103.911 24.3906 104.594 24.3906C105.516 24.3906 106.271 24.625 106.859 25.0938C107.448 25.5625 107.742 26.2708 107.742 27.2188V31.1562C107.742 31.4375 107.766 31.737 107.812 32.0547C107.865 32.3724 107.94 32.6458 108.039 32.875V33H106.516C106.469 32.8958 106.427 32.7656 106.391 32.6094C106.359 32.4531 106.333 32.2891 106.312 32.1172C106.042 32.4036 105.703 32.6484 105.297 32.8516C104.896 33.0547 104.435 33.1562 103.914 33.1562C103.341 33.1562 102.839 33.0469 102.406 32.8281C101.979 32.6042 101.646 32.3021 101.406 31.9219C101.172 31.5417 101.055 31.1198 101.055 30.6562C101.055 29.7448 101.398 29.0547 102.086 28.5859C102.773 28.112 103.698 27.875 104.859 27.875H106.281V27.2031ZM104.125 31.9062C104.646 31.9062 105.096 31.776 105.477 31.5156C105.857 31.25 106.125 30.9557 106.281 30.6328V28.8906H105.094C104.271 28.8906 103.635 29.0208 103.188 29.2812C102.74 29.5417 102.516 29.9323 102.516 30.4531C102.516 30.8594 102.651 31.2031 102.922 31.4844C103.198 31.7656 103.599 31.9062 104.125 31.9062ZM111.477 33H110.016V24.5469H111.398L111.445 25.5859C111.747 25.2109 112.112 24.9193 112.539 24.7109C112.966 24.4974 113.44 24.3906 113.961 24.3906C114.794 24.3906 115.453 24.6276 115.938 25.1016C116.427 25.5703 116.672 26.3568 116.672 27.4609V33H115.211V27.4453C115.211 26.7786 115.068 26.3047 114.781 26.0234C114.495 25.7422 114.078 25.6016 113.531 25.6016C113.068 25.6016 112.659 25.7266 112.305 25.9766C111.956 26.2266 111.68 26.5521 111.477 26.9531V33ZM122.414 25.6484H120.836V30.9062C120.836 31.3438 120.93 31.6224 121.117 31.7422C121.31 31.862 121.526 31.9219 121.766 31.9219C121.885 31.9219 122.01 31.9115 122.141 31.8906C122.276 31.8698 122.375 31.8516 122.438 31.8359L122.445 33C122.331 33.0365 122.18 33.0703 121.992 33.1016C121.81 33.138 121.589 33.1562 121.328 33.1562C120.974 33.1562 120.648 33.0859 120.352 32.9453C120.055 32.8047 119.818 32.5703 119.641 32.2422C119.464 31.9089 119.375 31.4609 119.375 30.8984V25.6484H117.836V24.5469H119.375V22.4922H120.836V24.5469H122.414V25.6484ZM134.344 30.125C134.344 29.7656 134.268 29.4609 134.117 29.2109C133.966 28.9609 133.695 28.7344 133.305 28.5312C132.914 28.3281 132.359 28.1224 131.641 27.9141C130.521 27.5911 129.628 27.1719 128.961 26.6562C128.294 26.1406 127.961 25.4427 127.961 24.5625C127.961 23.9688 128.12 23.4401 128.438 22.9766C128.76 22.5078 129.211 22.1406 129.789 21.875C130.367 21.6042 131.044 21.4688 131.82 21.4688C132.68 21.4688 133.409 21.6328 134.008 21.9609C134.607 22.2839 135.062 22.7083 135.375 23.2344C135.688 23.7552 135.844 24.3125 135.844 24.9062H134.32C134.32 24.2656 134.117 23.737 133.711 23.3203C133.305 22.9036 132.674 22.6953 131.82 22.6953C131.023 22.6953 130.435 22.8724 130.055 23.2266C129.674 23.5755 129.484 24.013 129.484 24.5391C129.484 25.0182 129.693 25.4193 130.109 25.7422C130.526 26.0651 131.201 26.3568 132.133 26.6172C133.424 26.9818 134.37 27.4349 134.969 27.9766C135.568 28.513 135.867 29.224 135.867 30.1094C135.867 30.724 135.703 31.2604 135.375 31.7188C135.047 32.1771 134.586 32.5312 133.992 32.7812C133.398 33.0312 132.701 33.1562 131.898 33.1562C131.372 33.1562 130.854 33.0833 130.344 32.9375C129.839 32.7917 129.378 32.5729 128.961 32.2812C128.549 31.9896 128.219 31.6302 127.969 31.2031C127.724 30.7708 127.602 30.2708 127.602 29.7031H129.117C129.117 30.224 129.247 30.6484 129.508 30.9766C129.768 31.3047 130.109 31.5469 130.531 31.7031C130.958 31.8594 131.414 31.9375 131.898 31.9375C132.685 31.9375 133.289 31.7734 133.711 31.4453C134.133 31.1172 134.344 30.6771 134.344 30.125ZM141.078 33.1562C140.292 33.1562 139.607 32.9818 139.023 32.6328C138.445 32.2786 137.995 31.7943 137.672 31.1797C137.354 30.5651 137.195 29.862 137.195 29.0703V28.7344C137.195 27.8177 137.37 27.0365 137.719 26.3906C138.073 25.7396 138.531 25.2448 139.094 24.9062C139.661 24.5625 140.26 24.3906 140.891 24.3906C141.703 24.3906 142.365 24.5729 142.875 24.9375C143.391 25.2969 143.768 25.7891 144.008 26.4141C144.253 27.0339 144.375 27.737 144.375 28.5234V29.1719H138.656C138.672 29.6927 138.779 30.1667 138.977 30.5938C139.18 31.0156 139.466 31.3542 139.836 31.6094C140.206 31.8594 140.646 31.9844 141.156 31.9844C141.667 31.9844 142.099 31.8802 142.453 31.6719C142.807 31.4635 143.117 31.1849 143.383 30.8359L144.266 31.5234C143.995 31.9401 143.604 32.3177 143.094 32.6562C142.589 32.9896 141.917 33.1562 141.078 33.1562ZM140.891 25.5625C140.318 25.5625 139.833 25.7734 139.438 26.1953C139.047 26.6172 138.802 27.2188 138.703 28H142.914V27.8906C142.893 27.5156 142.818 27.151 142.688 26.7969C142.557 26.4375 142.349 26.1432 142.062 25.9141C141.776 25.6797 141.385 25.5625 140.891 25.5625ZM149.617 25.6484H148.039V30.9062C148.039 31.3438 148.133 31.6224 148.32 31.7422C148.513 31.862 148.729 31.9219 148.969 31.9219C149.089 31.9219 149.214 31.9115 149.344 31.8906C149.479 31.8698 149.578 31.8516 149.641 31.8359L149.648 33C149.534 33.0365 149.383 33.0703 149.195 33.1016C149.013 33.138 148.792 33.1562 148.531 33.1562C148.177 33.1562 147.852 33.0859 147.555 32.9453C147.258 32.8047 147.021 32.5703 146.844 32.2422C146.667 31.9089 146.578 31.4609 146.578 30.8984V25.6484H145.039V24.5469H146.578V22.4922H148.039V24.5469H149.617V25.6484ZM154.852 25.6484H153.273V30.9062C153.273 31.3438 153.367 31.6224 153.555 31.7422C153.747 31.862 153.964 31.9219 154.203 31.9219C154.323 31.9219 154.448 31.9115 154.578 31.8906C154.714 31.8698 154.812 31.8516 154.875 31.8359L154.883 33C154.768 33.0365 154.617 33.0703 154.43 33.1016C154.247 33.138 154.026 33.1562 153.766 33.1562C153.411 33.1562 153.086 33.0859 152.789 32.9453C152.492 32.8047 152.255 32.5703 152.078 32.2422C151.901 31.9089 151.812 31.4609 151.812 30.8984V25.6484H150.273V24.5469H151.812V22.4922H153.273V24.5469H154.852V25.6484ZM158.117 33H156.656V21H158.117V33ZM163.938 33.1562C163.151 33.1562 162.466 32.9818 161.883 32.6328C161.305 32.2786 160.854 31.7943 160.531 31.1797C160.214 30.5651 160.055 29.862 160.055 29.0703V28.7344C160.055 27.8177 160.229 27.0365 160.578 26.3906C160.932 25.7396 161.391 25.2448 161.953 24.9062C162.521 24.5625 163.12 24.3906 163.75 24.3906C164.562 24.3906 165.224 24.5729 165.734 24.9375C166.25 25.2969 166.628 25.7891 166.867 26.4141C167.112 27.0339 167.234 27.737 167.234 28.5234V29.1719H161.516C161.531 29.6927 161.638 30.1667 161.836 30.5938C162.039 31.0156 162.326 31.3542 162.695 31.6094C163.065 31.8594 163.505 31.9844 164.016 31.9844C164.526 31.9844 164.958 31.8802 165.312 31.6719C165.667 31.4635 165.977 31.1849 166.242 30.8359L167.125 31.5234C166.854 31.9401 166.464 32.3177 165.953 32.6562C165.448 32.9896 164.776 33.1562 163.938 33.1562ZM163.75 25.5625C163.177 25.5625 162.693 25.7734 162.297 26.1953C161.906 26.6172 161.661 27.2188 161.562 28H165.773V27.8906C165.753 27.5156 165.677 27.151 165.547 26.7969C165.417 26.4375 165.208 26.1432 164.922 25.9141C164.635 25.6797 164.245 25.5625 163.75 25.5625ZM170.375 33H168.914V24.5469H170.297L170.336 25.4609C170.622 25.1224 170.974 24.8594 171.391 24.6719C171.807 24.4844 172.289 24.3906 172.836 24.3906C173.378 24.3906 173.859 24.4974 174.281 24.7109C174.703 24.9245 175.026 25.2656 175.25 25.7344C175.531 25.3333 175.896 25.0104 176.344 24.7656C176.797 24.5156 177.328 24.3906 177.938 24.3906C178.844 24.3906 179.542 24.6328 180.031 25.1172C180.521 25.6016 180.766 26.3776 180.766 27.4453V33H179.305V27.4297C179.305 26.7161 179.141 26.2344 178.812 25.9844C178.49 25.7292 178.055 25.6016 177.508 25.6016C176.93 25.6016 176.474 25.776 176.141 26.125C175.812 26.474 175.622 26.8932 175.57 27.3828V33H174.109V27.4375C174.109 26.7708 173.945 26.2995 173.617 26.0234C173.289 25.7422 172.852 25.6016 172.305 25.6016C171.794 25.6016 171.383 25.7135 171.07 25.9375C170.763 26.1562 170.531 26.4427 170.375 26.7969V33ZM186.469 33.1562C185.682 33.1562 184.997 32.9818 184.414 32.6328C183.836 32.2786 183.385 31.7943 183.062 31.1797C182.745 30.5651 182.586 29.862 182.586 29.0703V28.7344C182.586 27.8177 182.76 27.0365 183.109 26.3906C183.464 25.7396 183.922 25.2448 184.484 24.9062C185.052 24.5625 185.651 24.3906 186.281 24.3906C187.094 24.3906 187.755 24.5729 188.266 24.9375C188.781 25.2969 189.159 25.7891 189.398 26.4141C189.643 27.0339 189.766 27.737 189.766 28.5234V29.1719H184.047C184.062 29.6927 184.169 30.1667 184.367 30.5938C184.57 31.0156 184.857 31.3542 185.227 31.6094C185.596 31.8594 186.036 31.9844 186.547 31.9844C187.057 31.9844 187.49 31.8802 187.844 31.6719C188.198 31.4635 188.508 31.1849 188.773 30.8359L189.656 31.5234C189.385 31.9401 188.995 32.3177 188.484 32.6562C187.979 32.9896 187.307 33.1562 186.469 33.1562ZM186.281 25.5625C185.708 25.5625 185.224 25.7734 184.828 26.1953C184.438 26.6172 184.193 27.2188 184.094 28H188.305V27.8906C188.284 27.5156 188.208 27.151 188.078 26.7969C187.948 26.4375 187.74 26.1432 187.453 25.9141C187.167 25.6797 186.776 25.5625 186.281 25.5625ZM192.914 33H191.453V24.5469H192.836L192.883 25.5859C193.185 25.2109 193.549 24.9193 193.977 24.7109C194.404 24.4974 194.878 24.3906 195.398 24.3906C196.232 24.3906 196.891 24.6276 197.375 25.1016C197.865 25.5703 198.109 26.3568 198.109 27.4609V33H196.648V27.4453C196.648 26.7786 196.505 26.3047 196.219 26.0234C195.932 25.7422 195.516 25.6016 194.969 25.6016C194.505 25.6016 194.096 25.7266 193.742 25.9766C193.393 26.2266 193.117 26.5521 192.914 26.9531V33ZM203.852 25.6484H202.273V30.9062C202.273 31.3438 202.367 31.6224 202.555 31.7422C202.747 31.862 202.964 31.9219 203.203 31.9219C203.323 31.9219 203.448 31.9115 203.578 31.8906C203.714 31.8698 203.812 31.8516 203.875 31.8359L203.883 33C203.768 33.0365 203.617 33.0703 203.43 33.1016C203.247 33.138 203.026 33.1562 202.766 33.1562C202.411 33.1562 202.086 33.0859 201.789 32.9453C201.492 32.8047 201.255 32.5703 201.078 32.2422C200.901 31.9089 200.812 31.4609 200.812 30.8984V25.6484H199.273V24.5469H200.812V22.4922H202.273V24.5469H203.852V25.6484Z" fill="#003A99"/>
<defs>
<clipPath id="clip0_1371:674">
<rect width="24" height="24" fill="white" transform="translate(39.5 16)"/>
</clipPath>
</defs>
</svg>
