<svg width="247" height="56" viewBox="0 0 247 56" fill="none" xmlns="http://www.w3.org/2000/svg">
<rect width="247" height="56" rx="8" fill="#F5F9FF"/>
<g clip-path="url(#clip0_1371:680)">
<path d="M35 16H30C29.7347 16 29.4804 16.1054 29.2929 16.2929C29.1053 16.4804 29 16.7348 29 17C29 17.2652 29.1053 17.5196 29.2929 17.7071C29.4804 17.8946 29.7347 18 30 18H35C35.4454 18.0017 35.8848 18.1043 36.285 18.3L16.293 38.293C16.1974 38.3852 16.1213 38.4956 16.0689 38.6176C16.0164 38.7396 15.9889 38.8708 15.9877 39.0036C15.9866 39.1364 16.0119 39.2681 16.0621 39.391C16.1124 39.5138 16.1867 39.6255 16.2806 39.7194C16.3745 39.8133 16.4861 39.8875 16.609 39.9378C16.7319 39.9881 16.8636 40.0134 16.9964 40.0123C17.1291 40.0111 17.2604 39.9835 17.3824 39.9311C17.5044 39.8787 17.6147 39.8025 17.707 39.707L37.7 19.715C37.8957 20.1152 37.9982 20.5545 38 21V26C38 26.2652 38.1053 26.5196 38.2929 26.7071C38.4804 26.8946 38.7347 27 39 27C39.2652 27 39.5195 26.8946 39.7071 26.7071C39.8946 26.5196 40 26.2652 40 26V21C39.9984 19.6744 39.4711 18.4036 38.5337 17.4662C37.5964 16.5289 36.3256 16.0016 35 16V16Z" fill="#1A71FF"/>
<path d="M22 26C22.7911 26 23.5645 25.7654 24.2223 25.3259C24.8801 24.8864 25.3928 24.2616 25.6955 23.5307C25.9983 22.7998 26.0775 21.9956 25.9231 21.2196C25.7688 20.4437 25.3878 19.731 24.8284 19.1716C24.269 18.6122 23.5563 18.2312 22.7804 18.0769C22.0044 17.9225 21.2002 18.0017 20.4693 18.3045C19.7384 18.6072 19.1136 19.1199 18.6741 19.7777C18.2346 20.4355 18 21.2089 18 22C18 23.0609 18.4214 24.0783 19.1716 24.8284C19.9217 25.5786 20.9391 26 22 26ZM22 20C22.3956 20 22.7822 20.1173 23.1111 20.3371C23.44 20.5568 23.6964 20.8692 23.8478 21.2346C23.9991 21.6001 24.0387 22.0022 23.9616 22.3902C23.8844 22.7781 23.6939 23.1345 23.4142 23.4142C23.1345 23.6939 22.7781 23.8844 22.3902 23.9616C22.0022 24.0387 21.6001 23.9991 21.2346 23.8478C20.8692 23.6964 20.5568 23.44 20.3371 23.1111C20.1173 22.7822 20 22.3956 20 22C20 21.4696 20.2107 20.9609 20.5858 20.5858C20.9609 20.2107 21.4696 20 22 20Z" fill="#1A71FF"/>
<path d="M34 30C33.2089 30 32.4355 30.2346 31.7777 30.6741C31.1199 31.1136 30.6072 31.7384 30.3045 32.4693C30.0017 33.2002 29.9225 34.0044 30.0769 34.7804C30.2312 35.5563 30.6122 36.269 31.1716 36.8284C31.731 37.3878 32.4437 37.7688 33.2196 37.9231C33.9956 38.0775 34.7998 37.9983 35.5307 37.6955C36.2616 37.3928 36.8864 36.8801 37.3259 36.2223C37.7654 35.5645 38 34.7911 38 34C38 32.9391 37.5786 31.9217 36.8284 31.1716C36.0783 30.4214 35.0609 30 34 30ZM34 36C33.6044 36 33.2178 35.8827 32.8889 35.6629C32.56 35.4432 32.3036 35.1308 32.1522 34.7654C32.0009 34.3999 31.9613 33.9978 32.0384 33.6098C32.1156 33.2219 32.3061 32.8655 32.5858 32.5858C32.8655 32.3061 33.2219 32.1156 33.6098 32.0384C33.9978 31.9613 34.3999 32.0009 34.7654 32.1522C35.1308 32.3036 35.4432 32.56 35.6629 32.8889C35.8827 33.2178 36 33.6044 36 34C36 34.5304 35.7893 35.0391 35.4142 35.4142C35.0391 35.7893 34.5304 36 34 36Z" fill="#1A71FF"/>
</g>
<path d="M58.2266 33H51.3203V21.625H52.8359V31.7812H58.2266V33ZM59.3438 28.6875C59.3438 27.8698 59.5 27.138 59.8125 26.4922C60.125 25.8464 60.5677 25.3359 61.1406 24.9609C61.7135 24.5807 62.3932 24.3906 63.1797 24.3906C63.9766 24.3906 64.6641 24.5807 65.2422 24.9609C65.8203 25.3359 66.263 25.8464 66.5703 26.4922C66.8828 27.138 67.0391 27.8698 67.0391 28.6875V28.8672C67.0391 29.6797 66.8828 30.4115 66.5703 31.0625C66.263 31.7083 65.8203 32.2188 65.2422 32.5938C64.6693 32.9688 63.987 33.1562 63.1953 33.1562C62.4036 33.1562 61.7188 32.9688 61.1406 32.5938C60.5677 32.2188 60.125 31.7083 59.8125 31.0625C59.5 30.4115 59.3438 29.6797 59.3438 28.8672V28.6875ZM60.8047 28.8672C60.8047 29.4245 60.8932 29.9401 61.0703 30.4141C61.2474 30.888 61.5104 31.2682 61.8594 31.5547C62.2135 31.8411 62.6589 31.9844 63.1953 31.9844C63.7266 31.9844 64.1667 31.8411 64.5156 31.5547C64.8698 31.2682 65.1354 30.888 65.3125 30.4141C65.4896 29.9401 65.5781 29.4245 65.5781 28.8672V28.6875C65.5781 28.1302 65.4896 27.6146 65.3125 27.1406C65.1354 26.6667 64.8698 26.2865 64.5156 26C64.1615 25.7083 63.7161 25.5625 63.1797 25.5625C62.6536 25.5625 62.2135 25.7083 61.8594 26C61.5052 26.2865 61.2396 26.6667 61.0625 27.1406C60.8906 27.6146 60.8047 28.1302 60.8047 28.6875V28.8672ZM73.1719 24.5469H74.3516L76.3438 30.9531L77.9688 24.5469H79.4141L76.9609 33H75.7812L73.7344 26.6172L71.7344 33H70.5547L68.1016 24.5469H69.5547L71.2109 30.8125L73.1719 24.5469ZM88.8438 33H87.3438V22.8516H83.7031V21.625H92.4922V22.8516H88.8438V33ZM94.8984 33H93.4375V24.5469H94.8594L94.8906 25.5078C95.1042 25.1641 95.375 24.8932 95.7031 24.6953C96.0365 24.4922 96.4323 24.3906 96.8906 24.3906C96.9896 24.3906 97.1068 24.4036 97.2422 24.4297C97.3828 24.4505 97.4792 24.474 97.5312 24.5V25.8359C97.3073 25.7943 97.0703 25.7734 96.8203 25.7734C96.3307 25.7734 95.9271 25.8854 95.6094 26.1094C95.2917 26.3281 95.0547 26.625 94.8984 27V33ZM103.594 27.2031C103.594 26.6979 103.443 26.2969 103.141 26C102.844 25.6979 102.404 25.5469 101.82 25.5469C101.279 25.5469 100.841 25.6823 100.508 25.9531C100.174 26.224 100.008 26.5365 100.008 26.8906H98.5469C98.5469 26.4844 98.6849 26.0911 98.9609 25.7109C99.237 25.3255 99.625 25.0104 100.125 24.7656C100.63 24.5156 101.224 24.3906 101.906 24.3906C102.828 24.3906 103.583 24.625 104.172 25.0938C104.76 25.5625 105.055 26.2708 105.055 27.2188V31.1562C105.055 31.4375 105.078 31.737 105.125 32.0547C105.177 32.3724 105.253 32.6458 105.352 32.875V33H103.828C103.781 32.8958 103.74 32.7656 103.703 32.6094C103.672 32.4531 103.646 32.2891 103.625 32.1172C103.354 32.4036 103.016 32.6484 102.609 32.8516C102.208 33.0547 101.747 33.1562 101.227 33.1562C100.654 33.1562 100.151 33.0469 99.7188 32.8281C99.2917 32.6042 98.9583 32.3021 98.7188 31.9219C98.4844 31.5417 98.3672 31.1198 98.3672 30.6562C98.3672 29.7448 98.7109 29.0547 99.3984 28.5859C100.086 28.112 101.01 27.875 102.172 27.875H103.594V27.2031ZM101.438 31.9062C101.958 31.9062 102.409 31.776 102.789 31.5156C103.169 31.25 103.438 30.9557 103.594 30.6328V28.8906H102.406C101.583 28.8906 100.948 29.0208 100.5 29.2812C100.052 29.5417 99.8281 29.9323 99.8281 30.4531C99.8281 30.8594 99.9635 31.2031 100.234 31.4844C100.51 31.7656 100.911 31.9062 101.438 31.9062ZM108.789 33H107.328V24.5469H108.711L108.758 25.5859C109.06 25.2109 109.424 24.9193 109.852 24.7109C110.279 24.4974 110.753 24.3906 111.273 24.3906C112.107 24.3906 112.766 24.6276 113.25 25.1016C113.74 25.5703 113.984 26.3568 113.984 27.4609V33H112.523V27.4453C112.523 26.7786 112.38 26.3047 112.094 26.0234C111.807 25.7422 111.391 25.6016 110.844 25.6016C110.38 25.6016 109.971 25.7266 109.617 25.9766C109.268 26.2266 108.992 26.5521 108.789 26.9531V33ZM121.094 30.7578C121.094 30.5495 121.047 30.3568 120.953 30.1797C120.865 29.9974 120.682 29.8333 120.406 29.6875C120.13 29.5365 119.714 29.4036 119.156 29.2891C118.219 29.0911 117.477 28.8099 116.93 28.4453C116.383 28.0807 116.109 27.5521 116.109 26.8594C116.109 26.4115 116.237 26.0026 116.492 25.6328C116.753 25.2578 117.117 24.9583 117.586 24.7344C118.06 24.5052 118.612 24.3906 119.242 24.3906C119.919 24.3906 120.497 24.5104 120.977 24.75C121.461 24.9844 121.831 25.3021 122.086 25.7031C122.341 26.099 122.469 26.5391 122.469 27.0234H121.008C121.008 26.6745 120.854 26.3438 120.547 26.0312C120.245 25.7188 119.81 25.5625 119.242 25.5625C118.643 25.5625 118.214 25.6953 117.953 25.9609C117.698 26.2214 117.57 26.5052 117.57 26.8125C117.57 27.0208 117.622 27.2031 117.727 27.3594C117.831 27.5104 118.021 27.6458 118.297 27.7656C118.578 27.8854 118.984 28.0052 119.516 28.125C120.552 28.3646 121.318 28.6771 121.812 29.0625C122.307 29.4427 122.555 29.974 122.555 30.6562C122.555 31.3958 122.255 31.9974 121.656 32.4609C121.062 32.9245 120.271 33.1562 119.281 33.1562C118.536 33.1562 117.906 33.0234 117.391 32.7578C116.875 32.4922 116.484 32.151 116.219 31.7344C115.953 31.3125 115.82 30.8672 115.82 30.3984H117.281C117.307 30.7943 117.422 31.1094 117.625 31.3438C117.833 31.5729 118.086 31.737 118.383 31.8359C118.685 31.9349 118.984 31.9844 119.281 31.9844C119.87 31.9844 120.318 31.8672 120.625 31.6328C120.938 31.3984 121.094 31.1068 121.094 30.7578ZM129.422 27.2031C129.422 26.6979 129.271 26.2969 128.969 26C128.672 25.6979 128.232 25.5469 127.648 25.5469C127.107 25.5469 126.669 25.6823 126.336 25.9531C126.003 26.224 125.836 26.5365 125.836 26.8906H124.375C124.375 26.4844 124.513 26.0911 124.789 25.7109C125.065 25.3255 125.453 25.0104 125.953 24.7656C126.458 24.5156 127.052 24.3906 127.734 24.3906C128.656 24.3906 129.411 24.625 130 25.0938C130.589 25.5625 130.883 26.2708 130.883 27.2188V31.1562C130.883 31.4375 130.906 31.737 130.953 32.0547C131.005 32.3724 131.081 32.6458 131.18 32.875V33H129.656C129.609 32.8958 129.568 32.7656 129.531 32.6094C129.5 32.4531 129.474 32.2891 129.453 32.1172C129.182 32.4036 128.844 32.6484 128.438 32.8516C128.036 33.0547 127.576 33.1562 127.055 33.1562C126.482 33.1562 125.979 33.0469 125.547 32.8281C125.12 32.6042 124.786 32.3021 124.547 31.9219C124.312 31.5417 124.195 31.1198 124.195 30.6562C124.195 29.7448 124.539 29.0547 125.227 28.5859C125.914 28.112 126.839 27.875 128 27.875H129.422V27.2031ZM127.266 31.9062C127.786 31.9062 128.237 31.776 128.617 31.5156C128.997 31.25 129.266 30.9557 129.422 30.6328V28.8906H128.234C127.411 28.8906 126.776 29.0208 126.328 29.2812C125.88 29.5417 125.656 29.9323 125.656 30.4531C125.656 30.8594 125.792 31.2031 126.062 31.4844C126.339 31.7656 126.74 31.9062 127.266 31.9062ZM136.547 31.9844C137.062 31.9844 137.513 31.8281 137.898 31.5156C138.284 31.2031 138.497 30.8073 138.539 30.3281H139.922C139.896 30.8281 139.727 31.2943 139.414 31.7266C139.102 32.1536 138.695 32.5 138.195 32.7656C137.695 33.026 137.146 33.1562 136.547 33.1562C135.698 33.1562 134.995 32.9635 134.438 32.5781C133.88 32.1875 133.464 31.6719 133.188 31.0312C132.917 30.3906 132.781 29.6927 132.781 28.9375V28.6094C132.781 27.849 132.919 27.151 133.195 26.5156C133.471 25.875 133.888 25.362 134.445 24.9766C135.003 24.5859 135.703 24.3906 136.547 24.3906C137.208 24.3906 137.786 24.526 138.281 24.7969C138.781 25.0625 139.172 25.4271 139.453 25.8906C139.74 26.349 139.896 26.8698 139.922 27.4531H138.539C138.503 26.9271 138.305 26.4818 137.945 26.1172C137.591 25.7474 137.125 25.5625 136.547 25.5625C135.958 25.5625 135.495 25.7135 135.156 26.0156C134.823 26.3177 134.586 26.7031 134.445 27.1719C134.31 27.6354 134.242 28.1146 134.242 28.6094V28.9375C134.242 29.4323 134.31 29.9141 134.445 30.3828C134.581 30.8516 134.815 31.237 135.148 31.5391C135.487 31.8359 135.953 31.9844 136.547 31.9844ZM145.102 25.6484H143.523V30.9062C143.523 31.3438 143.617 31.6224 143.805 31.7422C143.997 31.862 144.214 31.9219 144.453 31.9219C144.573 31.9219 144.698 31.9115 144.828 31.8906C144.964 31.8698 145.062 31.8516 145.125 31.8359L145.133 33C145.018 33.0365 144.867 33.0703 144.68 33.1016C144.497 33.138 144.276 33.1562 144.016 33.1562C143.661 33.1562 143.336 33.0859 143.039 32.9453C142.742 32.8047 142.505 32.5703 142.328 32.2422C142.151 31.9089 142.062 31.4609 142.062 30.8984V25.6484H140.523V24.5469H142.062V22.4922H143.523V24.5469H145.102V25.6484ZM146.797 22.2969C146.797 22.0677 146.867 21.8724 147.008 21.7109C147.154 21.5495 147.367 21.4688 147.648 21.4688C147.93 21.4688 148.143 21.5495 148.289 21.7109C148.44 21.8724 148.516 22.0677 148.516 22.2969C148.516 22.5208 148.44 22.7135 148.289 22.875C148.143 23.0312 147.93 23.1094 147.648 23.1094C147.367 23.1094 147.154 23.0312 147.008 22.875C146.867 22.7135 146.797 22.5208 146.797 22.2969ZM148.367 33H146.906V24.5469H148.367V33ZM150.297 28.6875C150.297 27.8698 150.453 27.138 150.766 26.4922C151.078 25.8464 151.521 25.3359 152.094 24.9609C152.667 24.5807 153.346 24.3906 154.133 24.3906C154.93 24.3906 155.617 24.5807 156.195 24.9609C156.773 25.3359 157.216 25.8464 157.523 26.4922C157.836 27.138 157.992 27.8698 157.992 28.6875V28.8672C157.992 29.6797 157.836 30.4115 157.523 31.0625C157.216 31.7083 156.773 32.2188 156.195 32.5938C155.622 32.9688 154.94 33.1562 154.148 33.1562C153.357 33.1562 152.672 32.9688 152.094 32.5938C151.521 32.2188 151.078 31.7083 150.766 31.0625C150.453 30.4115 150.297 29.6797 150.297 28.8672V28.6875ZM151.758 28.8672C151.758 29.4245 151.846 29.9401 152.023 30.4141C152.201 30.888 152.464 31.2682 152.812 31.5547C153.167 31.8411 153.612 31.9844 154.148 31.9844C154.68 31.9844 155.12 31.8411 155.469 31.5547C155.823 31.2682 156.089 30.888 156.266 30.4141C156.443 29.9401 156.531 29.4245 156.531 28.8672V28.6875C156.531 28.1302 156.443 27.6146 156.266 27.1406C156.089 26.6667 155.823 26.2865 155.469 26C155.115 25.7083 154.669 25.5625 154.133 25.5625C153.607 25.5625 153.167 25.7083 152.812 26C152.458 26.2865 152.193 26.6667 152.016 27.1406C151.844 27.6146 151.758 28.1302 151.758 28.6875V28.8672ZM161.273 33H159.812V24.5469H161.195L161.242 25.5859C161.544 25.2109 161.909 24.9193 162.336 24.7109C162.763 24.4974 163.237 24.3906 163.758 24.3906C164.591 24.3906 165.25 24.6276 165.734 25.1016C166.224 25.5703 166.469 26.3568 166.469 27.4609V33H165.008V27.4453C165.008 26.7786 164.865 26.3047 164.578 26.0234C164.292 25.7422 163.875 25.6016 163.328 25.6016C162.865 25.6016 162.456 25.7266 162.102 25.9766C161.753 26.2266 161.477 26.5521 161.273 26.9531V33ZM181.227 29.3906C181.148 30.1042 180.943 30.7474 180.609 31.3203C180.276 31.888 179.805 32.3359 179.195 32.6641C178.586 32.9922 177.823 33.1562 176.906 33.1562C176.016 33.1562 175.237 32.9401 174.57 32.5078C173.904 32.0703 173.385 31.4557 173.016 30.6641C172.646 29.8724 172.461 28.9479 172.461 27.8906V26.7422C172.461 25.6797 172.646 24.7552 173.016 23.9688C173.391 23.1771 173.922 22.5625 174.609 22.125C175.297 21.6875 176.109 21.4688 177.047 21.4688C178.339 21.4688 179.328 21.8229 180.016 22.5312C180.708 23.2344 181.112 24.1484 181.227 25.2734H179.711C179.596 24.4766 179.341 23.849 178.945 23.3906C178.555 22.9271 177.922 22.6953 177.047 22.6953C176.042 22.6953 175.279 23.0651 174.758 23.8047C174.242 24.5443 173.984 25.5182 173.984 26.7266V27.8906C173.984 28.6354 174.089 29.3151 174.297 29.9297C174.505 30.5391 174.823 31.026 175.25 31.3906C175.682 31.7552 176.234 31.9375 176.906 31.9375C177.547 31.9375 178.055 31.8359 178.43 31.6328C178.81 31.4297 179.096 31.138 179.289 30.7578C179.487 30.3776 179.628 29.9219 179.711 29.3906H181.227ZM184.508 33H183.047V21H184.508V25.5469C184.81 25.1875 185.169 24.9062 185.586 24.7031C186.008 24.4948 186.477 24.3906 186.992 24.3906C187.826 24.3906 188.484 24.6276 188.969 25.1016C189.458 25.5703 189.703 26.3568 189.703 27.4609V33H188.242V27.4453C188.242 26.7786 188.099 26.3047 187.812 26.0234C187.526 25.7422 187.109 25.6016 186.562 25.6016C186.099 25.6016 185.69 25.7266 185.336 25.9766C184.987 26.2266 184.711 26.5521 184.508 26.9531V33ZM196.844 27.2031C196.844 26.6979 196.693 26.2969 196.391 26C196.094 25.6979 195.654 25.5469 195.07 25.5469C194.529 25.5469 194.091 25.6823 193.758 25.9531C193.424 26.224 193.258 26.5365 193.258 26.8906H191.797C191.797 26.4844 191.935 26.0911 192.211 25.7109C192.487 25.3255 192.875 25.0104 193.375 24.7656C193.88 24.5156 194.474 24.3906 195.156 24.3906C196.078 24.3906 196.833 24.625 197.422 25.0938C198.01 25.5625 198.305 26.2708 198.305 27.2188V31.1562C198.305 31.4375 198.328 31.737 198.375 32.0547C198.427 32.3724 198.503 32.6458 198.602 32.875V33H197.078C197.031 32.8958 196.99 32.7656 196.953 32.6094C196.922 32.4531 196.896 32.2891 196.875 32.1172C196.604 32.4036 196.266 32.6484 195.859 32.8516C195.458 33.0547 194.997 33.1562 194.477 33.1562C193.904 33.1562 193.401 33.0469 192.969 32.8281C192.542 32.6042 192.208 32.3021 191.969 31.9219C191.734 31.5417 191.617 31.1198 191.617 30.6562C191.617 29.7448 191.961 29.0547 192.648 28.5859C193.336 28.112 194.26 27.875 195.422 27.875H196.844V27.2031ZM194.688 31.9062C195.208 31.9062 195.659 31.776 196.039 31.5156C196.419 31.25 196.688 30.9557 196.844 30.6328V28.8906H195.656C194.833 28.8906 194.198 29.0208 193.75 29.2812C193.302 29.5417 193.078 29.9323 193.078 30.4531C193.078 30.8594 193.214 31.2031 193.484 31.4844C193.76 31.7656 194.161 31.9062 194.688 31.9062ZM202.039 33H200.578V24.5469H202L202.031 25.5078C202.245 25.1641 202.516 24.8932 202.844 24.6953C203.177 24.4922 203.573 24.3906 204.031 24.3906C204.13 24.3906 204.247 24.4036 204.383 24.4297C204.523 24.4505 204.62 24.474 204.672 24.5V25.8359C204.448 25.7943 204.211 25.7734 203.961 25.7734C203.471 25.7734 203.068 25.8854 202.75 26.1094C202.432 26.3281 202.195 26.625 202.039 27V33ZM205.656 28.7031C205.656 27.8438 205.792 27.0911 206.062 26.4453C206.333 25.7943 206.719 25.2891 207.219 24.9297C207.719 24.5703 208.312 24.3906 209 24.3906C209.531 24.3906 209.995 24.4844 210.391 24.6719C210.792 24.8594 211.133 25.125 211.414 25.4688L211.477 24.5469H212.805V32.8203C212.805 33.5651 212.651 34.2005 212.344 34.7266C212.042 35.2526 211.62 35.651 211.078 35.9219C210.542 36.1979 209.922 36.3359 209.219 36.3359C208.927 36.3359 208.583 36.2891 208.188 36.1953C207.797 36.1068 207.411 35.9531 207.031 35.7344C206.656 35.5208 206.341 35.2318 206.086 34.8672L206.844 34.0156C207.198 34.4427 207.568 34.7396 207.953 34.9062C208.344 35.0781 208.729 35.1641 209.109 35.1641C209.792 35.1641 210.333 34.9688 210.734 34.5781C211.141 34.1927 211.344 33.6302 211.344 32.8906V32.1641C211.068 32.4818 210.734 32.7266 210.344 32.8984C209.953 33.0703 209.5 33.1562 208.984 33.1562C208.307 33.1562 207.719 32.9714 207.219 32.6016C206.724 32.2266 206.339 31.7161 206.062 31.0703C205.792 30.4245 205.656 29.6901 205.656 28.8672V28.7031ZM207.117 28.8672C207.117 29.4297 207.193 29.9427 207.344 30.4062C207.5 30.8698 207.742 31.2422 208.07 31.5234C208.398 31.7995 208.823 31.9375 209.344 31.9375C209.854 31.9375 210.268 31.8203 210.586 31.5859C210.904 31.3516 211.156 31.0547 211.344 30.6953V26.8125C211.161 26.4688 210.909 26.1823 210.586 25.9531C210.263 25.7188 209.854 25.6016 209.359 25.6016C208.833 25.6016 208.404 25.7422 208.07 26.0234C207.742 26.3047 207.5 26.6823 207.344 27.1562C207.193 27.625 207.117 28.1406 207.117 28.7031V28.8672ZM218.5 33.1562C217.714 33.1562 217.029 32.9818 216.445 32.6328C215.867 32.2786 215.417 31.7943 215.094 31.1797C214.776 30.5651 214.617 29.862 214.617 29.0703V28.7344C214.617 27.8177 214.792 27.0365 215.141 26.3906C215.495 25.7396 215.953 25.2448 216.516 24.9062C217.083 24.5625 217.682 24.3906 218.312 24.3906C219.125 24.3906 219.786 24.5729 220.297 24.9375C220.812 25.2969 221.19 25.7891 221.43 26.4141C221.674 27.0339 221.797 27.737 221.797 28.5234V29.1719H216.078C216.094 29.6927 216.201 30.1667 216.398 30.5938C216.602 31.0156 216.888 31.3542 217.258 31.6094C217.628 31.8594 218.068 31.9844 218.578 31.9844C219.089 31.9844 219.521 31.8802 219.875 31.6719C220.229 31.4635 220.539 31.1849 220.805 30.8359L221.688 31.5234C221.417 31.9401 221.026 32.3177 220.516 32.6562C220.01 32.9896 219.339 33.1562 218.5 33.1562ZM218.312 25.5625C217.74 25.5625 217.255 25.7734 216.859 26.1953C216.469 26.6172 216.224 27.2188 216.125 28H220.336V27.8906C220.315 27.5156 220.24 27.151 220.109 26.7969C219.979 26.4375 219.771 26.1432 219.484 25.9141C219.198 25.6797 218.807 25.5625 218.312 25.5625ZM228.406 30.7578C228.406 30.5495 228.359 30.3568 228.266 30.1797C228.177 29.9974 227.995 29.8333 227.719 29.6875C227.443 29.5365 227.026 29.4036 226.469 29.2891C225.531 29.0911 224.789 28.8099 224.242 28.4453C223.695 28.0807 223.422 27.5521 223.422 26.8594C223.422 26.4115 223.549 26.0026 223.805 25.6328C224.065 25.2578 224.43 24.9583 224.898 24.7344C225.372 24.5052 225.924 24.3906 226.555 24.3906C227.232 24.3906 227.81 24.5104 228.289 24.75C228.773 24.9844 229.143 25.3021 229.398 25.7031C229.654 26.099 229.781 26.5391 229.781 27.0234H228.32C228.32 26.6745 228.167 26.3438 227.859 26.0312C227.557 25.7188 227.122 25.5625 226.555 25.5625C225.956 25.5625 225.526 25.6953 225.266 25.9609C225.01 26.2214 224.883 26.5052 224.883 26.8125C224.883 27.0208 224.935 27.2031 225.039 27.3594C225.143 27.5104 225.333 27.6458 225.609 27.7656C225.891 27.8854 226.297 28.0052 226.828 28.125C227.865 28.3646 228.63 28.6771 229.125 29.0625C229.62 29.4427 229.867 29.974 229.867 30.6562C229.867 31.3958 229.568 31.9974 228.969 32.4609C228.375 32.9245 227.583 33.1562 226.594 33.1562C225.849 33.1562 225.219 33.0234 224.703 32.7578C224.188 32.4922 223.797 32.151 223.531 31.7344C223.266 31.3125 223.133 30.8672 223.133 30.3984H224.594C224.62 30.7943 224.734 31.1094 224.938 31.3438C225.146 31.5729 225.398 31.737 225.695 31.8359C225.997 31.9349 226.297 31.9844 226.594 31.9844C227.182 31.9844 227.63 31.8672 227.938 31.6328C228.25 31.3984 228.406 31.1068 228.406 30.7578Z" fill="#003A99"/>
<defs>
<clipPath id="clip0_1371:680">
<rect width="24" height="24" fill="white" transform="translate(16 16)"/>
</clipPath>
</defs>
</svg>
