<svg width="247" height="56" viewBox="0 0 247 56" fill="none" xmlns="http://www.w3.org/2000/svg">
<rect width="247" height="56" rx="8" fill="#F5F9FF"/>
<path d="M17.607 34C17.8039 34.3416 18.0661 34.6411 18.3787 34.8812C18.6914 35.1214 19.0483 35.2976 19.429 35.3998C19.8098 35.502 20.207 35.5281 20.5979 35.4766C20.9888 35.4252 21.3657 35.2972 21.707 35.1L22.152 34.843C22.9921 35.5617 23.9576 36.119 25 36.487V37C25 37.7956 25.3161 38.5587 25.8787 39.1213C26.4413 39.6839 27.2044 40 28 40C28.7957 40 29.5588 39.6839 30.1214 39.1213C30.684 38.5587 31 37.7956 31 37V36.487C32.0427 36.1184 33.0082 35.5604 33.848 34.841L34.295 35.099C34.9846 35.4968 35.804 35.6044 36.5729 35.3981C37.3418 35.1918 37.9972 34.6886 38.395 33.999C38.7929 33.3094 38.9005 32.4901 38.6942 31.7212C38.4879 30.9523 37.9846 30.2968 37.295 29.899L36.851 29.643C37.0509 28.5554 37.0509 27.4406 36.851 26.353L37.295 26.097C37.6365 25.9 37.9358 25.6377 38.1758 25.3251C38.4159 25.0124 38.592 24.6555 38.6942 24.2748C38.7963 23.8941 38.8225 23.497 38.7712 23.1062C38.7198 22.7153 38.592 22.3384 38.395 21.997C38.1981 21.6556 37.9358 21.3563 37.6231 21.1162C37.3105 20.8761 36.9536 20.7 36.5729 20.5979C36.1921 20.4957 35.795 20.4696 35.4042 20.5209C35.0134 20.5722 34.6365 20.7 34.295 20.897L33.85 21.154C33.0092 20.4362 32.043 19.8798 31 19.513V19C31 18.2044 30.684 17.4413 30.1214 16.8787C29.5588 16.3161 28.7957 16 28 16C27.2044 16 26.4413 16.3161 25.8787 16.8787C25.3161 17.4413 25 18.2044 25 19V19.513C23.9574 19.8816 22.9919 20.4396 22.152 21.159L21.705 20.9C21.0155 20.5022 20.1961 20.3946 19.4272 20.6009C18.6583 20.8072 18.0029 21.3104 17.605 22C17.2072 22.6896 17.0996 23.5089 17.3059 24.2778C17.5122 25.0467 18.0155 25.7022 18.705 26.1L19.149 26.356C18.9492 27.4436 18.9492 28.5584 19.149 29.646L18.705 29.902C18.0172 30.301 17.5155 30.9562 17.3097 31.7242C17.104 32.4923 17.2109 33.3106 17.607 34ZM28 24C28.7912 24 29.5645 24.2346 30.2223 24.6741C30.8801 25.1136 31.3928 25.7384 31.6956 26.4693C31.9983 27.2002 32.0775 28.0044 31.9232 28.7804C31.7688 29.5563 31.3879 30.269 30.8285 30.8284C30.2691 31.3878 29.5563 31.7688 28.7804 31.9231C28.0045 32.0775 27.2002 31.9983 26.4693 31.6955C25.7384 31.3928 25.1137 30.8801 24.6742 30.2223C24.2346 29.5645 24 28.7911 24 28C24 26.9391 24.4215 25.9217 25.1716 25.1716C25.9218 24.4214 26.9392 24 28 24Z" fill="#1A71FF"/>
<path d="M60.0703 33H58.5469L52.8359 24.2031V33H51.3203V21.625H52.8359L58.5703 30.4453V21.625H60.0703V33ZM62.1406 28.6875C62.1406 27.8698 62.2969 27.138 62.6094 26.4922C62.9219 25.8464 63.3646 25.3359 63.9375 24.9609C64.5104 24.5807 65.1901 24.3906 65.9766 24.3906C66.7734 24.3906 67.4609 24.5807 68.0391 24.9609C68.6172 25.3359 69.0599 25.8464 69.3672 26.4922C69.6797 27.138 69.8359 27.8698 69.8359 28.6875V28.8672C69.8359 29.6797 69.6797 30.4115 69.3672 31.0625C69.0599 31.7083 68.6172 32.2188 68.0391 32.5938C67.4661 32.9688 66.7839 33.1562 65.9922 33.1562C65.2005 33.1562 64.5156 32.9688 63.9375 32.5938C63.3646 32.2188 62.9219 31.7083 62.6094 31.0625C62.2969 30.4115 62.1406 29.6797 62.1406 28.8672V28.6875ZM63.6016 28.8672C63.6016 29.4245 63.6901 29.9401 63.8672 30.4141C64.0443 30.888 64.3073 31.2682 64.6562 31.5547C65.0104 31.8411 65.4557 31.9844 65.9922 31.9844C66.5234 31.9844 66.9635 31.8411 67.3125 31.5547C67.6667 31.2682 67.9323 30.888 68.1094 30.4141C68.2865 29.9401 68.375 29.4245 68.375 28.8672V28.6875C68.375 28.1302 68.2865 27.6146 68.1094 27.1406C67.9323 26.6667 67.6667 26.2865 67.3125 26C66.9583 25.7083 66.513 25.5625 65.9766 25.5625C65.4505 25.5625 65.0104 25.7083 64.6562 26C64.3021 26.2865 64.0365 26.6667 63.8594 27.1406C63.6875 27.6146 63.6016 28.1302 63.6016 28.6875V28.8672ZM77.8047 21.625L81.5156 30.9219L85.2266 21.625H87.1797V33H85.6719V28.5547L85.8125 23.8125L82.0859 33H80.9375L77.2188 23.8125L77.3594 28.5547V33H75.8516V21.625H77.8047ZM94.5938 27.2031C94.5938 26.6979 94.4427 26.2969 94.1406 26C93.8438 25.6979 93.4036 25.5469 92.8203 25.5469C92.2786 25.5469 91.8411 25.6823 91.5078 25.9531C91.1745 26.224 91.0078 26.5365 91.0078 26.8906H89.5469C89.5469 26.4844 89.6849 26.0911 89.9609 25.7109C90.237 25.3255 90.625 25.0104 91.125 24.7656C91.6302 24.5156 92.224 24.3906 92.9062 24.3906C93.8281 24.3906 94.5833 24.625 95.1719 25.0938C95.7604 25.5625 96.0547 26.2708 96.0547 27.2188V31.1562C96.0547 31.4375 96.0781 31.737 96.125 32.0547C96.1771 32.3724 96.2526 32.6458 96.3516 32.875V33H94.8281C94.7812 32.8958 94.7396 32.7656 94.7031 32.6094C94.6719 32.4531 94.6458 32.2891 94.625 32.1172C94.3542 32.4036 94.0156 32.6484 93.6094 32.8516C93.2083 33.0547 92.7474 33.1562 92.2266 33.1562C91.6536 33.1562 91.151 33.0469 90.7188 32.8281C90.2917 32.6042 89.9583 32.3021 89.7188 31.9219C89.4844 31.5417 89.3672 31.1198 89.3672 30.6562C89.3672 29.7448 89.7109 29.0547 90.3984 28.5859C91.0859 28.112 92.0104 27.875 93.1719 27.875H94.5938V27.2031ZM92.4375 31.9062C92.9583 31.9062 93.4089 31.776 93.7891 31.5156C94.1693 31.25 94.4375 30.9557 94.5938 30.6328V28.8906H93.4062C92.5833 28.8906 91.9479 29.0208 91.5 29.2812C91.0521 29.5417 90.8281 29.9323 90.8281 30.4531C90.8281 30.8594 90.9635 31.2031 91.2344 31.4844C91.5104 31.7656 91.9115 31.9062 92.4375 31.9062ZM98.3438 22.2969C98.3438 22.0677 98.4141 21.8724 98.5547 21.7109C98.7005 21.5495 98.9141 21.4688 99.1953 21.4688C99.4766 21.4688 99.6901 21.5495 99.8359 21.7109C99.987 21.8724 100.062 22.0677 100.062 22.2969C100.062 22.5208 99.987 22.7135 99.8359 22.875C99.6901 23.0312 99.4766 23.1094 99.1953 23.1094C98.9141 23.1094 98.7005 23.0312 98.5547 22.875C98.4141 22.7135 98.3438 22.5208 98.3438 22.2969ZM99.9141 33H98.4531V24.5469H99.9141V33ZM103.68 33H102.219V24.5469H103.602L103.648 25.5859C103.951 25.2109 104.315 24.9193 104.742 24.7109C105.169 24.4974 105.643 24.3906 106.164 24.3906C106.997 24.3906 107.656 24.6276 108.141 25.1016C108.63 25.5703 108.875 26.3568 108.875 27.4609V33H107.414V27.4453C107.414 26.7786 107.271 26.3047 106.984 26.0234C106.698 25.7422 106.281 25.6016 105.734 25.6016C105.271 25.6016 104.862 25.7266 104.508 25.9766C104.159 26.2266 103.883 26.5521 103.68 26.9531V33ZM114.617 25.6484H113.039V30.9062C113.039 31.3438 113.133 31.6224 113.32 31.7422C113.513 31.862 113.729 31.9219 113.969 31.9219C114.089 31.9219 114.214 31.9115 114.344 31.8906C114.479 31.8698 114.578 31.8516 114.641 31.8359L114.648 33C114.534 33.0365 114.383 33.0703 114.195 33.1016C114.013 33.138 113.792 33.1562 113.531 33.1562C113.177 33.1562 112.852 33.0859 112.555 32.9453C112.258 32.8047 112.021 32.5703 111.844 32.2422C111.667 31.9089 111.578 31.4609 111.578 30.8984V25.6484H110.039V24.5469H111.578V22.4922H113.039V24.5469H114.617V25.6484ZM119.812 33.1562C119.026 33.1562 118.341 32.9818 117.758 32.6328C117.18 32.2786 116.729 31.7943 116.406 31.1797C116.089 30.5651 115.93 29.862 115.93 29.0703V28.7344C115.93 27.8177 116.104 27.0365 116.453 26.3906C116.807 25.7396 117.266 25.2448 117.828 24.9062C118.396 24.5625 118.995 24.3906 119.625 24.3906C120.438 24.3906 121.099 24.5729 121.609 24.9375C122.125 25.2969 122.503 25.7891 122.742 26.4141C122.987 27.0339 123.109 27.737 123.109 28.5234V29.1719H117.391C117.406 29.6927 117.513 30.1667 117.711 30.5938C117.914 31.0156 118.201 31.3542 118.57 31.6094C118.94 31.8594 119.38 31.9844 119.891 31.9844C120.401 31.9844 120.833 31.8802 121.188 31.6719C121.542 31.4635 121.852 31.1849 122.117 30.8359L123 31.5234C122.729 31.9401 122.339 32.3177 121.828 32.6562C121.323 32.9896 120.651 33.1562 119.812 33.1562ZM119.625 25.5625C119.052 25.5625 118.568 25.7734 118.172 26.1953C117.781 26.6172 117.536 27.2188 117.438 28H121.648V27.8906C121.628 27.5156 121.552 27.151 121.422 26.7969C121.292 26.4375 121.083 26.1432 120.797 25.9141C120.51 25.6797 120.12 25.5625 119.625 25.5625ZM126.258 33H124.797V24.5469H126.18L126.227 25.5859C126.529 25.2109 126.893 24.9193 127.32 24.7109C127.747 24.4974 128.221 24.3906 128.742 24.3906C129.576 24.3906 130.234 24.6276 130.719 25.1016C131.208 25.5703 131.453 26.3568 131.453 27.4609V33H129.992V27.4453C129.992 26.7786 129.849 26.3047 129.562 26.0234C129.276 25.7422 128.859 25.6016 128.312 25.6016C127.849 25.6016 127.44 25.7266 127.086 25.9766C126.737 26.2266 126.461 26.5521 126.258 26.9531V33ZM138.625 27.2031C138.625 26.6979 138.474 26.2969 138.172 26C137.875 25.6979 137.435 25.5469 136.852 25.5469C136.31 25.5469 135.872 25.6823 135.539 25.9531C135.206 26.224 135.039 26.5365 135.039 26.8906H133.578C133.578 26.4844 133.716 26.0911 133.992 25.7109C134.268 25.3255 134.656 25.0104 135.156 24.7656C135.661 24.5156 136.255 24.3906 136.938 24.3906C137.859 24.3906 138.615 24.625 139.203 25.0938C139.792 25.5625 140.086 26.2708 140.086 27.2188V31.1562C140.086 31.4375 140.109 31.737 140.156 32.0547C140.208 32.3724 140.284 32.6458 140.383 32.875V33H138.859C138.812 32.8958 138.771 32.7656 138.734 32.6094C138.703 32.4531 138.677 32.2891 138.656 32.1172C138.385 32.4036 138.047 32.6484 137.641 32.8516C137.24 33.0547 136.779 33.1562 136.258 33.1562C135.685 33.1562 135.182 33.0469 134.75 32.8281C134.323 32.6042 133.99 32.3021 133.75 31.9219C133.516 31.5417 133.398 31.1198 133.398 30.6562C133.398 29.7448 133.742 29.0547 134.43 28.5859C135.117 28.112 136.042 27.875 137.203 27.875H138.625V27.2031ZM136.469 31.9062C136.99 31.9062 137.44 31.776 137.82 31.5156C138.201 31.25 138.469 30.9557 138.625 30.6328V28.8906H137.438C136.615 28.8906 135.979 29.0208 135.531 29.2812C135.083 29.5417 134.859 29.9323 134.859 30.4531C134.859 30.8594 134.995 31.2031 135.266 31.4844C135.542 31.7656 135.943 31.9062 136.469 31.9062ZM143.82 33H142.359V24.5469H143.742L143.789 25.5859C144.091 25.2109 144.456 24.9193 144.883 24.7109C145.31 24.4974 145.784 24.3906 146.305 24.3906C147.138 24.3906 147.797 24.6276 148.281 25.1016C148.771 25.5703 149.016 26.3568 149.016 27.4609V33H147.555V27.4453C147.555 26.7786 147.411 26.3047 147.125 26.0234C146.839 25.7422 146.422 25.6016 145.875 25.6016C145.411 25.6016 145.003 25.7266 144.648 25.9766C144.299 26.2266 144.023 26.5521 143.82 26.9531V33ZM154.594 31.9844C155.109 31.9844 155.56 31.8281 155.945 31.5156C156.331 31.2031 156.544 30.8073 156.586 30.3281H157.969C157.943 30.8281 157.773 31.2943 157.461 31.7266C157.148 32.1536 156.742 32.5 156.242 32.7656C155.742 33.026 155.193 33.1562 154.594 33.1562C153.745 33.1562 153.042 32.9635 152.484 32.5781C151.927 32.1875 151.51 31.6719 151.234 31.0312C150.964 30.3906 150.828 29.6927 150.828 28.9375V28.6094C150.828 27.849 150.966 27.151 151.242 26.5156C151.518 25.875 151.935 25.362 152.492 24.9766C153.049 24.5859 153.75 24.3906 154.594 24.3906C155.255 24.3906 155.833 24.526 156.328 24.7969C156.828 25.0625 157.219 25.4271 157.5 25.8906C157.786 26.349 157.943 26.8698 157.969 27.4531H156.586C156.549 26.9271 156.352 26.4818 155.992 26.1172C155.638 25.7474 155.172 25.5625 154.594 25.5625C154.005 25.5625 153.542 25.7135 153.203 26.0156C152.87 26.3177 152.633 26.7031 152.492 27.1719C152.357 27.6354 152.289 28.1146 152.289 28.6094V28.9375C152.289 29.4323 152.357 29.9141 152.492 30.3828C152.628 30.8516 152.862 31.237 153.195 31.5391C153.534 31.8359 154 31.9844 154.594 31.9844ZM163.109 33.1562C162.323 33.1562 161.638 32.9818 161.055 32.6328C160.477 32.2786 160.026 31.7943 159.703 31.1797C159.385 30.5651 159.227 29.862 159.227 29.0703V28.7344C159.227 27.8177 159.401 27.0365 159.75 26.3906C160.104 25.7396 160.562 25.2448 161.125 24.9062C161.693 24.5625 162.292 24.3906 162.922 24.3906C163.734 24.3906 164.396 24.5729 164.906 24.9375C165.422 25.2969 165.799 25.7891 166.039 26.4141C166.284 27.0339 166.406 27.737 166.406 28.5234V29.1719H160.688C160.703 29.6927 160.81 30.1667 161.008 30.5938C161.211 31.0156 161.497 31.3542 161.867 31.6094C162.237 31.8594 162.677 31.9844 163.188 31.9844C163.698 31.9844 164.13 31.8802 164.484 31.6719C164.839 31.4635 165.148 31.1849 165.414 30.8359L166.297 31.5234C166.026 31.9401 165.635 32.3177 165.125 32.6562C164.62 32.9896 163.948 33.1562 163.109 33.1562ZM162.922 25.5625C162.349 25.5625 161.865 25.7734 161.469 26.1953C161.078 26.6172 160.833 27.2188 160.734 28H164.945V27.8906C164.924 27.5156 164.849 27.151 164.719 26.7969C164.589 26.4375 164.38 26.1432 164.094 25.9141C163.807 25.6797 163.417 25.5625 162.922 25.5625ZM180.664 29.3906C180.586 30.1042 180.38 30.7474 180.047 31.3203C179.714 31.888 179.242 32.3359 178.633 32.6641C178.023 32.9922 177.26 33.1562 176.344 33.1562C175.453 33.1562 174.674 32.9401 174.008 32.5078C173.341 32.0703 172.823 31.4557 172.453 30.6641C172.083 29.8724 171.898 28.9479 171.898 27.8906V26.7422C171.898 25.6797 172.083 24.7552 172.453 23.9688C172.828 23.1771 173.359 22.5625 174.047 22.125C174.734 21.6875 175.547 21.4688 176.484 21.4688C177.776 21.4688 178.766 21.8229 179.453 22.5312C180.146 23.2344 180.549 24.1484 180.664 25.2734H179.148C179.034 24.4766 178.779 23.849 178.383 23.3906C177.992 22.9271 177.359 22.6953 176.484 22.6953C175.479 22.6953 174.716 23.0651 174.195 23.8047C173.68 24.5443 173.422 25.5182 173.422 26.7266V27.8906C173.422 28.6354 173.526 29.3151 173.734 29.9297C173.943 30.5391 174.26 31.026 174.688 31.3906C175.12 31.7552 175.672 31.9375 176.344 31.9375C176.984 31.9375 177.492 31.8359 177.867 31.6328C178.247 31.4297 178.534 31.138 178.727 30.7578C178.924 30.3776 179.065 29.9219 179.148 29.3906H180.664ZM183.945 33H182.484V21H183.945V25.5469C184.247 25.1875 184.607 24.9062 185.023 24.7031C185.445 24.4948 185.914 24.3906 186.43 24.3906C187.263 24.3906 187.922 24.6276 188.406 25.1016C188.896 25.5703 189.141 26.3568 189.141 27.4609V33H187.68V27.4453C187.68 26.7786 187.536 26.3047 187.25 26.0234C186.964 25.7422 186.547 25.6016 186 25.6016C185.536 25.6016 185.128 25.7266 184.773 25.9766C184.424 26.2266 184.148 26.5521 183.945 26.9531V33ZM196.281 27.2031C196.281 26.6979 196.13 26.2969 195.828 26C195.531 25.6979 195.091 25.5469 194.508 25.5469C193.966 25.5469 193.529 25.6823 193.195 25.9531C192.862 26.224 192.695 26.5365 192.695 26.8906H191.234C191.234 26.4844 191.372 26.0911 191.648 25.7109C191.924 25.3255 192.312 25.0104 192.812 24.7656C193.318 24.5156 193.911 24.3906 194.594 24.3906C195.516 24.3906 196.271 24.625 196.859 25.0938C197.448 25.5625 197.742 26.2708 197.742 27.2188V31.1562C197.742 31.4375 197.766 31.737 197.812 32.0547C197.865 32.3724 197.94 32.6458 198.039 32.875V33H196.516C196.469 32.8958 196.427 32.7656 196.391 32.6094C196.359 32.4531 196.333 32.2891 196.312 32.1172C196.042 32.4036 195.703 32.6484 195.297 32.8516C194.896 33.0547 194.435 33.1562 193.914 33.1562C193.341 33.1562 192.839 33.0469 192.406 32.8281C191.979 32.6042 191.646 32.3021 191.406 31.9219C191.172 31.5417 191.055 31.1198 191.055 30.6562C191.055 29.7448 191.398 29.0547 192.086 28.5859C192.773 28.112 193.698 27.875 194.859 27.875H196.281V27.2031ZM194.125 31.9062C194.646 31.9062 195.096 31.776 195.477 31.5156C195.857 31.25 196.125 30.9557 196.281 30.6328V28.8906H195.094C194.271 28.8906 193.635 29.0208 193.188 29.2812C192.74 29.5417 192.516 29.9323 192.516 30.4531C192.516 30.8594 192.651 31.2031 192.922 31.4844C193.198 31.7656 193.599 31.9062 194.125 31.9062ZM201.477 33H200.016V24.5469H201.438L201.469 25.5078C201.682 25.1641 201.953 24.8932 202.281 24.6953C202.615 24.4922 203.01 24.3906 203.469 24.3906C203.568 24.3906 203.685 24.4036 203.82 24.4297C203.961 24.4505 204.057 24.474 204.109 24.5V25.8359C203.885 25.7943 203.648 25.7734 203.398 25.7734C202.909 25.7734 202.505 25.8854 202.188 26.1094C201.87 26.3281 201.633 26.625 201.477 27V33ZM205.094 28.7031C205.094 27.8438 205.229 27.0911 205.5 26.4453C205.771 25.7943 206.156 25.2891 206.656 24.9297C207.156 24.5703 207.75 24.3906 208.438 24.3906C208.969 24.3906 209.432 24.4844 209.828 24.6719C210.229 24.8594 210.57 25.125 210.852 25.4688L210.914 24.5469H212.242V32.8203C212.242 33.5651 212.089 34.2005 211.781 34.7266C211.479 35.2526 211.057 35.651 210.516 35.9219C209.979 36.1979 209.359 36.3359 208.656 36.3359C208.365 36.3359 208.021 36.2891 207.625 36.1953C207.234 36.1068 206.849 35.9531 206.469 35.7344C206.094 35.5208 205.779 35.2318 205.523 34.8672L206.281 34.0156C206.635 34.4427 207.005 34.7396 207.391 34.9062C207.781 35.0781 208.167 35.1641 208.547 35.1641C209.229 35.1641 209.771 34.9688 210.172 34.5781C210.578 34.1927 210.781 33.6302 210.781 32.8906V32.1641C210.505 32.4818 210.172 32.7266 209.781 32.8984C209.391 33.0703 208.938 33.1562 208.422 33.1562C207.745 33.1562 207.156 32.9714 206.656 32.6016C206.161 32.2266 205.776 31.7161 205.5 31.0703C205.229 30.4245 205.094 29.6901 205.094 28.8672V28.7031ZM206.555 28.8672C206.555 29.4297 206.63 29.9427 206.781 30.4062C206.938 30.8698 207.18 31.2422 207.508 31.5234C207.836 31.7995 208.26 31.9375 208.781 31.9375C209.292 31.9375 209.706 31.8203 210.023 31.5859C210.341 31.3516 210.594 31.0547 210.781 30.6953V26.8125C210.599 26.4688 210.346 26.1823 210.023 25.9531C209.701 25.7188 209.292 25.6016 208.797 25.6016C208.271 25.6016 207.841 25.7422 207.508 26.0234C207.18 26.3047 206.938 26.6823 206.781 27.1562C206.63 27.625 206.555 28.1406 206.555 28.7031V28.8672ZM217.938 33.1562C217.151 33.1562 216.466 32.9818 215.883 32.6328C215.305 32.2786 214.854 31.7943 214.531 31.1797C214.214 30.5651 214.055 29.862 214.055 29.0703V28.7344C214.055 27.8177 214.229 27.0365 214.578 26.3906C214.932 25.7396 215.391 25.2448 215.953 24.9062C216.521 24.5625 217.12 24.3906 217.75 24.3906C218.562 24.3906 219.224 24.5729 219.734 24.9375C220.25 25.2969 220.628 25.7891 220.867 26.4141C221.112 27.0339 221.234 27.737 221.234 28.5234V29.1719H215.516C215.531 29.6927 215.638 30.1667 215.836 30.5938C216.039 31.0156 216.326 31.3542 216.695 31.6094C217.065 31.8594 217.505 31.9844 218.016 31.9844C218.526 31.9844 218.958 31.8802 219.312 31.6719C219.667 31.4635 219.977 31.1849 220.242 30.8359L221.125 31.5234C220.854 31.9401 220.464 32.3177 219.953 32.6562C219.448 32.9896 218.776 33.1562 217.938 33.1562ZM217.75 25.5625C217.177 25.5625 216.693 25.7734 216.297 26.1953C215.906 26.6172 215.661 27.2188 215.562 28H219.773V27.8906C219.753 27.5156 219.677 27.151 219.547 26.7969C219.417 26.4375 219.208 26.1432 218.922 25.9141C218.635 25.6797 218.245 25.5625 217.75 25.5625ZM227.844 30.7578C227.844 30.5495 227.797 30.3568 227.703 30.1797C227.615 29.9974 227.432 29.8333 227.156 29.6875C226.88 29.5365 226.464 29.4036 225.906 29.2891C224.969 29.0911 224.227 28.8099 223.68 28.4453C223.133 28.0807 222.859 27.5521 222.859 26.8594C222.859 26.4115 222.987 26.0026 223.242 25.6328C223.503 25.2578 223.867 24.9583 224.336 24.7344C224.81 24.5052 225.362 24.3906 225.992 24.3906C226.669 24.3906 227.247 24.5104 227.727 24.75C228.211 24.9844 228.581 25.3021 228.836 25.7031C229.091 26.099 229.219 26.5391 229.219 27.0234H227.758C227.758 26.6745 227.604 26.3438 227.297 26.0312C226.995 25.7188 226.56 25.5625 225.992 25.5625C225.393 25.5625 224.964 25.6953 224.703 25.9609C224.448 26.2214 224.32 26.5052 224.32 26.8125C224.32 27.0208 224.372 27.2031 224.477 27.3594C224.581 27.5104 224.771 27.6458 225.047 27.7656C225.328 27.8854 225.734 28.0052 226.266 28.125C227.302 28.3646 228.068 28.6771 228.562 29.0625C229.057 29.4427 229.305 29.974 229.305 30.6562C229.305 31.3958 229.005 31.9974 228.406 32.4609C227.812 32.9245 227.021 33.1562 226.031 33.1562C225.286 33.1562 224.656 33.0234 224.141 32.7578C223.625 32.4922 223.234 32.151 222.969 31.7344C222.703 31.3125 222.57 30.8672 222.57 30.3984H224.031C224.057 30.7943 224.172 31.1094 224.375 31.3438C224.583 31.5729 224.836 31.737 225.133 31.8359C225.435 31.9349 225.734 31.9844 226.031 31.9844C226.62 31.9844 227.068 31.8672 227.375 31.6328C227.688 31.3984 227.844 31.1068 227.844 30.7578Z" fill="#003A99"/>
</svg>
