<svg width="448" height="383" viewBox="0 0 448 383" fill="none" xmlns="http://www.w3.org/2000/svg">
<rect width="448" height="383" rx="16" fill="#E5EFFF"/>
<path d="M70 40C70 35.5817 73.5817 32 78 32H370C374.418 32 378 35.5817 378 40V343C378 347.418 374.418 351 370 351H78C73.5817 351 70 347.418 70 343V40Z" fill="white"/>
<path d="M89 295C89 290.582 92.5817 287 97 287H351C355.418 287 359 290.582 359 295V327C359 331.418 355.418 335 351 335H97C92.5817 335 89 331.418 89 327V295Z" fill="#1A71FF"/>
<path d="M157.351 317H159.459V312.739H161.607L163.891 317H166.243L163.726 312.386C165.095 311.835 165.817 310.665 165.817 309.085C165.817 306.864 164.385 305.364 161.714 305.364H157.351V317ZM159.459 310.989V307.125H161.391C162.964 307.125 163.669 307.847 163.669 309.085C163.669 310.324 162.964 310.989 161.402 310.989H159.459ZM171.405 317.17C173.439 317.17 174.837 316.176 175.2 314.659L173.28 314.443C173.001 315.182 172.32 315.568 171.433 315.568C170.104 315.568 169.223 314.693 169.206 313.199H175.286V312.568C175.286 309.506 173.445 308.159 171.297 308.159C168.797 308.159 167.166 309.994 167.166 312.688C167.166 315.426 168.774 317.17 171.405 317.17ZM169.212 311.812C169.274 310.699 170.098 309.761 171.325 309.761C172.507 309.761 173.303 310.625 173.314 311.812H169.212ZM184.906 320.273V308.273H182.884V309.716H182.764C182.452 309.085 181.81 308.159 180.27 308.159C178.253 308.159 176.668 309.739 176.668 312.648C176.668 315.523 178.207 317.153 180.264 317.153C181.764 317.153 182.44 316.261 182.764 315.625H182.849V320.273H184.906ZM182.889 312.636C182.889 314.33 182.151 315.466 180.838 315.466C179.48 315.466 178.764 314.273 178.764 312.636C178.764 311.011 179.469 309.847 180.838 309.847C182.162 309.847 182.889 310.943 182.889 312.636ZM192.588 313.33C192.588 314.659 191.639 315.318 190.73 315.318C189.741 315.318 189.082 314.619 189.082 313.511V308.273H187.026V313.83C187.026 315.926 188.219 317.114 189.935 317.114C191.241 317.114 192.162 316.426 192.56 315.449H192.651V317H194.645V308.273H192.588V313.33ZM200.624 317.17C202.658 317.17 204.055 316.176 204.419 314.659L202.499 314.443C202.22 315.182 201.538 315.568 200.652 315.568C199.322 315.568 198.442 314.693 198.425 313.199H204.504V312.568C204.504 309.506 202.663 308.159 200.516 308.159C198.016 308.159 196.385 309.994 196.385 312.688C196.385 315.426 197.993 317.17 200.624 317.17ZM198.43 311.812C198.493 310.699 199.317 309.761 200.544 309.761C201.726 309.761 202.521 310.625 202.533 311.812H198.43ZM213.142 310.58C212.858 309.102 211.676 308.159 209.631 308.159C207.528 308.159 206.097 309.193 206.102 310.807C206.097 312.08 206.881 312.92 208.557 313.267L210.045 313.58C210.847 313.756 211.222 314.08 211.222 314.574C211.222 315.17 210.574 315.619 209.597 315.619C208.653 315.619 208.04 315.21 207.864 314.426L205.858 314.619C206.114 316.222 207.46 317.17 209.602 317.17C211.784 317.17 213.324 316.04 213.33 314.386C213.324 313.142 212.523 312.381 210.875 312.023L209.386 311.705C208.5 311.506 208.148 311.199 208.153 310.693C208.148 310.102 208.801 309.693 209.659 309.693C210.608 309.693 211.108 310.21 211.267 310.784L213.142 310.58ZM219.384 308.273H217.662V306.182H215.605V308.273H214.366V309.864H215.605V314.716C215.594 316.358 216.787 317.165 218.332 317.119C218.918 317.102 219.321 316.989 219.543 316.915L219.196 315.307C219.082 315.335 218.849 315.386 218.594 315.386C218.077 315.386 217.662 315.205 217.662 314.375V309.864H219.384V308.273ZM225.072 320.273H227.129V315.625H227.214C227.538 316.261 228.214 317.153 229.714 317.153C231.771 317.153 233.311 315.523 233.311 312.648C233.311 309.739 231.726 308.159 229.709 308.159C228.169 308.159 227.527 309.085 227.214 309.716H227.095V308.273H225.072V320.273ZM227.089 312.636C227.089 310.943 227.817 309.847 229.141 309.847C230.51 309.847 231.214 311.011 231.214 312.636C231.214 314.273 230.499 315.466 229.141 315.466C227.828 315.466 227.089 314.33 227.089 312.636ZM237.584 317.176C238.953 317.176 239.771 316.534 240.146 315.801H240.214V317H242.192V311.159C242.192 308.852 240.311 308.159 238.646 308.159C236.811 308.159 235.402 308.977 234.947 310.568L236.868 310.841C237.072 310.244 237.652 309.733 238.658 309.733C239.612 309.733 240.135 310.222 240.135 311.08V311.114C240.135 311.705 239.516 311.733 237.976 311.898C236.283 312.08 234.663 312.585 234.663 314.551C234.663 316.267 235.919 317.176 237.584 317.176ZM238.118 315.665C237.26 315.665 236.646 315.273 236.646 314.517C236.646 313.727 237.334 313.398 238.254 313.267C238.794 313.193 239.874 313.057 240.141 312.841V313.869C240.141 314.841 239.357 315.665 238.118 315.665ZM245.226 320.273C246.828 320.273 247.754 319.449 248.249 318.057L251.754 308.284L249.555 308.273L247.538 314.864H247.447L245.436 308.273H243.254L246.419 317.182L246.243 317.653C245.862 318.648 245.26 318.716 244.362 318.455L243.885 320.057C244.163 320.17 244.663 320.273 245.226 320.273ZM253.182 317H255.239V311.693C255.239 310.619 255.955 309.892 256.841 309.892C257.71 309.892 258.307 310.477 258.307 311.375V317H260.324V311.557C260.324 310.574 260.909 309.892 261.903 309.892C262.733 309.892 263.392 310.381 263.392 311.46V317H265.455V311.142C265.455 309.193 264.33 308.159 262.727 308.159C261.46 308.159 260.494 308.784 260.108 309.756H260.017C259.682 308.767 258.835 308.159 257.659 308.159C256.489 308.159 255.614 308.761 255.25 309.756H255.148V308.273H253.182V317ZM271.405 317.17C273.439 317.17 274.837 316.176 275.2 314.659L273.28 314.443C273.001 315.182 272.32 315.568 271.433 315.568C270.104 315.568 269.223 314.693 269.206 313.199H275.286V312.568C275.286 309.506 273.445 308.159 271.297 308.159C268.797 308.159 267.166 309.994 267.166 312.688C267.166 315.426 268.774 317.17 271.405 317.17ZM269.212 311.812C269.274 310.699 270.098 309.761 271.325 309.761C272.507 309.761 273.303 310.625 273.314 311.812H269.212ZM279.082 311.886C279.082 310.625 279.844 309.898 280.929 309.898C281.991 309.898 282.628 310.597 282.628 311.761V317H284.685V311.443C284.69 309.352 283.497 308.159 281.696 308.159C280.389 308.159 279.491 308.784 279.094 309.756H278.991V308.273H277.026V317H279.082V311.886ZM291.134 308.273H289.412V306.182H287.355V308.273H286.116V309.864H287.355V314.716C287.344 316.358 288.537 317.165 290.082 317.119C290.668 317.102 291.071 316.989 291.293 316.915L290.946 315.307C290.832 315.335 290.599 315.386 290.344 315.386C289.827 315.386 289.412 315.205 289.412 314.375V309.864H291.134V308.273Z" fill="white"/>
<path d="M158.278 66H160.034V61.5966H162.42C162.46 61.5966 162.494 61.5966 162.534 61.5966L164.898 66H166.898L164.318 61.2898C165.744 60.7614 166.455 59.5739 166.455 58.0114C166.455 55.8693 165.125 54.3636 162.426 54.3636H158.278V66ZM160.034 60.0852V55.8693H162.239C163.972 55.8693 164.688 56.6932 164.688 58.0114C164.688 59.3239 163.972 60.0852 162.261 60.0852H160.034ZM172.107 66.1761C174.01 66.1761 175.357 65.2386 175.743 63.8182L174.135 63.5284C173.828 64.3523 173.089 64.7727 172.124 64.7727C170.669 64.7727 169.692 63.8295 169.646 62.1477H175.851V61.5455C175.851 58.392 173.964 57.1591 171.987 57.1591C169.555 57.1591 167.953 59.0114 167.953 61.6932C167.953 64.4034 169.533 66.1761 172.107 66.1761ZM169.652 60.875C169.72 59.6364 170.618 58.5625 171.999 58.5625C173.317 58.5625 174.18 59.5398 174.186 60.875H169.652ZM185.327 69.2727V57.2727H183.668V58.6875H183.526C183.224 58.1477 182.639 57.1591 181.02 57.1591C178.912 57.1591 177.355 58.8239 177.355 61.6534C177.355 64.4773 178.889 66.1705 181.003 66.1705C182.594 66.1705 183.219 65.1989 183.526 64.642H183.628V69.2727H185.327ZM183.662 61.6364C183.662 63.4716 182.844 64.7216 181.384 64.7216C179.866 64.7216 179.071 63.3864 179.071 61.6364C179.071 59.9034 179.844 58.6023 181.384 58.6023C182.866 58.6023 183.662 59.8125 183.662 61.6364ZM193.139 62.3807C193.145 63.8636 192.043 64.5682 191.088 64.5682C190.037 64.5682 189.31 63.8068 189.31 62.6193V57.2727H187.611V62.8239C187.611 64.9886 188.798 66.1136 190.474 66.1136C191.787 66.1136 192.679 65.4205 193.082 64.4886H193.173V66H194.844V57.2727H193.139V62.3807ZM200.888 66.1761C202.791 66.1761 204.138 65.2386 204.524 63.8182L202.916 63.5284C202.609 64.3523 201.871 64.7727 200.905 64.7727C199.45 64.7727 198.473 63.8295 198.428 62.1477H204.632V61.5455C204.632 58.392 202.746 57.1591 200.768 57.1591C198.337 57.1591 196.734 59.0114 196.734 61.6932C196.734 64.4034 198.314 66.1761 200.888 66.1761ZM198.433 60.875C198.501 59.6364 199.399 58.5625 200.78 58.5625C202.098 58.5625 202.962 59.5398 202.967 60.875H198.433ZM213.057 59.4034C212.705 58.0455 211.642 57.1591 209.756 57.1591C207.784 57.1591 206.386 58.1989 206.386 59.7443C206.386 60.983 207.136 61.8068 208.773 62.1705L210.25 62.4943C211.091 62.6818 211.483 63.0568 211.483 63.6023C211.483 64.2784 210.761 64.8068 209.648 64.8068C208.631 64.8068 207.977 64.3693 207.773 63.5114L206.131 63.7614C206.415 65.3068 207.699 66.1761 209.659 66.1761C211.767 66.1761 213.227 65.0568 213.227 63.4773C213.227 62.2443 212.443 61.483 210.841 61.1136L209.455 60.7955C208.494 60.5682 208.08 60.2443 208.085 59.6534C208.08 58.983 208.807 58.5057 209.773 58.5057C210.83 58.5057 211.318 59.0909 211.517 59.6761L213.057 59.4034ZM219.169 57.2727H217.379V55.1818H215.68V57.2727H214.402V58.6364H215.68V63.7898C215.675 65.375 216.885 66.142 218.226 66.1136C218.766 66.108 219.129 66.0057 219.328 65.9318L219.021 64.5284C218.908 64.5511 218.697 64.6023 218.425 64.6023C217.874 64.6023 217.379 64.4205 217.379 63.4375V58.6364H219.169V57.2727ZM225.419 66H227.175V61.9091H229.561C232.26 61.9091 233.595 60.2784 233.595 58.1307C233.595 55.9886 232.271 54.3636 229.567 54.3636H225.419V66ZM227.175 60.4205V55.8693H229.379C231.118 55.8693 231.828 56.8125 231.828 58.1307C231.828 59.4489 231.118 60.4205 229.402 60.4205H227.175ZM237.979 66.1932C239.422 66.1932 240.234 65.4602 240.558 64.8068H240.626V66H242.286V60.2045C242.286 57.6648 240.286 57.1591 238.899 57.1591C237.32 57.1591 235.865 57.7955 235.297 59.3864L236.893 59.75C237.143 59.1307 237.78 58.5341 238.922 58.5341C240.018 58.5341 240.581 59.108 240.581 60.0966V60.1364C240.581 60.7557 239.945 60.7443 238.376 60.9261C236.723 61.1193 235.03 61.5511 235.03 63.5341C235.03 65.25 236.32 66.1932 237.979 66.1932ZM238.348 64.8295C237.388 64.8295 236.695 64.3977 236.695 63.5568C236.695 62.6477 237.501 62.3239 238.484 62.1932C239.036 62.1193 240.342 61.9716 240.587 61.7273V62.8523C240.587 63.8864 239.763 64.8295 238.348 64.8295ZM245.31 69.2727C246.713 69.2727 247.599 68.5398 248.105 67.1648L251.713 57.2898L249.878 57.2727L247.668 64.0455H247.577L245.366 57.2727H243.548L246.741 66.1136L246.531 66.6932C246.099 67.8523 245.491 67.9489 244.56 67.6932L244.151 69.0852C244.355 69.1761 244.798 69.2727 245.31 69.2727ZM253.314 66H255.013V60.6193C255.013 59.4432 255.837 58.625 256.803 58.625C257.746 58.625 258.399 59.25 258.399 60.1989V66H260.092V60.4375C260.092 59.3864 260.734 58.625 261.842 58.625C262.74 58.625 263.479 59.125 263.479 60.3068V66H265.178V60.1477C265.178 58.1534 264.064 57.1591 262.484 57.1591C261.229 57.1591 260.286 57.7614 259.865 58.6932H259.774C259.393 57.7386 258.592 57.1591 257.428 57.1591C256.274 57.1591 255.416 57.733 255.053 58.6932H254.945V57.2727H253.314V66ZM271.216 66.1761C273.119 66.1761 274.466 65.2386 274.852 63.8182L273.244 63.5284C272.938 64.3523 272.199 64.7727 271.233 64.7727C269.778 64.7727 268.801 63.8295 268.756 62.1477H274.96V61.5455C274.96 58.392 273.074 57.1591 271.097 57.1591C268.665 57.1591 267.062 59.0114 267.062 61.6932C267.062 64.4034 268.642 66.1761 271.216 66.1761ZM268.761 60.875C268.83 59.6364 269.727 58.5625 271.108 58.5625C272.426 58.5625 273.29 59.5398 273.295 60.875H268.761ZM278.544 60.8182C278.544 59.4261 279.396 58.6307 280.578 58.6307C281.732 58.6307 282.43 59.3864 282.43 60.6534V66H284.129V60.4489C284.129 58.2898 282.942 57.1591 281.158 57.1591C279.845 57.1591 278.987 57.767 278.584 58.6932H278.476V57.2727H276.845V66H278.544V60.8182ZM290.482 57.2727H288.692V55.1818H286.993V57.2727H285.714V58.6364H286.993V63.7898C286.987 65.375 288.197 66.142 289.538 66.1136C290.078 66.108 290.442 66.0057 290.641 65.9318L290.334 64.5284C290.22 64.5511 290.01 64.6023 289.737 64.6023C289.186 64.6023 288.692 64.4205 288.692 63.4375V58.6364H290.482V57.2727Z" fill="#333333"/>
<line x1="70" y1="86.5" x2="378" y2="86.5" stroke="#EFEFEF"/>
<rect x="113" y="261" width="153" height="8" rx="4" fill="#EFEFEF"/>
<rect x="274" y="261" width="61" height="8" rx="4" fill="#EFEFEF"/>
<rect x="89" y="101" width="73" height="8" rx="4" fill="#EFEFEF"/>
<rect x="89" y="117" width="270" height="48" rx="8" fill="#F7F7F7"/>
<path d="M89 125C89 120.582 92.5817 117 97 117H134V165H97C92.5817 165 89 161.418 89 157V125Z" fill="#EBEBEB"/>
<path d="M116.881 139.614H115.875V135.364H113.778V139.614H111.136L108.199 135.364H106.312V139.614H105.29V140.75H106.312V142.068H105.29V143.205H106.312V147H108.42V143.205H111.375L114 147H115.875V143.205H116.881V142.068H115.875V140.75H116.881V139.614ZM109.676 140.75L110.591 142.068H108.42V140.75H109.676ZM113.778 140.75V142.068H112.83L111.92 140.75H113.778ZM108.42 139.614V139.074H108.517L108.892 139.614H108.42ZM113.614 143.205H113.778V143.295H113.676L113.614 143.205Z" fill="black"/>
<path d="M143.651 146L144.675 143.116H148.791L149.815 146H151.108L147.369 135.818H146.097L142.358 146H143.651ZM145.062 142.023L146.693 137.429H146.773L148.403 142.023H145.062ZM152.535 146H153.708V141.227C153.708 140.109 154.523 139.318 155.438 139.318C156.328 139.318 156.95 139.9 156.95 140.77V146H158.143V141.028C158.143 140.044 158.759 139.318 159.833 139.318C160.668 139.318 161.384 139.761 161.384 140.889V146H162.558V140.889C162.558 139.094 161.593 138.264 160.231 138.264C159.137 138.264 158.337 138.766 157.944 139.557H157.864C157.487 138.741 156.82 138.264 155.816 138.264C154.822 138.264 154.086 138.741 153.768 139.557H153.668V138.364H152.535V146ZM167.805 146.159C169.873 146.159 171.265 144.588 171.265 142.222C171.265 139.835 169.873 138.264 167.805 138.264C165.737 138.264 164.345 139.835 164.345 142.222C164.345 144.588 165.737 146.159 167.805 146.159ZM167.805 145.105C166.234 145.105 165.518 143.753 165.518 142.222C165.518 140.69 166.234 139.318 167.805 139.318C169.376 139.318 170.092 140.69 170.092 142.222C170.092 143.753 169.376 145.105 167.805 145.105ZM177.869 142.878C177.869 144.31 176.775 144.966 175.9 144.966C174.926 144.966 174.23 144.25 174.23 143.136V138.364H173.056V143.216C173.056 145.165 174.09 146.099 175.522 146.099C176.676 146.099 177.431 145.483 177.789 144.707H177.869V146H179.042V138.364H177.869V142.878ZM182.364 141.406C182.364 140.074 183.19 139.318 184.313 139.318C185.402 139.318 186.063 140.029 186.063 141.227V146H187.237V141.148C187.237 139.199 186.197 138.264 184.651 138.264C183.498 138.264 182.782 138.781 182.424 139.557H182.325V138.364H181.191V146H182.364V141.406ZM192.702 138.364H191.071V136.534H189.898V138.364H188.744V139.358H189.898V144.131C189.898 145.463 190.971 146.099 191.966 146.099C192.403 146.099 192.682 146.02 192.841 145.96L192.602 144.906C192.503 144.926 192.344 144.966 192.085 144.966C191.568 144.966 191.071 144.807 191.071 143.812V139.358H192.702V138.364Z" fill="#595959"/>
<rect x="89" y="181" width="73" height="8" rx="4" fill="#EFEFEF"/>
<rect x="89" y="197" width="270" height="48" rx="8" fill="#F7F7F7"/>
<path d="M105.233 226H106.466V222.023H108.693C108.783 222.023 108.867 222.023 108.952 222.018L111.099 226H112.531L110.229 221.794C111.527 221.352 112.134 220.293 112.134 218.94C112.134 217.141 111.06 215.818 108.673 215.818H105.233V226ZM106.466 220.909V216.912H108.634C110.284 216.912 110.92 217.717 110.92 218.94C110.92 220.163 110.284 220.909 108.653 220.909H106.466ZM117.149 226.159C118.7 226.159 119.833 225.384 120.191 224.23L119.058 223.912C118.759 224.707 118.068 225.105 117.149 225.105C115.771 225.105 114.822 224.215 114.767 222.58H120.311V222.082C120.311 219.239 118.62 218.264 117.029 218.264C114.961 218.264 113.589 219.895 113.589 222.241C113.589 224.588 114.941 226.159 117.149 226.159ZM114.767 221.565C114.847 220.377 115.687 219.318 117.029 219.318C118.302 219.318 119.117 220.273 119.117 221.565H114.767ZM124.343 226.179C125.675 226.179 126.371 225.463 126.61 224.966H126.669V226H127.843V220.969C127.843 218.543 125.993 218.264 125.019 218.264C123.865 218.264 122.553 218.662 121.956 220.054L123.07 220.452C123.328 219.895 123.94 219.298 125.058 219.298C126.137 219.298 126.669 219.87 126.669 220.849V220.889C126.669 221.456 126.093 221.406 124.7 221.585C123.284 221.769 121.737 222.082 121.737 223.832C121.737 225.324 122.891 226.179 124.343 226.179ZM124.521 225.125C123.587 225.125 122.911 224.707 122.911 223.892C122.911 222.997 123.726 222.719 124.641 222.599C125.138 222.54 126.47 222.401 126.669 222.162V223.236C126.669 224.19 125.914 225.125 124.521 225.125ZM135.393 220.074C135.025 218.99 134.2 218.264 132.689 218.264C131.078 218.264 129.885 219.179 129.885 220.472C129.885 221.526 130.511 222.232 131.913 222.56L133.186 222.858C133.956 223.037 134.319 223.405 134.319 223.932C134.319 224.588 133.623 225.125 132.529 225.125C131.57 225.125 130.968 224.712 130.76 223.892L129.646 224.17C129.919 225.468 130.988 226.159 132.549 226.159C134.324 226.159 135.532 225.19 135.532 223.872C135.532 222.808 134.866 222.137 133.504 221.804L132.37 221.526C131.466 221.302 131.058 220.999 131.058 220.412C131.058 219.756 131.754 219.278 132.689 219.278C133.713 219.278 134.135 219.845 134.339 220.372L135.393 220.074ZM140.401 226.159C142.469 226.159 143.861 224.588 143.861 222.222C143.861 219.835 142.469 218.264 140.401 218.264C138.333 218.264 136.941 219.835 136.941 222.222C136.941 224.588 138.333 226.159 140.401 226.159ZM140.401 225.105C138.83 225.105 138.114 223.753 138.114 222.222C138.114 220.69 138.83 219.318 140.401 219.318C141.972 219.318 142.688 220.69 142.688 222.222C142.688 223.753 141.972 225.105 140.401 225.105ZM146.825 221.406C146.825 220.074 147.651 219.318 148.774 219.318C149.863 219.318 150.524 220.029 150.524 221.227V226H151.697V221.148C151.697 219.199 150.658 218.264 149.112 218.264C147.959 218.264 147.243 218.781 146.885 219.557H146.786V218.364H145.652V226H146.825V221.406Z" fill="#595959"/>
</svg>
