<svg width="287" height="355" viewBox="0 0 287 355" fill="none" xmlns="http://www.w3.org/2000/svg">
<path d="M130.944 2.26448L23.3188 42.613C9.3275 47.9928 0 61.2629 0 76.3264V160.61C0 247.225 56.1444 328.639 133.276 353.386C139.913 355.538 147.087 355.538 153.724 353.386C230.856 328.639 287 247.404 287 160.61V76.3264C287 61.4423 277.673 47.9928 263.681 42.7923L156.056 2.44381C147.984 -0.784074 139.016 -0.784074 130.944 2.26448Z" fill="#E5EFFF"/>
<path d="M176.303 161.824V155.261C176.303 146.705 172.95 138.499 166.98 132.449C161.011 126.399 152.914 123 144.472 123C136.03 123 127.934 126.399 121.965 132.449C115.995 138.499 112.642 146.705 112.642 155.261V161.824C108.592 163.615 105.145 166.564 102.722 170.309C100.299 174.055 99.0058 178.434 99 182.913V210.565C99.0072 216.674 101.405 222.531 105.667 226.851C109.93 231.171 115.708 233.601 121.736 233.608H167.209C173.236 233.601 179.015 231.171 183.278 226.851C187.54 222.531 189.938 216.674 189.945 210.565V182.913C189.939 178.434 188.646 174.055 186.223 170.309C183.8 166.564 180.353 163.615 176.303 161.824ZM149.02 201.348C149.02 202.57 148.541 203.742 147.688 204.606C146.835 205.471 145.678 205.956 144.472 205.956C143.266 205.956 142.11 205.471 141.257 204.606C140.404 203.742 139.925 202.57 139.925 201.348V192.13C139.925 190.908 140.404 189.736 141.257 188.871C142.11 188.007 143.266 187.522 144.472 187.522C145.678 187.522 146.835 188.007 147.688 188.871C148.541 189.736 149.02 190.908 149.02 192.13V201.348ZM167.209 159.869H121.736V155.261C121.736 149.149 124.132 143.288 128.396 138.967C132.659 134.645 138.442 132.217 144.472 132.217C150.502 132.217 156.286 134.645 160.549 138.967C164.813 143.288 167.209 149.149 167.209 155.261V159.869Z" fill="#1A71FF"/>
</svg>
