<svg width="40" height="40" viewBox="0 0 40 40" fill="none" xmlns="http://www.w3.org/2000/svg">
<circle cx="20" cy="20" r="20" fill="#EFF5FF"/>
<g clip-path="url(#clip0_1558:393)">
<path d="M12 19V28.3333H28V19H12ZM22 25.6666H15.3333V24.3333H22V25.6666ZM24.6667 23H15.3333V21.6666H24.6667V23ZM26 13.6666H14C13.4696 13.6666 12.9609 13.8773 12.5858 14.2524C12.2107 14.6275 12 15.1362 12 15.6666V17.6666H28V15.6666C28 15.1362 27.7893 14.6275 27.4142 14.2524C27.0391 13.8773 26.5304 13.6666 26 13.6666V13.6666ZM14.6667 16.3333C14.5348 16.3333 14.4059 16.2942 14.2963 16.2209C14.1867 16.1477 14.1012 16.0436 14.0507 15.9217C14.0003 15.7999 13.9871 15.6659 14.0128 15.5366C14.0385 15.4072 14.102 15.2885 14.1953 15.1952C14.2885 15.102 14.4073 15.0385 14.5366 15.0128C14.6659 14.987 14.8 15.0002 14.9218 15.0507C15.0436 15.1012 15.1477 15.1866 15.221 15.2962C15.2942 15.4059 15.3333 15.5348 15.3333 15.6666C15.3333 15.8434 15.2631 16.013 15.1381 16.138C15.013 16.2631 14.8435 16.3333 14.6667 16.3333ZM16.6667 16.3333C16.5348 16.3333 16.4059 16.2942 16.2963 16.2209C16.1867 16.1477 16.1012 16.0436 16.0507 15.9217C16.0003 15.7999 15.9871 15.6659 16.0128 15.5366C16.0385 15.4072 16.102 15.2885 16.1953 15.1952C16.2885 15.102 16.4073 15.0385 16.5366 15.0128C16.6659 14.987 16.8 15.0002 16.9218 15.0507C17.0436 15.1012 17.1477 15.1866 17.221 15.2962C17.2942 15.4059 17.3333 15.5348 17.3333 15.6666C17.3333 15.8434 17.2631 16.013 17.1381 16.138C17.013 16.2631 16.8435 16.3333 16.6667 16.3333ZM18.6667 16.3333C18.5348 16.3333 18.4059 16.2942 18.2963 16.2209C18.1867 16.1477 18.1012 16.0436 18.0507 15.9217C18.0003 15.7999 17.9871 15.6659 18.0128 15.5366C18.0385 15.4072 18.102 15.2885 18.1953 15.1952C18.2885 15.102 18.4073 15.0385 18.5366 15.0128C18.6659 14.987 18.8 15.0002 18.9218 15.0507C19.0436 15.1012 19.1477 15.1866 19.221 15.2962C19.2942 15.4059 19.3333 15.5348 19.3333 15.6666C19.3333 15.8434 19.2631 16.013 19.1381 16.138C19.013 16.2631 18.8435 16.3333 18.6667 16.3333Z" fill="#1A71FF"/>
</g>
<defs>
<clipPath id="clip0_1558:393">
<rect width="16" height="16" fill="white" transform="translate(12 13)"/>
</clipPath>
</defs>
</svg>
