<svg width="382" height="313" viewBox="0 0 382 313" fill="none" xmlns="http://www.w3.org/2000/svg">
<rect width="382" height="313" rx="16" fill="#FFDA44"/>
<path d="M37 40C37 35.5817 40.5817 32 45 32H337C341.418 32 345 35.5817 345 40V273C345 277.418 341.418 281 337 281H45C40.5817 281 37 277.418 37 273V40Z" fill="white"/>
<circle cx="191" cy="127" r="24" fill="#CCEFCC"/>
<path d="M56 224C56 219.582 59.5817 216 64 216H318C322.418 216 326 219.582 326 224V256C326 260.418 322.418 264 318 264H64C59.5817 264 56 260.418 56 256V224Z" fill="#1A71FF"/>
<path d="M149.417 237.562H151.445C151.406 235.597 149.729 234.205 147.252 234.205C144.809 234.205 142.974 235.58 142.979 237.636C142.979 239.307 144.167 240.267 146.082 240.761L147.406 241.102C148.661 241.42 149.491 241.812 149.496 242.716C149.491 243.71 148.548 244.375 147.173 244.375C145.854 244.375 144.832 243.784 144.746 242.562H142.673C142.758 244.875 144.479 246.176 147.19 246.176C149.979 246.176 151.599 244.784 151.604 242.733C151.599 240.716 149.934 239.795 148.184 239.381L147.093 239.108C146.138 238.881 145.104 238.477 145.116 237.506C145.121 236.631 145.906 235.989 147.224 235.989C148.479 235.989 149.309 236.574 149.417 237.562ZM157.256 246.17C159.29 246.17 160.688 245.176 161.052 243.659L159.131 243.443C158.853 244.182 158.171 244.568 157.285 244.568C155.955 244.568 155.075 243.693 155.058 242.199H161.137V241.568C161.137 238.506 159.296 237.159 157.148 237.159C154.648 237.159 153.018 238.994 153.018 241.688C153.018 244.426 154.626 246.17 157.256 246.17ZM155.063 240.812C155.126 239.699 155.95 238.761 157.177 238.761C158.359 238.761 159.154 239.625 159.165 240.812H155.063ZM164.934 240.886C164.934 239.625 165.695 238.898 166.781 238.898C167.843 238.898 168.479 239.597 168.479 240.761V246H170.536V240.443C170.542 238.352 169.349 237.159 167.548 237.159C166.241 237.159 165.343 237.784 164.945 238.756H164.843V237.273H162.877V246H164.934V240.886ZM175.866 246.153C177.366 246.153 178.042 245.261 178.366 244.625H178.491V246H180.513V234.364H178.451V238.716H178.366C178.053 238.085 177.411 237.159 175.871 237.159C173.854 237.159 172.269 238.739 172.269 241.648C172.269 244.523 173.809 246.153 175.866 246.153ZM176.44 244.466C175.082 244.466 174.366 243.273 174.366 241.636C174.366 240.011 175.07 238.847 176.44 238.847C177.763 238.847 178.491 239.943 178.491 241.636C178.491 243.33 177.752 244.466 176.44 244.466ZM186.674 246H188.731V240.869C188.731 239.761 189.566 238.977 190.697 238.977C191.043 238.977 191.475 239.04 191.651 239.097V237.205C191.464 237.17 191.14 237.148 190.913 237.148C189.913 237.148 189.077 237.716 188.759 238.727H188.668V237.273H186.674V246ZM196.522 246.17C198.556 246.17 199.954 245.176 200.317 243.659L198.397 243.443C198.119 244.182 197.437 244.568 196.55 244.568C195.221 244.568 194.34 243.693 194.323 242.199H200.403V241.568C200.403 238.506 198.562 237.159 196.414 237.159C193.914 237.159 192.283 238.994 192.283 241.688C192.283 244.426 193.891 246.17 196.522 246.17ZM194.329 240.812C194.391 239.699 195.215 238.761 196.442 238.761C197.624 238.761 198.42 239.625 198.431 240.812H194.329ZM205.95 246.17C208.143 246.17 209.54 244.869 209.688 243.017H207.722C207.546 243.955 206.87 244.494 205.967 244.494C204.683 244.494 203.853 243.42 203.853 241.636C203.853 239.875 204.7 238.818 205.967 238.818C206.955 238.818 207.563 239.455 207.722 240.295H209.688C209.546 238.403 208.069 237.159 205.938 237.159C203.381 237.159 201.768 239.006 201.768 241.67C201.768 244.312 203.342 246.17 205.95 246.17ZM215.241 246.17C217.275 246.17 218.673 245.176 219.036 243.659L217.116 243.443C216.837 244.182 216.156 244.568 215.269 244.568C213.94 244.568 213.059 243.693 213.042 242.199H219.121V241.568C219.121 238.506 217.281 237.159 215.133 237.159C212.633 237.159 211.002 238.994 211.002 241.688C211.002 244.426 212.61 246.17 215.241 246.17ZM213.048 240.812C213.11 239.699 213.934 238.761 215.161 238.761C216.343 238.761 217.138 239.625 217.15 240.812H213.048ZM220.862 246H222.918V237.273H220.862V246ZM221.896 236.034C222.549 236.034 223.083 235.534 223.083 234.92C223.083 234.301 222.549 233.801 221.896 233.801C221.237 233.801 220.702 234.301 220.702 234.92C220.702 235.534 221.237 236.034 221.896 236.034ZM225.033 249.273H227.09V244.625H227.175C227.499 245.261 228.175 246.153 229.675 246.153C231.732 246.153 233.272 244.523 233.272 241.648C233.272 238.739 231.687 237.159 229.67 237.159C228.13 237.159 227.488 238.085 227.175 238.716H227.056V237.273H225.033V249.273ZM227.05 241.636C227.05 239.943 227.778 238.847 229.102 238.847C230.471 238.847 231.175 240.011 231.175 241.636C231.175 243.273 230.46 244.466 229.102 244.466C227.789 244.466 227.05 243.33 227.05 241.636ZM239.391 237.273H237.67V235.182H235.613V237.273H234.374V238.864H235.613V243.716C235.602 245.358 236.795 246.165 238.34 246.119C238.925 246.102 239.329 245.989 239.55 245.915L239.204 244.307C239.09 244.335 238.857 244.386 238.602 244.386C238.085 244.386 237.67 244.205 237.67 243.375V238.864H239.391V237.273Z" fill="white"/>
<path d="M115.278 66H117.034V61.9091H119.42C122.119 61.9091 123.455 60.2784 123.455 58.1307C123.455 55.9886 122.131 54.3636 119.426 54.3636H115.278V66ZM117.034 60.4205V55.8693H119.239C120.977 55.8693 121.688 56.8125 121.688 58.1307C121.688 59.4489 120.977 60.4205 119.261 60.4205H117.034ZM127.838 66.1932C129.281 66.1932 130.094 65.4602 130.418 64.8068H130.486V66H132.145V60.2045C132.145 57.6648 130.145 57.1591 128.759 57.1591C127.179 57.1591 125.724 57.7955 125.156 59.3864L126.753 59.75C127.003 59.1307 127.639 58.5341 128.781 58.5341C129.878 58.5341 130.44 59.108 130.44 60.0966V60.1364C130.44 60.7557 129.804 60.7443 128.236 60.9261C126.582 61.1193 124.889 61.5511 124.889 63.5341C124.889 65.25 126.179 66.1932 127.838 66.1932ZM128.207 64.8295C127.247 64.8295 126.554 64.3977 126.554 63.5568C126.554 62.6477 127.361 62.3239 128.344 62.1932C128.895 62.1193 130.202 61.9716 130.446 61.7273V62.8523C130.446 63.8864 129.622 64.8295 128.207 64.8295ZM135.169 69.2727C136.572 69.2727 137.459 68.5398 137.964 67.1648L141.572 57.2898L139.737 57.2727L137.527 64.0455H137.436L135.226 57.2727H133.408L136.601 66.1136L136.391 66.6932C135.959 67.8523 135.351 67.9489 134.419 67.6932L134.01 69.0852C134.214 69.1761 134.658 69.2727 135.169 69.2727ZM143.173 66H144.872V60.6193C144.872 59.4432 145.696 58.625 146.662 58.625C147.605 58.625 148.259 59.25 148.259 60.1989V66H149.952V60.4375C149.952 59.3864 150.594 58.625 151.702 58.625C152.599 58.625 153.338 59.125 153.338 60.3068V66H155.037V60.1477C155.037 58.1534 153.923 57.1591 152.344 57.1591C151.088 57.1591 150.145 57.7614 149.724 58.6932H149.634C149.253 57.7386 148.452 57.1591 147.287 57.1591C146.134 57.1591 145.276 57.733 144.912 58.6932H144.804V57.2727H143.173V66ZM161.075 66.1761C162.979 66.1761 164.325 65.2386 164.712 63.8182L163.104 63.5284C162.797 64.3523 162.058 64.7727 161.092 64.7727C159.638 64.7727 158.661 63.8295 158.615 62.1477H164.82V61.5455C164.82 58.392 162.933 57.1591 160.956 57.1591C158.524 57.1591 156.922 59.0114 156.922 61.6932C156.922 64.4034 158.501 66.1761 161.075 66.1761ZM158.621 60.875C158.689 59.6364 159.587 58.5625 160.967 58.5625C162.286 58.5625 163.149 59.5398 163.155 60.875H158.621ZM168.403 60.8182C168.403 59.4261 169.256 58.6307 170.438 58.6307C171.591 58.6307 172.29 59.3864 172.29 60.6534V66H173.989V60.4489C173.989 58.2898 172.801 57.1591 171.017 57.1591C169.705 57.1591 168.847 57.767 168.443 58.6932H168.335V57.2727H166.705V66H168.403V60.8182ZM180.341 57.2727H178.551V55.1818H176.852V57.2727H175.574V58.6364H176.852V63.7898C176.847 65.375 178.057 66.142 179.398 66.1136C179.938 66.108 180.301 66.0057 180.5 65.9318L180.193 64.5284C180.08 64.5511 179.869 64.6023 179.597 64.6023C179.045 64.6023 178.551 64.4205 178.551 63.4375V58.6364H180.341V57.2727ZM192.938 57.4205H194.631C194.58 55.5568 192.932 54.2045 190.568 54.2045C188.233 54.2045 186.443 55.5398 186.443 57.5455C186.443 59.1648 187.602 60.1136 189.472 60.6193L190.847 60.9943C192.091 61.3239 193.051 61.733 193.051 62.767C193.051 63.9034 191.966 64.6534 190.472 64.6534C189.119 64.6534 187.994 64.0511 187.892 62.7841H186.131C186.244 64.892 187.875 66.1932 190.483 66.1932C193.216 66.1932 194.79 64.7557 194.79 62.7841C194.79 60.6875 192.92 59.875 191.443 59.5114L190.307 59.2159C189.398 58.983 188.188 58.5568 188.193 57.4432C188.193 56.4545 189.097 55.7216 190.528 55.7216C191.864 55.7216 192.812 56.3466 192.938 57.4205ZM202.28 62.3807C202.286 63.8636 201.183 64.5682 200.229 64.5682C199.178 64.5682 198.45 63.8068 198.45 62.6193V57.2727H196.751V62.8239C196.751 64.9886 197.939 66.1136 199.615 66.1136C200.928 66.1136 201.82 65.4205 202.223 64.4886H202.314V66H203.984V57.2727H202.28V62.3807ZM209.943 66.1761C212.006 66.1761 213.341 64.9375 213.528 63.2386H211.875C211.659 64.1818 210.926 64.7386 209.955 64.7386C208.517 64.7386 207.591 63.5398 207.591 61.6364C207.591 59.767 208.534 58.5909 209.955 58.5909C211.034 58.5909 211.693 59.2727 211.875 60.0909H213.528C213.347 58.3295 211.909 57.1591 209.926 57.1591C207.466 57.1591 205.875 59.0114 205.875 61.6761C205.875 64.3068 207.409 66.1761 209.943 66.1761ZM219.021 66.1761C221.084 66.1761 222.419 64.9375 222.607 63.2386H220.953C220.737 64.1818 220.004 64.7386 219.033 64.7386C217.595 64.7386 216.669 63.5398 216.669 61.6364C216.669 59.767 217.612 58.5909 219.033 58.5909C220.112 58.5909 220.771 59.2727 220.953 60.0909H222.607C222.425 58.3295 220.987 57.1591 219.004 57.1591C216.544 57.1591 214.953 59.0114 214.953 61.6761C214.953 64.3068 216.487 66.1761 219.021 66.1761ZM228.185 66.1761C230.088 66.1761 231.435 65.2386 231.821 63.8182L230.213 63.5284C229.906 64.3523 229.168 64.7727 228.202 64.7727C226.747 64.7727 225.77 63.8295 225.724 62.1477H231.929V61.5455C231.929 58.392 230.043 57.1591 228.065 57.1591C225.634 57.1591 224.031 59.0114 224.031 61.6932C224.031 64.4034 225.611 66.1761 228.185 66.1761ZM225.73 60.875C225.798 59.6364 226.696 58.5625 228.077 58.5625C229.395 58.5625 230.259 59.5398 230.264 60.875H225.73ZM240.354 59.4034C240.001 58.0455 238.939 57.1591 237.053 57.1591C235.081 57.1591 233.683 58.1989 233.683 59.7443C233.683 60.983 234.433 61.8068 236.07 62.1705L237.547 62.4943C238.388 62.6818 238.78 63.0568 238.78 63.6023C238.78 64.2784 238.058 64.8068 236.945 64.8068C235.928 64.8068 235.274 64.3693 235.07 63.5114L233.428 63.7614C233.712 65.3068 234.996 66.1761 236.956 66.1761C239.064 66.1761 240.524 65.0568 240.524 63.4773C240.524 62.2443 239.74 61.483 238.138 61.1136L236.751 60.7955C235.791 60.5682 235.376 60.2443 235.382 59.6534C235.376 58.983 236.104 58.5057 237.07 58.5057C238.126 58.5057 238.615 59.0909 238.814 59.6761L240.354 59.4034ZM248.932 59.4034C248.58 58.0455 247.517 57.1591 245.631 57.1591C243.659 57.1591 242.261 58.1989 242.261 59.7443C242.261 60.983 243.011 61.8068 244.648 62.1705L246.125 62.4943C246.966 62.6818 247.358 63.0568 247.358 63.6023C247.358 64.2784 246.636 64.8068 245.523 64.8068C244.506 64.8068 243.852 64.3693 243.648 63.5114L242.006 63.7614C242.29 65.3068 243.574 66.1761 245.534 66.1761C247.642 66.1761 249.102 65.0568 249.102 63.4773C249.102 62.2443 248.318 61.483 246.716 61.1136L245.33 60.7955C244.369 60.5682 243.955 60.2443 243.96 59.6534C243.955 58.983 244.682 58.5057 245.648 58.5057C246.705 58.5057 247.193 59.0909 247.392 59.6761L248.932 59.4034ZM255.124 57.2727H253.243V56.4886C253.243 55.7159 253.561 55.2955 254.391 55.2955C254.743 55.2955 254.993 55.375 255.152 55.4261L255.55 54.0511C255.311 53.9602 254.817 53.8182 254.129 53.8182C252.749 53.8182 251.538 54.625 251.538 56.2614V57.2727H250.192V58.6364H251.538V66H253.243V58.6364H255.124V57.2727ZM262.405 62.3807C262.411 63.8636 261.308 64.5682 260.354 64.5682C259.303 64.5682 258.575 63.8068 258.575 62.6193V57.2727H256.876V62.8239C256.876 64.9886 258.064 66.1136 259.74 66.1136C261.053 66.1136 261.945 65.4205 262.348 64.4886H262.439V66H264.109V57.2727H262.405V62.3807ZM268.091 54.3636H266.392V66H268.091V54.3636Z" fill="#333333"/>
<path d="M191 145.451C201.19 145.451 209.451 137.19 209.451 127C209.451 116.81 201.19 108.549 191 108.549C180.81 108.549 172.549 116.81 172.549 127C172.549 137.19 180.81 145.451 191 145.451Z" fill="#3CC13B"/>
<path d="M191 147C179.973 147 171 138.029 171 127C171 115.973 179.973 107 191 107C202.029 107 211 115.973 211 127C211 138.029 202.029 147 191 147ZM191 110.098C181.68 110.098 174.098 117.68 174.098 127C174.098 136.32 181.68 143.902 191 143.902C200.32 143.902 207.902 136.318 207.902 127C207.902 117.68 200.32 110.098 191 110.098Z" fill="#3CC13B"/>
<path d="M188.754 133.999C188.368 133.999 187.999 133.841 187.727 133.558L182.413 128.032C181.856 127.451 181.863 126.52 182.43 125.948C182.998 125.379 183.909 125.385 184.467 125.966L188.712 130.381L197.495 120.482C198.032 119.88 198.942 119.837 199.528 120.382C200.117 120.929 200.16 121.86 199.626 122.464L189.819 133.517C189.553 133.817 189.179 133.991 188.783 134C188.772 133.999 188.764 133.999 188.754 133.999Z" fill="white"/>
<line x1="37" y1="86.5" x2="345" y2="86.5" stroke="#EFEFEF"/>
<rect x="80" y="192" width="153" height="8" rx="4" fill="#EFEFEF"/>
<rect x="241" y="192" width="61" height="8" rx="4" fill="#EFEFEF"/>
<path d="M171.43 166.537H170.466V162.818H168.945V166.537H166.245L163.67 162.818H162.248V166.537H161.288V167.531H162.248V168.685H161.288V169.679H162.248V173H163.784V169.679H166.752L169.054 173H170.466V169.679H171.43V168.685H170.466V167.531H171.43V166.537ZM165.266 167.531L166.061 168.685H163.784V167.531H165.266ZM168.945 167.531V168.685H167.737L166.936 167.531H168.945ZM163.784 166.537V165.533H163.879L164.575 166.537H163.784ZM168.423 169.679H168.945V170.295H168.85L168.423 169.679ZM180.266 162.818H178.77L176.229 164.479V165.95L178.665 164.359H178.725V173H180.266V162.818ZM186.565 173.169C188.917 173.169 190.294 171.25 190.294 167.914C190.294 164.603 188.897 162.679 186.565 162.679C184.229 162.679 182.836 164.598 182.831 167.914C182.831 171.245 184.209 173.164 186.565 173.169ZM186.565 171.842C185.188 171.842 184.358 170.46 184.358 167.914C184.363 165.379 185.193 163.982 186.565 163.982C187.932 163.982 188.768 165.379 188.768 167.914C188.768 170.46 187.937 171.842 186.565 171.842ZM193.629 171.608H192.197L192.147 172.165C192.033 173.512 191.714 174.869 191.58 175.486H192.634C192.873 174.835 193.4 173.343 193.554 172.15L193.629 171.608ZM198.87 173.169C201.221 173.169 202.599 171.25 202.599 167.914C202.599 164.603 201.202 162.679 198.87 162.679C196.533 162.679 195.141 164.598 195.136 167.914C195.136 171.245 196.513 173.164 198.87 173.169ZM198.87 171.842C197.493 171.842 196.662 170.46 196.662 167.914C196.667 165.379 197.498 163.982 198.87 163.982C200.237 163.982 201.072 165.379 201.072 167.914C201.072 170.46 200.242 171.842 198.87 171.842ZM207.907 173.169C210.259 173.169 211.636 171.25 211.636 167.914C211.636 164.603 210.239 162.679 207.907 162.679C205.57 162.679 204.178 164.598 204.173 167.914C204.173 171.245 205.55 173.164 207.907 173.169ZM207.907 171.842C206.53 171.842 205.7 170.46 205.7 167.914C205.705 165.379 206.535 163.982 207.907 163.982C209.274 163.982 210.109 165.379 210.109 167.914C210.109 170.46 209.279 171.842 207.907 171.842ZM216.944 173.169C219.296 173.169 220.673 171.25 220.673 167.914C220.673 164.603 219.276 162.679 216.944 162.679C214.607 162.679 213.215 164.598 213.21 167.914C213.21 171.245 214.588 173.164 216.944 173.169ZM216.944 171.842C215.567 171.842 214.737 170.46 214.737 167.914C214.742 165.379 215.572 163.982 216.944 163.982C218.311 163.982 219.146 165.379 219.146 167.914C219.146 170.46 218.316 171.842 216.944 171.842Z" fill="#595959"/>
</svg>
