<svg width="382" height="318" viewBox="0 0 382 318" fill="none" xmlns="http://www.w3.org/2000/svg">
<rect width="382" height="318" rx="16" fill="#E5EFFF"/>
<rect x="64" y="32" width="254" height="254" rx="8" fill="white"/>
<g clip-path="url(#clip0_1689:2705)">
<path d="M148.275 81H176.758V92.3928H171.06V98.0906H165.366V86.6978H159.668V92.3928H148.275V81Z" fill="black"/>
<path d="M199.547 81H216.637V86.6978H222.332V81H228.03V98.0906H222.332V103.788H233.725V109.486H216.637V120.879H210.94V103.788H216.637V98.0906H205.242V92.3928H199.547V103.788H193.846V98.0906H188.154V92.3928H193.846V86.6978H199.547V81Z" fill="black"/>
<path d="M97 81V120.879H136.879V81H97ZM131.181 115.181H102.698V86.6978H131.181V115.181V115.181Z" fill="black"/>
<path d="M239.423 86.6979H233.725V92.3957H239.423V86.6979Z" fill="black"/>
<path d="M245.121 81V120.879H285V81H245.121ZM279.302 115.181H250.816V86.6978H279.302V115.181Z" fill="black"/>
<path d="M125.483 92.3928H108.393V109.483H125.483V92.3928Z" fill="black"/>
<path d="M148.275 92.3928H142.577V103.786H148.275V92.3928Z" fill="black"/>
<path d="M273.604 92.3928H256.514V109.483H273.604V92.3928Z" fill="black"/>
<path d="M153.97 98.0905H165.366V103.788H159.668V109.486H165.366V115.181H159.668V120.879H153.97V109.486H148.275V103.788H153.97V98.0905Z" fill="black"/>
<path d="M188.154 98.0905H182.456V103.788H188.154V98.0905Z" fill="black"/>
<path d="M239.423 98.0905H233.725V103.788H239.423V98.0905Z" fill="black"/>
<path d="M182.456 103.788H165.366V109.486H182.456V103.788Z" fill="black"/>
<path d="M188.154 109.487H205.242V120.879H199.547V115.182H193.846V132.275H188.154V126.577H176.758V115.182H182.456V120.879H188.154V109.487Z" fill="black"/>
<path d="M239.423 109.487H233.725V120.879H239.423V109.487Z" fill="black"/>
<path d="M148.275 115.182H142.577V120.879H148.275V115.182Z" fill="black"/>
<path d="M171.063 115.182H165.366V126.577H171.063V115.182Z" fill="black"/>
<path d="M222.332 115.182H228.03V120.879H233.725V132.275H245.121V137.97H233.725V149.363H228.03V132.275H222.332V115.182Z" fill="black"/>
<path d="M148.275 120.879H153.97V126.577H165.366V132.275H159.668V137.97H165.366V143.668H153.97V132.275H148.275V120.879Z" fill="black"/>
<path d="M114.091 126.577H125.486V137.97H136.879V132.275H131.181V126.577H142.577V132.275H148.275V143.668H153.97V149.363H136.879V143.668H131.181V149.363H136.879V155.061H131.181V160.758H125.486V155.061H119.789V149.363H125.486V143.668H119.789V149.363H114.091V126.577Z" fill="black"/>
<path d="M205.242 126.577H210.94V137.97H205.242V143.668H210.94V137.97H222.332V143.668H216.638V149.363H205.242V155.061H210.94V177.846H205.242V183.547H199.547V172.154H205.242V160.758H193.846V166.456H188.154V160.758H182.456V149.363H188.154V143.668H182.456V137.97H176.758V143.668H182.456V149.363H176.758V155.061H171.061V149.363H165.366V143.668H171.061V132.275H188.154V137.97H193.846V155.061H199.547V137.97H193.846V132.275H205.242V126.577Z" fill="black"/>
<path d="M273.604 126.577H262.212V132.275H273.604V126.577Z" fill="black"/>
<path d="M262.211 132.275H250.819V137.97H262.211V132.275Z" fill="black"/>
<path d="M108.393 137.97H97V143.668H108.393V137.97Z" fill="black"/>
<path d="M250.819 137.97H245.121V143.668H250.819V137.97Z" fill="black"/>
<path d="M267.909 137.97H285V143.668H279.302V149.363H267.909V137.97Z" fill="black"/>
<path d="M108.393 149.363H97V155.06H108.393V149.363Z" fill="black"/>
<path d="M216.638 149.363H228.03V155.06H233.725V160.758H222.333V155.06H216.638V149.363Z" fill="black"/>
<path d="M239.423 149.363H233.725V155.06H239.423V149.363Z" fill="black"/>
<path d="M250.819 149.363H245.121V155.06H250.819V149.363Z" fill="black"/>
<path d="M262.212 149.363H256.514V155.06H262.212V149.363Z" fill="black"/>
<path d="M285 149.363H279.302V155.06H285V149.363Z" fill="black"/>
<path d="M114.091 155.06H108.393V160.758H114.091V155.06Z" fill="black"/>
<path d="M136.879 155.06H159.668V160.758H153.97V166.456H159.668V160.758H171.06V166.456H176.758V172.154H171.06V183.547H159.668V177.846H165.365V172.154H159.668V177.846H153.97V183.547H148.275V177.846H142.577V172.154H136.879V166.456H131.181V160.758H136.879V155.06Z" fill="black"/>
<path d="M245.121 155.06H239.423V160.758H245.121V155.06Z" fill="black"/>
<path d="M273.607 155.06H267.909V160.758H273.607V155.06Z" fill="black"/>
<path d="M125.486 160.758H119.788V166.456H125.486V160.758Z" fill="black"/>
<path d="M182.456 160.758H176.758V166.456H182.456V160.758Z" fill="black"/>
<path d="M222.332 160.758H216.638V166.456H222.332V160.758Z" fill="black"/>
<path d="M245.121 160.758H250.819V177.846H262.211V183.547H267.909V177.846H262.211V172.154H267.909V166.456H279.302V172.154H273.607V177.846H285V189.242H279.302V194.939H262.211V189.242H250.819V183.547H245.121V177.846H222.332V172.154H239.423V166.456H245.121V160.758Z" fill="black"/>
<path d="M262.212 160.758H256.514V172.154H262.212V160.758Z" fill="black"/>
<path d="M102.698 166.456H97V172.154H102.698V166.456Z" fill="black"/>
<path d="M108.393 166.456H119.789V172.154H114.091V177.846H108.393V166.456Z" fill="black"/>
<path d="M199.547 166.456H193.846V172.154H199.547V166.456Z" fill="black"/>
<path d="M136.879 172.154H125.486V177.849H136.879V172.154Z" fill="black"/>
<path d="M97 177.846H108.393V189.241H125.486V200.637H108.393V194.939H97V189.241H102.698V183.547H97V177.846Z" fill="black"/>
<path d="M125.486 177.846H119.788V183.547H125.486V177.846Z" fill="black"/>
<path d="M142.577 177.846H136.879V183.547H142.577V177.846Z" fill="black"/>
<path d="M210.94 177.846H216.637V183.547H222.332V189.241H205.242V183.547H210.94V177.846Z" fill="black"/>
<path d="M136.879 183.547H131.181V189.242H136.879V183.547Z" fill="black"/>
<path d="M142.577 183.547H148.275V189.242H153.97V194.94H142.577V183.547Z" fill="black"/>
<path d="M176.758 183.547H171.06V189.242H176.758V183.547Z" fill="black"/>
<path d="M228.03 183.547H239.423V189.242H245.121V194.94H233.725V189.242H228.03V183.547Z" fill="black"/>
<path d="M136.879 194.94H131.181V200.64H136.879V194.94Z" fill="black"/>
<path d="M97 200.637H102.698V217.725H108.393V223.423H97V200.637Z" fill="black"/>
<path d="M239.423 200.637H233.725V206.332H239.423V200.637Z" fill="black"/>
<path d="M114.091 206.332H108.393V217.725H114.091V206.332Z" fill="black"/>
<path d="M176.758 206.332H171.06V212.03H176.758V206.332Z" fill="black"/>
<path d="M193.849 206.332H188.154V217.725H193.849V206.332Z" fill="black"/>
<path d="M171.06 206.332V189.242H159.665V194.94H153.967V200.64H159.665V206.335H153.967V200.64H148.272V206.335H142.574V200.64H136.876V206.335H131.178V200.64H125.486V206.335H119.789V217.728H114.091V223.426H125.483V212.033H136.876V217.731H148.269V223.429H142.571V234.822H148.269V229.124H153.964V223.426H159.662V229.124H165.36V217.731H171.058V212.033H165.36V206.335H171.06V206.332ZM159.668 217.725H153.97V212.027H159.668V217.725Z" fill="black"/>
<path d="M176.758 212.03H182.456V223.423H176.758V229.121H171.06V217.725H176.758V212.03Z" fill="black"/>
<path d="M136.879 217.725H131.181V223.423H136.879V217.725Z" fill="black"/>
<path d="M199.547 217.725H205.242V223.423H210.939V229.121H205.242V234.819H199.547V229.121H193.846V234.819H199.547V240.514H193.846V246.211H182.456V234.819H176.758V229.121H182.456V223.423H199.547V217.725Z" fill="black"/>
<path d="M216.64 217.725H210.94V223.423H216.64V217.725Z" fill="black"/>
<path d="M273.607 217.725H285V223.423H279.302V229.121H267.909V223.423H273.607V217.725Z" fill="black"/>
<path d="M267.909 206.332V200.637H250.819V194.937H245.121V212.027H233.728V206.329H228.03V194.937H222.332V206.329H216.637V200.634H210.937V194.934H199.547V189.236H188.154V183.541H193.849V172.148H188.154V177.843H182.456V189.236H176.758V206.326H182.456V200.632H193.846V206.326H199.547V200.632H205.242V206.326H199.547V212.024H228.03V217.722H222.332V223.42H216.637V229.118H228.027V223.42H233.725V229.118H228.027V234.816H216.637V240.514H210.937V246.211H222.329V251.909H239.42V246.211H267.906V240.514H262.209V234.816H267.906V229.118H262.209V223.42H267.906V217.722H256.514V212.024H250.816V206.326H256.514V212.024H267.906V217.722H273.604V212.024H285V206.326H267.909V206.332ZM256.514 223.423V240.514H239.423V223.423H256.514Z" fill="black"/>
<path d="M159.668 229.121H153.97V234.819H159.668V229.121Z" fill="black"/>
<path d="M171.063 229.121H165.366V234.819H171.063V229.121Z" fill="black"/>
<path d="M216.64 229.121H210.94V234.819H216.64V229.121Z" fill="black"/>
<path d="M250.819 229.121H245.121V234.819H250.819V229.121Z" fill="black"/>
<path d="M97 229.121V269H136.879V229.121H97ZM131.181 263.302H102.698V234.816H131.181V263.302V263.302Z" fill="black"/>
<path d="M176.758 234.818H171.06V240.516H176.758V234.818Z" fill="black"/>
<path d="M273.607 234.818H267.909V240.516H273.607V234.818Z" fill="black"/>
<path d="M125.483 240.513H108.393V257.604H125.483V240.513Z" fill="black"/>
<path d="M148.275 240.513H142.577V251.906H148.275V240.513Z" fill="black"/>
<path d="M273.607 240.513H285V246.211H279.302V251.909H285V263.302H273.607V240.513Z" fill="black"/>
<path d="M159.668 246.212H171.06V257.607H165.365V251.909H159.668V246.212Z" fill="black"/>
<path d="M199.547 246.212H193.846V251.909H199.547V246.212Z" fill="black"/>
<path d="M159.668 251.91H148.275V257.607H159.668V251.91Z" fill="black"/>
<path d="M176.758 251.91H182.456V269H176.758V263.302H171.06V257.607H176.758V251.91Z" fill="black"/>
<path d="M188.154 251.91H193.846V257.607H205.242V263.302H193.846V269H188.154V251.91Z" fill="black"/>
<path d="M216.64 251.91H210.94V257.607H216.64V251.91Z" fill="black"/>
<path d="M245.121 251.91H239.423V257.607H245.121V251.91Z" fill="black"/>
<path d="M256.514 251.91H267.909V263.302H262.212V257.607H256.514V251.91Z" fill="black"/>
<path d="M159.668 257.607H165.366V269H148.275V263.302H159.668V257.607Z" fill="black"/>
<path d="M216.638 257.607H228.03V263.302H222.333V269H216.638V257.607Z" fill="black"/>
<path d="M239.423 263.302H228.03V269H239.423V263.302Z" fill="black"/>
<path d="M256.516 263.302H250.819V269H256.516V263.302Z" fill="black"/>
<path d="M273.607 263.302H267.909V269H273.607V263.302Z" fill="black"/>
</g>
<path d="M119.273 51.3984H122.062C122.008 48.6953 119.703 46.7812 116.297 46.7812C112.938 46.7812 110.414 48.6719 110.422 51.5C110.422 53.7969 112.055 55.1172 114.688 55.7969L116.508 56.2656C118.234 56.7031 119.375 57.2422 119.383 58.4844C119.375 59.8516 118.078 60.7656 116.188 60.7656C114.375 60.7656 112.969 59.9531 112.852 58.2734H110C110.117 61.4531 112.484 63.2422 116.211 63.2422C120.047 63.2422 122.273 61.3281 122.281 58.5078C122.273 55.7344 119.984 54.4687 117.578 53.8984L116.078 53.5234C114.766 53.2109 113.344 52.6562 113.359 51.3203C113.367 50.1172 114.445 49.2344 116.258 49.2344C117.984 49.2344 119.125 50.0391 119.273 51.3984ZM129.975 63.2344C132.99 63.2344 134.912 61.4453 135.115 58.8984H132.412C132.17 60.1875 131.24 60.9297 129.998 60.9297C128.232 60.9297 127.092 59.4531 127.092 57C127.092 54.5781 128.256 53.125 129.998 53.125C131.357 53.125 132.193 54 132.412 55.1562H135.115C134.92 52.5547 132.889 50.8438 129.959 50.8438C126.443 50.8438 124.225 53.3828 124.225 57.0469C124.225 60.6797 126.389 63.2344 129.975 63.2344ZM140.891 63.2422C142.773 63.2422 143.898 62.3594 144.414 61.3516H144.508V63H147.227V54.9687C147.227 51.7969 144.641 50.8438 142.352 50.8438C139.828 50.8438 137.891 51.9687 137.266 54.1562L139.906 54.5312C140.188 53.7109 140.984 53.0078 142.367 53.0078C143.68 53.0078 144.398 53.6797 144.398 54.8594V54.9062C144.398 55.7188 143.547 55.7578 141.43 55.9844C139.102 56.2344 136.875 56.9297 136.875 59.6328C136.875 61.9922 138.602 63.2422 140.891 63.2422ZM141.625 61.1641C140.445 61.1641 139.602 60.625 139.602 59.5859C139.602 58.5 140.547 58.0469 141.813 57.8672C142.555 57.7656 144.039 57.5781 144.406 57.2812V58.6953C144.406 60.0312 143.328 61.1641 141.625 61.1641ZM152.898 55.9687C152.898 54.2344 153.945 53.2344 155.438 53.2344C156.898 53.2344 157.773 54.1953 157.773 55.7969V63H160.602V55.3594C160.609 52.4844 158.969 50.8438 156.492 50.8438C154.695 50.8438 153.461 51.7031 152.914 53.0391H152.773V51H150.07V63H152.898V55.9687ZM174.926 51H172.559V48.125H169.73V51H168.027V53.1875H169.73V59.8594C169.715 62.1172 171.355 63.2266 173.48 63.1641C174.285 63.1406 174.84 62.9844 175.145 62.8828L174.668 60.6719C174.512 60.7109 174.191 60.7812 173.84 60.7812C173.129 60.7812 172.559 60.5312 172.559 59.3906V53.1875H174.926V51ZM182.396 63.2344C185.912 63.2344 188.146 60.7578 188.146 57.0469C188.146 53.3281 185.912 50.8438 182.396 50.8438C178.881 50.8438 176.646 53.3281 176.646 57.0469C176.646 60.7578 178.881 63.2344 182.396 63.2344ZM182.412 60.9687C180.467 60.9687 179.514 59.2344 179.514 57.0391C179.514 54.8437 180.467 53.0859 182.412 53.0859C184.326 53.0859 185.279 54.8437 185.279 57.0391C185.279 59.2344 184.326 60.9687 182.412 60.9687ZM196.129 63H199.027V57.5937H202.09C205.785 57.5937 207.77 55.375 207.77 52.2969C207.77 49.2422 205.809 47 202.129 47H196.129V63ZM199.027 55.2109V49.4219H201.684C203.855 49.4219 204.816 50.5937 204.816 52.2969C204.816 54 203.855 55.2109 201.699 55.2109H199.027ZM213.4 63.2422C215.283 63.2422 216.408 62.3594 216.924 61.3516H217.018V63H219.736V54.9687C219.736 51.7969 217.15 50.8438 214.861 50.8438C212.338 50.8438 210.4 51.9687 209.775 54.1562L212.416 54.5312C212.697 53.7109 213.494 53.0078 214.877 53.0078C216.189 53.0078 216.908 53.6797 216.908 54.8594V54.9062C216.908 55.7188 216.057 55.7578 213.939 55.9844C211.611 56.2344 209.385 56.9297 209.385 59.6328C209.385 61.9922 211.111 63.2422 213.4 63.2422ZM214.135 61.1641C212.955 61.1641 212.111 60.625 212.111 59.5859C212.111 58.5 213.057 58.0469 214.322 57.8672C215.064 57.7656 216.549 57.5781 216.916 57.2812V58.6953C216.916 60.0312 215.838 61.1641 214.135 61.1641ZM223.908 67.5C226.111 67.5 227.385 66.3672 228.064 64.4531L232.885 51.0156L229.861 51L227.088 60.0625H226.963L224.197 51H221.197L225.549 63.25L225.307 63.8984C224.783 65.2656 223.955 65.3594 222.721 65L222.064 67.2031C222.447 67.3594 223.135 67.5 223.908 67.5ZM240.43 47V63H243.211V51.9844H243.359L247.781 62.9531H249.859L254.281 52.0078H254.43V63H257.211V47H253.664L248.914 58.5937H248.727L243.977 47H240.43ZM265.555 63.2344C268.352 63.2344 270.273 61.8672 270.773 59.7812L268.133 59.4844C267.75 60.5 266.813 61.0312 265.594 61.0312C263.766 61.0312 262.555 59.8281 262.531 57.7734H270.891V56.9062C270.891 52.6953 268.359 50.8438 265.406 50.8438C261.969 50.8438 259.727 53.3672 259.727 57.0703C259.727 60.8359 261.938 63.2344 265.555 63.2344ZM262.539 55.8672C262.625 54.3359 263.758 53.0469 265.445 53.0469C267.07 53.0469 268.164 54.2344 268.18 55.8672H262.539Z" fill="#333333"/>
<defs>
<clipPath id="clip0_1689:2705">
<rect width="188" height="188" fill="white" transform="translate(97 81)"/>
</clipPath>
</defs>
</svg>
