<svg width="96" height="96" viewBox="0 0 96 96" fill="none" xmlns="http://www.w3.org/2000/svg">
<g clip-path="url(#clip0_1656:720)">
<rect width="96" height="96" rx="8" fill="#F5F9FF"/>
<path d="M70.4715 121.799H25.5281C24.2013 121.799 23.1257 120.723 23.1257 119.396V44.6039C23.1257 43.2771 24.2013 42.2015 25.5281 42.2015H70.4716C71.7984 42.2015 72.874 43.2771 72.874 44.6039V119.396C72.8738 120.723 71.7984 121.799 70.4715 121.799Z" fill="#1A71FF"/>
<path d="M28.1006 52.1512H67.8991V111.849H28.1006V52.1512Z" fill="#F5FCFF"/>
<path d="M28.1006 52.1516H31.1339V111.848H28.1006V52.1516Z" fill="#D8ECFE"/>
<path d="M60.5218 47.1698H35.4775C34.1508 47.1698 33.0752 46.0942 33.0752 44.7675V42.1951H62.9242V44.7675C62.9242 46.0942 61.8485 47.1698 60.5218 47.1698Z" fill="#8CBDF9"/>
<path d="M72.8737 80.581C73.5371 80.581 74.0749 80.0432 74.0749 79.3798V44.6035C74.0749 42.6165 72.4584 41 70.4714 41H25.5283C23.5413 41 21.9248 42.6165 21.9248 44.6035V119.396C21.9248 121.384 23.5413 123 25.5283 123H70.4714C72.4584 123 74.0749 121.384 74.0749 119.396V84.6138C74.0749 83.9504 73.5371 83.4126 72.8737 83.4126C72.2103 83.4126 71.6725 83.9504 71.6725 84.6138V119.396C71.6725 120.059 71.1338 120.598 70.4714 120.598H25.5283C24.8659 120.598 24.3271 120.059 24.3271 119.396V44.6035C24.3271 43.9411 24.8659 43.4023 25.5283 43.4023H31.8743V44.7675C31.8743 46.7546 33.4908 48.371 35.4779 48.371H60.522C62.509 48.371 64.1255 46.7546 64.1255 44.7675V43.4023H70.4715C71.1339 43.4023 71.6727 43.9411 71.6727 44.6035V79.3798C71.6725 80.0432 72.2103 80.581 72.8737 80.581ZM61.7231 44.7675C61.7231 45.4299 61.1844 45.9687 60.522 45.9687H35.4777C34.8153 45.9687 34.2765 45.4299 34.2765 44.7675V43.4023H61.723V44.7675H61.7231Z" fill="#80B0FF"/>
<path d="M35.4293 50.9504H28.1006C27.4372 50.9504 26.8994 51.4882 26.8994 52.1516V111.848C26.8994 112.512 27.4372 113.049 28.1006 113.049H50.3575C51.0209 113.049 51.5587 112.512 51.5587 111.848C51.5587 111.185 51.0209 110.647 50.3575 110.647H29.3018V53.3528H35.4293C36.0927 53.3528 36.6305 52.815 36.6305 52.1516C36.6305 51.4882 36.0927 50.9504 35.4293 50.9504Z" fill="#80B0FF"/>
<path d="M54.3918 111.848C54.3918 112.512 54.9296 113.049 55.593 113.049H67.8994C68.5627 113.049 69.1005 112.512 69.1005 111.848V52.1516C69.1005 51.4882 68.5627 50.9504 67.8994 50.9504H40.6648C40.0014 50.9504 39.4636 51.4882 39.4636 52.1516C39.4636 52.815 40.0014 53.3528 40.6648 53.3528H66.6982V110.647H55.593C54.9296 110.647 54.3918 111.185 54.3918 111.848Z" fill="#80B0FF"/>
<path d="M38.05 68.3601H33.0752C32.4118 68.3601 31.874 68.8979 31.874 69.5613V74.5361C31.874 75.1994 32.4118 75.7372 33.0752 75.7372C33.7386 75.7372 34.2764 75.1994 34.2764 74.5361V70.7625H38.05C38.7133 70.7625 39.2511 70.2246 39.2511 69.5613C39.2511 68.8979 38.7135 68.3601 38.05 68.3601Z" fill="black"/>
<path d="M62.9245 75.7372C63.5879 75.7372 64.1257 75.1994 64.1257 74.5361V69.5613C64.1257 68.8979 63.5879 68.3601 62.9245 68.3601H57.9497C57.2863 68.3601 56.7485 68.8979 56.7485 69.5613C56.7485 70.2246 57.2863 70.7625 57.9497 70.7625H61.7233V74.5361C61.7233 75.1996 62.261 75.7372 62.9245 75.7372Z" fill="black"/>
<path d="M33.0752 88.2562C32.4118 88.2562 31.874 88.794 31.874 89.4574V94.4322C31.874 95.0955 32.4118 95.6333 33.0752 95.6333H38.05C38.7133 95.6333 39.2511 95.0955 39.2511 94.4322C39.2511 93.7688 38.7133 93.231 38.05 93.231H34.2764V89.4574C34.2764 88.794 33.7387 88.2562 33.0752 88.2562Z" fill="black"/>
<path d="M57.9497 95.6333H62.9245C63.5879 95.6333 64.1257 95.0955 64.1257 94.4322V89.4574C64.1257 88.794 63.5879 88.2562 62.9245 88.2562C62.2611 88.2562 61.7233 88.794 61.7233 89.4574V93.231H57.9497C57.2863 93.231 56.7485 93.7688 56.7485 94.4322C56.7485 95.0955 57.2862 95.6333 57.9497 95.6333Z" fill="black"/>
<path d="M39.2515 74.5361C39.2515 73.8728 38.7137 73.335 38.0503 73.335C37.3869 73.335 36.8491 73.8728 36.8491 74.5361V89.4606C36.8491 90.124 37.3869 90.6618 38.0503 90.6618C38.7137 90.6618 39.2515 90.124 39.2515 89.4606V74.5361Z" fill="black"/>
<path d="M56.7485 89.4606C56.7485 90.124 57.2863 90.6618 57.9497 90.6618C58.6131 90.6618 59.1509 90.124 59.1509 89.4606V74.5361C59.1509 73.8728 58.6131 73.335 57.9497 73.335C57.2863 73.335 56.7485 73.8728 56.7485 74.5361V89.4606Z" fill="black"/>
<path d="M43.0249 85.687C43.6883 85.687 44.2261 85.1492 44.2261 84.4858V74.5361C44.2261 73.8728 43.6883 73.335 43.0249 73.335C42.3615 73.335 41.8237 73.8728 41.8237 74.5361V84.4858C41.8237 85.1492 42.3615 85.687 43.0249 85.687Z" fill="black"/>
<path d="M48 85.687C48.6634 85.687 49.2012 85.1492 49.2012 84.4858V74.5361C49.2012 73.8728 48.6634 73.335 48 73.335C47.3366 73.335 46.7988 73.8728 46.7988 74.5361V84.4858C46.7988 85.1492 47.3366 85.687 48 85.687Z" fill="black"/>
<path d="M52.9746 85.687C53.638 85.687 54.1758 85.1492 54.1758 84.4858V74.5361C54.1758 73.8728 53.638 73.335 52.9746 73.335C52.3112 73.335 51.7734 73.8728 51.7734 74.5361V84.4858C51.7734 85.1492 52.3112 85.687 52.9746 85.687Z" fill="black"/>
<path d="M41.8237 89.4606C41.8237 90.1239 42.3615 90.6617 43.0249 90.6617C43.6883 90.6617 44.2261 90.1239 44.2261 89.4606C44.2261 88.7972 43.6883 88.2594 43.0249 88.2594C42.3615 88.2594 41.8237 88.7972 41.8237 89.4606Z" fill="#FFDE5C"/>
<path d="M46.7988 89.4606C46.7988 90.1239 47.3366 90.6617 48 90.6617C48.6634 90.6617 49.2012 90.1239 49.2012 89.4606C49.2012 88.7972 48.6634 88.2594 48 88.2594C47.3366 88.2594 46.7988 88.7972 46.7988 89.4606Z" fill="#FFDE5C"/>
<path d="M54.1758 89.4606C54.1758 88.7972 53.638 88.2594 52.9746 88.2594C52.3112 88.2594 51.7734 88.7972 51.7734 89.4606C51.7734 90.1239 52.3112 90.6617 52.9746 90.6617C53.638 90.6617 54.1758 90.1239 54.1758 89.4606Z" fill="#FFDE5C"/>
</g>
<defs>
<clipPath id="clip0_1656:720">
<rect width="96" height="96" fill="white"/>
</clipPath>
</defs>
</svg>
