<svg width="381" height="323" viewBox="0 0 381 323" fill="none" xmlns="http://www.w3.org/2000/svg">
<rect width="381" height="323" rx="16" fill="#E5EFFF"/>
<path d="M37 40C37 35.5817 40.5817 32 45 32H336C340.418 32 344 35.5817 344 40V283C344 287.418 340.418 291 336 291H45C40.5817 291 37 287.418 37 283V40Z" fill="white"/>
<path d="M50.5781 76.5H60.5234V74.0703H53.4766V60.5H50.5781V76.5ZM68.2266 76.7344C71.0234 76.7344 72.9453 75.3672 73.4453 73.2812L70.8047 72.9844C70.4219 74 69.4844 74.5312 68.2656 74.5312C66.4375 74.5312 65.2266 73.3281 65.2031 71.2734H73.5625V70.4062C73.5625 66.1953 71.0313 64.3438 68.0781 64.3438C64.6406 64.3438 62.3984 66.8672 62.3984 70.5703C62.3984 74.3359 64.6094 76.7344 68.2266 76.7344ZM65.2109 69.3672C65.2969 67.8359 66.4297 66.5469 68.1172 66.5469C69.7422 66.5469 70.8359 67.7344 70.8516 69.3672H65.2109ZM81.9473 64.5H79.5801V61.625H76.752V64.5H75.0488V66.6875H76.752V73.3594C76.7363 75.6172 78.377 76.7266 80.502 76.6641C81.3066 76.6406 81.8613 76.4844 82.166 76.3828L81.6895 74.1719C81.5332 74.2109 81.2129 74.2812 80.8613 74.2812C80.1504 74.2812 79.5801 74.0312 79.5801 72.8906V66.6875H81.9473V64.5ZM87.2695 60.5H85.0195V62.1094C85.0195 63.3828 84.5195 64.3594 83.9492 65.2187L85.2617 66.0703C86.4102 65.1172 87.2695 63.4766 87.2695 62.0937V60.5ZM97.4922 67.6719C97.1016 65.6406 95.4766 64.3438 92.6641 64.3438C89.7734 64.3438 87.8047 65.7656 87.8125 67.9844C87.8047 69.7344 88.8828 70.8906 91.1875 71.3672L93.2344 71.7969C94.3359 72.0391 94.8516 72.4844 94.8516 73.1641C94.8516 73.9844 93.9609 74.6016 92.6172 74.6016C91.3203 74.6016 90.4766 74.0391 90.2344 72.9609L87.4766 73.2266C87.8281 75.4297 89.6797 76.7344 92.625 76.7344C95.625 76.7344 97.7422 75.1797 97.75 72.9062C97.7422 71.1953 96.6406 70.1484 94.375 69.6562L92.3281 69.2188C91.1094 68.9453 90.625 68.5234 90.6328 67.8281C90.625 67.0156 91.5234 66.4531 92.7031 66.4531C94.0078 66.4531 94.6953 67.1641 94.9141 67.9531L97.4922 67.6719ZM110.758 81.25C114 81.25 116.391 79.7656 116.391 76.6953V64.5H113.602V66.4844H113.445C113.016 65.6172 112.117 64.3438 110 64.3438C107.227 64.3438 105.047 66.5156 105.047 70.4609C105.047 74.375 107.227 76.3281 109.992 76.3281C112.047 76.3281 113.008 75.2266 113.445 74.3437H113.586V76.6172C113.586 78.3828 112.414 79.1094 110.805 79.1094C109.102 79.1094 108.352 78.3047 108.008 77.6016L105.461 78.2188C105.977 79.8984 107.703 81.25 110.758 81.25ZM110.781 74.1094C108.914 74.1094 107.93 72.6562 107.93 70.4453C107.93 68.2656 108.898 66.6641 110.781 66.6641C112.602 66.6641 113.602 68.1719 113.602 70.4453C113.602 72.7344 112.586 74.1094 110.781 74.1094ZM124.602 76.7344C127.398 76.7344 129.32 75.3672 129.82 73.2812L127.18 72.9844C126.797 74 125.859 74.5312 124.641 74.5312C122.813 74.5312 121.602 73.3281 121.578 71.2734H129.938V70.4062C129.938 66.1953 127.406 64.3438 124.453 64.3438C121.016 64.3438 118.773 66.8672 118.773 70.5703C118.773 74.3359 120.984 76.7344 124.602 76.7344ZM121.586 69.3672C121.672 67.8359 122.805 66.5469 124.492 66.5469C126.117 66.5469 127.211 67.7344 127.227 69.3672H121.586ZM138.322 64.5H135.955V61.625H133.127V64.5H131.424V66.6875H133.127V73.3594C133.111 75.6172 134.752 76.7266 136.877 76.6641C137.682 76.6406 138.236 76.4844 138.541 76.3828L138.064 74.1719C137.908 74.2109 137.588 74.2812 137.236 74.2812C136.525 74.2812 135.955 74.0312 135.955 72.8906V66.6875H138.322V64.5ZM155.629 67.6719C155.238 65.6406 153.613 64.3438 150.801 64.3438C147.91 64.3438 145.941 65.7656 145.949 67.9844C145.941 69.7344 147.02 70.8906 149.324 71.3672L151.371 71.7969C152.473 72.0391 152.988 72.4844 152.988 73.1641C152.988 73.9844 152.098 74.6016 150.754 74.6016C149.457 74.6016 148.613 74.0391 148.371 72.9609L145.613 73.2266C145.965 75.4297 147.816 76.7344 150.762 76.7344C153.762 76.7344 155.879 75.1797 155.887 72.9062C155.879 71.1953 154.777 70.1484 152.512 69.6562L150.465 69.2188C149.246 68.9453 148.762 68.5234 148.77 67.8281C148.762 67.0156 149.66 66.4531 150.84 66.4531C152.145 66.4531 152.832 67.1641 153.051 67.9531L155.629 67.6719ZM164.211 64.5H161.844V61.625H159.016V64.5H157.313V66.6875H159.016V73.3594C159 75.6172 160.641 76.7266 162.766 76.6641C163.57 76.6406 164.125 76.4844 164.43 76.3828L163.953 74.1719C163.797 74.2109 163.477 74.2812 163.125 74.2812C162.414 74.2812 161.844 74.0312 161.844 72.8906V66.6875H164.211V64.5ZM170.029 76.7422C171.912 76.7422 173.037 75.8594 173.553 74.8516H173.646V76.5H176.365V68.4687C176.365 65.2969 173.779 64.3438 171.49 64.3438C168.967 64.3438 167.029 65.4687 166.404 67.6562L169.045 68.0312C169.326 67.2109 170.123 66.5078 171.506 66.5078C172.818 66.5078 173.537 67.1797 173.537 68.3594V68.4062C173.537 69.2188 172.686 69.2578 170.568 69.4844C168.24 69.7344 166.014 70.4297 166.014 73.1328C166.014 75.4922 167.74 76.7422 170.029 76.7422ZM170.764 74.6641C169.584 74.6641 168.74 74.125 168.74 73.0859C168.74 72 169.686 71.5469 170.951 71.3672C171.693 71.2656 173.178 71.0781 173.545 70.7812V72.1953C173.545 73.5312 172.467 74.6641 170.764 74.6641ZM179.209 76.5H182.037V69.4453C182.037 67.9219 183.186 66.8437 184.74 66.8437C185.217 66.8437 185.811 66.9297 186.053 67.0078V64.4062C185.795 64.3594 185.35 64.3281 185.037 64.3281C183.662 64.3281 182.514 65.1094 182.076 66.5H181.951V64.5H179.209V76.5ZM194.568 64.5H192.201V61.625H189.373V64.5H187.67V66.6875H189.373V73.3594C189.357 75.6172 190.998 76.7266 193.123 76.6641C193.928 76.6406 194.482 76.4844 194.787 76.3828L194.311 74.1719C194.154 74.2109 193.834 74.2812 193.482 74.2812C192.771 74.2812 192.201 74.0312 192.201 72.8906V66.6875H194.568V64.5ZM202.117 76.7344C204.914 76.7344 206.836 75.3672 207.336 73.2812L204.695 72.9844C204.313 74 203.375 74.5312 202.156 74.5312C200.328 74.5312 199.117 73.3281 199.094 71.2734H207.453V70.4062C207.453 66.1953 204.922 64.3438 201.969 64.3438C198.531 64.3438 196.289 66.8672 196.289 70.5703C196.289 74.3359 198.5 76.7344 202.117 76.7344ZM199.102 69.3672C199.188 67.8359 200.32 66.5469 202.008 66.5469C203.633 66.5469 204.727 67.7344 204.742 69.3672H199.102ZM214.299 76.7109C216.361 76.7109 217.291 75.4844 217.736 74.6094H217.908V76.5H220.689V60.5H217.854V66.4844H217.736C217.307 65.6172 216.424 64.3438 214.307 64.3438C211.533 64.3438 209.354 66.5156 209.354 70.5156C209.354 74.4687 211.471 76.7109 214.299 76.7109ZM215.088 74.3906C213.221 74.3906 212.236 72.75 212.236 70.5C212.236 68.2656 213.205 66.6641 215.088 66.6641C216.908 66.6641 217.908 68.1719 217.908 70.5C217.908 72.8281 216.893 74.3906 215.088 74.3906Z" fill="#333333"/>
<path d="M50.0568 97.5H51.1136V93.5966H54.8977V92.6591H51.1136V89.7102H55.2898V88.7727H50.0568V97.5ZM56.9634 97.5H57.9691V90.9545H56.9634V97.5ZM57.4748 89.8636C57.8668 89.8636 58.1907 89.5568 58.1907 89.1818C58.1907 88.8068 57.8668 88.5 57.4748 88.5C57.0827 88.5 56.7589 88.8068 56.7589 89.1818C56.7589 89.5568 57.0827 89.8636 57.4748 89.8636ZM60.8168 88.7727H59.8111V97.5H60.8168V88.7727ZM63.6644 88.7727H62.6587V97.5H63.6644V88.7727ZM68.8814 97.5H69.8871V90.9545H68.8814V97.5ZM69.3928 89.8636C69.7848 89.8636 70.1087 89.5568 70.1087 89.1818C70.1087 88.8068 69.7848 88.5 69.3928 88.5C69.0007 88.5 68.6768 88.8068 68.6768 89.1818C68.6768 89.5568 69.0007 89.8636 69.3928 89.8636ZM72.7347 93.5625C72.7347 92.4205 73.4421 91.7727 74.4052 91.7727C75.3384 91.7727 75.9052 92.3821 75.9052 93.4091V97.5H76.9109V93.3409C76.9109 91.6705 76.0202 90.8693 74.695 90.8693C73.7063 90.8693 73.0927 91.3125 72.7859 91.9773H72.7006V90.9545H71.729V97.5H72.7347V93.5625ZM82.7713 99.9545C83.679 99.9545 84.3182 99.473 84.6974 98.4545L87.4844 90.9716L86.3849 90.9545L84.5781 96.1705H84.5099L82.7031 90.9545H81.6122L84.0327 97.5341L83.8452 98.0455C83.4787 99.0426 83.027 99.1364 82.294 98.9489L82.0384 99.8352C82.1406 99.8864 82.4304 99.9545 82.7713 99.9545ZM91.2397 97.6364C93.0124 97.6364 94.2056 96.2898 94.2056 94.2614C94.2056 92.2159 93.0124 90.8693 91.2397 90.8693C89.467 90.8693 88.2738 92.2159 88.2738 94.2614C88.2738 96.2898 89.467 97.6364 91.2397 97.6364ZM91.2397 96.733C89.8931 96.733 89.2795 95.5739 89.2795 94.2614C89.2795 92.9489 89.8931 91.7727 91.2397 91.7727C92.5863 91.7727 93.1999 92.9489 93.1999 94.2614C93.1999 95.5739 92.5863 96.733 91.2397 96.733ZM99.8658 94.8239C99.8658 96.0511 98.9283 96.6136 98.1783 96.6136C97.343 96.6136 96.7464 96 96.7464 95.0455V90.9545H95.7408V95.1136C95.7408 96.7841 96.6271 97.5852 97.8544 97.5852C98.843 97.5852 99.4908 97.0568 99.7976 96.392H99.8658V97.5H100.871V90.9545H99.8658V94.8239ZM102.713 97.5H103.719V93.358C103.719 92.4716 104.418 91.8239 105.373 91.8239C105.641 91.8239 105.918 91.875 105.986 91.892V90.8693C105.871 90.8608 105.607 90.8523 105.458 90.8523C104.674 90.8523 103.992 91.2955 103.753 91.9432H103.685V90.9545H102.713V97.5ZM110.553 97.5H111.559V90.9545H110.553V97.5ZM111.065 89.8636C111.457 89.8636 111.781 89.5568 111.781 89.1818C111.781 88.8068 111.457 88.5 111.065 88.5C110.673 88.5 110.349 88.8068 110.349 89.1818C110.349 89.5568 110.673 89.8636 111.065 89.8636ZM114.407 93.5625C114.407 92.4205 115.114 91.7727 116.077 91.7727C117.01 91.7727 117.577 92.3821 117.577 93.4091V97.5H118.583V93.3409C118.583 91.6705 117.692 90.8693 116.367 90.8693C115.378 90.8693 114.765 91.3125 114.458 91.9773H114.373V90.9545H113.401V97.5H114.407V93.5625ZM123.335 90.9545H121.869V90.2898C121.869 89.642 122.142 89.3011 122.807 89.3011C123.097 89.3011 123.267 89.3693 123.369 89.4034L123.659 88.5341C123.506 88.4659 123.199 88.3636 122.705 88.3636C121.767 88.3636 120.864 88.9261 120.864 90.0511V90.9545H119.807V91.8068H120.864V97.5H121.869V91.8068H123.335V90.9545ZM127.134 97.6364C128.907 97.6364 130.1 96.2898 130.1 94.2614C130.1 92.2159 128.907 90.8693 127.134 90.8693C125.362 90.8693 124.168 92.2159 124.168 94.2614C124.168 96.2898 125.362 97.6364 127.134 97.6364ZM127.134 96.733C125.788 96.733 125.174 95.5739 125.174 94.2614C125.174 92.9489 125.788 91.7727 127.134 91.7727C128.481 91.7727 129.094 92.9489 129.094 94.2614C129.094 95.5739 128.481 96.733 127.134 96.733ZM131.635 97.5H132.641V93.358C132.641 92.4716 133.34 91.8239 134.294 91.8239C134.563 91.8239 134.84 91.875 134.908 91.892V90.8693C134.793 90.8608 134.529 90.8523 134.38 90.8523C133.596 90.8523 132.914 91.2955 132.675 91.9432H132.607V90.9545H131.635V97.5ZM136.1 97.5H137.106V93.4091C137.106 92.4503 137.805 91.7727 138.589 91.7727C139.352 91.7727 139.884 92.2713 139.884 93.017V97.5H140.907V93.2386C140.907 92.3949 141.435 91.7727 142.356 91.7727C143.072 91.7727 143.685 92.152 143.685 93.1193V97.5H144.691V93.1193C144.691 91.581 143.864 90.8693 142.697 90.8693C141.759 90.8693 141.073 91.2997 140.737 91.9773H140.668C140.344 91.2784 139.773 90.8693 138.913 90.8693C138.06 90.8693 137.43 91.2784 137.157 91.9773H137.072V90.9545H136.1V97.5ZM148.456 97.6534C149.598 97.6534 150.195 97.0398 150.399 96.6136H150.45V97.5H151.456V93.1875C151.456 91.108 149.871 90.8693 149.036 90.8693C148.047 90.8693 146.922 91.2102 146.411 92.4034L147.365 92.7443C147.587 92.267 148.111 91.7557 149.07 91.7557C149.994 91.7557 150.45 92.2457 150.45 93.0852V93.1193C150.45 93.6051 149.956 93.5625 148.763 93.7159C147.548 93.8736 146.223 94.142 146.223 95.642C146.223 96.9205 147.212 97.6534 148.456 97.6534ZM148.609 96.75C147.808 96.75 147.229 96.392 147.229 95.6932C147.229 94.9261 147.928 94.6875 148.712 94.5852C149.138 94.5341 150.28 94.4148 150.45 94.2102V95.1307C150.45 95.9489 149.803 96.75 148.609 96.75ZM156.138 90.9545H154.74V89.3864H153.735V90.9545H152.746V91.8068H153.735V95.8977C153.735 97.0398 154.655 97.5852 155.507 97.5852C155.882 97.5852 156.121 97.517 156.257 97.4659L156.053 96.5625C155.968 96.5795 155.831 96.6136 155.61 96.6136C155.167 96.6136 154.74 96.4773 154.74 95.625V91.8068H156.138V90.9545ZM157.651 97.5H158.657V90.9545H157.651V97.5ZM158.162 89.8636C158.554 89.8636 158.878 89.5568 158.878 89.1818C158.878 88.8068 158.554 88.5 158.162 88.5C157.77 88.5 157.446 88.8068 157.446 89.1818C157.446 89.5568 157.77 89.8636 158.162 89.8636ZM163.158 97.6364C164.93 97.6364 166.124 96.2898 166.124 94.2614C166.124 92.2159 164.93 90.8693 163.158 90.8693C161.385 90.8693 160.192 92.2159 160.192 94.2614C160.192 96.2898 161.385 97.6364 163.158 97.6364ZM163.158 96.733C161.811 96.733 161.197 95.5739 161.197 94.2614C161.197 92.9489 161.811 91.7727 163.158 91.7727C164.504 91.7727 165.118 92.9489 165.118 94.2614C165.118 95.5739 164.504 96.733 163.158 96.733ZM168.664 93.5625C168.664 92.4205 169.372 91.7727 170.335 91.7727C171.268 91.7727 171.835 92.3821 171.835 93.4091V97.5H172.841V93.3409C172.841 91.6705 171.95 90.8693 170.625 90.8693C169.636 90.8693 169.022 91.3125 168.716 91.9773H168.63V90.9545H167.659V97.5H168.664V93.5625Z" fill="#808080"/>
<rect x="49" y="124.5" width="73" height="16" rx="8" fill="#EFEFEF"/>
<rect x="49" y="148.5" width="283" height="48" rx="8" fill="#F7F7F7"/>
<path d="M66.233 177.5H69.9119C72.3182 177.5 73.3125 176.327 73.3125 174.795C73.3125 173.185 72.1989 172.31 71.2642 172.25V172.151C72.1392 171.912 72.9148 171.335 72.9148 170.023C72.9148 168.531 71.9205 167.318 69.7926 167.318H66.233V177.5ZM67.4659 176.406V172.866H69.9716C71.304 172.866 72.1392 173.761 72.1392 174.795C72.1392 175.69 71.5227 176.406 69.9119 176.406H67.4659ZM67.4659 171.793V168.412H69.7926C71.1449 168.412 71.7415 169.128 71.7415 170.023C71.7415 171.097 70.8665 171.793 69.7528 171.793H67.4659ZM79.9918 174.378C79.9918 175.81 78.8981 176.466 78.0231 176.466C77.0487 176.466 76.3526 175.75 76.3526 174.636V169.864H75.1793V174.716C75.1793 176.665 76.2134 177.599 77.6452 177.599C78.7987 177.599 79.5543 176.983 79.9123 176.207H79.9918V177.5H81.1651V169.864H79.9918V174.378ZM88.7232 171.574C88.3553 170.49 87.53 169.764 86.0186 169.764C84.4078 169.764 83.2147 170.679 83.2147 171.972C83.2147 173.026 83.8411 173.732 85.2431 174.06L86.5158 174.358C87.2864 174.537 87.6493 174.905 87.6493 175.432C87.6493 176.088 86.9533 176.625 85.8596 176.625C84.9 176.625 84.2985 176.212 84.0897 175.392L82.976 175.67C83.2495 176.968 84.3184 177.659 85.8794 177.659C87.6543 177.659 88.8624 176.69 88.8624 175.372C88.8624 174.308 88.1962 173.637 86.834 173.304L85.7005 173.026C84.7956 172.802 84.388 172.499 84.388 171.912C84.388 171.256 85.084 170.778 86.0186 170.778C87.0428 170.778 87.4654 171.345 87.6692 171.872L88.7232 171.574ZM90.6286 177.5H91.8018V169.864H90.6286V177.5ZM91.2251 168.591C91.6825 168.591 92.0604 168.233 92.0604 167.795C92.0604 167.358 91.6825 167 91.2251 167C90.7678 167 90.3899 167.358 90.3899 167.795C90.3899 168.233 90.7678 168.591 91.2251 168.591ZM95.1241 172.906C95.1241 171.574 95.9494 170.818 97.073 170.818C98.1618 170.818 98.823 171.529 98.823 172.727V177.5H99.9963V172.648C99.9963 170.699 98.9572 169.764 97.411 169.764C96.2576 169.764 95.5417 170.281 95.1838 171.057H95.0843V169.864H93.9508V177.5H95.1241V172.906ZM105.342 177.659C106.893 177.659 108.027 176.884 108.385 175.73L107.251 175.412C106.953 176.207 106.262 176.605 105.342 176.605C103.965 176.605 103.015 175.715 102.961 174.08H108.504V173.582C108.504 170.739 106.814 169.764 105.223 169.764C103.154 169.764 101.782 171.395 101.782 173.741C101.782 176.088 103.135 177.659 105.342 177.659ZM102.961 173.065C103.04 171.877 103.88 170.818 105.223 170.818C106.495 170.818 107.311 171.773 107.311 173.065H102.961ZM115.698 171.574C115.33 170.49 114.505 169.764 112.993 169.764C111.382 169.764 110.189 170.679 110.189 171.972C110.189 173.026 110.816 173.732 112.218 174.06L113.49 174.358C114.261 174.537 114.624 174.905 114.624 175.432C114.624 176.088 113.928 176.625 112.834 176.625C111.875 176.625 111.273 176.212 111.064 175.392L109.951 175.67C110.224 176.968 111.293 177.659 112.854 177.659C114.629 177.659 115.837 176.69 115.837 175.372C115.837 174.308 115.171 173.637 113.809 173.304L112.675 173.026C111.77 172.802 111.363 172.499 111.363 171.912C111.363 171.256 112.059 170.778 112.993 170.778C114.017 170.778 114.44 171.345 114.644 171.872L115.698 171.574ZM123.012 171.574C122.644 170.49 121.819 169.764 120.308 169.764C118.697 169.764 117.504 170.679 117.504 171.972C117.504 173.026 118.13 173.732 119.532 174.06L120.805 174.358C121.575 174.537 121.938 174.905 121.938 175.432C121.938 176.088 121.242 176.625 120.149 176.625C119.189 176.625 118.588 176.212 118.379 175.392L117.265 175.67C117.539 176.968 118.607 177.659 120.169 177.659C121.943 177.659 123.151 176.69 123.151 175.372C123.151 174.308 122.485 173.637 121.123 173.304L119.99 173.026C119.085 172.802 118.677 172.499 118.677 171.912C118.677 171.256 119.373 170.778 120.308 170.778C121.332 170.778 121.754 171.345 121.958 171.872L123.012 171.574ZM130.028 172.906C130.028 171.574 130.854 170.818 131.977 170.818C133.066 170.818 133.727 171.529 133.727 172.727V177.5H134.901V172.648C134.901 170.699 133.862 169.764 132.315 169.764C131.162 169.764 130.446 170.281 130.088 171.057H129.989V169.864H128.855V177.5H130.028V172.906ZM139.292 177.679C140.624 177.679 141.32 176.963 141.559 176.466H141.618V177.5H142.792V172.469C142.792 170.043 140.942 169.764 139.968 169.764C138.814 169.764 137.502 170.162 136.905 171.554L138.019 171.952C138.278 171.395 138.889 170.798 140.008 170.798C141.086 170.798 141.618 171.37 141.618 172.349V172.389C141.618 172.956 141.042 172.906 139.65 173.085C138.233 173.269 136.687 173.582 136.687 175.332C136.687 176.824 137.84 177.679 139.292 177.679ZM139.471 176.625C138.536 176.625 137.86 176.207 137.86 175.392C137.86 174.497 138.675 174.219 139.59 174.099C140.087 174.04 141.42 173.901 141.618 173.662V174.736C141.618 175.69 140.863 176.625 139.471 176.625ZM144.933 177.5H146.107V172.727C146.107 171.609 146.922 170.818 147.837 170.818C148.727 170.818 149.348 171.4 149.348 172.27V177.5H150.541V172.528C150.541 171.544 151.158 170.818 152.232 170.818C153.067 170.818 153.783 171.261 153.783 172.389V177.5H154.956V172.389C154.956 170.594 153.991 169.764 152.629 169.764C151.536 169.764 150.735 170.266 150.342 171.057H150.263C149.885 170.241 149.219 169.764 148.214 169.764C147.22 169.764 146.484 170.241 146.166 171.057H146.067V169.864H144.933V177.5ZM160.303 177.659C161.854 177.659 162.988 176.884 163.346 175.73L162.212 175.412C161.914 176.207 161.223 176.605 160.303 176.605C158.926 176.605 157.976 175.715 157.922 174.08H163.465V173.582C163.465 170.739 161.775 169.764 160.184 169.764C158.115 169.764 156.743 171.395 156.743 173.741C156.743 176.088 158.096 177.659 160.303 177.659ZM157.922 173.065C158.001 171.877 158.841 170.818 160.184 170.818C161.456 170.818 162.272 171.773 162.272 173.065H157.922Z" fill="#595959"/>
<path d="M49 228.5C49 224.082 52.5817 220.5 57 220.5H324C328.418 220.5 332 224.082 332 228.5V260.5C332 264.918 328.418 268.5 324 268.5H57C52.5817 268.5 49 264.918 49 260.5V228.5Z" fill="#1A71FF"/>
<path d="M142.139 242.79C141.781 240.205 139.793 238.705 137.213 238.705C134.173 238.705 131.884 240.92 131.884 244.682C131.884 248.438 134.145 250.659 137.213 250.659C139.98 250.659 141.815 248.869 142.139 246.648L140.014 246.636C139.747 248 138.634 248.767 137.241 248.767C135.355 248.767 134.003 247.352 134.003 244.682C134.003 242.057 135.344 240.597 137.247 240.597C138.662 240.597 139.77 241.398 140.014 242.79H142.139ZM143.979 250.5H146.036V245.369C146.036 244.261 146.871 243.477 148.001 243.477C148.348 243.477 148.78 243.54 148.956 243.597V241.705C148.768 241.67 148.445 241.648 148.217 241.648C147.217 241.648 146.382 242.216 146.064 243.227H145.973V241.773H143.979V250.5ZM153.827 250.67C155.861 250.67 157.259 249.676 157.622 248.159L155.702 247.943C155.423 248.682 154.741 249.068 153.855 249.068C152.526 249.068 151.645 248.193 151.628 246.699H157.707V246.068C157.707 243.006 155.866 241.659 153.719 241.659C151.219 241.659 149.588 243.494 149.588 246.188C149.588 248.926 151.196 250.67 153.827 250.67ZM151.634 245.312C151.696 244.199 152.52 243.261 153.747 243.261C154.929 243.261 155.724 244.125 155.736 245.312H151.634ZM161.959 250.676C163.328 250.676 164.146 250.034 164.521 249.301H164.589V250.5H166.567V244.659C166.567 242.352 164.686 241.659 163.021 241.659C161.186 241.659 159.777 242.477 159.322 244.068L161.243 244.341C161.447 243.744 162.027 243.233 163.033 243.233C163.987 243.233 164.51 243.722 164.51 244.58V244.614C164.51 245.205 163.891 245.233 162.351 245.398C160.658 245.58 159.038 246.085 159.038 248.051C159.038 249.767 160.294 250.676 161.959 250.676ZM162.493 249.165C161.635 249.165 161.021 248.773 161.021 248.017C161.021 247.227 161.709 246.898 162.629 246.767C163.169 246.693 164.249 246.557 164.516 246.341V247.369C164.516 248.341 163.732 249.165 162.493 249.165ZM172.993 241.773H171.271V239.682H169.214V241.773H167.976V243.364H169.214V248.216C169.203 249.858 170.396 250.665 171.942 250.619C172.527 250.602 172.93 250.489 173.152 250.415L172.805 248.807C172.692 248.835 172.459 248.886 172.203 248.886C171.686 248.886 171.271 248.705 171.271 247.875V243.364H172.993V241.773ZM178.483 250.67C180.517 250.67 181.915 249.676 182.278 248.159L180.358 247.943C180.08 248.682 179.398 249.068 178.511 249.068C177.182 249.068 176.301 248.193 176.284 246.699H182.364V246.068C182.364 243.006 180.523 241.659 178.375 241.659C175.875 241.659 174.244 243.494 174.244 246.188C174.244 248.926 175.852 250.67 178.483 250.67ZM176.29 245.312C176.352 244.199 177.176 243.261 178.403 243.261C179.585 243.261 180.381 244.125 180.392 245.312H176.29ZM190.584 250.676C191.953 250.676 192.771 250.034 193.146 249.301H193.214V250.5H195.192V244.659C195.192 242.352 193.311 241.659 191.646 241.659C189.811 241.659 188.402 242.477 187.947 244.068L189.868 244.341C190.072 243.744 190.652 243.233 191.658 243.233C192.612 243.233 193.135 243.722 193.135 244.58V244.614C193.135 245.205 192.516 245.233 190.976 245.398C189.283 245.58 187.663 246.085 187.663 248.051C187.663 249.767 188.919 250.676 190.584 250.676ZM191.118 249.165C190.26 249.165 189.646 248.773 189.646 248.017C189.646 247.227 190.334 246.898 191.254 246.767C191.794 246.693 192.874 246.557 193.141 246.341V247.369C193.141 248.341 192.357 249.165 191.118 249.165ZM201.067 250.67C203.26 250.67 204.658 249.369 204.805 247.517H202.839C202.663 248.455 201.987 248.994 201.084 248.994C199.8 248.994 198.97 247.92 198.97 246.136C198.97 244.375 199.817 243.318 201.084 243.318C202.072 243.318 202.68 243.955 202.839 244.795H204.805C204.663 242.903 203.186 241.659 201.055 241.659C198.499 241.659 196.885 243.506 196.885 246.17C196.885 248.812 198.459 250.67 201.067 250.67ZM210.301 250.67C212.494 250.67 213.892 249.369 214.04 247.517H212.074C211.898 248.455 211.222 248.994 210.318 248.994C209.034 248.994 208.205 247.92 208.205 246.136C208.205 244.375 209.051 243.318 210.318 243.318C211.307 243.318 211.915 243.955 212.074 244.795H214.04C213.898 242.903 212.42 241.659 210.29 241.659C207.733 241.659 206.119 243.506 206.119 246.17C206.119 248.812 207.693 250.67 210.301 250.67ZM219.536 250.67C222.092 250.67 223.717 248.869 223.717 246.17C223.717 243.466 222.092 241.659 219.536 241.659C216.979 241.659 215.354 243.466 215.354 246.17C215.354 248.869 216.979 250.67 219.536 250.67ZM219.547 249.023C218.132 249.023 217.439 247.761 217.439 246.165C217.439 244.568 218.132 243.29 219.547 243.29C220.939 243.29 221.632 244.568 221.632 246.165C221.632 247.761 220.939 249.023 219.547 249.023ZM231.026 246.83C231.026 248.159 230.077 248.818 229.168 248.818C228.179 248.818 227.52 248.119 227.52 247.011V241.773H225.463V247.33C225.463 249.426 226.656 250.614 228.372 250.614C229.679 250.614 230.599 249.926 230.997 248.949H231.088V250.5H233.082V241.773H231.026V246.83ZM237.254 245.386C237.254 244.125 238.016 243.398 239.101 243.398C240.163 243.398 240.8 244.097 240.8 245.261V250.5H242.857V244.943C242.862 242.852 241.669 241.659 239.868 241.659C238.561 241.659 237.663 242.284 237.266 243.256H237.163V241.773H235.197V250.5H237.254V245.386ZM249.305 241.773H247.584V239.682H245.527V241.773H244.288V243.364H245.527V248.216C245.516 249.858 246.709 250.665 248.254 250.619C248.839 250.602 249.243 250.489 249.464 250.415L249.118 248.807C249.004 248.835 248.771 248.886 248.516 248.886C247.999 248.886 247.584 248.705 247.584 247.875V243.364H249.305V241.773Z" fill="white"/>
</svg>
