<svg width="448" height="383" viewBox="0 0 448 383" fill="none" xmlns="http://www.w3.org/2000/svg">
<rect width="448" height="383" rx="16" fill="#E5EFFF"/>
<path d="M70 40C70 35.5817 73.5817 32 78 32H370C374.418 32 378 35.5817 378 40V343C378 347.418 374.418 351 370 351H78C73.5817 351 70 347.418 70 343V40Z" fill="white"/>
<path d="M97.4055 65.5078H99.6875C99.6428 63.2962 97.7571 61.7301 94.9702 61.7301C92.2216 61.7301 90.157 63.277 90.1634 65.5909C90.1634 67.4702 91.4993 68.5504 93.6534 69.1065L95.1428 69.4901C96.5554 69.848 97.4886 70.2891 97.495 71.3054C97.4886 72.424 96.4276 73.1719 94.8807 73.1719C93.3977 73.1719 92.2472 72.5071 92.1513 71.1328H89.8182C89.9141 73.7344 91.8509 75.1982 94.8999 75.1982C98.0384 75.1982 99.8601 73.6321 99.8665 71.3246C99.8601 69.0554 97.9872 68.0199 96.0185 67.5533L94.7912 67.2464C93.7173 66.9908 92.554 66.5369 92.5668 65.4439C92.5732 64.4595 93.4553 63.7372 94.9382 63.7372C96.3509 63.7372 97.2841 64.3956 97.4055 65.5078ZM108.136 70.8707C108.136 72.3665 107.069 73.108 106.046 73.108C104.934 73.108 104.192 72.3217 104.192 71.0753V65.1818H101.878V71.4332C101.878 73.7919 103.221 75.1278 105.151 75.1278C106.621 75.1278 107.657 74.3544 108.104 73.255H108.206V75H110.45V65.1818H108.136V70.8707ZM112.932 75H115.207V73.4531H115.342C115.706 74.169 116.467 75.1726 118.154 75.1726C120.468 75.1726 122.2 73.3381 122.2 70.1037C122.2 66.831 120.417 65.054 118.148 65.054C116.415 65.054 115.693 66.0959 115.342 66.8054H115.246V61.9091H112.932V75ZM115.201 70.0909C115.201 68.1861 116.019 66.9524 117.509 66.9524C119.049 66.9524 119.842 68.2628 119.842 70.0909C119.842 71.9318 119.036 73.2741 117.509 73.2741C116.032 73.2741 115.201 71.9957 115.201 70.0909ZM131.458 75.1982C132.998 75.1982 133.919 74.4759 134.34 73.6513H134.417V75H136.642V68.429C136.642 65.8338 134.526 65.054 132.653 65.054C130.588 65.054 129.003 65.9744 128.492 67.7642L130.652 68.071C130.882 67.3999 131.534 66.8246 132.666 66.8246C133.74 66.8246 134.328 67.3743 134.328 68.3395V68.3778C134.328 69.0426 133.631 69.0746 131.899 69.2599C129.994 69.4645 128.172 70.0334 128.172 72.245C128.172 74.1754 129.585 75.1982 131.458 75.1982ZM132.058 73.4979C131.093 73.4979 130.403 73.0568 130.403 72.2067C130.403 71.3182 131.176 70.9474 132.212 70.8004C132.819 70.7173 134.034 70.5639 134.334 70.321V71.478C134.334 72.571 133.452 73.4979 132.058 73.4979ZM143.251 75.1918C145.718 75.1918 147.291 73.728 147.457 71.6442H145.245C145.047 72.6989 144.286 73.3061 143.27 73.3061C141.825 73.3061 140.892 72.098 140.892 70.0909C140.892 68.1094 141.845 66.9205 143.27 66.9205C144.382 66.9205 145.066 67.6364 145.245 68.5824H147.457C147.297 66.4538 145.635 65.054 143.238 65.054C140.362 65.054 138.546 67.1314 138.546 70.1293C138.546 73.1016 140.317 75.1918 143.251 75.1918ZM153.64 75.1918C156.107 75.1918 157.679 73.728 157.846 71.6442H155.634C155.436 72.6989 154.675 73.3061 153.659 73.3061C152.214 73.3061 151.281 72.098 151.281 70.0909C151.281 68.1094 152.233 66.9205 153.659 66.9205C154.771 66.9205 155.455 67.6364 155.634 68.5824H157.846C157.686 66.4538 156.024 65.054 153.627 65.054C150.75 65.054 148.935 67.1314 148.935 70.1293C148.935 73.1016 150.706 75.1918 153.64 75.1918ZM164.028 75.1918C166.905 75.1918 168.733 73.1655 168.733 70.1293C168.733 67.0866 166.905 65.054 164.028 65.054C161.152 65.054 159.324 67.0866 159.324 70.1293C159.324 73.1655 161.152 75.1918 164.028 75.1918ZM164.041 73.3381C162.449 73.3381 161.67 71.919 161.67 70.1229C161.67 68.3267 162.449 66.8885 164.041 66.8885C165.607 66.8885 166.387 68.3267 166.387 70.1229C166.387 71.919 165.607 73.3381 164.041 73.3381ZM176.955 70.8707C176.955 72.3665 175.887 73.108 174.864 73.108C173.752 73.108 173.011 72.3217 173.011 71.0753V65.1818H170.697V71.4332C170.697 73.7919 172.039 75.1278 173.969 75.1278C175.44 75.1278 176.475 74.3544 176.923 73.255H177.025V75H179.268V65.1818H176.955V70.8707ZM183.962 69.2472C183.962 67.8281 184.818 67.0099 186.039 67.0099C187.235 67.0099 187.95 67.7962 187.95 69.1065V75H190.264V68.7486C190.271 66.3963 188.928 65.054 186.902 65.054C185.432 65.054 184.422 65.7571 183.975 66.8501H183.86V65.1818H181.648V75H183.962V69.2472ZM197.519 65.1818H195.583V62.8295H193.269V65.1818H191.875V66.9716H193.269V72.4304C193.256 74.2777 194.598 75.1854 196.337 75.1342C196.995 75.1151 197.449 74.9872 197.698 74.9041L197.308 73.0952C197.181 73.1271 196.919 73.1847 196.631 73.1847C196.049 73.1847 195.583 72.9801 195.583 72.0469V66.9716H197.519V65.1818Z" fill="black"/>
<path d="M90.3359 101H89.1641L92.4219 92.4688H93.1719L93.1543 93.2188L90.3359 101ZM92.6855 93.2188L92.6738 92.4688H93.418L96.6816 101H95.5156L92.6855 93.2188ZM95.375 98.7676H90.5762V97.8477H95.375V98.7676ZM101.656 92H102.752V101H101.75L101.656 99.7695V92ZM97.3965 97.7773C97.3965 97.1328 97.5 96.5684 97.707 96.084C97.918 95.5957 98.2109 95.2168 98.5859 94.9473C98.9609 94.6777 99.4004 94.543 99.9043 94.543C100.436 94.543 100.879 94.666 101.234 94.9121C101.59 95.1543 101.867 95.5 102.066 95.9492C102.27 96.3984 102.4 96.9336 102.459 97.5547V98.123C102.4 98.7363 102.271 99.2676 102.072 99.7168C101.873 100.162 101.594 100.508 101.234 100.754C100.879 100.996 100.432 101.117 99.8926 101.117C99.3965 101.117 98.9609 100.979 98.5859 100.701C98.2109 100.42 97.918 100.037 97.707 99.5527C97.5 99.0684 97.3965 98.5176 97.3965 97.9004V97.7773ZM98.4922 97.9004C98.4922 98.3223 98.5488 98.707 98.6621 99.0547C98.7793 99.4023 98.9609 99.6816 99.207 99.8926C99.4531 100.1 99.7715 100.203 100.162 100.203C100.521 100.203 100.816 100.127 101.047 99.9746C101.281 99.8223 101.469 99.6211 101.609 99.3711C101.75 99.1211 101.859 98.8496 101.938 98.5566V97.1328C101.891 96.918 101.822 96.7109 101.732 96.5117C101.646 96.3086 101.533 96.1289 101.393 95.9727C101.256 95.8125 101.086 95.6855 100.883 95.5918C100.684 95.498 100.447 95.4512 100.174 95.4512C99.7793 95.4512 99.457 95.5566 99.207 95.7676C98.9609 95.9785 98.7793 96.2617 98.6621 96.6172C98.5488 96.9688 98.4922 97.3555 98.4922 97.7773V97.9004ZM108.43 92H109.525V101H108.523L108.43 99.7695V92ZM104.17 97.7773C104.17 97.1328 104.273 96.5684 104.48 96.084C104.691 95.5957 104.984 95.2168 105.359 94.9473C105.734 94.6777 106.174 94.543 106.678 94.543C107.209 94.543 107.652 94.666 108.008 94.9121C108.363 95.1543 108.641 95.5 108.84 95.9492C109.043 96.3984 109.174 96.9336 109.232 97.5547V98.123C109.174 98.7363 109.045 99.2676 108.846 99.7168C108.646 100.162 108.367 100.508 108.008 100.754C107.652 100.996 107.205 101.117 106.666 101.117C106.17 101.117 105.734 100.979 105.359 100.701C104.984 100.42 104.691 100.037 104.48 99.5527C104.273 99.0684 104.17 98.5176 104.17 97.9004V97.7773ZM105.266 97.9004C105.266 98.3223 105.322 98.707 105.436 99.0547C105.553 99.4023 105.734 99.6816 105.98 99.8926C106.227 100.1 106.545 100.203 106.936 100.203C107.295 100.203 107.59 100.127 107.82 99.9746C108.055 99.8223 108.242 99.6211 108.383 99.3711C108.523 99.1211 108.633 98.8496 108.711 98.5566V97.1328C108.664 96.918 108.596 96.7109 108.506 96.5117C108.42 96.3086 108.307 96.1289 108.166 95.9727C108.029 95.8125 107.859 95.6855 107.656 95.5918C107.457 95.498 107.221 95.4512 106.947 95.4512C106.553 95.4512 106.23 95.5566 105.98 95.7676C105.734 95.9785 105.553 96.2617 105.436 96.6172C105.322 96.9688 105.266 97.3555 105.266 97.7773V97.9004ZM117.922 96.6523C117.922 96.2734 117.809 95.9727 117.582 95.75C117.359 95.5234 117.029 95.4102 116.592 95.4102C116.322 95.4102 116.084 95.457 115.877 95.5508C115.674 95.6445 115.516 95.7676 115.402 95.9199C115.289 96.0723 115.232 96.2383 115.232 96.418H114.137C114.137 96.1133 114.24 95.8184 114.447 95.5332C114.654 95.2441 114.945 95.0078 115.32 94.8242C115.699 94.6367 116.145 94.543 116.656 94.543C117.117 94.543 117.525 94.6211 117.881 94.7773C118.236 94.9336 118.514 95.1699 118.713 95.4863C118.916 95.7988 119.018 96.1914 119.018 96.6641V99.6172C119.018 99.8281 119.035 100.053 119.07 100.291C119.109 100.529 119.166 100.734 119.24 100.906V101H118.098C118.043 100.875 118 100.709 117.969 100.502C117.938 100.291 117.922 100.096 117.922 99.916V96.6523ZM118.121 97.918H117.031C116.414 97.918 115.938 98.0156 115.602 98.2109C115.266 98.4062 115.098 98.6992 115.098 99.0898C115.098 99.3945 115.199 99.6523 115.402 99.8633C115.609 100.074 115.91 100.18 116.305 100.18C116.637 100.18 116.93 100.109 117.184 99.9688C117.438 99.8281 117.639 99.6543 117.787 99.4473C117.936 99.2402 118.016 99.041 118.027 98.8496L118.496 99.3711C118.469 99.5352 118.395 99.7168 118.273 99.916C118.152 100.115 117.99 100.307 117.787 100.49C117.588 100.67 117.35 100.82 117.072 100.941C116.799 101.059 116.49 101.117 116.146 101.117C115.717 101.117 115.34 101.035 115.016 100.871C114.695 100.703 114.445 100.477 114.266 100.191C114.09 99.9062 114.002 99.5898 114.002 99.2422C114.002 98.5586 114.26 98.041 114.775 97.6895C115.291 97.334 115.984 97.1562 116.855 97.1562H118.109L118.121 97.918ZM124.396 101L124.408 100.086H126.178C126.783 100.086 127.289 99.959 127.695 99.7051C128.102 99.4473 128.406 99.0879 128.609 98.627C128.816 98.1621 128.92 97.6172 128.92 96.9922V96.4648C128.92 95.8125 128.816 95.2578 128.609 94.8008C128.406 94.3438 128.107 93.9941 127.713 93.752C127.318 93.5098 126.84 93.3887 126.277 93.3887H124.361V92.4688H126.277C127.027 92.4688 127.684 92.6328 128.246 92.9609C128.812 93.2852 129.254 93.748 129.57 94.3496C129.887 94.9473 130.045 95.6562 130.045 96.4766V96.9922C130.045 97.8164 129.887 98.5273 129.57 99.125C129.254 99.7227 128.807 100.186 128.229 100.514C127.65 100.838 126.967 101 126.178 101H124.396ZM125.006 101H123.869V92.4688H125.006V101ZM134.211 101.117C133.621 101.117 133.107 100.986 132.67 100.725C132.236 100.459 131.898 100.096 131.656 99.6348C131.418 99.1738 131.299 98.6465 131.299 98.0527V97.8008C131.299 97.1133 131.43 96.5273 131.691 96.043C131.957 95.5547 132.301 95.1836 132.723 94.9297C133.148 94.6719 133.598 94.543 134.07 94.543C134.68 94.543 135.176 94.6797 135.559 94.9531C135.945 95.2227 136.229 95.5918 136.408 96.0605C136.592 96.5254 136.684 97.0527 136.684 97.6426V98.1289H131.949V97.25H135.588V97.168C135.572 96.8867 135.516 96.6133 135.418 96.3477C135.32 96.0781 135.164 95.8574 134.949 95.6855C134.734 95.5098 134.441 95.4219 134.07 95.4219C133.742 95.4219 133.451 95.5156 133.197 95.7031C132.947 95.8867 132.75 96.1562 132.605 96.5117C132.465 96.8633 132.395 97.293 132.395 97.8008V98.0527C132.395 98.4551 132.469 98.8223 132.617 99.1543C132.766 99.4824 132.98 99.7461 133.262 99.9453C133.543 100.141 133.879 100.238 134.27 100.238C134.652 100.238 134.977 100.16 135.242 100.004C135.508 99.8477 135.74 99.6387 135.939 99.377L136.602 99.8926C136.398 100.205 136.105 100.488 135.723 100.742C135.344 100.992 134.84 101.117 134.211 101.117ZM140.586 101.117C139.996 101.117 139.482 100.986 139.045 100.725C138.611 100.459 138.273 100.096 138.031 99.6348C137.793 99.1738 137.674 98.6465 137.674 98.0527V97.8008C137.674 97.1133 137.805 96.5273 138.066 96.043C138.332 95.5547 138.676 95.1836 139.098 94.9297C139.523 94.6719 139.973 94.543 140.445 94.543C141.055 94.543 141.551 94.6797 141.934 94.9531C142.32 95.2227 142.604 95.5918 142.783 96.0605C142.967 96.5254 143.059 97.0527 143.059 97.6426V98.1289H138.324V97.25H141.963V97.168C141.947 96.8867 141.891 96.6133 141.793 96.3477C141.695 96.0781 141.539 95.8574 141.324 95.6855C141.109 95.5098 140.816 95.4219 140.445 95.4219C140.117 95.4219 139.826 95.5156 139.572 95.7031C139.322 95.8867 139.125 96.1562 138.98 96.5117C138.84 96.8633 138.77 97.293 138.77 97.8008V98.0527C138.77 98.4551 138.844 98.8223 138.992 99.1543C139.141 99.4824 139.355 99.7461 139.637 99.9453C139.918 100.141 140.254 100.238 140.645 100.238C141.027 100.238 141.352 100.16 141.617 100.004C141.883 99.8477 142.115 99.6387 142.314 99.377L142.977 99.8926C142.773 100.205 142.48 100.488 142.098 100.742C141.719 100.992 141.215 101.117 140.586 101.117ZM145.414 101H144.318V94.6602H145.355L145.414 95.9199V101ZM144.682 97.5664C144.686 96.9883 144.783 96.4727 144.975 96.0195C145.17 95.5625 145.457 95.2031 145.836 94.9414C146.219 94.6758 146.693 94.543 147.26 94.543C147.854 94.543 148.344 94.7168 148.73 95.0645C149.117 95.4121 149.311 95.9824 149.311 96.7754V101H148.215V96.8281C148.215 96.4961 148.158 96.2305 148.045 96.0312C147.936 95.8281 147.779 95.6816 147.576 95.5918C147.373 95.498 147.135 95.4512 146.861 95.4512C146.545 95.4512 146.279 95.5078 146.064 95.6211C145.854 95.7344 145.684 95.8906 145.555 96.0898C145.426 96.2891 145.332 96.5176 145.273 96.7754C145.219 97.0293 145.191 97.2988 145.191 97.584L144.682 97.5664ZM148.566 97.209C148.57 96.748 148.668 96.3145 148.859 95.9082C149.055 95.502 149.34 95.1738 149.715 94.9238C150.09 94.6699 150.547 94.543 151.086 94.543C151.539 94.543 151.924 94.623 152.24 94.7832C152.557 94.9434 152.797 95.1914 152.961 95.5273C153.125 95.8633 153.207 96.2988 153.207 96.834V101H152.111V96.8223C152.111 96.4668 152.055 96.1895 151.941 95.9902C151.832 95.791 151.676 95.6523 151.473 95.5742C151.273 95.4922 151.037 95.4512 150.764 95.4512C150.525 95.4512 150.314 95.4922 150.131 95.5742C149.951 95.6562 149.799 95.7695 149.674 95.9141C149.553 96.0547 149.459 96.2168 149.393 96.4004C149.33 96.584 149.299 96.7793 149.299 96.9863L148.566 97.209ZM155.896 97.6543V96.7402H158.17C158.611 96.7402 158.967 96.6699 159.236 96.5293C159.51 96.3848 159.709 96.1875 159.834 95.9375C159.963 95.6875 160.027 95.4023 160.027 95.082C160.027 94.7891 159.963 94.5137 159.834 94.2559C159.709 93.998 159.51 93.7891 159.236 93.6289C158.967 93.4688 158.611 93.3887 158.17 93.3887H156.154V101H155.018V92.4688H158.17C158.814 92.4688 159.359 92.5801 159.805 92.8027C160.25 93.0254 160.588 93.332 160.818 93.7227C161.049 94.1133 161.164 94.5625 161.164 95.0703C161.164 95.6172 161.049 96.084 160.818 96.4707C160.588 96.8574 160.25 97.1523 159.805 97.3555C159.359 97.5547 158.814 97.6543 158.17 97.6543H155.896ZM166.098 96.6523C166.098 96.2734 165.984 95.9727 165.758 95.75C165.535 95.5234 165.205 95.4102 164.768 95.4102C164.498 95.4102 164.26 95.457 164.053 95.5508C163.85 95.6445 163.691 95.7676 163.578 95.9199C163.465 96.0723 163.408 96.2383 163.408 96.418H162.312C162.312 96.1133 162.416 95.8184 162.623 95.5332C162.83 95.2441 163.121 95.0078 163.496 94.8242C163.875 94.6367 164.32 94.543 164.832 94.543C165.293 94.543 165.701 94.6211 166.057 94.7773C166.412 94.9336 166.689 95.1699 166.889 95.4863C167.092 95.7988 167.193 96.1914 167.193 96.6641V99.6172C167.193 99.8281 167.211 100.053 167.246 100.291C167.285 100.529 167.342 100.734 167.416 100.906V101H166.273C166.219 100.875 166.176 100.709 166.145 100.502C166.113 100.291 166.098 100.096 166.098 99.916V96.6523ZM166.297 97.918H165.207C164.59 97.918 164.113 98.0156 163.777 98.2109C163.441 98.4062 163.273 98.6992 163.273 99.0898C163.273 99.3945 163.375 99.6523 163.578 99.8633C163.785 100.074 164.086 100.18 164.48 100.18C164.812 100.18 165.105 100.109 165.359 99.9688C165.613 99.8281 165.814 99.6543 165.963 99.4473C166.111 99.2402 166.191 99.041 166.203 98.8496L166.672 99.3711C166.645 99.5352 166.57 99.7168 166.449 99.916C166.328 100.115 166.166 100.307 165.963 100.49C165.764 100.67 165.525 100.82 165.248 100.941C164.975 101.059 164.666 101.117 164.322 101.117C163.893 101.117 163.516 101.035 163.191 100.871C162.871 100.703 162.621 100.477 162.441 100.191C162.266 99.9062 162.178 99.5898 162.178 99.2422C162.178 98.5586 162.436 98.041 162.951 97.6895C163.467 97.334 164.16 97.1562 165.031 97.1562H166.285L166.297 97.918ZM172.443 94.6602H173.609L171.066 101.979C171.008 102.135 170.93 102.303 170.832 102.482C170.738 102.666 170.617 102.84 170.469 103.004C170.324 103.168 170.146 103.301 169.936 103.402C169.725 103.508 169.475 103.561 169.186 103.561C169.127 103.561 169.057 103.555 168.975 103.543C168.893 103.531 168.814 103.518 168.74 103.502C168.666 103.49 168.609 103.479 168.57 103.467V102.594C168.602 102.598 168.65 102.604 168.717 102.611C168.787 102.619 168.836 102.623 168.863 102.623C169.23 102.623 169.518 102.547 169.725 102.395C169.932 102.242 170.1 101.971 170.229 101.58L170.68 100.344L172.443 94.6602ZM171.037 99.5879L171.318 100.73L170.533 101.123L168.207 94.6602H169.402L171.037 99.5879ZM178.648 101H177.553V94.6602H178.59L178.648 95.9199V101ZM177.916 97.5664C177.92 96.9883 178.018 96.4727 178.209 96.0195C178.404 95.5625 178.691 95.2031 179.07 94.9414C179.453 94.6758 179.928 94.543 180.494 94.543C181.088 94.543 181.578 94.7168 181.965 95.0645C182.352 95.4121 182.545 95.9824 182.545 96.7754V101H181.449V96.8281C181.449 96.4961 181.393 96.2305 181.279 96.0312C181.17 95.8281 181.014 95.6816 180.811 95.5918C180.607 95.498 180.369 95.4512 180.096 95.4512C179.779 95.4512 179.514 95.5078 179.299 95.6211C179.088 95.7344 178.918 95.8906 178.789 96.0898C178.66 96.2891 178.566 96.5176 178.508 96.7754C178.453 97.0293 178.426 97.2988 178.426 97.584L177.916 97.5664ZM181.801 97.209C181.805 96.748 181.902 96.3145 182.094 95.9082C182.289 95.502 182.574 95.1738 182.949 94.9238C183.324 94.6699 183.781 94.543 184.32 94.543C184.773 94.543 185.158 94.623 185.475 94.7832C185.791 94.9434 186.031 95.1914 186.195 95.5273C186.359 95.8633 186.441 96.2988 186.441 96.834V101H185.346V96.8223C185.346 96.4668 185.289 96.1895 185.176 95.9902C185.066 95.791 184.91 95.6523 184.707 95.5742C184.508 95.4922 184.271 95.4512 183.998 95.4512C183.76 95.4512 183.549 95.4922 183.365 95.5742C183.186 95.6562 183.033 95.7695 182.908 95.9141C182.787 96.0547 182.693 96.2168 182.627 96.4004C182.564 96.584 182.533 96.7793 182.533 96.9863L181.801 97.209ZM190.719 101.117C190.129 101.117 189.615 100.986 189.178 100.725C188.744 100.459 188.406 100.096 188.164 99.6348C187.926 99.1738 187.807 98.6465 187.807 98.0527V97.8008C187.807 97.1133 187.938 96.5273 188.199 96.043C188.465 95.5547 188.809 95.1836 189.23 94.9297C189.656 94.6719 190.105 94.543 190.578 94.543C191.188 94.543 191.684 94.6797 192.066 94.9531C192.453 95.2227 192.736 95.5918 192.916 96.0605C193.1 96.5254 193.191 97.0527 193.191 97.6426V98.1289H188.457V97.25H192.096V97.168C192.08 96.8867 192.023 96.6133 191.926 96.3477C191.828 96.0781 191.672 95.8574 191.457 95.6855C191.242 95.5098 190.949 95.4219 190.578 95.4219C190.25 95.4219 189.959 95.5156 189.705 95.7031C189.455 95.8867 189.258 96.1562 189.113 96.5117C188.973 96.8633 188.902 97.293 188.902 97.8008V98.0527C188.902 98.4551 188.977 98.8223 189.125 99.1543C189.273 99.4824 189.488 99.7461 189.77 99.9453C190.051 100.141 190.387 100.238 190.777 100.238C191.16 100.238 191.484 100.16 191.75 100.004C192.016 99.8477 192.248 99.6387 192.447 99.377L193.109 99.8926C192.906 100.205 192.613 100.488 192.23 100.742C191.852 100.992 191.348 101.117 190.719 101.117ZM195.553 101H194.457V94.6602H195.523L195.553 95.6562V101ZM197.527 95.627C197.434 95.6074 197.346 95.5957 197.264 95.5918C197.186 95.584 197.096 95.5801 196.994 95.5801C196.662 95.5801 196.381 95.6484 196.15 95.7852C195.924 95.9219 195.748 96.1113 195.623 96.3535C195.498 96.5918 195.42 96.8652 195.389 97.1738L195.078 97.3496C195.078 96.8379 195.146 96.3711 195.283 95.9492C195.42 95.5234 195.633 95.1836 195.922 94.9297C196.215 94.6719 196.59 94.543 197.047 94.543C197.121 94.543 197.209 94.5527 197.311 94.5723C197.416 94.5879 197.488 94.6055 197.527 94.625V95.627ZM200.949 100.238C201.207 100.238 201.445 100.186 201.664 100.08C201.883 99.9707 202.062 99.8223 202.203 99.6348C202.344 99.4473 202.424 99.2344 202.443 98.9961H203.48C203.461 99.3711 203.334 99.7207 203.1 100.045C202.865 100.365 202.561 100.625 202.186 100.824C201.811 101.02 201.398 101.117 200.949 101.117C200.312 101.117 199.785 100.973 199.367 100.684C198.949 100.391 198.637 100.004 198.43 99.5234C198.227 99.043 198.125 98.5195 198.125 97.9531V97.707C198.125 97.1367 198.229 96.6133 198.436 96.1367C198.643 95.6562 198.955 95.2715 199.373 94.9824C199.791 94.6895 200.316 94.543 200.949 94.543C201.445 94.543 201.879 94.6445 202.25 94.8477C202.625 95.0469 202.918 95.3203 203.129 95.668C203.344 96.0117 203.461 96.4023 203.48 96.8398H202.443C202.424 96.5781 202.35 96.3398 202.221 96.125C202.096 95.9102 201.924 95.7402 201.705 95.6152C201.49 95.4863 201.238 95.4219 200.949 95.4219C200.508 95.4219 200.16 95.5352 199.906 95.7617C199.656 95.9883 199.479 96.2773 199.373 96.6289C199.271 96.9766 199.221 97.3359 199.221 97.707V97.9531C199.221 98.3242 199.271 98.6855 199.373 99.0371C199.475 99.3887 199.65 99.6777 199.9 99.9043C200.154 100.127 200.504 100.238 200.949 100.238ZM205.795 101H204.699V92H205.795V101ZM205.08 97.5664C205.088 96.9883 205.199 96.4727 205.414 96.0195C205.629 95.5625 205.928 95.2031 206.311 94.9414C206.697 94.6758 207.146 94.543 207.658 94.543C208.076 94.543 208.436 94.6211 208.736 94.7773C209.041 94.9297 209.275 95.1738 209.439 95.5098C209.607 95.8457 209.691 96.291 209.691 96.8457V101H208.596V96.834C208.596 96.502 208.547 96.2344 208.449 96.0312C208.355 95.8281 208.215 95.6816 208.027 95.5918C207.84 95.498 207.609 95.4512 207.336 95.4512C207.066 95.4512 206.822 95.5078 206.604 95.6211C206.385 95.7344 206.195 95.8906 206.035 96.0898C205.875 96.2891 205.752 96.5176 205.666 96.7754C205.58 97.0293 205.537 97.2988 205.537 97.584L205.08 97.5664ZM215.047 96.6523C215.047 96.2734 214.934 95.9727 214.707 95.75C214.484 95.5234 214.154 95.4102 213.717 95.4102C213.447 95.4102 213.209 95.457 213.002 95.5508C212.799 95.6445 212.641 95.7676 212.527 95.9199C212.414 96.0723 212.357 96.2383 212.357 96.418H211.262C211.262 96.1133 211.365 95.8184 211.572 95.5332C211.779 95.2441 212.07 95.0078 212.445 94.8242C212.824 94.6367 213.27 94.543 213.781 94.543C214.242 94.543 214.65 94.6211 215.006 94.7773C215.361 94.9336 215.639 95.1699 215.838 95.4863C216.041 95.7988 216.143 96.1914 216.143 96.6641V99.6172C216.143 99.8281 216.16 100.053 216.195 100.291C216.234 100.529 216.291 100.734 216.365 100.906V101H215.223C215.168 100.875 215.125 100.709 215.094 100.502C215.062 100.291 215.047 100.096 215.047 99.916V96.6523ZM215.246 97.918H214.156C213.539 97.918 213.062 98.0156 212.727 98.2109C212.391 98.4062 212.223 98.6992 212.223 99.0898C212.223 99.3945 212.324 99.6523 212.527 99.8633C212.734 100.074 213.035 100.18 213.43 100.18C213.762 100.18 214.055 100.109 214.309 99.9688C214.562 99.8281 214.764 99.6543 214.912 99.4473C215.061 99.2402 215.141 99.041 215.152 98.8496L215.621 99.3711C215.594 99.5352 215.52 99.7168 215.398 99.916C215.277 100.115 215.115 100.307 214.912 100.49C214.713 100.67 214.475 100.82 214.197 100.941C213.924 101.059 213.615 101.117 213.271 101.117C212.842 101.117 212.465 101.035 212.141 100.871C211.82 100.703 211.57 100.477 211.391 100.191C211.215 99.9062 211.127 99.5898 211.127 99.2422C211.127 98.5586 211.385 98.041 211.9 97.6895C212.416 97.334 213.109 97.1562 213.98 97.1562H215.234L215.246 97.918ZM218.943 101H217.848V94.6602H218.885L218.943 96.0137V101ZM218.229 97.5664C218.236 96.9883 218.348 96.4727 218.562 96.0195C218.777 95.5625 219.076 95.2031 219.459 94.9414C219.846 94.6758 220.295 94.543 220.807 94.543C221.225 94.543 221.584 94.6211 221.885 94.7773C222.189 94.9297 222.424 95.1738 222.588 95.5098C222.756 95.8457 222.84 96.291 222.84 96.8457V101H221.744V96.834C221.744 96.502 221.695 96.2344 221.598 96.0312C221.504 95.8281 221.363 95.6816 221.176 95.5918C220.988 95.498 220.758 95.4512 220.484 95.4512C220.215 95.4512 219.971 95.5078 219.752 95.6211C219.533 95.7344 219.344 95.8906 219.184 96.0898C219.023 96.2891 218.9 96.5176 218.814 96.7754C218.729 97.0293 218.686 97.2988 218.686 97.584L218.229 97.5664ZM227.146 95.4863H223.713V94.6602H227.146V95.4863ZM225.963 93.1191V99.4297C225.963 99.6484 225.996 99.8125 226.062 99.9219C226.129 100.031 226.215 100.104 226.32 100.139C226.426 100.174 226.539 100.191 226.66 100.191C226.75 100.191 226.844 100.184 226.941 100.168C227.043 100.152 227.117 100.139 227.164 100.127L227.17 101C227.084 101.027 226.971 101.053 226.83 101.076C226.693 101.104 226.527 101.117 226.332 101.117C226.066 101.117 225.822 101.064 225.6 100.959C225.377 100.854 225.199 100.678 225.066 100.432C224.934 100.182 224.867 99.8457 224.867 99.4238V93.1191H225.963ZM235.121 96.6523C235.121 96.2734 235.008 95.9727 234.781 95.75C234.559 95.5234 234.229 95.4102 233.791 95.4102C233.521 95.4102 233.283 95.457 233.076 95.5508C232.873 95.6445 232.715 95.7676 232.602 95.9199C232.488 96.0723 232.432 96.2383 232.432 96.418H231.336C231.336 96.1133 231.439 95.8184 231.646 95.5332C231.854 95.2441 232.145 95.0078 232.52 94.8242C232.898 94.6367 233.344 94.543 233.855 94.543C234.316 94.543 234.725 94.6211 235.08 94.7773C235.436 94.9336 235.713 95.1699 235.912 95.4863C236.115 95.7988 236.217 96.1914 236.217 96.6641V99.6172C236.217 99.8281 236.234 100.053 236.27 100.291C236.309 100.529 236.365 100.734 236.439 100.906V101H235.297C235.242 100.875 235.199 100.709 235.168 100.502C235.137 100.291 235.121 100.096 235.121 99.916V96.6523ZM235.32 97.918H234.23C233.613 97.918 233.137 98.0156 232.801 98.2109C232.465 98.4062 232.297 98.6992 232.297 99.0898C232.297 99.3945 232.398 99.6523 232.602 99.8633C232.809 100.074 233.109 100.18 233.504 100.18C233.836 100.18 234.129 100.109 234.383 99.9688C234.637 99.8281 234.838 99.6543 234.986 99.4473C235.135 99.2402 235.215 99.041 235.227 98.8496L235.695 99.3711C235.668 99.5352 235.594 99.7168 235.473 99.916C235.352 100.115 235.189 100.307 234.986 100.49C234.787 100.67 234.549 100.82 234.271 100.941C233.998 101.059 233.689 101.117 233.346 101.117C232.916 101.117 232.539 101.035 232.215 100.871C231.895 100.703 231.645 100.477 231.465 100.191C231.289 99.9062 231.201 99.5898 231.201 99.2422C231.201 98.5586 231.459 98.041 231.975 97.6895C232.49 97.334 233.184 97.1562 234.055 97.1562H235.309L235.32 97.918ZM240.465 100.238C240.723 100.238 240.961 100.186 241.18 100.08C241.398 99.9707 241.578 99.8223 241.719 99.6348C241.859 99.4473 241.939 99.2344 241.959 98.9961H242.996C242.977 99.3711 242.85 99.7207 242.615 100.045C242.381 100.365 242.076 100.625 241.701 100.824C241.326 101.02 240.914 101.117 240.465 101.117C239.828 101.117 239.301 100.973 238.883 100.684C238.465 100.391 238.152 100.004 237.945 99.5234C237.742 99.043 237.641 98.5195 237.641 97.9531V97.707C237.641 97.1367 237.744 96.6133 237.951 96.1367C238.158 95.6562 238.471 95.2715 238.889 94.9824C239.307 94.6895 239.832 94.543 240.465 94.543C240.961 94.543 241.395 94.6445 241.766 94.8477C242.141 95.0469 242.434 95.3203 242.645 95.668C242.859 96.0117 242.977 96.4023 242.996 96.8398H241.959C241.939 96.5781 241.865 96.3398 241.736 96.125C241.611 95.9102 241.439 95.7402 241.221 95.6152C241.006 95.4863 240.754 95.4219 240.465 95.4219C240.023 95.4219 239.676 95.5352 239.422 95.7617C239.172 95.9883 238.994 96.2773 238.889 96.6289C238.787 96.9766 238.736 97.3359 238.736 97.707V97.9531C238.736 98.3242 238.787 98.6855 238.889 99.0371C238.99 99.3887 239.166 99.6777 239.416 99.9043C239.67 100.127 240.02 100.238 240.465 100.238ZM246.758 100.238C247.016 100.238 247.254 100.186 247.473 100.08C247.691 99.9707 247.871 99.8223 248.012 99.6348C248.152 99.4473 248.232 99.2344 248.252 98.9961H249.289C249.27 99.3711 249.143 99.7207 248.908 100.045C248.674 100.365 248.369 100.625 247.994 100.824C247.619 101.02 247.207 101.117 246.758 101.117C246.121 101.117 245.594 100.973 245.176 100.684C244.758 100.391 244.445 100.004 244.238 99.5234C244.035 99.043 243.934 98.5195 243.934 97.9531V97.707C243.934 97.1367 244.037 96.6133 244.244 96.1367C244.451 95.6562 244.764 95.2715 245.182 94.9824C245.6 94.6895 246.125 94.543 246.758 94.543C247.254 94.543 247.688 94.6445 248.059 94.8477C248.434 95.0469 248.727 95.3203 248.938 95.668C249.152 96.0117 249.27 96.4023 249.289 96.8398H248.252C248.232 96.5781 248.158 96.3398 248.029 96.125C247.904 95.9102 247.732 95.7402 247.514 95.6152C247.299 95.4863 247.047 95.4219 246.758 95.4219C246.316 95.4219 245.969 95.5352 245.715 95.7617C245.465 95.9883 245.287 96.2773 245.182 96.6289C245.08 96.9766 245.029 97.3359 245.029 97.707V97.9531C245.029 98.3242 245.08 98.6855 245.182 99.0371C245.283 99.3887 245.459 99.6777 245.709 99.9043C245.963 100.127 246.312 100.238 246.758 100.238ZM250.227 97.7656C250.227 97.1523 250.344 96.6035 250.578 96.1191C250.812 95.6348 251.145 95.252 251.574 94.9707C252.004 94.6855 252.514 94.543 253.104 94.543C253.701 94.543 254.217 94.6855 254.65 94.9707C255.084 95.252 255.416 95.6348 255.646 96.1191C255.881 96.6035 255.998 97.1523 255.998 97.7656V97.9004C255.998 98.5098 255.881 99.0586 255.646 99.5469C255.416 100.031 255.084 100.414 254.65 100.695C254.221 100.977 253.709 101.117 253.115 101.117C252.521 101.117 252.008 100.977 251.574 100.695C251.145 100.414 250.812 100.031 250.578 99.5469C250.344 99.0586 250.227 98.5098 250.227 97.9004V97.7656ZM251.322 97.9004C251.322 98.3184 251.389 98.7051 251.521 99.0605C251.654 99.416 251.852 99.7012 252.113 99.916C252.379 100.131 252.713 100.238 253.115 100.238C253.514 100.238 253.844 100.131 254.105 99.916C254.371 99.7012 254.57 99.416 254.703 99.0605C254.836 98.7051 254.902 98.3184 254.902 97.9004V97.7656C254.902 97.3477 254.836 96.9609 254.703 96.6055C254.57 96.25 254.371 95.9648 254.105 95.75C253.84 95.5312 253.506 95.4219 253.104 95.4219C252.709 95.4219 252.379 95.5312 252.113 95.75C251.848 95.9648 251.648 96.25 251.516 96.6055C251.387 96.9609 251.322 97.3477 251.322 97.7656V97.9004ZM261.242 94.6602H262.338V101H261.295L261.242 99.5352V94.6602ZM261.904 98.1875C261.904 98.75 261.824 99.252 261.664 99.6934C261.504 100.135 261.242 100.482 260.879 100.736C260.516 100.99 260.029 101.117 259.42 101.117C258.799 101.117 258.297 100.934 257.914 100.566C257.531 100.199 257.34 99.5938 257.34 98.75V94.6602H258.436V98.7617C258.436 99.1445 258.49 99.4414 258.6 99.6523C258.713 99.8594 258.857 100.004 259.033 100.086C259.213 100.164 259.4 100.203 259.596 100.203C260.057 100.203 260.422 100.115 260.691 99.9395C260.961 99.7598 261.154 99.5176 261.271 99.2129C261.389 98.9082 261.447 98.5703 261.447 98.1992L261.904 98.1875ZM265.08 101H263.984V94.6602H265.021L265.08 96.0137V101ZM264.365 97.5664C264.373 96.9883 264.484 96.4727 264.699 96.0195C264.914 95.5625 265.213 95.2031 265.596 94.9414C265.982 94.6758 266.432 94.543 266.943 94.543C267.361 94.543 267.721 94.6211 268.021 94.7773C268.326 94.9297 268.561 95.1738 268.725 95.5098C268.893 95.8457 268.977 96.291 268.977 96.8457V101H267.881V96.834C267.881 96.502 267.832 96.2344 267.734 96.0312C267.641 95.8281 267.5 95.6816 267.312 95.5918C267.125 95.498 266.895 95.4512 266.621 95.4512C266.352 95.4512 266.107 95.5078 265.889 95.6211C265.67 95.7344 265.48 95.8906 265.32 96.0898C265.16 96.2891 265.037 96.5176 264.951 96.7754C264.865 97.0293 264.822 97.2988 264.822 97.584L264.365 97.5664ZM273.283 95.4863H269.85V94.6602H273.283V95.4863ZM272.1 93.1191V99.4297C272.1 99.6484 272.133 99.8125 272.199 99.9219C272.266 100.031 272.352 100.104 272.457 100.139C272.562 100.174 272.676 100.191 272.797 100.191C272.887 100.191 272.98 100.184 273.078 100.168C273.18 100.152 273.254 100.139 273.301 100.127L273.307 101C273.221 101.027 273.107 101.053 272.967 101.076C272.83 101.104 272.664 101.117 272.469 101.117C272.203 101.117 271.959 101.064 271.736 100.959C271.514 100.854 271.336 100.678 271.203 100.432C271.07 100.182 271.004 99.8457 271.004 99.4238V93.1191H272.1ZM280.186 95.4863H276.752V94.6602H280.186V95.4863ZM279.002 93.1191V99.4297C279.002 99.6484 279.035 99.8125 279.102 99.9219C279.168 100.031 279.254 100.104 279.359 100.139C279.465 100.174 279.578 100.191 279.699 100.191C279.789 100.191 279.883 100.184 279.98 100.168C280.082 100.152 280.156 100.139 280.203 100.127L280.209 101C280.123 101.027 280.01 101.053 279.869 101.076C279.732 101.104 279.566 101.117 279.371 101.117C279.105 101.117 278.861 101.064 278.639 100.959C278.416 100.854 278.238 100.678 278.105 100.432C277.973 100.182 277.906 99.8457 277.906 99.4238V93.1191H279.002ZM280.988 97.7656C280.988 97.1523 281.105 96.6035 281.34 96.1191C281.574 95.6348 281.906 95.252 282.336 94.9707C282.766 94.6855 283.275 94.543 283.865 94.543C284.463 94.543 284.979 94.6855 285.412 94.9707C285.846 95.252 286.178 95.6348 286.408 96.1191C286.643 96.6035 286.76 97.1523 286.76 97.7656V97.9004C286.76 98.5098 286.643 99.0586 286.408 99.5469C286.178 100.031 285.846 100.414 285.412 100.695C284.982 100.977 284.471 101.117 283.877 101.117C283.283 101.117 282.77 100.977 282.336 100.695C281.906 100.414 281.574 100.031 281.34 99.5469C281.105 99.0586 280.988 98.5098 280.988 97.9004V97.7656ZM282.084 97.9004C282.084 98.3184 282.15 98.7051 282.283 99.0605C282.416 99.416 282.613 99.7012 282.875 99.916C283.141 100.131 283.475 100.238 283.877 100.238C284.275 100.238 284.605 100.131 284.867 99.916C285.133 99.7012 285.332 99.416 285.465 99.0605C285.598 98.7051 285.664 98.3184 285.664 97.9004V97.7656C285.664 97.3477 285.598 96.9609 285.465 96.6055C285.332 96.25 285.133 95.9648 284.867 95.75C284.602 95.5312 284.268 95.4219 283.865 95.4219C283.471 95.4219 283.141 95.5312 282.875 95.75C282.609 95.9648 282.41 96.25 282.277 96.6055C282.148 96.9609 282.084 97.3477 282.084 97.7656V97.9004ZM294.84 96.6523C294.84 96.2734 294.727 95.9727 294.5 95.75C294.277 95.5234 293.947 95.4102 293.51 95.4102C293.24 95.4102 293.002 95.457 292.795 95.5508C292.592 95.6445 292.434 95.7676 292.32 95.9199C292.207 96.0723 292.15 96.2383 292.15 96.418H291.055C291.055 96.1133 291.158 95.8184 291.365 95.5332C291.572 95.2441 291.863 95.0078 292.238 94.8242C292.617 94.6367 293.062 94.543 293.574 94.543C294.035 94.543 294.443 94.6211 294.799 94.7773C295.154 94.9336 295.432 95.1699 295.631 95.4863C295.834 95.7988 295.936 96.1914 295.936 96.6641V99.6172C295.936 99.8281 295.953 100.053 295.988 100.291C296.027 100.529 296.084 100.734 296.158 100.906V101H295.016C294.961 100.875 294.918 100.709 294.887 100.502C294.855 100.291 294.84 100.096 294.84 99.916V96.6523ZM295.039 97.918H293.949C293.332 97.918 292.855 98.0156 292.52 98.2109C292.184 98.4062 292.016 98.6992 292.016 99.0898C292.016 99.3945 292.117 99.6523 292.32 99.8633C292.527 100.074 292.828 100.18 293.223 100.18C293.555 100.18 293.848 100.109 294.102 99.9688C294.355 99.8281 294.557 99.6543 294.705 99.4473C294.854 99.2402 294.934 99.041 294.945 98.8496L295.414 99.3711C295.387 99.5352 295.312 99.7168 295.191 99.916C295.07 100.115 294.908 100.307 294.705 100.49C294.506 100.67 294.268 100.82 293.99 100.941C293.717 101.059 293.408 101.117 293.064 101.117C292.635 101.117 292.258 101.035 291.934 100.871C291.613 100.703 291.363 100.477 291.184 100.191C291.008 99.9062 290.92 99.5898 290.92 99.2422C290.92 98.5586 291.178 98.041 291.693 97.6895C292.209 97.334 292.902 97.1562 293.773 97.1562H295.027L295.039 97.918ZM298.83 101H297.734V92H298.83V101ZM304.25 99.3184C304.25 99.1621 304.215 99.0176 304.145 98.8848C304.078 98.748 303.941 98.625 303.734 98.5156C303.527 98.4023 303.215 98.3027 302.797 98.2168C302.328 98.1191 301.922 97.9961 301.578 97.8477C301.238 97.6953 300.975 97.502 300.787 97.2676C300.604 97.0332 300.512 96.7422 300.512 96.3945C300.512 96.0586 300.607 95.752 300.799 95.4746C300.994 95.1934 301.268 94.9688 301.619 94.8008C301.975 94.6289 302.389 94.543 302.861 94.543C303.369 94.543 303.803 94.6328 304.162 94.8125C304.525 94.9883 304.803 95.2266 304.994 95.5273C305.186 95.8242 305.281 96.1543 305.281 96.5176H304.186C304.186 96.2559 304.07 96.0078 303.84 95.7734C303.613 95.5391 303.287 95.4219 302.861 95.4219C302.564 95.4219 302.322 95.4688 302.135 95.5625C301.951 95.6523 301.816 95.7695 301.73 95.9141C301.648 96.0547 301.607 96.2031 301.607 96.3594C301.607 96.5156 301.646 96.6523 301.725 96.7695C301.803 96.8828 301.945 96.9844 302.152 97.0742C302.363 97.1641 302.668 97.2539 303.066 97.3438C303.586 97.4609 304.014 97.6016 304.35 97.7656C304.686 97.9297 304.936 98.1309 305.1 98.3691C305.264 98.6074 305.346 98.8984 305.346 99.2422C305.346 99.6094 305.244 99.9355 305.041 100.221C304.838 100.502 304.553 100.723 304.186 100.883C303.818 101.039 303.387 101.117 302.891 101.117C302.332 101.117 301.859 101.018 301.473 100.818C301.086 100.619 300.793 100.363 300.594 100.051C300.395 99.7344 300.295 99.4004 300.295 99.0488H301.391C301.41 99.3457 301.496 99.582 301.648 99.7578C301.805 99.9297 301.994 100.053 302.217 100.127C302.443 100.201 302.668 100.238 302.891 100.238C303.188 100.238 303.436 100.199 303.635 100.121C303.838 100.039 303.99 99.9297 304.092 99.793C304.197 99.6523 304.25 99.4941 304.25 99.3184ZM306.477 97.7656C306.477 97.1523 306.594 96.6035 306.828 96.1191C307.062 95.6348 307.395 95.252 307.824 94.9707C308.254 94.6855 308.764 94.543 309.354 94.543C309.951 94.543 310.467 94.6855 310.9 94.9707C311.334 95.252 311.666 95.6348 311.896 96.1191C312.131 96.6035 312.248 97.1523 312.248 97.7656V97.9004C312.248 98.5098 312.131 99.0586 311.896 99.5469C311.666 100.031 311.334 100.414 310.9 100.695C310.471 100.977 309.959 101.117 309.365 101.117C308.771 101.117 308.258 100.977 307.824 100.695C307.395 100.414 307.062 100.031 306.828 99.5469C306.594 99.0586 306.477 98.5098 306.477 97.9004V97.7656ZM307.572 97.9004C307.572 98.3184 307.639 98.7051 307.771 99.0605C307.904 99.416 308.102 99.7012 308.363 99.916C308.629 100.131 308.963 100.238 309.365 100.238C309.764 100.238 310.094 100.131 310.355 99.916C310.621 99.7012 310.82 99.416 310.953 99.0605C311.086 98.7051 311.152 98.3184 311.152 97.9004V97.7656C311.152 97.3477 311.086 96.9609 310.953 96.6055C310.82 96.25 310.621 95.9648 310.355 95.75C310.09 95.5312 309.756 95.4219 309.354 95.4219C308.959 95.4219 308.629 95.5312 308.363 95.75C308.098 95.9648 307.898 96.25 307.766 96.6055C307.637 96.9609 307.572 97.3477 307.572 97.7656V97.9004ZM90.916 119H89.8203V112.66H90.8867L90.916 113.656V119ZM92.8906 113.627C92.7969 113.607 92.709 113.596 92.627 113.592C92.5488 113.584 92.459 113.58 92.3574 113.58C92.0254 113.58 91.7441 113.648 91.5137 113.785C91.2871 113.922 91.1113 114.111 90.9863 114.354C90.8613 114.592 90.7832 114.865 90.752 115.174L90.4414 115.35C90.4414 114.838 90.5098 114.371 90.6465 113.949C90.7832 113.523 90.9961 113.184 91.2852 112.93C91.5781 112.672 91.9531 112.543 92.4102 112.543C92.4844 112.543 92.5723 112.553 92.6738 112.572C92.7793 112.588 92.8516 112.605 92.8906 112.625V113.627ZM96.5234 119.117C95.9336 119.117 95.4199 118.986 94.9824 118.725C94.5488 118.459 94.2109 118.096 93.9688 117.635C93.7305 117.174 93.6113 116.646 93.6113 116.053V115.801C93.6113 115.113 93.7422 114.527 94.0039 114.043C94.2695 113.555 94.6133 113.184 95.0352 112.93C95.4609 112.672 95.9102 112.543 96.3828 112.543C96.9922 112.543 97.4883 112.68 97.8711 112.953C98.2578 113.223 98.541 113.592 98.7207 114.061C98.9043 114.525 98.9961 115.053 98.9961 115.643V116.129H94.2617V115.25H97.9004V115.168C97.8848 114.887 97.8281 114.613 97.7305 114.348C97.6328 114.078 97.4766 113.857 97.2617 113.686C97.0469 113.51 96.7539 113.422 96.3828 113.422C96.0547 113.422 95.7637 113.516 95.5098 113.703C95.2598 113.887 95.0625 114.156 94.918 114.512C94.7773 114.863 94.707 115.293 94.707 115.801V116.053C94.707 116.455 94.7812 116.822 94.9297 117.154C95.0781 117.482 95.293 117.746 95.5742 117.945C95.8555 118.141 96.1914 118.238 96.582 118.238C96.9648 118.238 97.2891 118.16 97.5547 118.004C97.8203 117.848 98.0527 117.639 98.252 117.377L98.9141 117.893C98.7109 118.205 98.418 118.488 98.0352 118.742C97.6562 118.992 97.1523 119.117 96.5234 119.117ZM102.805 118.238C103.062 118.238 103.301 118.186 103.52 118.08C103.738 117.971 103.918 117.822 104.059 117.635C104.199 117.447 104.279 117.234 104.299 116.996H105.336C105.316 117.371 105.189 117.721 104.955 118.045C104.721 118.365 104.416 118.625 104.041 118.824C103.666 119.02 103.254 119.117 102.805 119.117C102.168 119.117 101.641 118.973 101.223 118.684C100.805 118.391 100.492 118.004 100.285 117.523C100.082 117.043 99.9805 116.52 99.9805 115.953V115.707C99.9805 115.137 100.084 114.613 100.291 114.137C100.498 113.656 100.811 113.271 101.229 112.982C101.646 112.689 102.172 112.543 102.805 112.543C103.301 112.543 103.734 112.645 104.105 112.848C104.48 113.047 104.773 113.32 104.984 113.668C105.199 114.012 105.316 114.402 105.336 114.84H104.299C104.279 114.578 104.205 114.34 104.076 114.125C103.951 113.91 103.779 113.74 103.561 113.615C103.346 113.486 103.094 113.422 102.805 113.422C102.363 113.422 102.016 113.535 101.762 113.762C101.512 113.988 101.334 114.277 101.229 114.629C101.127 114.977 101.076 115.336 101.076 115.707V115.953C101.076 116.324 101.127 116.686 101.229 117.037C101.33 117.389 101.506 117.678 101.756 117.904C102.01 118.127 102.359 118.238 102.805 118.238ZM109.191 119.117C108.602 119.117 108.088 118.986 107.65 118.725C107.217 118.459 106.879 118.096 106.637 117.635C106.398 117.174 106.279 116.646 106.279 116.053V115.801C106.279 115.113 106.41 114.527 106.672 114.043C106.938 113.555 107.281 113.184 107.703 112.93C108.129 112.672 108.578 112.543 109.051 112.543C109.66 112.543 110.156 112.68 110.539 112.953C110.926 113.223 111.209 113.592 111.389 114.061C111.572 114.525 111.664 115.053 111.664 115.643V116.129H106.93V115.25H110.568V115.168C110.553 114.887 110.496 114.613 110.398 114.348C110.301 114.078 110.145 113.857 109.93 113.686C109.715 113.51 109.422 113.422 109.051 113.422C108.723 113.422 108.432 113.516 108.178 113.703C107.928 113.887 107.73 114.156 107.586 114.512C107.445 114.863 107.375 115.293 107.375 115.801V116.053C107.375 116.455 107.449 116.822 107.598 117.154C107.746 117.482 107.961 117.746 108.242 117.945C108.523 118.141 108.859 118.238 109.25 118.238C109.633 118.238 109.957 118.16 110.223 118.004C110.488 117.848 110.721 117.639 110.92 117.377L111.582 117.893C111.379 118.205 111.086 118.488 110.703 118.742C110.324 118.992 109.82 119.117 109.191 119.117ZM114.119 119H113.023V112.66H114.119V119ZM112.941 110.973C112.941 110.801 112.994 110.654 113.1 110.533C113.209 110.412 113.369 110.352 113.58 110.352C113.791 110.352 113.951 110.412 114.061 110.533C114.174 110.654 114.23 110.801 114.23 110.973C114.23 111.141 114.174 111.285 114.061 111.406C113.951 111.523 113.791 111.582 113.58 111.582C113.369 111.582 113.209 111.523 113.1 111.406C112.994 111.285 112.941 111.141 112.941 110.973ZM119.504 112.66H120.623L118.35 119H117.611L117.781 118.027L119.504 112.66ZM118.121 118.057L118.25 119H117.518L115.221 112.66H116.34L118.121 118.057ZM124.309 119.117C123.719 119.117 123.205 118.986 122.768 118.725C122.334 118.459 121.996 118.096 121.754 117.635C121.516 117.174 121.396 116.646 121.396 116.053V115.801C121.396 115.113 121.527 114.527 121.789 114.043C122.055 113.555 122.398 113.184 122.82 112.93C123.246 112.672 123.695 112.543 124.168 112.543C124.777 112.543 125.273 112.68 125.656 112.953C126.043 113.223 126.326 113.592 126.506 114.061C126.689 114.525 126.781 115.053 126.781 115.643V116.129H122.047V115.25H125.686V115.168C125.67 114.887 125.613 114.613 125.516 114.348C125.418 114.078 125.262 113.857 125.047 113.686C124.832 113.51 124.539 113.422 124.168 113.422C123.84 113.422 123.549 113.516 123.295 113.703C123.045 113.887 122.848 114.156 122.703 114.512C122.562 114.863 122.492 115.293 122.492 115.801V116.053C122.492 116.455 122.566 116.822 122.715 117.154C122.863 117.482 123.078 117.746 123.359 117.945C123.641 118.141 123.977 118.238 124.367 118.238C124.75 118.238 125.074 118.16 125.34 118.004C125.605 117.848 125.838 117.639 126.037 117.377L126.699 117.893C126.496 118.205 126.203 118.488 125.82 118.742C125.441 118.992 124.938 119.117 124.309 119.117ZM132.119 121.438H131.023V112.66H132.02L132.119 113.879V121.438ZM136.385 115.9C136.385 116.518 136.289 117.068 136.098 117.553C135.906 118.037 135.627 118.42 135.26 118.701C134.896 118.979 134.453 119.117 133.93 119.117C133.387 119.117 132.932 119 132.564 118.766C132.197 118.531 131.91 118.199 131.703 117.77C131.496 117.336 131.361 116.824 131.299 116.234V115.555C131.361 114.934 131.496 114.398 131.703 113.949C131.914 113.5 132.201 113.154 132.564 112.912C132.932 112.666 133.381 112.543 133.912 112.543C134.443 112.543 134.893 112.678 135.26 112.947C135.627 113.217 135.906 113.596 136.098 114.084C136.289 114.568 136.385 115.133 136.385 115.777V115.9ZM135.289 115.777C135.289 115.355 135.229 114.969 135.107 114.617C134.99 114.262 134.805 113.979 134.551 113.768C134.301 113.557 133.979 113.451 133.584 113.451C133.314 113.451 133.08 113.498 132.881 113.592C132.682 113.686 132.512 113.812 132.371 113.973C132.23 114.129 132.115 114.309 132.025 114.512C131.939 114.711 131.875 114.918 131.832 115.133V116.662C131.91 116.936 132.018 117.193 132.154 117.436C132.295 117.674 132.48 117.867 132.711 118.016C132.945 118.164 133.24 118.238 133.596 118.238C133.986 118.238 134.307 118.131 134.557 117.916C134.807 117.701 134.99 117.418 135.107 117.066C135.229 116.711 135.289 116.322 135.289 115.9V115.777ZM141.5 114.652C141.5 114.273 141.387 113.973 141.16 113.75C140.938 113.523 140.607 113.41 140.17 113.41C139.9 113.41 139.662 113.457 139.455 113.551C139.252 113.645 139.094 113.768 138.98 113.92C138.867 114.072 138.811 114.238 138.811 114.418H137.715C137.715 114.113 137.818 113.818 138.025 113.533C138.232 113.244 138.523 113.008 138.898 112.824C139.277 112.637 139.723 112.543 140.234 112.543C140.695 112.543 141.104 112.621 141.459 112.777C141.814 112.934 142.092 113.17 142.291 113.486C142.494 113.799 142.596 114.191 142.596 114.664V117.617C142.596 117.828 142.613 118.053 142.648 118.291C142.688 118.529 142.744 118.734 142.818 118.906V119H141.676C141.621 118.875 141.578 118.709 141.547 118.502C141.516 118.291 141.5 118.096 141.5 117.916V114.652ZM141.699 115.918H140.609C139.992 115.918 139.516 116.016 139.18 116.211C138.844 116.406 138.676 116.699 138.676 117.09C138.676 117.395 138.777 117.652 138.98 117.863C139.188 118.074 139.488 118.18 139.883 118.18C140.215 118.18 140.508 118.109 140.762 117.969C141.016 117.828 141.217 117.654 141.365 117.447C141.514 117.24 141.594 117.041 141.605 116.85L142.074 117.371C142.047 117.535 141.973 117.717 141.852 117.916C141.73 118.115 141.568 118.307 141.365 118.49C141.166 118.67 140.928 118.82 140.65 118.941C140.377 119.059 140.068 119.117 139.725 119.117C139.295 119.117 138.918 119.035 138.594 118.871C138.273 118.703 138.023 118.477 137.844 118.191C137.668 117.906 137.58 117.59 137.58 117.242C137.58 116.559 137.838 116.041 138.354 115.689C138.869 115.334 139.562 115.156 140.434 115.156H141.688L141.699 115.918ZM147.846 112.66H149.012L146.469 119.979C146.41 120.135 146.332 120.303 146.234 120.482C146.141 120.666 146.02 120.84 145.871 121.004C145.727 121.168 145.549 121.301 145.338 121.402C145.127 121.508 144.877 121.561 144.588 121.561C144.529 121.561 144.459 121.555 144.377 121.543C144.295 121.531 144.217 121.518 144.143 121.502C144.068 121.49 144.012 121.479 143.973 121.467V120.594C144.004 120.598 144.053 120.604 144.119 120.611C144.189 120.619 144.238 120.623 144.266 120.623C144.633 120.623 144.92 120.547 145.127 120.395C145.334 120.242 145.502 119.971 145.631 119.58L146.082 118.344L147.846 112.66ZM146.439 117.588L146.721 118.73L145.936 119.123L143.609 112.66H144.805L146.439 117.588ZM151.074 119H149.979V112.66H151.016L151.074 113.92V119ZM150.342 115.566C150.346 114.988 150.443 114.473 150.635 114.02C150.83 113.562 151.117 113.203 151.496 112.941C151.879 112.676 152.354 112.543 152.92 112.543C153.514 112.543 154.004 112.717 154.391 113.064C154.777 113.412 154.971 113.982 154.971 114.775V119H153.875V114.828C153.875 114.496 153.818 114.23 153.705 114.031C153.596 113.828 153.439 113.682 153.236 113.592C153.033 113.498 152.795 113.451 152.521 113.451C152.205 113.451 151.939 113.508 151.725 113.621C151.514 113.734 151.344 113.891 151.215 114.09C151.086 114.289 150.992 114.518 150.934 114.775C150.879 115.029 150.852 115.299 150.852 115.584L150.342 115.566ZM154.227 115.209C154.23 114.748 154.328 114.314 154.52 113.908C154.715 113.502 155 113.174 155.375 112.924C155.75 112.67 156.207 112.543 156.746 112.543C157.199 112.543 157.584 112.623 157.9 112.783C158.217 112.943 158.457 113.191 158.621 113.527C158.785 113.863 158.867 114.299 158.867 114.834V119H157.771V114.822C157.771 114.467 157.715 114.189 157.602 113.99C157.492 113.791 157.336 113.652 157.133 113.574C156.934 113.492 156.697 113.451 156.424 113.451C156.186 113.451 155.975 113.492 155.791 113.574C155.611 113.656 155.459 113.77 155.334 113.914C155.213 114.055 155.119 114.217 155.053 114.4C154.99 114.584 154.959 114.779 154.959 114.986L154.227 115.209ZM163.145 119.117C162.555 119.117 162.041 118.986 161.604 118.725C161.17 118.459 160.832 118.096 160.59 117.635C160.352 117.174 160.232 116.646 160.232 116.053V115.801C160.232 115.113 160.363 114.527 160.625 114.043C160.891 113.555 161.234 113.184 161.656 112.93C162.082 112.672 162.531 112.543 163.004 112.543C163.613 112.543 164.109 112.68 164.492 112.953C164.879 113.223 165.162 113.592 165.342 114.061C165.525 114.525 165.617 115.053 165.617 115.643V116.129H160.883V115.25H164.521V115.168C164.506 114.887 164.449 114.613 164.352 114.348C164.254 114.078 164.098 113.857 163.883 113.686C163.668 113.51 163.375 113.422 163.004 113.422C162.676 113.422 162.385 113.516 162.131 113.703C161.881 113.887 161.684 114.156 161.539 114.512C161.398 114.863 161.328 115.293 161.328 115.801V116.053C161.328 116.455 161.402 116.822 161.551 117.154C161.699 117.482 161.914 117.746 162.195 117.945C162.477 118.141 162.812 118.238 163.203 118.238C163.586 118.238 163.91 118.16 164.176 118.004C164.441 117.848 164.674 117.639 164.873 117.377L165.535 117.893C165.332 118.205 165.039 118.488 164.656 118.742C164.277 118.992 163.773 119.117 163.145 119.117ZM167.979 119H166.883V112.66H167.92L167.979 114.014V119ZM167.264 115.566C167.271 114.988 167.383 114.473 167.598 114.02C167.812 113.562 168.111 113.203 168.494 112.941C168.881 112.676 169.33 112.543 169.842 112.543C170.26 112.543 170.619 112.621 170.92 112.777C171.225 112.93 171.459 113.174 171.623 113.51C171.791 113.846 171.875 114.291 171.875 114.846V119H170.779V114.834C170.779 114.502 170.73 114.234 170.633 114.031C170.539 113.828 170.398 113.682 170.211 113.592C170.023 113.498 169.793 113.451 169.52 113.451C169.25 113.451 169.006 113.508 168.787 113.621C168.568 113.734 168.379 113.891 168.219 114.09C168.059 114.289 167.936 114.518 167.85 114.775C167.764 115.029 167.721 115.299 167.721 115.584L167.264 115.566ZM176.182 113.486H172.748V112.66H176.182V113.486ZM174.998 111.119V117.43C174.998 117.648 175.031 117.812 175.098 117.922C175.164 118.031 175.25 118.104 175.355 118.139C175.461 118.174 175.574 118.191 175.695 118.191C175.785 118.191 175.879 118.184 175.977 118.168C176.078 118.152 176.152 118.139 176.199 118.127L176.205 119C176.119 119.027 176.006 119.053 175.865 119.076C175.729 119.104 175.562 119.117 175.367 119.117C175.102 119.117 174.857 119.064 174.635 118.959C174.412 118.854 174.234 118.678 174.102 118.432C173.969 118.182 173.902 117.846 173.902 117.424V111.119H174.998ZM180.137 115.766C180.137 115.152 180.254 114.604 180.488 114.119C180.723 113.635 181.055 113.252 181.484 112.971C181.914 112.686 182.424 112.543 183.014 112.543C183.611 112.543 184.127 112.686 184.561 112.971C184.994 113.252 185.326 113.635 185.557 114.119C185.791 114.604 185.908 115.152 185.908 115.766V115.9C185.908 116.51 185.791 117.059 185.557 117.547C185.326 118.031 184.994 118.414 184.561 118.695C184.131 118.977 183.619 119.117 183.025 119.117C182.432 119.117 181.918 118.977 181.484 118.695C181.055 118.414 180.723 118.031 180.488 117.547C180.254 117.059 180.137 116.51 180.137 115.9V115.766ZM181.232 115.9C181.232 116.318 181.299 116.705 181.432 117.061C181.564 117.416 181.762 117.701 182.023 117.916C182.289 118.131 182.623 118.238 183.025 118.238C183.424 118.238 183.754 118.131 184.016 117.916C184.281 117.701 184.48 117.416 184.613 117.061C184.746 116.705 184.812 116.318 184.812 115.9V115.766C184.812 115.348 184.746 114.961 184.613 114.605C184.48 114.25 184.281 113.965 184.016 113.75C183.75 113.531 183.416 113.422 183.014 113.422C182.619 113.422 182.289 113.531 182.023 113.75C181.758 113.965 181.559 114.25 181.426 114.605C181.297 114.961 181.232 115.348 181.232 115.766V115.9ZM188.369 119H187.273V112.66H188.311L188.369 114.014V119ZM187.654 115.566C187.662 114.988 187.773 114.473 187.988 114.02C188.203 113.562 188.502 113.203 188.885 112.941C189.271 112.676 189.721 112.543 190.232 112.543C190.65 112.543 191.01 112.621 191.311 112.777C191.615 112.93 191.85 113.174 192.014 113.51C192.182 113.846 192.266 114.291 192.266 114.846V119H191.17V114.834C191.17 114.502 191.121 114.234 191.023 114.031C190.93 113.828 190.789 113.682 190.602 113.592C190.414 113.498 190.184 113.451 189.91 113.451C189.641 113.451 189.396 113.508 189.178 113.621C188.959 113.734 188.77 113.891 188.609 114.09C188.449 114.289 188.326 114.518 188.24 114.775C188.154 115.029 188.111 115.299 188.111 115.584L187.654 115.566ZM200.428 112.66H201.594L199.051 119.979C198.992 120.135 198.914 120.303 198.816 120.482C198.723 120.666 198.602 120.84 198.453 121.004C198.309 121.168 198.131 121.301 197.92 121.402C197.709 121.508 197.459 121.561 197.17 121.561C197.111 121.561 197.041 121.555 196.959 121.543C196.877 121.531 196.799 121.518 196.725 121.502C196.65 121.49 196.594 121.479 196.555 121.467V120.594C196.586 120.598 196.635 120.604 196.701 120.611C196.771 120.619 196.82 120.623 196.848 120.623C197.215 120.623 197.502 120.547 197.709 120.395C197.916 120.242 198.084 119.971 198.213 119.58L198.664 118.344L200.428 112.66ZM199.021 117.588L199.303 118.73L198.518 119.123L196.191 112.66H197.387L199.021 117.588ZM202.285 115.766C202.285 115.152 202.402 114.604 202.637 114.119C202.871 113.635 203.203 113.252 203.633 112.971C204.062 112.686 204.572 112.543 205.162 112.543C205.76 112.543 206.275 112.686 206.709 112.971C207.143 113.252 207.475 113.635 207.705 114.119C207.939 114.604 208.057 115.152 208.057 115.766V115.9C208.057 116.51 207.939 117.059 207.705 117.547C207.475 118.031 207.143 118.414 206.709 118.695C206.279 118.977 205.768 119.117 205.174 119.117C204.58 119.117 204.066 118.977 203.633 118.695C203.203 118.414 202.871 118.031 202.637 117.547C202.402 117.059 202.285 116.51 202.285 115.9V115.766ZM203.381 115.9C203.381 116.318 203.447 116.705 203.58 117.061C203.713 117.416 203.91 117.701 204.172 117.916C204.438 118.131 204.771 118.238 205.174 118.238C205.572 118.238 205.902 118.131 206.164 117.916C206.43 117.701 206.629 117.416 206.762 117.061C206.895 116.705 206.961 116.318 206.961 115.9V115.766C206.961 115.348 206.895 114.961 206.762 114.605C206.629 114.25 206.43 113.965 206.164 113.75C205.898 113.531 205.564 113.422 205.162 113.422C204.768 113.422 204.438 113.531 204.172 113.75C203.906 113.965 203.707 114.25 203.574 114.605C203.445 114.961 203.381 115.348 203.381 115.766V115.9ZM213.301 112.66H214.396V119H213.354L213.301 117.535V112.66ZM213.963 116.188C213.963 116.75 213.883 117.252 213.723 117.693C213.562 118.135 213.301 118.482 212.938 118.736C212.574 118.99 212.088 119.117 211.479 119.117C210.857 119.117 210.355 118.934 209.973 118.566C209.59 118.199 209.398 117.594 209.398 116.75V112.66H210.494V116.762C210.494 117.145 210.549 117.441 210.658 117.652C210.771 117.859 210.916 118.004 211.092 118.086C211.271 118.164 211.459 118.203 211.654 118.203C212.115 118.203 212.48 118.115 212.75 117.939C213.02 117.76 213.213 117.518 213.33 117.213C213.447 116.908 213.506 116.57 213.506 116.199L213.963 116.188ZM217.139 119H216.043V112.66H217.109L217.139 113.656V119ZM219.113 113.627C219.02 113.607 218.932 113.596 218.85 113.592C218.771 113.584 218.682 113.58 218.58 113.58C218.248 113.58 217.967 113.648 217.736 113.785C217.51 113.922 217.334 114.111 217.209 114.354C217.084 114.592 217.006 114.865 216.975 115.174L216.664 115.35C216.664 114.838 216.732 114.371 216.869 113.949C217.006 113.523 217.219 113.184 217.508 112.93C217.801 112.672 218.176 112.543 218.633 112.543C218.707 112.543 218.795 112.553 218.896 112.572C219.002 112.588 219.074 112.605 219.113 112.625V113.627ZM224.182 110V117.77L224.088 119H223.086V110H224.182ZM228.459 115.9C228.459 116.518 228.363 117.068 228.172 117.553C227.98 118.037 227.701 118.42 227.334 118.701C226.967 118.979 226.521 119.117 225.998 119.117C225.459 119.117 225.01 118.996 224.65 118.754C224.291 118.508 224.012 118.162 223.812 117.717C223.613 117.268 223.482 116.736 223.42 116.123V115.555C223.482 114.934 223.613 114.398 223.812 113.949C224.012 113.5 224.289 113.154 224.645 112.912C225.004 112.666 225.451 112.543 225.986 112.543C226.518 112.543 226.967 112.678 227.334 112.947C227.701 113.217 227.98 113.596 228.172 114.084C228.363 114.568 228.459 115.133 228.459 115.777V115.9ZM227.363 115.777C227.363 115.355 227.311 114.969 227.205 114.617C227.1 114.262 226.926 113.979 226.684 113.768C226.445 113.557 226.121 113.451 225.711 113.451C225.441 113.451 225.205 113.498 225.002 113.592C224.803 113.686 224.633 113.812 224.492 113.973C224.352 114.129 224.236 114.309 224.146 114.512C224.061 114.711 223.996 114.918 223.953 115.133V116.557C224.016 116.83 224.117 117.094 224.258 117.348C224.398 117.598 224.588 117.803 224.826 117.963C225.068 118.123 225.367 118.203 225.723 118.203C226.113 118.203 226.428 118.1 226.666 117.893C226.908 117.682 227.084 117.402 227.193 117.055C227.307 116.707 227.363 116.322 227.363 115.9V115.777ZM232.461 119.117C231.871 119.117 231.357 118.986 230.92 118.725C230.486 118.459 230.148 118.096 229.906 117.635C229.668 117.174 229.549 116.646 229.549 116.053V115.801C229.549 115.113 229.68 114.527 229.941 114.043C230.207 113.555 230.551 113.184 230.973 112.93C231.398 112.672 231.848 112.543 232.32 112.543C232.93 112.543 233.426 112.68 233.809 112.953C234.195 113.223 234.479 113.592 234.658 114.061C234.842 114.525 234.934 115.053 234.934 115.643V116.129H230.199V115.25H233.838V115.168C233.822 114.887 233.766 114.613 233.668 114.348C233.57 114.078 233.414 113.857 233.199 113.686C232.984 113.51 232.691 113.422 232.32 113.422C231.992 113.422 231.701 113.516 231.447 113.703C231.197 113.887 231 114.156 230.855 114.512C230.715 114.863 230.645 115.293 230.645 115.801V116.053C230.645 116.455 230.719 116.822 230.867 117.154C231.016 117.482 231.23 117.746 231.512 117.945C231.793 118.141 232.129 118.238 232.52 118.238C232.902 118.238 233.227 118.16 233.492 118.004C233.758 117.848 233.99 117.639 234.189 117.377L234.852 117.893C234.648 118.205 234.355 118.488 233.973 118.742C233.594 118.992 233.09 119.117 232.461 119.117ZM237.295 119H236.199V110H237.295V119ZM236.58 115.566C236.588 114.988 236.699 114.473 236.914 114.02C237.129 113.562 237.428 113.203 237.811 112.941C238.197 112.676 238.646 112.543 239.158 112.543C239.576 112.543 239.936 112.621 240.236 112.777C240.541 112.93 240.775 113.174 240.939 113.51C241.107 113.846 241.191 114.291 241.191 114.846V119H240.096V114.834C240.096 114.502 240.047 114.234 239.949 114.031C239.855 113.828 239.715 113.682 239.527 113.592C239.34 113.498 239.109 113.451 238.836 113.451C238.566 113.451 238.322 113.508 238.104 113.621C237.885 113.734 237.695 113.891 237.535 114.09C237.375 114.289 237.252 114.518 237.166 114.775C237.08 115.029 237.037 115.299 237.037 115.584L236.58 115.566ZM246.547 114.652C246.547 114.273 246.434 113.973 246.207 113.75C245.984 113.523 245.654 113.41 245.217 113.41C244.947 113.41 244.709 113.457 244.502 113.551C244.299 113.645 244.141 113.768 244.027 113.92C243.914 114.072 243.857 114.238 243.857 114.418H242.762C242.762 114.113 242.865 113.818 243.072 113.533C243.279 113.244 243.57 113.008 243.945 112.824C244.324 112.637 244.77 112.543 245.281 112.543C245.742 112.543 246.15 112.621 246.506 112.777C246.861 112.934 247.139 113.17 247.338 113.486C247.541 113.799 247.643 114.191 247.643 114.664V117.617C247.643 117.828 247.66 118.053 247.695 118.291C247.734 118.529 247.791 118.734 247.865 118.906V119H246.723C246.668 118.875 246.625 118.709 246.594 118.502C246.562 118.291 246.547 118.096 246.547 117.916V114.652ZM246.746 115.918H245.656C245.039 115.918 244.562 116.016 244.227 116.211C243.891 116.406 243.723 116.699 243.723 117.09C243.723 117.395 243.824 117.652 244.027 117.863C244.234 118.074 244.535 118.18 244.93 118.18C245.262 118.18 245.555 118.109 245.809 117.969C246.062 117.828 246.264 117.654 246.412 117.447C246.561 117.24 246.641 117.041 246.652 116.85L247.121 117.371C247.094 117.535 247.02 117.717 246.898 117.916C246.777 118.115 246.615 118.307 246.412 118.49C246.213 118.67 245.975 118.82 245.697 118.941C245.424 119.059 245.115 119.117 244.771 119.117C244.342 119.117 243.965 119.035 243.641 118.871C243.32 118.703 243.07 118.477 242.891 118.191C242.715 117.906 242.627 117.59 242.627 117.242C242.627 116.559 242.885 116.041 243.4 115.689C243.916 115.334 244.609 115.156 245.48 115.156H246.734L246.746 115.918ZM250.537 119H249.441V110H250.537V119ZM252.799 119V111.986C252.799 111.307 252.984 110.785 253.355 110.422C253.73 110.059 254.242 109.877 254.891 109.877C255.016 109.877 255.141 109.885 255.266 109.9C255.391 109.916 255.514 109.939 255.635 109.971L255.576 110.844C255.494 110.828 255.4 110.816 255.295 110.809C255.193 110.801 255.092 110.797 254.99 110.797C254.646 110.797 254.377 110.9 254.182 111.107C253.99 111.311 253.895 111.604 253.895 111.986V119H252.799ZM255.242 113.486H251.803V112.66H255.242V113.486Z" fill="black" fill-opacity="0.8"/>
<rect x="207" y="57" width="24" height="24" rx="2" fill="#1A71FF"/>
<path d="M215.776 73H221.759V71.679H217.957V71.6193L219.462 70.0895C221.158 68.4616 221.626 67.669 221.626 66.6847C221.626 65.223 220.438 64.1534 218.682 64.1534C216.952 64.1534 215.724 65.2273 215.724 66.8849H217.229C217.229 65.9943 217.791 65.4361 218.661 65.4361C219.491 65.4361 220.109 65.9432 220.109 66.7656C220.109 67.4943 219.666 68.0142 218.805 68.8878L215.776 71.858V73Z" fill="white"/>
<rect x="89" y="148" width="48" height="48" rx="4" fill="#F5F9FF"/>
<rect x="89" y="244" width="48" height="48" rx="4" fill="#F5F9FF"/>
<path d="M117.02 171.913C118.841 171.913 120.317 170.437 120.317 168.616C120.317 166.796 118.841 165.319 117.02 165.319" stroke="#2A7CFF" stroke-width="1.5" stroke-linecap="round" stroke-linejoin="round"/>
<path d="M118.536 175.496C119.08 175.533 119.62 175.611 120.153 175.729C120.892 175.876 121.782 176.179 122.098 176.842C122.3 177.267 122.3 177.762 122.098 178.187C121.783 178.85 120.892 179.153 120.153 179.305" stroke="#2A7CFF" stroke-width="1.5" stroke-linecap="round" stroke-linejoin="round"/>
<path fill-rule="evenodd" clip-rule="evenodd" d="M110.591 176.206C114.281 176.206 117.433 176.765 117.433 178.998C117.433 181.232 114.301 181.81 110.591 181.81C106.901 181.81 103.75 181.252 103.75 179.018C103.75 176.784 106.881 176.206 110.591 176.206Z" stroke="#2A7CFF" stroke-width="1.5" stroke-linecap="round" stroke-linejoin="round"/>
<path fill-rule="evenodd" clip-rule="evenodd" d="M110.592 173.019C108.158 173.019 106.208 171.068 106.208 168.634C106.208 166.201 108.158 164.25 110.592 164.25C113.026 164.25 114.977 166.201 114.977 168.634C114.977 171.068 113.026 173.019 110.592 173.019Z" stroke="#2A7CFF" stroke-width="1.5" stroke-linecap="round" stroke-linejoin="round"/>
<path d="M117.02 267.913C118.841 267.913 120.317 266.437 120.317 264.616C120.317 262.796 118.841 261.319 117.02 261.319" stroke="#2A7CFF" stroke-width="1.5" stroke-linecap="round" stroke-linejoin="round"/>
<path d="M118.536 271.496C119.08 271.533 119.62 271.611 120.153 271.729C120.892 271.876 121.782 272.179 122.098 272.842C122.3 273.267 122.3 273.762 122.098 274.187C121.783 274.85 120.892 275.153 120.153 275.305" stroke="#2A7CFF" stroke-width="1.5" stroke-linecap="round" stroke-linejoin="round"/>
<path fill-rule="evenodd" clip-rule="evenodd" d="M110.591 272.206C114.281 272.206 117.433 272.765 117.433 274.998C117.433 277.232 114.301 277.81 110.591 277.81C106.901 277.81 103.75 277.252 103.75 275.018C103.75 272.784 106.881 272.206 110.591 272.206Z" stroke="#2A7CFF" stroke-width="1.5" stroke-linecap="round" stroke-linejoin="round"/>
<path fill-rule="evenodd" clip-rule="evenodd" d="M110.592 269.019C108.158 269.019 106.208 267.068 106.208 264.634C106.208 262.201 108.158 260.25 110.592 260.25C113.026 260.25 114.977 262.201 114.977 264.634C114.977 267.068 113.026 269.019 110.592 269.019Z" stroke="#2A7CFF" stroke-width="1.5" stroke-linecap="round" stroke-linejoin="round"/>
<path d="M152.906 162.42H154.599C154.548 160.557 152.901 159.205 150.537 159.205C148.202 159.205 146.412 160.54 146.412 162.545C146.412 164.165 147.571 165.114 149.44 165.619L150.815 165.994C152.06 166.324 153.02 166.733 153.02 167.767C153.02 168.903 151.935 169.653 150.44 169.653C149.088 169.653 147.963 169.051 147.861 167.784H146.099C146.213 169.892 147.844 171.193 150.452 171.193C153.185 171.193 154.759 169.756 154.759 167.784C154.759 165.688 152.889 164.875 151.412 164.511L150.276 164.216C149.366 163.983 148.156 163.557 148.162 162.443C148.162 161.455 149.065 160.722 150.497 160.722C151.832 160.722 152.781 161.347 152.906 162.42ZM162.249 167.381C162.254 168.864 161.152 169.568 160.197 169.568C159.146 169.568 158.419 168.807 158.419 167.619V162.273H156.72V167.824C156.72 169.989 157.908 171.114 159.584 171.114C160.896 171.114 161.788 170.42 162.192 169.489H162.283V171H163.953V162.273H162.249V167.381ZM166.372 171H168.031V169.642H168.173C168.48 170.199 169.105 171.17 170.696 171.17C172.81 171.17 174.344 169.477 174.344 166.653C174.344 163.824 172.787 162.159 170.679 162.159C169.06 162.159 168.474 163.148 168.173 163.688H168.071V159.364H166.372V171ZM168.037 166.636C168.037 164.812 168.832 163.602 170.315 163.602C171.855 163.602 172.628 164.903 172.628 166.636C172.628 168.386 171.832 169.722 170.315 169.722C168.855 169.722 168.037 168.472 168.037 166.636ZM183.026 171.193C184.469 171.193 185.281 170.46 185.605 169.807H185.673V171H187.332V165.205C187.332 162.665 185.332 162.159 183.946 162.159C182.366 162.159 180.912 162.795 180.344 164.386L181.94 164.75C182.19 164.131 182.827 163.534 183.969 163.534C185.065 163.534 185.628 164.108 185.628 165.097V165.136C185.628 165.756 184.991 165.744 183.423 165.926C181.77 166.119 180.077 166.551 180.077 168.534C180.077 170.25 181.366 171.193 183.026 171.193ZM183.395 169.83C182.435 169.83 181.741 169.398 181.741 168.557C181.741 167.648 182.548 167.324 183.531 167.193C184.082 167.119 185.389 166.972 185.634 166.727V167.852C185.634 168.886 184.81 169.83 183.395 169.83ZM193.271 171.176C195.334 171.176 196.669 169.938 196.857 168.239H195.203C194.987 169.182 194.254 169.739 193.283 169.739C191.845 169.739 190.919 168.54 190.919 166.636C190.919 164.767 191.862 163.591 193.283 163.591C194.362 163.591 195.021 164.273 195.203 165.091H196.857C196.675 163.33 195.237 162.159 193.254 162.159C190.794 162.159 189.203 164.011 189.203 166.676C189.203 169.307 190.737 171.176 193.271 171.176ZM202.349 171.176C204.412 171.176 205.747 169.938 205.935 168.239H204.281C204.065 169.182 203.332 169.739 202.361 169.739C200.923 169.739 199.997 168.54 199.997 166.636C199.997 164.767 200.94 163.591 202.361 163.591C203.44 163.591 204.099 164.273 204.281 165.091H205.935C205.753 163.33 204.315 162.159 202.332 162.159C199.872 162.159 198.281 164.011 198.281 166.676C198.281 169.307 199.815 171.176 202.349 171.176ZM211.428 171.176C213.888 171.176 215.496 169.375 215.496 166.676C215.496 163.96 213.888 162.159 211.428 162.159C208.967 162.159 207.359 163.96 207.359 166.676C207.359 169.375 208.967 171.176 211.428 171.176ZM211.433 169.75C209.825 169.75 209.075 168.347 209.075 166.67C209.075 165 209.825 163.58 211.433 163.58C213.03 163.58 213.78 165 213.78 166.67C213.78 168.347 213.03 169.75 211.433 169.75ZM222.92 167.381C222.926 168.864 221.824 169.568 220.869 169.568C219.818 169.568 219.091 168.807 219.091 167.619V162.273H217.392V167.824C217.392 169.989 218.58 171.114 220.256 171.114C221.568 171.114 222.46 170.42 222.864 169.489H222.955V171H224.625V162.273H222.92V167.381ZM228.607 165.818C228.607 164.426 229.459 163.631 230.641 163.631C231.794 163.631 232.493 164.386 232.493 165.653V171H234.192V165.449C234.192 163.29 233.004 162.159 231.22 162.159C229.908 162.159 229.05 162.767 228.646 163.693H228.538V162.273H226.908V171H228.607V165.818ZM240.544 162.273H238.754V160.182H237.055V162.273H235.777V163.636H237.055V168.79C237.05 170.375 238.26 171.142 239.601 171.114C240.141 171.108 240.504 171.006 240.703 170.932L240.396 169.528C240.283 169.551 240.072 169.602 239.8 169.602C239.249 169.602 238.754 169.42 238.754 168.438V163.636H240.544V162.273ZM248.357 165.818C248.357 164.426 249.209 163.631 250.391 163.631C251.544 163.631 252.243 164.386 252.243 165.653V171H253.942V165.449C253.942 163.29 252.754 162.159 250.97 162.159C249.658 162.159 248.8 162.767 248.396 163.693H248.288V162.273H246.658V171H248.357V165.818ZM258.76 171.193C260.203 171.193 261.016 170.46 261.339 169.807H261.408V171H263.067V165.205C263.067 162.665 261.067 162.159 259.68 162.159C258.101 162.159 256.646 162.795 256.078 164.386L257.675 164.75C257.925 164.131 258.561 163.534 259.703 163.534C260.8 163.534 261.362 164.108 261.362 165.097V165.136C261.362 165.756 260.726 165.744 259.158 165.926C257.504 166.119 255.811 166.551 255.811 168.534C255.811 170.25 257.101 171.193 258.76 171.193ZM259.129 169.83C258.169 169.83 257.476 169.398 257.476 168.557C257.476 167.648 258.283 167.324 259.266 167.193C259.817 167.119 261.124 166.972 261.368 166.727V167.852C261.368 168.886 260.544 169.83 259.129 169.83ZM265.33 171H267.028V165.619C267.028 164.443 267.852 163.625 268.818 163.625C269.761 163.625 270.415 164.25 270.415 165.199V171H272.108V165.438C272.108 164.386 272.75 163.625 273.858 163.625C274.756 163.625 275.494 164.125 275.494 165.307V171H277.193V165.148C277.193 163.153 276.08 162.159 274.5 162.159C273.244 162.159 272.301 162.761 271.881 163.693H271.79C271.409 162.739 270.608 162.159 269.443 162.159C268.29 162.159 267.432 162.733 267.068 163.693H266.96V162.273H265.33V171ZM283.232 171.176C285.135 171.176 286.482 170.239 286.868 168.818L285.26 168.528C284.953 169.352 284.214 169.773 283.249 169.773C281.794 169.773 280.817 168.83 280.771 167.148H286.976V166.545C286.976 163.392 285.089 162.159 283.112 162.159C280.68 162.159 279.078 164.011 279.078 166.693C279.078 169.403 280.658 171.176 283.232 171.176ZM280.777 165.875C280.845 164.636 281.743 163.562 283.124 163.562C284.442 163.562 285.305 164.54 285.311 165.875H280.777Z" fill="#333333"/>
<path d="M152.906 256.42H154.599C154.548 254.557 152.901 253.205 150.537 253.205C148.202 253.205 146.412 254.54 146.412 256.545C146.412 258.165 147.571 259.114 149.44 259.619L150.815 259.994C152.06 260.324 153.02 260.733 153.02 261.767C153.02 262.903 151.935 263.653 150.44 263.653C149.088 263.653 147.963 263.051 147.861 261.784H146.099C146.213 263.892 147.844 265.193 150.452 265.193C153.185 265.193 154.759 263.756 154.759 261.784C154.759 259.688 152.889 258.875 151.412 258.511L150.276 258.216C149.366 257.983 148.156 257.557 148.162 256.443C148.162 255.455 149.065 254.722 150.497 254.722C151.832 254.722 152.781 255.347 152.906 256.42ZM162.249 261.381C162.254 262.864 161.152 263.568 160.197 263.568C159.146 263.568 158.419 262.807 158.419 261.619V256.273H156.72V261.824C156.72 263.989 157.908 265.114 159.584 265.114C160.896 265.114 161.788 264.42 162.192 263.489H162.283V265H163.953V256.273H162.249V261.381ZM166.372 265H168.031V263.642H168.173C168.48 264.199 169.105 265.17 170.696 265.17C172.81 265.17 174.344 263.477 174.344 260.653C174.344 257.824 172.787 256.159 170.679 256.159C169.06 256.159 168.474 257.148 168.173 257.688H168.071V253.364H166.372V265ZM168.037 260.636C168.037 258.812 168.832 257.602 170.315 257.602C171.855 257.602 172.628 258.903 172.628 260.636C172.628 262.386 171.832 263.722 170.315 263.722C168.855 263.722 168.037 262.472 168.037 260.636ZM183.026 265.193C184.469 265.193 185.281 264.46 185.605 263.807H185.673V265H187.332V259.205C187.332 256.665 185.332 256.159 183.946 256.159C182.366 256.159 180.912 256.795 180.344 258.386L181.94 258.75C182.19 258.131 182.827 257.534 183.969 257.534C185.065 257.534 185.628 258.108 185.628 259.097V259.136C185.628 259.756 184.991 259.744 183.423 259.926C181.77 260.119 180.077 260.551 180.077 262.534C180.077 264.25 181.366 265.193 183.026 265.193ZM183.395 263.83C182.435 263.83 181.741 263.398 181.741 262.557C181.741 261.648 182.548 261.324 183.531 261.193C184.082 261.119 185.389 260.972 185.634 260.727V261.852C185.634 262.886 184.81 263.83 183.395 263.83ZM193.271 265.176C195.334 265.176 196.669 263.938 196.857 262.239H195.203C194.987 263.182 194.254 263.739 193.283 263.739C191.845 263.739 190.919 262.54 190.919 260.636C190.919 258.767 191.862 257.591 193.283 257.591C194.362 257.591 195.021 258.273 195.203 259.091H196.857C196.675 257.33 195.237 256.159 193.254 256.159C190.794 256.159 189.203 258.011 189.203 260.676C189.203 263.307 190.737 265.176 193.271 265.176ZM202.349 265.176C204.412 265.176 205.747 263.938 205.935 262.239H204.281C204.065 263.182 203.332 263.739 202.361 263.739C200.923 263.739 199.997 262.54 199.997 260.636C199.997 258.767 200.94 257.591 202.361 257.591C203.44 257.591 204.099 258.273 204.281 259.091H205.935C205.753 257.33 204.315 256.159 202.332 256.159C199.872 256.159 198.281 258.011 198.281 260.676C198.281 263.307 199.815 265.176 202.349 265.176ZM211.428 265.176C213.888 265.176 215.496 263.375 215.496 260.676C215.496 257.96 213.888 256.159 211.428 256.159C208.967 256.159 207.359 257.96 207.359 260.676C207.359 263.375 208.967 265.176 211.428 265.176ZM211.433 263.75C209.825 263.75 209.075 262.347 209.075 260.67C209.075 259 209.825 257.58 211.433 257.58C213.03 257.58 213.78 259 213.78 260.67C213.78 262.347 213.03 263.75 211.433 263.75ZM222.92 261.381C222.926 262.864 221.824 263.568 220.869 263.568C219.818 263.568 219.091 262.807 219.091 261.619V256.273H217.392V261.824C217.392 263.989 218.58 265.114 220.256 265.114C221.568 265.114 222.46 264.42 222.864 263.489H222.955V265H224.625V256.273H222.92V261.381ZM228.607 259.818C228.607 258.426 229.459 257.631 230.641 257.631C231.794 257.631 232.493 258.386 232.493 259.653V265H234.192V259.449C234.192 257.29 233.004 256.159 231.22 256.159C229.908 256.159 229.05 256.767 228.646 257.693H228.538V256.273H226.908V265H228.607V259.818ZM240.544 256.273H238.754V254.182H237.055V256.273H235.777V257.636H237.055V262.79C237.05 264.375 238.26 265.142 239.601 265.114C240.141 265.108 240.504 265.006 240.703 264.932L240.396 263.528C240.283 263.551 240.072 263.602 239.8 263.602C239.249 263.602 238.754 263.42 238.754 262.438V257.636H240.544V256.273ZM248.357 259.818C248.357 258.426 249.209 257.631 250.391 257.631C251.544 257.631 252.243 258.386 252.243 259.653V265H253.942V259.449C253.942 257.29 252.754 256.159 250.97 256.159C249.658 256.159 248.8 256.767 248.396 257.693H248.288V256.273H246.658V265H248.357V259.818ZM258.76 265.193C260.203 265.193 261.016 264.46 261.339 263.807H261.408V265H263.067V259.205C263.067 256.665 261.067 256.159 259.68 256.159C258.101 256.159 256.646 256.795 256.078 258.386L257.675 258.75C257.925 258.131 258.561 257.534 259.703 257.534C260.8 257.534 261.362 258.108 261.362 259.097V259.136C261.362 259.756 260.726 259.744 259.158 259.926C257.504 260.119 255.811 260.551 255.811 262.534C255.811 264.25 257.101 265.193 258.76 265.193ZM259.129 263.83C258.169 263.83 257.476 263.398 257.476 262.557C257.476 261.648 258.283 261.324 259.266 261.193C259.817 261.119 261.124 260.972 261.368 260.727V261.852C261.368 262.886 260.544 263.83 259.129 263.83ZM265.33 265H267.028V259.619C267.028 258.443 267.852 257.625 268.818 257.625C269.761 257.625 270.415 258.25 270.415 259.199V265H272.108V259.438C272.108 258.386 272.75 257.625 273.858 257.625C274.756 257.625 275.494 258.125 275.494 259.307V265H277.193V259.148C277.193 257.153 276.08 256.159 274.5 256.159C273.244 256.159 272.301 256.761 271.881 257.693H271.79C271.409 256.739 270.608 256.159 269.443 256.159C268.29 256.159 267.432 256.733 267.068 257.693H266.96V256.273H265.33V265ZM283.232 265.176C285.135 265.176 286.482 264.239 286.868 262.818L285.26 262.528C284.953 263.352 284.214 263.773 283.249 263.773C281.794 263.773 280.817 262.83 280.771 261.148H286.976V260.545C286.976 257.392 285.089 256.159 283.112 256.159C280.68 256.159 279.078 258.011 279.078 260.693C279.078 263.403 280.658 265.176 283.232 265.176ZM280.777 259.875C280.845 258.636 281.743 257.562 283.124 257.562C284.442 257.562 285.305 258.54 285.311 259.875H280.777Z" fill="#333333"/>
<rect x="145" y="183" width="119" height="8" rx="4" fill="#EFEFEF"/>
<rect x="145" y="277" width="119" height="8" rx="4" fill="#EFEFEF"/>
<rect x="273" y="183" width="61" height="8" rx="4" fill="#EFEFEF"/>
<rect x="273" y="277" width="61" height="8" rx="4" fill="#EFEFEF"/>
<rect x="125" y="318" width="61" height="8" rx="4" fill="#EFEFEF"/>
<line x1="89" y1="219.5" x2="360" y2="219.5" stroke="#EFEFEF"/>
<path d="M101 332C106.523 332 111 327.523 111 322C111 316.477 106.523 312 101 312C95.4772 312 91 316.477 91 322C91 327.523 95.4772 332 101 332Z" stroke="#1A71FF" stroke-width="2" stroke-linecap="round" stroke-linejoin="round"/>
<path d="M101 318V326" stroke="#1A71FF" stroke-width="2" stroke-linecap="round" stroke-linejoin="round"/>
<path d="M97 322H105" stroke="#1A71FF" stroke-width="2" stroke-linecap="round" stroke-linejoin="round"/>
</svg>
