<svg width="172" height="49" viewBox="0 0 172 49" fill="none" xmlns="http://www.w3.org/2000/svg">
<path d="M47.9511 33.1926C39.155 33.1926 30.4886 33.1926 21.8223 33.1926C21.4977 35.3024 23.4452 38.3535 25.8796 39.6843C29.9369 41.8914 35.0328 41.1124 38.9602 37.7043C41.1349 38.743 43.3096 39.7492 45.5168 40.7878C43.9913 46.0136 32.923 49.6165 25.6524 47.3444C20.4915 45.7215 16.6939 42.4757 14.8438 37.3473C13.0261 32.3487 13.1884 27.3501 15.6553 22.4165C14.649 22.4165 13.7402 22.4165 12.6691 22.4165C12.6691 30.8881 12.6691 39.3272 12.6691 47.8637C9.91015 47.8637 7.28104 47.8637 4.48963 47.8637C4.48963 39.3921 4.48963 30.953 4.48963 22.3516C3.06147 22.3516 1.7956 22.3516 0.399902 22.3516C0.399902 19.9821 0.399902 17.7425 0.399902 15.3082C1.69823 15.3082 2.99656 15.3082 4.42472 15.3082C4.42472 11.2833 4.42472 7.38835 4.42472 3.396C7.18366 3.396 9.81278 3.396 12.6366 3.396C12.6366 7.32344 12.6366 11.2184 12.6366 15.2432C14.292 15.2432 15.8175 15.2432 17.4729 15.2432C17.4729 17.5153 17.4729 19.69 17.4729 21.9621C18.0247 21.9621 18.4142 21.9621 18.9984 21.9621C18.9984 21.4752 19.0634 20.9883 18.9984 20.5339C18.5765 18.3592 19.8099 17.1583 21.4328 16.1196C26.0419 13.2308 31.008 13.101 36.0715 14.4642C43.2447 16.4117 47.659 22.8385 47.9511 30.3038C47.9836 31.2127 47.9511 32.089 47.9511 33.1926ZM39.512 26.6361C39.1874 23.6499 35.1302 20.5015 31.0404 20.5339C26.8209 20.5339 22.9259 23.0981 22.2767 26.6361C28.0218 26.6361 33.7669 26.6361 39.512 26.6361Z" fill="#737373" stroke="#737373" stroke-width="0.1" stroke-miterlimit="10"/>
<path d="M171 32.9655C162.074 32.9655 153.375 32.9655 144.644 32.9655C144.741 36.471 147.663 39.587 151.428 40.3336C155.063 41.0476 158.341 40.2686 161.23 37.9316C161.49 37.7044 162.009 37.4772 162.236 37.6071C164.379 38.5484 166.488 39.587 168.631 40.6257C165.287 45.2672 160.776 47.4744 155.225 47.7016C150.844 47.8963 146.754 47.0849 143.216 44.3584C139.451 41.502 137.276 37.7369 136.757 32.998C136.367 29.4276 136.659 25.9221 138.347 22.7088C141.268 17.0935 145.845 13.8152 152.304 13.4906C156.102 13.2959 159.705 13.8477 162.983 15.925C167.43 18.7813 169.864 22.871 170.611 27.9994C170.87 29.6224 170.903 31.2128 171 32.9655ZM162.626 26.4739C162.171 23.4878 158.309 20.1121 153.765 20.2419C149.578 20.3718 146.137 22.7088 145.001 26.4739C150.876 26.4739 156.686 26.4739 162.626 26.4739Z" fill="#737373" stroke="#737373" stroke-width="0.1" stroke-miterlimit="10"/>
<path d="M107.642 40.5608C103.519 46.3059 97.8392 48.0911 91.1852 47.6366C83.3304 47.0849 77.0659 41.6968 75.865 33.9717C74.6965 26.3116 77.001 19.5603 84.3366 15.3732C89.9843 12.1598 99.0726 12.7765 104.233 17.6453C108.648 21.7999 110.076 26.9608 109.784 32.9331C101.02 32.9331 92.3213 32.9331 83.6225 32.9331C83.7523 36.471 86.6411 39.6195 90.3089 40.3335C94.0091 41.0476 97.3523 40.3011 100.306 37.8667C100.533 37.672 100.988 37.5421 101.215 37.672C103.39 38.5808 105.499 39.5546 107.642 40.5608ZM84.012 26.5064C89.9194 26.5064 95.6969 26.5064 101.507 26.5064C101.215 23.6176 97.4497 20.0796 92.4836 20.2744C88.3289 20.4367 84.791 23.0333 84.012 26.5064Z" fill="#737373" stroke="#737373" stroke-width="0.1" stroke-miterlimit="10"/>
<path d="M55.0273 47.0855C52.3008 47.0855 49.7366 47.0855 46.9777 47.0855C46.9777 42.7686 46.9777 38.4517 46.9777 34.0698C47.6918 34.0373 48.3085 33.9724 49.2173 33.9075C49.0875 31.7977 49.055 29.7204 48.8278 27.6431C48.5682 25.5008 48.3409 23.2937 47.0102 21.4111C46.8803 21.2164 46.9128 20.8593 46.9128 20.5672C46.9128 18.5872 46.9128 16.6073 46.9128 14.5624C49.6717 14.5624 52.2684 14.5624 54.9949 14.5624C54.9949 15.5362 54.9949 16.4125 54.9949 17.581C55.5791 17.224 55.9686 17.0292 56.3581 16.7696C58.76 15.0168 61.2918 13.6861 64.3428 13.6861C67.8483 13.6536 70.7046 15.1791 73.0741 17.581C74.0803 18.6197 74.8593 19.9505 75.4435 21.2813C75.7357 21.898 75.5734 22.9042 75.2813 23.5858C73.6259 27.5457 73.6259 31.603 74.3075 35.7252C74.3724 36.1147 74.4698 36.5366 74.6645 36.8937C76.5796 40.107 75.3462 43.6125 75.8006 47.0531C73.0416 47.0531 70.4774 47.0531 67.686 47.0531C67.686 46.6311 67.686 46.2092 67.686 45.7872C67.686 40.5939 67.7185 35.4006 67.6536 30.2073C67.6536 28.5844 67.5562 26.9615 67.2316 25.4035C66.3228 20.5996 61.3567 20.2426 58.5004 22.1576C56.066 23.813 55.0923 26.3772 55.0273 29.1686C54.8975 34.8488 54.9624 40.529 54.9624 46.2092C55.0273 46.4364 55.0273 46.696 55.0273 47.0855Z" fill="#737373" stroke="#737373" stroke-width="0.1" stroke-miterlimit="10"/>
<path d="M109.135 33.2904C110.108 33.2904 111.017 33.2904 112.056 33.2904C112.153 30.1419 112.088 27.1233 111.05 24.2021C110.693 23.1634 110.79 22.3844 111.407 21.5081C115.01 16.3147 120.008 13.783 126.273 13.4584C130.979 13.1988 135.101 14.6269 138.834 17.2236C137.438 19.2035 136.01 21.1835 134.55 23.2608C133.835 22.9038 133.024 22.4493 132.18 22.0598C128.739 20.5019 125.266 20.4369 121.923 22.2221C117.963 24.3319 116.34 28.2269 117.152 32.836C117.834 36.7309 120.852 39.5548 124.909 40.1391C128.318 40.6259 131.434 40.0417 134.225 37.9644C134.42 37.8345 134.614 37.7372 134.647 37.7047C136.075 39.7496 137.471 41.7295 138.899 43.7419C136.465 45.3973 133.673 46.7281 130.622 47.2799C125.072 48.2861 119.781 47.5071 115.237 43.9367C112.316 41.6321 110.206 38.7109 109.2 35.0431C109.135 34.7835 109.07 34.4913 109.07 34.1992C109.07 33.972 109.102 33.6799 109.135 33.2904Z" fill="#737373" stroke="#737373" stroke-width="0.1" stroke-miterlimit="10"/>
<path d="M149.707 0.799805C151.558 3.03942 153.343 5.18166 155.225 7.45373C151.752 9.53106 148.442 11.4785 145.131 13.4585C143.768 14.27 142.404 15.1463 140.976 15.8929C140.587 16.1201 139.905 16.2174 139.548 16.0227C138.087 15.2762 136.692 14.3998 135.069 13.426C139.938 9.27139 144.774 5.08429 149.707 0.799805Z" fill="#737373" stroke="#737373" stroke-width="0.1" stroke-miterlimit="10"/>
</svg>
