<svg width="40" height="41" viewBox="0 0 40 41" fill="none" xmlns="http://www.w3.org/2000/svg">
<g clip-path="url(#clip0_2001_5348)">
<path d="M1.17276 40.4611C0.872851 40.4611 0.573021 40.3467 0.344203 40.1178C-0.113432 39.6603 -0.113432 38.9183 0.344203 38.4607L2.47458 36.3303C2.93221 35.8727 3.67413 35.8727 4.13177 36.3303C4.5894 36.7878 4.5894 37.5298 4.13177 37.9875L2.00139 40.1178C1.7725 40.3467 1.47259 40.4611 1.17276 40.4611V40.4611Z" fill="#00429D"/>
<path d="M0.365234 40.1367C0.591318 40.3523 0.881774 40.461 1.17285 40.461C1.47268 40.461 1.77267 40.3465 2.00141 40.1177L4.13178 37.9873C4.5827 37.5365 4.58833 36.81 4.15069 36.3511L0.365234 40.1367Z" fill="#00347B"/>
<path d="M0.265681 32.1262C0.437002 31.7101 0.691365 31.3204 1.02893 30.9829L1.86272 30.1491L3.44679 30.0976L3.52655 28.4852L5.17538 26.8364L6.41869 26.6669L6.81757 25.1942L8.50633 23.5055C8.50633 23.5055 10.5145 22.2392 10.9721 22.6969L17.7666 29.4914C18.2242 29.949 16.9381 31.9771 16.9381 31.9771L15.2759 33.6393L13.8087 33.8076L13.6205 35.2949L11.9749 36.9404L10.6589 36.9574L10.3044 38.6109L9.48058 39.4348C9.17098 39.7443 8.81764 39.9839 8.44016 40.1537C7.98205 40.3596 -0.258592 33.3999 0.265681 32.1262V32.1262Z" fill="#7DD5F4"/>
<path d="M14.3886 26.1133L3.89209 36.6098C5.97067 38.5166 8.2076 40.2579 8.44017 40.1534C8.81765 39.9837 9.17107 39.7441 9.48059 39.4345L10.3045 38.6106L10.6589 36.9571L11.9749 36.9401L13.6205 35.2946L13.8087 33.8073L15.276 33.639L16.9381 31.9768C16.9381 31.9768 18.2243 29.9487 17.7666 29.4912L14.3886 26.1133Z" fill="#4793FF"/>
<path d="M5.16797 26.8381L6.82492 25.1812L15.2753 33.6316L13.6184 35.2886L5.16797 26.8381Z" fill="#4793FF"/>
<path d="M10.9718 22.6967C10.5143 22.239 9.77236 22.2392 9.31465 22.6967L8.48633 23.5251L16.9381 31.9769L17.7664 31.1485C18.224 30.6909 18.224 29.9489 17.7664 29.4913L10.9718 22.6967Z" fill="#4793FF"/>
<path d="M0.349419 31.9399C-0.237743 33.1586 -0.0818121 34.6476 0.817366 35.7223L4.74117 39.6461C5.39122 40.1899 6.19267 40.4625 6.99467 40.4625C7.51839 40.4625 8.04181 40.3457 8.52319 40.1138L0.349419 31.9399Z" fill="#4793FF"/>
<path d="M1.854 30.1519L3.51096 28.4949L11.9614 36.9454L10.3045 38.6023L1.854 30.1519Z" fill="#4793FF"/>
<path d="M38.8274 27.474C38.5329 27.474 38.2382 27.3637 38.0105 27.1422C35.4292 24.6315 32.0247 23.2489 28.4239 23.2489C25.4759 23.2489 22.552 24.2211 20.1909 25.9863C19.6726 26.3739 18.9383 26.2679 18.5507 25.7494C18.1632 25.2311 18.2693 24.4968 18.7876 24.1093C21.5511 22.0432 24.9733 20.9053 28.4239 20.9053C32.6384 20.9053 36.6233 22.5236 39.6445 25.4621C40.1084 25.9133 40.1187 26.6552 39.6675 27.1191C39.4378 27.3553 39.1327 27.474 38.8274 27.474Z" fill="#CA75F5"/>
<path d="M14.3149 20.7479C14.0736 20.7479 13.8303 20.6737 13.6211 20.5196C13.0999 20.1359 12.9885 19.4023 13.3722 18.8812C14.3227 17.5904 14.8251 16.0607 14.8251 14.4576C14.8251 11.2592 12.79 8.41985 9.76107 7.39248C9.14821 7.1846 8.81986 6.51924 9.02775 5.90637C9.23571 5.29343 9.90099 4.96509 10.5139 5.17305C14.4943 6.52322 17.1687 10.2544 17.1687 14.4577C17.1687 16.5643 16.5085 18.5745 15.2594 20.2708C15.0297 20.5827 14.6747 20.7479 14.3149 20.7479Z" fill="#FDBF00"/>
<path d="M22.6303 14.8504C22.3304 14.8504 22.0305 14.7359 21.8017 14.5071C21.3441 14.0496 21.3441 13.3076 21.8017 12.8499C22.9185 11.7331 24.4566 11.4553 25.8137 11.2102C26.9313 11.0084 27.987 10.8178 28.5851 10.2197C29.183 9.62164 29.3738 8.56598 29.5757 7.4483C29.8207 6.09125 30.0985 4.55304 31.2154 3.43629C32.5905 2.06128 34.4083 1.61676 36.1664 1.18694C36.9659 0.991402 37.7211 0.806723 38.4037 0.542047C39.0073 0.307917 39.6859 0.607513 39.9199 1.211C40.1539 1.81441 39.8544 2.49321 39.2509 2.72718C38.426 3.04709 37.5602 3.2588 36.723 3.46348C35.2116 3.83307 33.7839 4.18212 32.8726 5.09348C32.2745 5.69158 32.0838 6.74724 31.8819 7.86492C31.6368 9.22197 31.359 10.7601 30.2423 11.8769C29.1255 12.9937 27.5874 13.2715 26.2303 13.5165C25.1127 13.7184 24.057 13.909 23.4589 14.5071C23.23 14.7359 22.9301 14.8504 22.6303 14.8504Z" fill="#FF8856"/>
<path fill-rule="evenodd" clip-rule="evenodd" d="M26.0937 4.91567C26.7391 4.91567 27.2655 4.38928 27.2655 3.74384C27.2655 3.09848 26.7391 2.57202 26.0937 2.57202C25.4483 2.57202 24.9219 3.09848 24.9219 3.74384C24.9219 4.38921 25.4483 4.91567 26.0937 4.91567Z" fill="#BEE75E"/>
<path fill-rule="evenodd" clip-rule="evenodd" d="M3.78803 17.254C4.43347 17.254 4.95986 16.7277 4.95986 16.0822C4.95986 15.4368 4.43347 14.9104 3.78803 14.9104C3.14259 14.9104 2.61621 15.4368 2.61621 16.0822C2.61621 16.7277 3.14259 17.254 3.78803 17.254Z" fill="#D98FF8"/>
<path fill-rule="evenodd" clip-rule="evenodd" d="M2.57905 4.60317C3.22449 4.60317 3.75087 4.07678 3.75087 3.43134C3.75087 2.7859 3.22441 2.25952 2.57905 2.25952C1.93361 2.25952 1.40723 2.7859 1.40723 3.43134C1.40723 4.07671 1.93361 4.60317 2.57905 4.60317Z" fill="#7DD5F4"/>
<path fill-rule="evenodd" clip-rule="evenodd" d="M28.5156 29.4457C29.161 29.4457 29.6874 28.9193 29.6874 28.2739C29.6874 27.6284 29.161 27.1021 28.5156 27.1021C27.8701 27.1021 27.3438 27.6284 27.3438 28.2739C27.3438 28.9193 27.8701 29.4457 28.5156 29.4457Z" fill="#FF8856"/>
<path fill-rule="evenodd" clip-rule="evenodd" d="M35.312 40.1483C35.9574 40.1483 36.4838 39.6219 36.4838 38.9765C36.4838 38.3311 35.9574 37.8047 35.312 37.8047C34.6665 37.8047 34.1401 38.3311 34.1401 38.9765C34.1401 39.6219 34.6665 40.1483 35.312 40.1483Z" fill="#4793FF"/>
<path fill-rule="evenodd" clip-rule="evenodd" d="M19.4536 38.8986C20.099 38.8986 20.6254 38.3722 20.6254 37.7268C20.6254 37.0813 20.0989 36.5549 19.4536 36.5549C18.8081 36.5549 18.2817 37.0813 18.2817 37.7268C18.2817 38.3721 18.8081 38.8986 19.4536 38.8986Z" fill="#FF435B"/>
<path d="M20.2816 8.07709C20.2491 8.07709 20.2166 8.07568 20.1838 8.07302C19.5388 8.01967 19.0591 7.4536 19.1125 6.80863C19.2436 5.22253 18.8529 3.60487 18.0124 2.2536C17.6706 1.70401 17.8389 0.981468 18.3885 0.639608C18.9379 0.297748 19.6605 0.466178 20.0024 1.01568C21.1069 2.79146 21.6203 4.91731 21.4481 7.00159C21.3975 7.61383 20.885 8.07709 20.2816 8.07709V8.07709Z" fill="#D98FF8"/>
<path d="M29.6754 17.5328C29.1848 17.5328 28.7276 17.2223 28.5638 16.7313C28.3592 16.1173 28.691 15.4537 29.3049 15.2489C31.7578 14.4313 34.4037 14.2167 36.9568 14.6283C37.5957 14.7314 38.0301 15.3329 37.9271 15.9718C37.8241 16.6107 37.2227 17.0456 36.5836 16.942C34.4024 16.5901 32.1418 16.7736 30.0461 17.4723C29.9232 17.5133 29.7983 17.5328 29.6754 17.5328V17.5328Z" fill="#FF435B"/>
<path fill-rule="evenodd" clip-rule="evenodd" d="M20.8779 20.8075C21.5233 20.8075 22.0497 20.2811 22.0497 19.6357C22.0497 18.9903 21.5233 18.4639 20.8779 18.4639C20.2324 18.4639 19.7061 18.9902 19.7061 19.6357C19.7061 20.2811 20.2324 20.8075 20.8779 20.8075Z" fill="#7DD5F4"/>
<path fill-rule="evenodd" clip-rule="evenodd" d="M37.3427 9.05629C37.9882 9.05629 38.5145 8.52983 38.5145 7.88447C38.5145 7.23911 37.9882 6.71265 37.3427 6.71265C36.6973 6.71265 36.1709 7.23911 36.1709 7.88447C36.1709 8.52983 36.6973 9.05629 37.3427 9.05629Z" fill="#00CB75"/>
<path d="M27.1646 13.3374C28.2566 13.1044 29.3762 12.743 30.2424 11.8768C31.1085 11.0106 31.4699 9.89106 31.7029 8.79907L27.1646 13.3374Z" fill="#FF435B"/>
<path d="M39.6757 0.826172L37.1416 3.36028C37.8464 3.18528 38.5629 2.99397 39.2511 2.72702C39.8545 2.49305 40.1541 1.81417 39.9201 1.21084C39.8627 1.06327 39.7786 0.934136 39.6757 0.826172V0.826172Z" fill="#FF435B"/>
<path fill-rule="evenodd" clip-rule="evenodd" d="M21.6993 18.8022L20.0439 20.4576C20.2567 20.6732 20.5517 20.8075 20.8774 20.8075C21.5229 20.8075 22.0492 20.2811 22.0492 19.6356C22.0492 19.31 21.915 19.015 21.6993 18.8022V18.8022Z" fill="#4793FF"/>
<path d="M14.3884 26.1133L12.7314 27.7702L16.938 31.9768L17.7663 31.1484C18.2239 30.6908 18.2239 29.9488 17.7663 29.4912L14.3884 26.1133Z" fill="#525CDD"/>
<path d="M9.4126 31.083L11.0696 29.426L15.2755 33.632L13.6185 35.2889L9.4126 31.083Z" fill="#525CDD"/>
<path d="M6.09814 34.3967L7.7551 32.7398L11.961 36.9457L10.3041 38.6026L6.09814 34.3967Z" fill="#525CDD"/>
<path d="M2.79834 37.7033L4.74106 39.646C5.39111 40.1898 6.19256 40.4624 6.99456 40.4624C7.51828 40.4624 8.0417 40.3456 8.52308 40.1137L4.45553 36.0461L2.79834 37.7033Z" fill="#525CDD"/>
</g>
<defs>
<clipPath id="clip0_2001_5348">
<rect width="40" height="40" fill="white" transform="translate(0 0.462402)"/>
</clipPath>
</defs>
</svg>
