<svg width="448" height="383" viewBox="0 0 448 383" fill="none" xmlns="http://www.w3.org/2000/svg">
<rect width="448" height="383" rx="16" fill="#1A71FF"/>
<path d="M70 40C70 35.5817 73.5817 32 78 32H370C374.418 32 378 35.5817 378 40V343C378 347.418 374.418 351 370 351H78C73.5817 351 70 347.418 70 343V40Z" fill="white"/>
<rect x="89" y="216" width="270" height="48" fill="#F0F6FF"/>
<rect x="89" y="95" width="270" height="105" fill="#F0F6FF"/>
<rect x="89" y="264" width="270" height="48" fill="#F0F6FF"/>
<path d="M89.7159 63.897H93.7621V75H96.1143V63.897H100.161V61.9091H89.7159V63.897ZM101.052 75H103.366V69.228C103.366 67.9815 104.306 67.0994 105.578 67.0994C105.968 67.0994 106.453 67.1697 106.652 67.2337V65.1051C106.441 65.0668 106.076 65.0412 105.821 65.0412C104.696 65.0412 103.756 65.6804 103.398 66.8182H103.296V65.1818H101.052V75ZM110.821 75.1982C112.361 75.1982 113.282 74.4759 113.704 73.6513H113.78V75H116.005V68.429C116.005 65.8338 113.889 65.054 112.016 65.054C109.952 65.054 108.366 65.9744 107.855 67.7642L110.015 68.071C110.246 67.3999 110.898 66.8246 112.029 66.8246C113.103 66.8246 113.691 67.3743 113.691 68.3395V68.3778C113.691 69.0426 112.994 69.0746 111.262 69.2599C109.357 69.4645 107.535 70.0334 107.535 72.245C107.535 74.1754 108.948 75.1982 110.821 75.1982ZM111.422 73.4979C110.456 73.4979 109.766 73.0568 109.766 72.2067C109.766 71.3182 110.54 70.9474 111.575 70.8004C112.182 70.7173 113.397 70.5639 113.697 70.321V71.478C113.697 72.571 112.815 73.4979 111.422 73.4979ZM120.645 69.2472C120.645 67.8281 121.502 67.0099 122.723 67.0099C123.918 67.0099 124.634 67.7962 124.634 69.1065V75H126.948V68.7486C126.954 66.3963 125.612 65.054 123.586 65.054C122.116 65.054 121.106 65.7571 120.658 66.8501H120.543V65.1818H118.331V75H120.645V69.2472ZM137.06 67.777C136.741 66.1151 135.411 65.054 133.11 65.054C130.745 65.054 129.134 66.2173 129.14 68.0327C129.134 69.4645 130.016 70.4105 131.902 70.8004L133.577 71.152C134.478 71.3501 134.9 71.7145 134.9 72.2706C134.9 72.9418 134.171 73.4467 133.072 73.4467C132.01 73.4467 131.32 72.9865 131.122 72.1044L128.866 72.3217C129.153 74.1243 130.668 75.1918 133.078 75.1918C135.532 75.1918 137.265 73.9197 137.271 72.0597C137.265 70.6598 136.363 69.8033 134.51 69.4006L132.835 69.0426C131.838 68.8189 131.442 68.4737 131.448 67.9048C131.442 67.2401 132.177 66.7798 133.142 66.7798C134.209 66.7798 134.772 67.3615 134.951 68.0071L137.06 67.777ZM142.004 75.1982C143.545 75.1982 144.465 74.4759 144.887 73.6513H144.964V75H147.188V68.429C147.188 65.8338 145.073 65.054 143.2 65.054C141.135 65.054 139.55 65.9744 139.039 67.7642L141.199 68.071C141.429 67.3999 142.081 66.8246 143.213 66.8246C144.286 66.8246 144.874 67.3743 144.874 68.3395V68.3778C144.874 69.0426 144.178 69.0746 142.445 69.2599C140.541 69.4645 138.719 70.0334 138.719 72.245C138.719 74.1754 140.132 75.1982 142.004 75.1982ZM142.605 73.4979C141.64 73.4979 140.95 73.0568 140.95 72.2067C140.95 71.3182 141.723 70.9474 142.759 70.8004C143.366 70.7173 144.58 70.5639 144.881 70.321V71.478C144.881 72.571 143.999 73.4979 142.605 73.4979ZM153.798 75.1918C156.265 75.1918 157.838 73.728 158.004 71.6442H155.792C155.594 72.6989 154.833 73.3061 153.817 73.3061C152.372 73.3061 151.439 72.098 151.439 70.0909C151.439 68.1094 152.392 66.9205 153.817 66.9205C154.929 66.9205 155.613 67.6364 155.792 68.5824H158.004C157.844 66.4538 156.182 65.054 153.785 65.054C150.909 65.054 149.093 67.1314 149.093 70.1293C149.093 73.1016 150.864 75.1918 153.798 75.1918ZM164.806 65.1818H162.87V62.8295H160.556V65.1818H159.162V66.9716H160.556V72.4304C160.543 74.2777 161.885 75.1854 163.624 75.1342C164.282 75.1151 164.736 74.9872 164.985 74.9041L164.596 73.0952C164.468 73.1271 164.206 73.1847 163.918 73.1847C163.336 73.1847 162.87 72.9801 162.87 72.0469V66.9716H164.806V65.1818ZM166.742 75H169.056V65.1818H166.742V75ZM167.905 63.7884C168.64 63.7884 169.241 63.2259 169.241 62.5355C169.241 61.8388 168.64 61.2763 167.905 61.2763C167.164 61.2763 166.563 61.8388 166.563 62.5355C166.563 63.2259 167.164 63.7884 167.905 63.7884ZM175.718 75.1918C178.594 75.1918 180.422 73.1655 180.422 70.1293C180.422 67.0866 178.594 65.054 175.718 65.054C172.841 65.054 171.013 67.0866 171.013 70.1293C171.013 73.1655 172.841 75.1918 175.718 75.1918ZM175.73 73.3381C174.139 73.3381 173.359 71.919 173.359 70.1229C173.359 68.3267 174.139 66.8885 175.73 66.8885C177.297 66.8885 178.076 68.3267 178.076 70.1229C178.076 71.919 177.297 73.3381 175.73 73.3381ZM184.7 69.2472C184.7 67.8281 185.557 67.0099 186.778 67.0099C187.973 67.0099 188.689 67.7962 188.689 69.1065V75H191.003V68.7486C191.009 66.3963 189.667 65.054 187.64 65.054C186.17 65.054 185.16 65.7571 184.713 66.8501H184.598V65.1818H182.386V75H184.7V69.2472ZM201.115 67.777C200.795 66.1151 199.466 65.054 197.165 65.054C194.8 65.054 193.189 66.2173 193.195 68.0327C193.189 69.4645 194.071 70.4105 195.956 70.8004L197.631 71.152C198.532 71.3501 198.954 71.7145 198.954 72.2706C198.954 72.9418 198.226 73.4467 197.126 73.4467C196.065 73.4467 195.375 72.9865 195.177 72.1044L192.92 72.3217C193.208 74.1243 194.723 75.1918 197.133 75.1918C199.587 75.1918 201.319 73.9197 201.326 72.0597C201.319 70.6598 200.418 69.8033 198.564 69.4006L196.89 69.0426C195.893 68.8189 195.496 68.4737 195.503 67.9048C195.496 67.2401 196.231 66.7798 197.197 66.7798C198.264 66.7798 198.827 67.3615 199.006 68.0071L201.115 67.777Z" fill="black"/>
<rect x="211" y="57" width="24" height="24" rx="2" fill="#1A71FF"/>
<path d="M216.776 73H222.759V71.679H218.957V71.6193L220.462 70.0895C222.158 68.4616 222.626 67.669 222.626 66.6847C222.626 65.223 221.438 64.1534 219.682 64.1534C217.952 64.1534 216.724 65.2273 216.724 66.8849H218.229C218.229 65.9943 218.791 65.4361 219.661 65.4361C220.491 65.4361 221.109 65.9432 221.109 66.7656C221.109 67.4943 220.666 68.0142 219.805 68.8878L216.776 71.858V73ZM227.778 64.2727H226.274L224.105 65.6662V67.1151L226.146 65.8111H226.197V73H227.778V64.2727Z" fill="white"/>
<path d="M182.289 145.844H181.016V140H177.648V145.844H174.609L170.602 140H167.633V145.844H166.352V147.406H167.633V149.219H166.352V150.781H167.633V156H171.016V150.781H174.484L178.094 156H181.016V150.781H182.289V149.219H181.016V147.406H182.289V145.844ZM172.156 147.406L173.406 149.219H171.016V147.406H172.156ZM177.648 147.406V149.219H176.93L175.688 147.406H177.648ZM194.883 156.219C198.445 156.219 200.867 153.898 200.859 150.664C200.867 147.602 198.727 145.398 195.844 145.398C194.438 145.398 193.227 145.984 192.664 146.773H192.57L192.984 142.766H199.977V140H190.195L189.438 148.438L192.445 148.977C192.938 148.312 193.891 147.898 194.836 147.898C196.445 147.906 197.602 149.07 197.602 150.75C197.602 152.414 196.469 153.562 194.883 153.562C193.539 153.562 192.453 152.719 192.375 151.477H189.094C189.156 154.242 191.57 156.219 194.883 156.219ZM209.133 156.219C212.727 156.219 215.297 154.242 215.289 151.508C215.297 149.516 214.031 148.094 211.68 147.797V147.672C213.469 147.352 214.703 146.086 214.695 144.289C214.703 141.766 212.492 139.781 209.18 139.781C205.898 139.781 203.43 141.703 203.383 144.469H206.625C206.664 143.25 207.781 142.461 209.164 142.461C210.531 142.461 211.445 143.289 211.438 144.492C211.445 145.75 210.375 146.602 208.836 146.602H207.344V149.086H208.836C210.648 149.086 211.781 149.992 211.773 151.281C211.781 152.555 210.688 153.43 209.141 153.43C207.648 153.43 206.531 152.648 206.469 151.477H203.063C203.117 154.273 205.617 156.219 209.133 156.219ZM217.721 156H229.127V153.234H222.408V153.125L224.744 150.836C228.033 147.836 228.916 146.336 228.916 144.516C228.916 141.742 226.65 139.781 223.221 139.781C219.861 139.781 217.557 141.789 217.564 144.93H220.775C220.768 143.398 221.736 142.461 223.197 142.461C224.604 142.461 225.65 143.336 225.65 144.742C225.65 146.016 224.869 146.891 223.416 148.289L217.721 153.562V156ZM235.227 153.812H232.477L232.438 154.687C232.344 156.813 231.734 158.992 231.508 159.906H233.664C234.039 158.961 234.93 156.742 235.141 154.672L235.227 153.812ZM243.846 156.352C247.869 156.352 250.299 153.289 250.307 148.016C250.314 142.781 247.854 139.781 243.846 139.781C239.83 139.781 237.393 142.773 237.385 148.016C237.369 153.273 239.814 156.344 243.846 156.352ZM243.846 153.547C242.01 153.547 240.822 151.703 240.83 148.016C240.838 144.383 242.018 142.555 243.846 142.555C245.666 142.555 246.854 144.383 246.854 148.016C246.861 151.703 245.674 153.547 243.846 153.547ZM258.992 156.352C263.016 156.352 265.445 153.289 265.453 148.016C265.461 142.781 263 139.781 258.992 139.781C254.977 139.781 252.539 142.773 252.531 148.016C252.516 153.273 254.961 156.344 258.992 156.352ZM258.992 153.547C257.156 153.547 255.969 151.703 255.977 148.016C255.984 144.383 257.164 142.555 258.992 142.555C260.813 142.555 262 144.383 262 148.016C262.008 151.703 260.82 153.547 258.992 153.547ZM274.139 156.352C278.162 156.352 280.592 153.289 280.6 148.016C280.607 142.781 278.146 139.781 274.139 139.781C270.123 139.781 267.686 142.773 267.678 148.016C267.662 153.273 270.107 156.344 274.139 156.352ZM274.139 153.547C272.303 153.547 271.115 151.703 271.123 148.016C271.131 144.383 272.311 142.555 274.139 142.555C275.959 142.555 277.146 144.383 277.146 148.016C277.154 151.703 275.967 153.547 274.139 153.547Z" fill="#002766"/>
<path d="M116.43 240.537H115.466V236.818H113.945V240.537H111.245L108.67 236.818H107.248V240.537H106.288V241.531H107.248V242.685H106.288V243.679H107.248V247H108.784V243.679H111.752L114.054 247H115.466V243.679H116.43V242.685H115.466V241.531H116.43V240.537ZM110.266 241.531L111.061 242.685H108.784V241.531H110.266ZM113.945 241.531V242.685H112.737L111.936 241.531H113.945ZM108.784 240.537V239.533H108.879L109.575 240.537H108.784ZM113.423 243.679H113.945V244.295H113.85L113.423 243.679ZM125.266 236.818H123.77L121.229 238.479V239.95L123.665 238.359H123.725V247H125.266V236.818ZM131.565 247.169C133.917 247.169 135.294 245.25 135.294 241.914C135.294 238.603 133.897 236.679 131.565 236.679C129.229 236.679 127.836 238.598 127.831 241.914C127.831 245.245 129.209 247.164 131.565 247.169ZM131.565 245.842C130.188 245.842 129.358 244.46 129.358 241.914C129.363 239.379 130.193 237.982 131.565 237.982C132.932 237.982 133.768 239.379 133.768 241.914C133.768 244.46 132.937 245.842 131.565 245.842ZM138.629 245.608H137.197L137.147 246.165C137.033 247.512 136.714 248.869 136.58 249.486H137.634C137.873 248.835 138.4 247.343 138.554 246.15L138.629 245.608ZM143.87 247.169C146.221 247.169 147.599 245.25 147.599 241.914C147.599 238.603 146.202 236.679 143.87 236.679C141.533 236.679 140.141 238.598 140.136 241.914C140.136 245.245 141.513 247.164 143.87 247.169ZM143.87 245.842C142.493 245.842 141.662 244.46 141.662 241.914C141.667 239.379 142.498 237.982 143.87 237.982C145.237 237.982 146.072 239.379 146.072 241.914C146.072 244.46 145.242 245.842 143.87 245.842ZM152.907 247.169C155.259 247.169 156.636 245.25 156.636 241.914C156.636 238.603 155.239 236.679 152.907 236.679C150.57 236.679 149.178 238.598 149.173 241.914C149.173 245.245 150.55 247.164 152.907 247.169ZM152.907 245.842C151.53 245.842 150.7 244.46 150.7 241.914C150.705 239.379 151.535 237.982 152.907 237.982C154.274 237.982 155.109 239.379 155.109 241.914C155.109 244.46 154.279 245.842 152.907 245.842ZM161.944 247.169C164.296 247.169 165.673 245.25 165.673 241.914C165.673 238.603 164.276 236.679 161.944 236.679C159.607 236.679 158.215 238.598 158.21 241.914C158.21 245.245 159.588 247.164 161.944 247.169ZM161.944 245.842C160.567 245.842 159.737 244.46 159.737 241.914C159.742 239.379 160.572 237.982 161.944 237.982C163.311 237.982 164.146 239.379 164.146 241.914C164.146 244.46 163.316 245.842 161.944 245.842Z" fill="#333333"/>
<path d="M283 235C283 232.791 284.791 231 287 231H339C341.209 231 343 232.791 343 235V251C343 253.209 341.209 255 339 255H287C284.791 255 283 253.209 283 251V235Z" fill="#1A71FF"/>
<path d="M313.04 242.636C313.04 239.845 311.369 238.153 309.111 238.153C306.844 238.153 305.178 239.845 305.178 242.636C305.178 245.423 306.844 247.119 309.111 247.119C309.673 247.119 310.197 247.017 310.666 246.817L311.412 247.784H312.759L311.582 246.25C312.486 245.487 313.04 244.243 313.04 242.636ZM308.668 244.17L309.908 245.798C309.661 245.879 309.392 245.918 309.111 245.918C307.607 245.918 306.486 244.763 306.486 242.636C306.486 240.51 307.607 239.355 309.111 239.355C310.611 239.355 311.736 240.51 311.736 242.636C311.736 243.83 311.382 244.72 310.803 245.266L309.963 244.17H308.668ZM314.681 247H315.998V243.697H317.788C317.818 243.697 317.843 243.697 317.873 243.697L319.646 247H321.146L319.211 243.467C320.281 243.071 320.814 242.18 320.814 241.009C320.814 239.402 319.816 238.273 317.792 238.273H314.681V247ZM315.998 242.564V239.402H317.652C318.951 239.402 319.488 240.02 319.488 241.009C319.488 241.993 318.951 242.564 317.669 242.564H315.998Z" fill="white"/>
<path d="M115.43 286.537H114.466V282.818H112.945V286.537H110.245L107.67 282.818H106.248V286.537H105.288V287.531H106.248V288.685H105.288V289.679H106.248V293H107.784V289.679H110.752L113.054 293H114.466V289.679H115.43V288.685H114.466V287.531H115.43V286.537ZM109.266 287.531L110.061 288.685H107.784V287.531H109.266ZM112.945 287.531V288.685H111.737L110.936 287.531H112.945ZM107.784 286.537V285.533H107.879L108.575 286.537H107.784ZM112.423 289.679H112.945V290.295H112.85L112.423 289.679ZM120.403 293H127.105V291.683H122.521V291.608L124.545 289.49C126.409 287.606 126.941 286.706 126.941 285.567C126.941 283.932 125.608 282.679 123.689 282.679C121.785 282.679 120.393 283.912 120.393 285.771H121.86C121.855 284.678 122.561 283.962 123.66 283.962C124.694 283.962 125.479 284.598 125.479 285.612C125.479 286.512 124.942 287.158 123.849 288.317L120.403 291.886V293ZM132.534 293.169C134.885 293.169 136.263 291.25 136.263 287.914C136.263 284.603 134.866 282.679 132.534 282.679C130.197 282.679 128.805 284.598 128.8 287.914C128.8 291.245 130.177 293.164 132.534 293.169ZM132.534 291.842C131.157 291.842 130.327 290.46 130.327 287.914C130.331 285.379 131.162 283.982 132.534 283.982C133.901 283.982 134.736 285.379 134.736 287.914C134.736 290.46 133.906 291.842 132.534 291.842ZM139.597 291.608H138.165L138.116 292.165C138.001 293.512 137.683 294.869 137.549 295.486H138.603C138.842 294.835 139.369 293.343 139.523 292.15L139.597 291.608ZM144.839 293.169C147.19 293.169 148.567 291.25 148.567 287.914C148.567 284.603 147.17 282.679 144.839 282.679C142.502 282.679 141.11 284.598 141.105 287.914C141.105 291.245 142.482 293.164 144.839 293.169ZM144.839 291.842C143.461 291.842 142.631 290.46 142.631 287.914C142.636 285.379 143.466 283.982 144.839 283.982C146.206 283.982 147.041 285.379 147.041 287.914C147.041 290.46 146.211 291.842 144.839 291.842ZM153.876 293.169C156.227 293.169 157.604 291.25 157.604 287.914C157.604 284.603 156.207 282.679 153.876 282.679C151.539 282.679 150.147 284.598 150.142 287.914C150.142 291.245 151.519 293.164 153.876 293.169ZM153.876 291.842C152.499 291.842 151.668 290.46 151.668 287.914C151.673 285.379 152.504 283.982 153.876 283.982C155.243 283.982 156.078 285.379 156.078 287.914C156.078 290.46 155.248 291.842 153.876 291.842ZM162.913 293.169C165.264 293.169 166.642 291.25 166.642 287.914C166.642 284.603 165.244 282.679 162.913 282.679C160.576 282.679 159.184 284.598 159.179 287.914C159.179 291.245 160.556 293.164 162.913 293.169ZM162.913 291.842C161.536 291.842 160.705 290.46 160.705 287.914C160.71 285.379 161.541 283.982 162.913 283.982C164.28 283.982 165.115 285.379 165.115 287.914C165.115 290.46 164.285 291.842 162.913 291.842Z" fill="#333333"/>
<path d="M283 281C283 278.791 284.791 277 287 277H339C341.209 277 343 278.791 343 281V297C343 299.209 341.209 301 339 301H287C284.791 301 283 299.209 283 297V281Z" fill="#1A71FF"/>
<path d="M299.459 293H302.804C304.832 293 305.749 291.99 305.749 290.652C305.749 289.301 304.803 288.538 303.938 288.491V288.406C304.739 288.202 305.408 287.656 305.408 286.565C305.408 285.274 304.513 284.273 302.655 284.273H299.459V293ZM300.776 291.871V289.075H302.723C303.78 289.075 304.44 289.757 304.44 290.588C304.44 291.321 303.942 291.871 302.676 291.871H300.776ZM300.776 288.048V285.393H302.574C303.618 285.393 304.116 285.943 304.116 286.668C304.116 287.511 303.426 288.048 302.54 288.048H300.776ZM309.113 293.145C310.195 293.145 310.805 292.595 311.048 292.105H311.099V293H312.343V288.653C312.343 286.749 310.843 286.369 309.803 286.369C308.619 286.369 307.528 286.847 307.102 288.04L308.299 288.312C308.487 287.848 308.964 287.401 309.82 287.401C310.643 287.401 311.065 287.831 311.065 288.572V288.602C311.065 289.067 310.587 289.058 309.411 289.195C308.171 289.339 306.901 289.663 306.901 291.151C306.901 292.438 307.869 293.145 309.113 293.145ZM309.39 292.122C308.67 292.122 308.15 291.798 308.15 291.168C308.15 290.486 308.755 290.243 309.492 290.145C309.906 290.089 310.886 289.979 311.069 289.795V290.639C311.069 291.415 310.451 292.122 309.39 292.122ZM315.314 289.114C315.314 288.07 315.953 287.473 316.84 287.473C317.705 287.473 318.229 288.04 318.229 288.99V293H319.503V288.837C319.503 287.217 318.613 286.369 317.275 286.369C316.29 286.369 315.647 286.825 315.344 287.52H315.263V286.455H314.04V293H315.314V289.114ZM321.212 293H322.486V290.678L323.121 290.043L325.346 293H326.909L324.08 289.263L326.73 286.455H325.205L322.597 289.224H322.486V284.273H321.212V293Z" fill="white"/>
<rect x="113" y="322" width="153" height="8" rx="4" fill="#EFEFEF"/>
<rect x="274" y="322" width="61" height="8" rx="4" fill="#EFEFEF"/>
</svg>
